<?xml version="1.0" encoding="UTF-8"?>
<svg version="1.1" viewBox="0 0 2048 2048" width="1280" height="1280" xmlns="http://www.w3.org/2000/svg">
<path transform="translate(707,633)" d="m0 0h541l27 1 1 433-2 31-4 15-8 11-9 10-10 7-15 7-8 2-9 1-36 1-12 2v147l-2 17-6 11-9 12-8 8-12 6-17 4h-19l-18-4-10-5-7-6-10-17-7-13-1-6-1-146-1-10h-112v46l-1 103-2 18-5 10-8 10-10 10-11 7-10 4-5 1h-18l-16-4-12-5-8-7-6-7-8-16-4-10-1-5-1-30-1-123-7-1-41-1-17-2-12-6-11-9-10-9-7-10-3-10-2-16-1-35v-420l2-1zm268 12-8 7-9 14-7 4-5 2h-8l-10-4-4-5-5-13-5-3-14 2-10 4-10 5-11 4-5 3-2 6-1 16-3 8-7 5-8 2-7-1-14-6h-9l-6 4-15 15-4 8-2 10 3 7 6 8 1 3v7l-4 10-3 3-15 3-13 2-8 6-3 3-4 15-1 8v13l4 6 8 7 9 4 4 5 4 11-3 7-7 8-11 7-3 4-2 9 1 9 3 9 6 7 4 2h12l10 3 5 4 4 8-1 9-7 13-1 4v8l3 8 16 15 11 7 8-1 16-6 11-1 8 3 6 7 2 5v9l-3 10 2 9 10 5 24 7h15l5-4 10-17 5-5 5-2 6 1 12 9 5 6 1 8-3 6-2 6v10l7 11 2 5 4 4 12 3 5-2 1-1 7 1 2 4-2 14 4 10 7 8 10 5 3 1h11l6-4 4-3h7l5 6 6 11 8 5 10 1 7-2 9-4 4-4 5-10 4-2 6 1 5 4 11 4 11-1 12-4 8-6 2-4v-22l18 1 8-3 11-11 3-8 1-11-4-7-3-6 2-6 1-2 12-2 6-5 2-6v-33l-7-8-6-4-11-2-1-7 4-8 5-6v-8l-8-14-9-8-5-3h-9l-9 3-2-8 1-1v-8l-3-9-4-5-2-9-3-6-9-8-3-1-1-2h-2l-2-4-3-5 1-10 5-10 9-4 7-6 4-7 1-10-6-27-5-13-7-8-8-4h-15l-10-2-6-4-6-10 1-6 6-11 4-7v-7l-4-10-8-9-16-8-5-1h-7l-10 4-9 5h-7l-8-6-5-5-2-6-1-16-8-7-11-4-18-4z" fill="#9DBD48"/>
<path transform="translate(793,294)" d="m0 0 5 2 9 11 10 14 9 14 7 11 11 14 8 10 5 2 29-8 39-7 31-4h46l25 3 33 5 38 11 9 1 7-9 24-36 6-7 9-16 6-9 5-2 8 1 5 3 1 7-7 14-11 13-11 16-15 20-5 10 1 5 10 8 27 18 16 10 12 13 13 8 9 7 8 10 12 17 10 14 9 17 8 20 6 23 4 21 1 11-4 4-12 4-36 1h-151l-108-1h-247l-24-1-7-2-1-1v-12l4-20 8-27 6-16 9-20 10-15 13-17 11-12 12-11 13-11 17-12 12-9 14-7 18-12-1-6-11-15-8-11-7-9-9-16-14-21 1-5 8-5zm53 150-13 5-9 8-4 8-1 5v12l4 11 9 9 11 5 4 1h12l11-4 8-7 6-9 1-3v-10l-2-12-5-7-10-7-9-4-4-1zm258-1-9 2-11 7-6 7-4 10v14l6 12 7 7 8 4 10 3h10l9-4 7-8 5-8 3-8v-11l-5-14-5-6-10-5-12-2z" fill="#9DBD48"/>
<path transform="translate(981,661)" d="m0 0 6 3 10 2 5 5 7 18 6 7 9 6 15 2 15-1 9-3h5l12 9 5 6v8l-5 14v10l4 11 6 9 10 6 8 3 20 1 3 3 6 20 2 10-1 6-12 14-7 10-5 11 1 10 6 14 12 11 4 9 9 15 4 15 7 9 5 3 11-1 4 3v2l4 2 2 3v6l-3 4-1 8 2 13 4 8 6 5 9 4 1 5v18l-5 3-6 2-6 5-5 10-2 10 3 7 3 4 1 8-6 7-4 1-8-2-11 4-4 2-4 10-3 18-9 4-3 2-5-1-5-4-10-2h-11l-12 6-13 13-5-5-7-11-3-3-18-6h-9l-5 5-4 2-11-4-3-4 2-2 1-5-2-8-6-9-7-5-5-2-14-2-4-3-1-14 3-7-1-7-5-12-7-8-10-6-8-2-10 1-16 6-9 7-8 8-1-2-10-4-9-2-2-1-3-16-8-17-7-8-8-4-12-1-12 2-10 4-4 3-3-1-2-5-7-8-3-6v-7l4-13v-12l-3-12-5-8-9-8-15-10-8-2 3-2 8-3 6-10 4-15v-12l-5-14-7-8-14-7-1-2v-7l5-18 21-5 13-7 6-10 3-9v-15l-3-9-3-5-1-5 4-8 6-5 5-2h7l9 3 6 1h10l11-4 8-7 8-14 1-3v-15l4-3 20-5 5 1 10 11 12 7 3 1h17l10-3 10-6 8-8zm-53 118-11 4-6 4-2 4-8 6-6 7-4 8-3 15-1 10v20l4 15 6 11 5 6 13 9 13 5 14 3h19l12-3 12-6 12-9 8-9 4-9 5-22v-9l-8-24-6-11-9-11-14-8-15-4-17-2zm-153 109m320 85-12 6-11 10-3 3-4-1-4-6-3-1h-10l-6 5-1 3v21l4 10 7 9 7 7 9 4 4 1h13l12-3 10-6 5-4 8-11 3-10v-11l-2-13-3-6-7-6-3-1z" fill="#ACAFAF"/>
<path transform="translate(1155,239)" d="m0 0h16l14 2 9 4 9 6 13 11 6 7 6 11 4 11 1 6v18l-4 11-9 16-15 23 5 4 15 13 8 7 14 12 7 7 9 11 11 13 12 17 9 14 11 18 5 12 9 26 7 27 6 25 1 12-1 3 32-6 8-1h23l28 6 14 5 19 14 19 19 10 15 8 16 3 9 2 15 1 15 1 64v162l-1 36-3 28-4 17-8 17-7 10-12 14-13 11-14 9-19 7-19 5h-28l-16-3-21-6-2 4-2 11-1 16-1 14-4 14-10 21-7 11-9 10-8 7-10 9-10 7-12 7-25 10-16 5-1 102-4 18-6 18-9 16-12 14-4 5-12 9-15 9-14 7-15 4-17 2h-26l-18-3-16-7-14-8-12-9-10-9-11-14-9-16-6-14-4-12-4-2-4 2-2 5-3 14-7 14-10 13-11 14-10 9-18 11-16 8-9 2-23 2h-14l-20-2-15-5-18-8-12-8-10-9-10-10-9-12-6-12-8-25-2-12-1-15v-89l-7-1-28-8-16-8-14-10-14-12-10-8-5-6-12-29-6-25-4-35v-2l-21 7-20 3h-22l-15-3-24-9-13-7-9-7-10-9-9-9-7-11-7-14-5-17-3-19-2-34v-158l1-26 1-66 2-17 4-16 8-15 14-18 20-20 8-5 16-6 20-6 16-2h15l16 2 15 5 12 5v-8l5-29 8-34 7-24 7-16 14-22 15-24 6-8 11-12 10-10 11-9 8-8 8-7 10-9 6-4-1-5-9-16-8-13-6-12-2-6-1-12 3-17 8-16 9-11 15-14 12-4 9-1h21l10 2 12 6 13 12 9 11 10 14 10 15 7 8 2 1 16-1 33-4 26-4 17-1h25l27 2 21 3 26 4 14 1 8-4 8-14 14-19 7-8 8-8 11-9 10-6zm-366 12-14 5-13 7-5 5-6 9-9 19-2 12 2 10 7 14 14 19 9 14-1 5-11 9-14 10-10 8-10 9-9 9-3 2v2h-2l-7 8-10 11-12 16-9 15-10 19-14 38-4 16-3 21-2 33-2 13-3 1-17-11-13-5-17-3h-26l-15 3-16 6-14 8-10 8-6 5-9 11-12 21-5 11-3 16-1 13v264l3 25 4 13 12 23 7 10 4 5 13 9 12 7 22 10 15 2h32l17-4 25-13 3-1 1 47 2 17 4 18 5 10 8 10 8 12 4 5 8 7 13 9 15 7 16 4 27 5h2v100l1 14 5 20 7 19 7 14 7 9 11 9 14 10 12 6 26 6 7 2h17l22-4 11-4 15-10 13-9 12-11 10-12 7-14 6-20 2-16 1-109h27v103l2 25 5 14 10 18 12 16 8 9 11 8 8 5 16 6 21 4 14 1 24-4 16-3 12-5 11-8 13-12 8-8 7-11 8-19 6-17 1-47 1-75 21-3 18-4 19-10 17-12 6-5 9-11 9-16 7-15 4-14 2-14v-30l2-15 12 5 13 6 15 1 14 5 5 1h13l16-4 24-11 15-9 10-8 11-11 7-11 5-12 4-20 2-21 1-36v-132l-1-97-3-27-5-12-10-19-8-9-14-11-10-8-14-6-19-6-14-3h-21l-19 5-15 6-15 7 1-21v-17l-3-12-13-44-9-25-12-20-13-19-10-14-22-24-12-13-14-12-18-13-8-6 1-5 12-17 13-19 5-13v-15l-4-12-6-9-9-9-15-11-10-5-10-1-12 3-14 7-10 10-7 8-7 7-12 19-7 11-7 6-16-1-50-8-27-3h-33l-28 3-55 9h-8l-8-7-7-10-11-17-7-9-8-8-12-9-10-7-8-4-4-1z" fill="#ACB980"/>
<path transform="translate(571,634)" d="m0 0h19l13 5 11 6 10 9 10 15 3 6 1 9 1 98v166l-1 22-4 13-7 11-9 10-9 8-10 5-9 2h-23l-17-5-11-8-13-13-6-9-3-10-2-17-1-18v-228l1-31 2-9 8-10 13-13 10-7 14-5z" fill="#9DBD48"/>
<path transform="translate(1383,633)" d="m0 0h10l9 3 27 15 5 7 5 9 4 6 1 3 1 38v218l-2 34-3 15-7 14-7 8-14 9-15 5-10 2h-15l-15-4-11-7-7-6-9-14-7-14-1-4-1-22v-194l1-78 3-7 9-12 11-12 9-6 13-4z" fill="#9DBD48"/>
<path transform="translate(941,710)" d="m0 0h19l23 4 21 7 17 8 12 8 9 7 10 9 18 22 9 17 7 19 4 26 1 15-1 14-3 10 3 7 5 3 4 3 4 10 4 3 7-1 3-3h2v-2l2-1h8l-4 7-13 7-6 1-11-4-7-6-2-9-3-3h-16l-3 4-4 12-2 3h-3v3l-7 1h-14l-8-7-2-3h-4v2l-7 5h-2l-1 3-2 1 1 7 4 2-5 15 2 1-14 7h-8l-3-2v-2h-6v2l-4 2-4 10 3 7 6 7 3 7v3l-9 2h-12l-4 1-23-1-23-4-15-5-18-10-17-12-10-8-8-7-9-13-6-12-10-19-5-16-3-18v-17l4-25 6-22 8-14 6-9 2-4 5-5 3-5h2v-2h3l1-4 7-5h2l2-4 10-7 3-3 17-8 19-6 25-5zm-13 69-11 4-6 4-2 4-8 6-6 7-4 8-3 15-1 10v20l4 15 6 11 5 6 13 9 13 5 14 3h19l12-3 12-6 12-9 8-9 4-9 5-22v-9l-8-24-6-11-9-11-14-8-15-4-17-2z" fill="#888C8F"/>
<path transform="translate(1079,921)" d="m0 0 20 1 14 4 17 8 11 8 10 11 9 14 6 17 3 19v13l-4 22-3 6-8 11h-2l-1 4-3 5-9 7-3 5-3 3-6-1-12 7-11 5-6 1h-16l-21-2-11-3-11-6-12-7-3-2v-2l-5-2-7-8-6-10-7-15-2-11-1-16 2-26 6-14 8-13 12-13 14-9 13-5 17-4 1-1zm16 52-12 6-11 10-3 3-4-1-4-6-3-1h-10l-6 5-1 3v21l4 10 7 9 7 7 9 4 4 1h13l12-3 10-6 5-4 8-11 3-10v-11l-2-13-3-6-7-6-3-1z" fill="#888C8F"/>
<path transform="translate(1315,1434)" d="m0 0 23 3 16 4 11 7 16 13 10 9 8 9 8 15 5 15 1 5v29l-2 13-5 13-7 11-8 10-13 13-14 10-16 8-17 5-5 1h-22l-15-4-16-6-9-6-11-8-13-13-12-17-5-11-3-11-1-10v-19l3-17 4-12 10-19 8-10 10-9 16-10 12-5 20-4zm-11 37-12 3-13 7-12 11-8 14-3 11-1 13 2 14 4 12 6 9 10 10 17 9 19 5 10-1 17-4 15-8 9-9 7-12 7-21v-8l-4-15-6-13-8-11-11-8-14-6-9-2z" fill="#696868"/>
<path transform="translate(495,1442)" d="m0 0 3 1-1 18v166l-1 1-34-1-1-150h-62l-32 1-12 5-9 6-7 6-8 11-4 8-2 7v25l4 12 9 16 13 9 13 5 15 3 45 2 1 34-1 1-41-1-15-2-16-5-16-8-14-11-9-9-10-14-6-14-4-16v-31l8-24 7-11 10-11 5-5 11-9 14-8 12-5 8-1z" fill="#696868"/>
<path transform="translate(1546,1443)" d="m0 0h81l24 1 16 4 15 8 14 11 16 17 9 17 5 15 1 8v25l-2 10-6 13-7 12-9 10-5 5-10 9-13 8-14 6-14 4-6 1h-94l-1-34 1-1h40l50-1 9-2 12-5 12-7 7-7 9-15 3-10 1-7v-11l-3-12-6-12-9-10-9-8-10-4-10-2-96-1-1-1z" fill="#686868"/>
<path transform="translate(941,710)" d="m0 0h19l23 4 21 7 17 8 12 8 9 7 10 9 18 22 9 17 7 19 4 26 1 15-1 14-3 10 3 7 5 3 4 3 4 10 4 3 7-1 3-3h2v-2l2-1h8l-4 7-13 7-6 1-11-4-7-6-2-9-3-3h-16l-3 4-4 12-2 3h-3v3l-7 1h-14l-5-4-3-5v-6l5 2 6 2h5l5-9 2-3 2-7 2-3 2-9v-9l1-5-1-2 1-10 1-3-2-9-3-7-1-7h-2l-4-13-9-14-3-4v-2h-2v-2l-5-2-5-5-11-9-7-6v-2h-2v-2l-5-2-11-5-15-3-28-2h-11l-14 3-26 9-6 2-4 3-8 3-7 4h-2v2l-9 6-1 2h-3l-1 4h-3l-4 8-3 3h-2l-2 6h-2l-1 4-4 12-3 4-3 14v13l1 4 4 13 1 11 2 6v8l4 10 4 9 1 8h-2l-1 2-5-7-4-2-10-21-4-13-3-18v-17l4-25 6-22 8-14 6-9 2-4 5-5 3-5h2v-2h3l1-4 7-5h2l2-4 10-7 3-3 17-8 19-6 25-5z" fill="#6F7578"/>
<path transform="translate(631,1437)" d="m0 0h19l14 2 15 5 12 6 11 9 8 7 11 14 7 16 4 20 1 28v83h-32l-2-1v-86l-1-25-10-21-7-8-14-9-12-5-11-2h-10l-12 3-19 8-11 10-8 14-3 7-1 6v109l-1 1-30-1-1-4v-89l1-19 5-19 7-16 8-12 5-6 13-10 19-10 15-4z" fill="#686767"/>
<path transform="translate(1013,1443)" d="m0 0h105l12 1 16 9 12 11 6 5 6 10 5 16v24l-2 10-5 10-10 13-9 9-1 2v6l7 8 7 9 5 13 3 16v10l-2 2h-30l-2-1-7-26-4-8-7-7-12-7-12-4-8-1h-40l-31-1-1-12v-20l97-1 14-4 9-6 6-10 2-8v-11l-4-10-8-7-9-4-4-1-103-1z" fill="#696969"/>
<path transform="translate(784,1443)" d="m0 0h102l12 3 12 5 17 12 13 12 8 10 8 16 4 11 2 12v19l-3 15-6 16-9 14-12 13-14 11-10 6-18 6-17 3h-88l-1-5v-30h86l20-5 12-6 10-8 7-10 5-11 3-9 1-11-5-21-7-14-8-8-14-8-14-4-95-1-1-1z" fill="#696868"/>
<path transform="translate(1087,764)" d="m0 0 7 6 11 5 3 1 20 1 3 3 6 20 2 10-1 6-12 14-7 10-5 11 1 10 6 14 12 11 4 9 9 15 4 15 7 9 5 3 11-1 4 3v2l4 2 2 3v6l-3 4-1 8 2 13 4 8 6 5 9 4 1 5v18l-5 3-6 2-6 5-5 10-2 10 3 7 3 4 1 8-6 7-4 1-8-2-11 4-4 2-4 10-3 18-9 4-3 2-5-1-5-4-10-2h-11l-12 6-13 13-5-5-7-11-3-3-18-6h-9l-5 5-4 2-11-4-3-4 2-2 1-5-2-8-6-9-7-5-5-2-14-2-4-3-1-14 3-7-1-7-5-12-5-10-1-3h-2v-2l-9-3-3-2h22l6 1 3-2 2 1 1 12-1 3-4 1-2-1 1 4-1 5h3l2 4 2 3 3 14 1 4h2l7 8 2 4 4 1 6 9 1 3 4 4 2 4 6 3 4 4 10 3 15 2 11 4v2h18l10-2 14-4 7-3 6-1 10 1 4-4 2-4 8-7 5-6 11-3 4-5 5-5 2-7 2-14 8-19 1-5v-18l-3-6v-3h-2l-5-12-2-13-1-5-2-3v-3h-2l-5-6-4-2-4-3v-2h-2l-1-3-2-1v-2l-5-2-6-6-1-4-5 1-8-1-9-3-17-2-16-2-1-1v-15h-2l-1 13-1 1-26 4-17 6-4 1-1 3h-3l1 2-5 6-3 2h-3l-1-4 5-9 2-2h-6l-4-4-2-1 1-4 10-8h2v-2l4-1 5 6 3 2v2h23v-3h3l3-9 4-9 2-2h17l4 7 1 6 6 5 11 4 8-2 11-6 3-5h-7l-5 2-4-1-1-3h-6l-1 3-1-1v-9l4-13 2-15v-23l-12-42-6-19-4-8z" fill="#BFC2C1"/>
<path transform="translate(1348,1676)" d="m0 0h12l17 1 9 12 11 13 9 12 11 11 13 17 3 1v-67h28l1 2-1 65v42l-1 1h-24l-6-2-6-9-12-14-11-13-13-18-5-5-8-2v63h-27l-1-1 1-44z" fill="#363636"/>
<path transform="translate(933,766)" d="m0 0h29l15 3 10 4 14 10 12 11 6 7 6 10 5 13 4 17v15l-4 14-8 16-6 8-12 12-14 9-14 7-10 3-7 1h-18l-14-3-15-6-11-7-10-9-8-10-5-9-4 1-4-8-3-9-2-11 1-17 4-20 4-10 9-12 8-8 14-11 14-7zm-5 13-11 4-6 4-2 4-8 6-6 7-4 8-3 15-1 10v20l4 15 6 11 5 6 13 9 13 5 14 3h19l12-3 12-6 12-9 8-9 4-9 5-22v-9l-8-24-6-11-9-11-14-8-15-4-17-2z" fill="#BEC1C0"/>
<path transform="translate(947,796)" d="m0 0 14 1 11 3 9 5 6 5 8 13 6 13 1 3v10l-3 10-7 12-8 10-8 7-10 4-6 1h-17l-15-4-8-4-11-12-8-16-3-12v-7l3-9 6-12 12-12 12-6z" fill="#9DBE49"/>
<path transform="translate(981,661)" d="m0 0 6 3 10 2 5 5 7 18 6 7 9 6 15 2 15-1 9-3h5l12 9 5 6v8l-5 14v13l-3-3v-2l-5-2-15-10-4-3v-2l-4-2-9-7v-2l-4-2-14-8-8-4-7-3h-9l-10-4-6-2-6 1-15-6-14 2h-13l-7-3-4 1-4 2-2 4-9 3-20 7-13 4-10 4-2 2h-3v2l-6 3h-2l-1 3h-2l-1 2-3 3h-2l-2 4-4 5-5 5-4 6-5 8-5 6-4 8-5 7h-2l-2 7-4 10-6 30-3 23v8l-3 1-2-12-4-10-7-8-14-7-1-2v-7l5-18 21-5 13-7 6-10 3-9v-15l-3-9-3-5-1-5 4-8 6-5 5-2h7l9 3 6 1h10l11-4 8-7 8-14 1-3v-15l4-3 20-5 5 1 10 11 12 7 3 1h17l10-3 10-6 8-8z" fill="#BFC2C1"/>
<path transform="translate(1486,1676)" d="m0 0h42l13 1 14 5 11 8 7 7 7 11 4 12 1 6v12l-3 12-5 10-9 10-8 7-11 6-10 3h-53zm38 21-7 2-4 4v60l1 2 5 1 13-1 9-4 8-7 5-7 2-6 1-12-2-11-5-8-9-8-9-4z" fill="#363636"/>
<path transform="translate(1608,1676)" d="m0 0h27l1 1-1 44 5-1 2-4 10-12 14-19 7-9h33l-2 5-13 14-7 8-10 11-8 12-1 5 12 14 7 8 13 15 13 16 1 3h-33l-5-2-9-14-12-17-8-8-9-5 1 45h-28z" fill="#363636"/>
<path transform="translate(1478,1443)" d="m0 0h17v184h-34v-183z" fill="#686868"/>
<path transform="translate(1068,923)" d="m0 0h25l14 3 15 6 16 10 4 6 5 5 7 9 8 16 3 10 1 9v19l-2 10-4 13-9 12-8 10-10 8-8 7-13 6-16 4-5 1h-18l-12-2-10-3-20-10-6-5-10-13-4-5-4-9 6 1 2 4 4 4 2 5 4 2 5 5 7 4 7 3v2l6 1 10 1 4 3v3l2 1h17l10-3 8 1 10-3 3-1v-2l10-5 10-10 10-13 2-8 2-1 2 1 2-13v-30l-1-7h-2v8l-4-1-1-7-6-11-5-8-5-4-7-2-8-4-2-5-5-2-10-3-21-1-7-2-16 2-9 3-7 4h-3v2l-7 3-6 4-5 1-2 5-2 6-5 5-3 5-1 5v33l3 12 1 3-2 1-4-6-1-8h-2l-1-16 2-26 6-14 8-13 12-13 14-9 13-5z" fill="#6F7578"/>
<path transform="translate(1073,955)" d="m0 0h17l10 2 6 3 10 9 6 5 7 11 2 5 2 12v11l-2 12-5 10-7 8-8 7-15 6-9 2-13 1-16-4-8-4-8-6-5-7-8-24v-10l3-16 4-10 6-9 9-7 13-5zm22 18-12 6-11 10-3 3-4-1-4-6-3-1h-10l-6 5-1 3v21l4 10 7 9 7 7 9 4 4 1h13l12-3 10-6 5-4 8-11 3-10v-11l-2-13-3-6-7-6-3-1z" fill="#BFC2BF"/>
<path transform="translate(790,858)" d="m0 0 2 1 1 16 5 19 3 6 2 7 1 2-1 2h2l6 8v3h2v3h2l6 9 4 5v2l6 2 4 5 2 1v2h2v2l4 2 8 9 2 1v2l4 2 5 4 26 11 17 8 26 7 7 3 17 3 3 2-1 2-10-3-10 1-16 6-9 7-8 8-1-2-10-4-9-2-2-1-3-16-8-17-7-8-8-4-12-1-12 2-10 4-4 3-3-1-2-5-7-8-3-6v-7l4-13v-12l-3-12-5-8-9-8-15-10-8-2 3-2 8-3 6-10 4-15z" fill="#BFC2C1"/>
<path transform="translate(1087,764)" d="m0 0 7 6 11 5 3 1 20 1 3 3 6 20 2 10-1 6-12 14-7 10-5 11 1 10 6 14 12 11 3 6v7l-4-3-5 10-4 5-5 3h-8l-19-4-7-3v-19l3 3 2 9 6 5 11 4 8-2 11-6 3-5h-7l-5 2-4-1-1-3h-6l-1 3-1-1v-9l4-13 2-15v-23l-12-42-6-19-4-8z" fill="#BEC2C0"/>
<path transform="translate(863,940)" d="m0 0h4v2l3-1v2h3l5 5 4 1v2h3v2l4 1v2h5v2h7l5 1 3-1v2h6v2l6-1h8v-2l5-2 4-4 6 2 4 2 2 3 8 3 16 2 7 5 2 5v3l-9 2h-12l-4 1-23-1-23-4-15-5-18-10-17-12 1-5-1-2z" fill="#6F7578"/>
<path transform="translate(1164,294)" d="m0 0 8 1 5 3 1 7-7 14-11 13-11 16-14 19h-2l-2 3h-2v3h-2v2l-2-1 2-6-6-2-2 3-2-1 6-12-1 1-7 10-4 5-2-1 11-16 9-13 9-14 6-7 9-16 6-9z" fill="#AAB87D"/>
<path transform="translate(1073,955)" d="m0 0h17l10 2 6 3 10 9 6 5 7 11 2 5 2 12v11l-2 12-5 10-7 8-8 7-15 6-9 2-13 1-16-4-8-4-8-6-5-7-8-24v-10l3-16 4-10 6-9 9-7 13-5zm6 4-4 1-9 1-7 2-10 4-5 4v3h-2v2h-2l-5 10-2 10v15l5 15h2l2 5 2 4 5 5 5 4 9 5 16 3 7-1 14-3 9-4 8-7v-3l4-1 3-4 4-10 1-3v-16l-5-16-5-8-5-3-5-5-8-5-9-3-8-1z" fill="#ADAFB0"/>
<path transform="translate(1098,987)" d="m0 0 5 1 5 14v10l-3 10-5 5-7 4-7-1h-9l-6-1-4 1-6-4-2-5-3-1-3-7 2-8 6 1 4 1 8-3 9-6 12-9z" fill="#9EBD4B"/>
<path transform="translate(988,719)" d="m0 0 8 1 16 6 10 6 9 7 17 14 8 9 1 4-4 1-8-4-17-5-12-7-2-5-6-2-10-6-1-2h-8l-12-4-7-4-1-5 9-2 6-1z" fill="#686767"/>
<path transform="translate(941,710)" d="m0 0h19l23 4 21 7 17 8 12 8 9 7 10 9 18 22 9 17 7 19 4 26 1 15-1 14-3 10 3 7 5 3 4 3 4 10 4 3 7-1 3-3h2v-2l2-1h8l-4 7-13 7-6 1-11-4-7-6-2-9-3-4 1-21v-33l-4-28-6-17-9-15-11-12-7-8-13-11-13-10-16-8-21-7-21-4-14-1-19 2-10 2-4-1z" fill="#898D90"/>
<path transform="translate(1068,923)" d="m0 0h25l5 1 1 2 11 4 3 1v2l5 1 9 6 7 7 8 12 2 5-6-1-2-5-3-1-1-4-4-2-6-5-9-5-7-2-5-1-9-1-5-1-17-2-28 3h-3v-2l-2-1 3-3 14-5z" fill="#686767"/>
<path transform="translate(1080,827)" d="m0 0h2l2 9v23l-3 4v5l2 1v19h-16l-3 4-4 12-2 3h-3v3l-7 1h-14l-5-4-3-5v-6l5 2 3 1v2l6 2 5 3 3 1 3-1v2h3l1-8-3 1 1-4 6-5 2-4h2l1-5 4-6 1-3h2l1-4 4-7v-9l2-6v-17z" fill="#686767"/>
<path transform="translate(1152,977)" d="m0 0 1 3 4 2 4 7 2 7 1 19-3 12h-2l-1 9-5 9h-2l-2 5-2 3h-2l-2 4-3 1-1 3-17 13-11 5-8 2 3-3 14-7 10-9 6-7 5-5 7-10 2-4 2-14v-30l-1-8-2-6 3 1z" fill="#686767"/>
<path transform="translate(1164,294)" d="m0 0 8 1 5 3 1 7-7 14-11 13-1 2-5 1-2-4v-15l-7 10-9 11-1-2 6-10 9-14 7-13 4-3z" fill="#9DBD4A"/>
<path transform="translate(916,717)" d="m0 0 3 1-1 2-2 1-2 5-14 7-8 3-10 5-9 5h-2v2l-14 9-3 3h-3v3h-2l-2 6-6 1 1-5 15-16 14-13 11-7 12-6 11-4 10-1z" fill="#686767"/>
<path transform="translate(1214,1228)" d="m0 0h2l1 2 1 11v56l-4 1-2-1-2-8h-2l-1-6v-45l2-2 3-2z" fill="#6A6A6A"/>
<path transform="translate(919,770)" d="m0 0 3 1-13 7-7 6-1 2-3 2-3 1v3h-2l-1 3h-2l-2 5-5 2-2 4-3 5-4 10-1 9v19l2 15 4 14-1 4-4 1-4-8-3-9-2-11 1-17 4-20 4-10 9-12 8-8 14-11z" fill="#ACAEAF"/>
<path transform="translate(793,294)" d="m0 0 5 2 9 11 1 4 12 17 1 4-8-8-4-3-8-1 1 8-2 2-5-5-11-17-2-3 1-5 8-5z" fill="#ABB87E"/>
<path transform="translate(1022,900)" d="m0 0 3 1 4 5 3 2v2h22l-4 2-9 1v2h5l-4 2-13 5h-2l-1 3h-3l1 2-5 6-3 2h-3l-1-4 5-9 2-2h-6l-4-4-2-1 1-4 10-8h2v-2z" fill="#BCBFBE"/>
<path transform="translate(518,670)" d="m0 0 1 2-1 9-1 22-1 254h-1l-1-18v-228l1-31 2-9z" fill="#ACB981"/>
<path transform="translate(1076,966)" d="m0 0h11l4 2v2l-6 5-11 4-19 4-3 1-4-1v-7l8-5 9-3z" fill="#ACAFAF"/>
<path transform="translate(1689,1545)" d="m0 0h2l-2 10-1 3h-2l-2 6-9 14-14 8-12 6-8 2-66 1h-13l-13-1-1 32 4 1h-5l-1-34 1-1h40l50-1 9-2 12-5 12-7 7-7 9-15z" fill="#777C7F"/>
<path transform="translate(1084,888)" d="m0 0 3 3 2 9 6 5 11 4 8-2 11-6 3-5-6-1v-1l10-3h3l1 3v5l-4-3-5 10-4 5-5 3h-8l-19-4-7-3z" fill="#ADAFAE"/>
<path transform="translate(902,719)" d="m0 0 3 1-15 6-8 4-12 8-16 15-11 12-10 14-10 17-4 11-1-4 4-13 8-13 7-12 5-5 3-5h2v-2h3l1-4 7-5h2l2-4 10-7 3-3 17-8z" fill="#898D90"/>
<path transform="translate(982,948)" d="m0 0h13l4 2-1 6-4 5-5 5-1 2h-2v2l-5-1-4-12-3-3 2-4z" fill="#BEC1C1"/>
<path transform="translate(729,1504)" d="m0 0h1l2 12 1 28v83h-4z" fill="#808588"/>
<path transform="translate(461,1478)" d="m0 0 2 1 1 8v139h10v1h-12z" fill="#919597"/>
<path transform="translate(1022,808)" d="m0 0 3 3 5 13 4 17v15l-4 14-8 16-6 8v-3l8-16 4-23v-9l-2-18-3-12z" fill="#ADAFB0"/>
<path transform="translate(552,1502)" d="m0 0 2 4-2 10-1 64v45l7 1v1h-9l-1-4v-89l1-19z" fill="#898D8F"/>
<path transform="translate(1035,1153)" d="m0 0h2l2 6v140l1 17-2-2-1-6-1-146z" fill="#ABB87F"/>
<path transform="translate(1214,1228)" d="m0 0h2l1 2 1 11v56l-4 1-2-1-1-8h2l-1-3h2v-51l-2-1z" fill="#74797C"/>
<path transform="translate(789,1152)" d="m0 0h8l3 3-1 125-2-3-1-123-7-1z" fill="#ADBA82"/>
<path transform="translate(1079,921)" d="m0 0 20 1 14 4 17 8 11 8 10 11 9 14 6 17v5l-2-1-4-13-9-16-7-9-4-3-2-4-11-7-14-7-9-3-11-2-24-1v-1z" fill="#898D90"/>
<path transform="translate(812,832)" d="m0 0h1l2 19 7 29 5 21-1 3-8-17-4-13-3-18v-17z" fill="#898D90"/>
<path transform="translate(991,1200)" d="m0 0h1l1 27v20l1 7v49h-1l-3-36v-66z" fill="#9DBD48"/>
<path transform="translate(975,1204)" d="m0 0h9l3 2v82l1 28-1 6-2-3-1-6v-27l1-36v-23l-1-20-1-1-8-1z" fill="#9DBE48"/>
<path transform="translate(1006,924)" d="m0 0 2 1-4 5h-2l-1 4-3 3-1 2h-2l1 3-6 1-5-1v-2h-6v2l-6 3-1 2-6 1-2-1-6 2-1-2 22-10 10-3 13-7z" fill="#686868"/>
<path transform="translate(1546,1443)" d="m0 0h81v1h-78v33h82v1h-84l-1-1z" fill="#919497"/>
<path transform="translate(368,1590)" d="m0 0 11 1 45 2 1 34-1 1h-8l1-3h3l1-7v-14l-3-6-10-3h-11l-20-1-9-2z" fill="#6F7578"/>
<path transform="translate(890,966)" d="m0 0 10 2v2l3-1v2l9 2 16 3h48l6 1 1-2v3l-9 2h-12l-4 1-23-1-23-4-15-5-7-4z" fill="#898D90"/>
<path transform="translate(784,1592)" d="m0 0h91l-3 2-85 1-1 31h17v1h-18l-1-5z" fill="#707679"/>
<path transform="translate(330,1460)" d="m0 0 2 1-12 14-3 3h-2l-2 4-3 3-3 9-2 3h-2l-1 6-2 3h-2l-2 6-1-2 7-19 8-11 11-13z" fill="#73797C"/>
<path transform="translate(974,1205)" d="m0 0h1l1 109-2 9-1 10-3 4 1-11 1-6 1-24v-70z" fill="#9DBE48"/>
<path transform="translate(1026,896)" d="m0 0 5 2 3 1v2l6 2 5 3 3 1 3-1v2l2 1-5 2h-14l-5-4-3-5z" fill="#686868"/>
<path transform="translate(968,1200)" d="m0 0h1l1 26v53l-1 3-1 21-1 6h-1l1-60z" fill="#9DBE48"/>
<path transform="translate(1144,1090)" d="m0 0h1v13l-2 4-10 4-4 1-7-5-10-2-10-1 1-2 10-1 11 3 3 2h8l4-2 3-5z" fill="#BBC698"/>
<path transform="translate(1689,1545)" d="m0 0h2l-2 10-1 3h-2l-2 6-9 14-14 8-9 4-8 2h-7v-1l9-2 12-5 12-7 7-7 9-15z" fill="#8B8F92"/>
<path transform="translate(1e3 988)" d="m0 0h1l1 16v17l3 12 1 3-2 1-4-6-1-8h-2l-1-16 1-17h1l1 17z" fill="#73787B"/>
<path transform="translate(1268,1446)" d="m0 0 2 1-5 5h-2v2l-7 5h-3l-1 3-7 6-3 3-2 1-3 8-3 4h-2l-1 5-1 2h-2l2-6 8-14 10-11 12-9z" fill="#7E8386"/>
<path transform="translate(1221,1508)" d="m0 0h1v30l3 19 6 16-1 3-7-14-3-11-1-10v-19z" fill="#7D8284"/>
<path transform="translate(1137,835)" d="m0 0h2l-2 13-6 9 4 8v2h-2l-5-6-1-7 2-9 6-9z" fill="#ABB87F"/>
<path transform="translate(631,1437)" d="m0 0h19l14 2 15 5 12 6 11 9 4 4h-4l-5-5-5-4-16-8-10-4-10-2-20-1-5-1z" fill="#8D9194"/>
<path transform="translate(961,966)" d="m0 0h11l3 1v2h3v2l2 2-2 1-24-3v-3z" fill="#686767"/>
<path transform="translate(1407,1497)" d="m0 0 2 3 3 9 1 5v29l-2 13-2 6-1-4 2-6v-34l-2-13-1-2z" fill="#8A8E90"/>
<path transform="translate(1072,980)" d="m0 0h7v3l-7 7h-2l-1 3-4-1-2-3 1-4 3-1-2-2z" fill="#B2BD89"/>
<path transform="translate(1139,327)" d="m0 0v3l-3 5-3 7-8 13h-3l-2 5-8 11h-3l11-16 9-13 9-14z" fill="#A6BD68"/>
<path transform="translate(934 1e3)" d="m0 0h12l9 2 3 2-1 2-10-3-10 1-16 6-4 3-2-1 8-7 8-4z" fill="#FDFDFD"/>
<path transform="translate(518,670)" d="m0 0 1 2-1 9-2 47-2 1v-18l1-31 2-9z" fill="#BEC89D"/>
<path transform="translate(913,359)" d="m0 0 4 1-31 7-21 6-9 1 1-2 29-8z" fill="#ACB981"/>
<path transform="translate(1064,907)" d="m0 0h9l-1 4-24 4h-7v-2l13-3z" fill="#FDFDFD"/>
<path transform="translate(1373,581)" d="m0 0h23l16 4 10 2 3 3h-3l-20-4-5-2-13-1h-13z" fill="#9DBE48"/>
<path transform="translate(307,1484)" d="m0 0 2 2-1 4-2 6-3 1-1 6-2 3h-2l-2 6-1-2 7-19z" fill="#797E81"/>
<path transform="translate(1017,832)" d="m0 0 2 1v14l-2 5-4 1v-17h2v-2h2z" fill="#B3B5B1"/>
<path transform="translate(938 1e3)" d="m0 0h14l12 5v2h2l5 8-1 2-8-7-4-3v-2l-12-3-8-1z" fill="#B3BE8B"/>
<path transform="translate(892,901)" d="m0 0 6 2 3 2v2l6 2v2l4 2 9 5 10 4-3 1-15-6-11-7-9-8z" fill="#ADAFB0"/>
<path transform="translate(1145,910)" d="m0 0 2 3 3 12 7 9h-3l-11-9v-6z" fill="#FDFDFD"/>
<path transform="translate(612,1440)" d="m0 0 4 1-7 4-10 4-12 7-6 2 5-5 10-6 13-6z" fill="#797E81"/>
<path transform="translate(1160,1247)" d="m0 0h1v36l-2-4-1-6v-19z" fill="#686767"/>
<path transform="translate(1014,1095)" d="m0 0 9 4 7 2-3 5-11-3-5-5z" fill="#B7C292"/>
<path transform="translate(1327,981)" d="m0 0 10 10 1 4h2l7 9h-3l-5-2-9-14-3-5z" fill="#A9B87A"/>
<path transform="translate(1006,924)" d="m0 0 2 1-4 5h-2l-1 4-3 3-1 2h-2l1 3-6 1-5-1 4-3 6-2 2-5-1-2 9-5z" fill="#6F7578"/>
<path transform="translate(1138,1449)" d="m0 0 8 4 12 11 6 5 4 6-1 2-4-5-5-3-1-4-4-2-1-3-5-1-2-5-5-2-2-1z" fill="#84898C"/>
<path transform="translate(1656,1446)" d="m0 0 7 1 10 4 12 7 13 11 1 2-4-2-13-10-15-8-11-4z" fill="#95999B"/>
<path transform="translate(974,1299)" d="m0 0h2v15l-2 9-1 10-3 4 1-11 1-6 1-20z" fill="#9DBD4A"/>
<path transform="translate(789,1152)" d="m0 0h8l3 3v9l-1 9-1 21h-1l-1-40-7-1z" fill="#B1BA93"/>
<path transform="translate(1164,294)" d="m0 0 8 1 5 3 1 7-2 5-1-3v-8l-9-3-7 4-3 6-4 3 2-6 5-7z" fill="#AEBA83"/>
<path transform="translate(887,1444)" d="m0 0 8 1 13 5 11 7 10 8h-3l-10-7-10-6-19-7z" fill="#95999B"/>
<path transform="translate(1137,835)" d="m0 0h2l-2 13-4 5v-5l-3 1v-2h2l-1-6 4-5z" fill="#A7B972"/>
<path transform="translate(1018,891)" d="m0 0 5 1-1 5-6 4v-2l-4 1v2l-4 1 2-4 4-2 2-4z" fill="#6F7578"/>
<path transform="translate(903,720)" d="m0 0 2 1-5 3-10 4-11 6-8 5-2-1 10-7 6-4 15-6z" fill="#6F7578"/>
<path transform="translate(417,1593)" d="m0 0h7l1 34-1 1h-8l4-2 2-5v-26l-5-1z" fill="#939699"/>
<path transform="translate(699,1596)" d="m0 0h1l2 26 2 3 13 1v1h-16l-2-1z" fill="#8F9395"/>
<path transform="translate(1315,1434)" d="m0 0 17 2v1h-19l-13 3-10-1v-1z" fill="#858A8C"/>
<path transform="translate(1547,1592)" d="m0 0h9l5 1v1h-12l-1 32 4 1h-5l-1-34z" fill="#94989B"/>
<path transform="translate(922,1152)" d="m0 0h1v46h-1l-1-34-2-9z" fill="#ABB87F"/>
<path transform="translate(975,939)" d="m0 0 1 2 3 1-6 3-1 2-6 1-2-1-6 2-1-2z" fill="#72777A"/>
<path transform="translate(368,1590)" d="m0 0 11 1 28 1v1l-10 1h-20l-9-2z" fill="#898E90"/>
<path transform="translate(1110,1031)" d="m0 0 2 1-8 8-10 4-5 1h-14v-1l15-2 11-4 8-6z" fill="#FDFDFD"/>
<path transform="translate(1067,887)" d="m0 0h7v1l-7 2v2 3h-2l-1 4-3 7h-2l-1 4h-3v-3h3l3-9 4-9z" fill="#999D9F"/>
<path transform="translate(1221,1508)" d="m0 0h1v34l-2 1-1-2v-19z" fill="#898E90"/>
<path transform="translate(1333,1437)" d="m0 0 11 1 10 3 10 6-1 2-3-1v-2l-6-2-10-2-5-2-7-1z" fill="#7E8385"/>
<path transform="translate(1069,979)" d="m0 0h3v2l-4 3-4 2-2 2-1-2-7-3 4-2z" fill="#CACDC8"/>
<path transform="translate(1022,900)" d="m0 0 3 1 2 4-4-1v2l-7 2-5 4h-2l-1 3-1-3 7-6 4-3h2v-2z" fill="#ADAFB0"/>
<path transform="translate(887,653)" d="m0 0 3 1-10 5-11 4-5 2-1 2 1-4 6-4z" fill="#B5C18F"/>
<path transform="translate(1549,1594)" d="m0 0h12v1l-11 2v26l1 3h-3v-29z" fill="#6F7578"/>
<path transform="translate(1160,1154)" d="m0 0h2l1 7v25h-1l-2-23z" fill="#ADBA83"/>
<path transform="translate(757,347)" d="m0 0 4 2 5 5 4 6 2 7-2 2-2-5v-2l-3-3-2-5h-2l-2-5h-2z" fill="#9FBD50"/>
<path transform="translate(1100,1118)" d="m0 0 1 4-4 9-4 4-7 1v-2l6-3h2l2-5z" fill="#B6C291"/>
<path transform="translate(784,1592)" d="m0 0h21v1l-17 1-2 1-1 27h-1z" fill="#9A9D9F"/>
<path transform="translate(1665,1580)" d="m0 0 2 1-4 4-11 5-8 2h-7v-1l9-2 12-5z" fill="#969A9C"/>
<path transform="translate(1143,908)" d="m0 0h2v9l-2 8-4-4 2-9z" fill="#AEBA83"/>
<path transform="translate(1030,704)" d="m0 0h24l-2 2-10 2-11-2z" fill="#FDFDFD"/>
<path transform="translate(552,1502)" d="m0 0 2 4-2 10-1 13-2 1v-15z" fill="#7E8386"/>
<path transform="translate(1125,348)" d="m0 0 1 2-2 5h-2l-2 5-8 11h-3l11-16z" fill="#ACB981"/>
<path transform="translate(1192,247)" d="m0 0 4 1 7 3 10 8-1 2-8-5-12-8z" fill="#9FBC53"/>
<path transform="translate(1240,1469)" d="m0 0v3l-3 8-3 4h-2l-1 5-1 2h-2l2-6 8-14z" fill="#858A8C"/>
<path transform="translate(913,359)" d="m0 0 4 1-25 6h-6v-2z" fill="#B1BD88"/>
<path transform="translate(1679,1569)" d="m0 0v3l-4 6-8 5-2-1 12-12z" fill="#8F9396"/>
<path transform="translate(1e3 988)" d="m0 0h1l1 16v11l-3-1z" fill="#6F7578"/>
<path transform="translate(1373,579)" d="m0 0h23l-1 3-22-1z" fill="#AEBA84"/>
<path transform="translate(338,1612)" d="m0 0 6 2 10 4 11 4 1 2-9-2-16-7z" fill="#7E8386"/>
<path transform="translate(1680,1501)" d="m0 0 5 2 4 8 1 3v7l-9-18z" fill="#828789"/>
<path transform="translate(923,1555)" d="m0 0 1 3-4 8-8 10-5 4-2-1 7-6 7-10z" fill="#82878A"/>
<path transform="translate(1251,1458)" d="m0 0h2l-1 4-7 6-3 3-1-4 7-7z" fill="#818688"/>
<path transform="translate(1337,1584)" d="m0 0 2 1-12 5-6 1-2-1v-2z" fill="#7A7F82"/>
<path transform="translate(1051,1402)" d="m0 0 6 1 5 4 11 3v1h-7l-14-6z" fill="#A0BC54"/>
<path transform="translate(638,602)" d="m0 0 2 3-1 5-3 1-8-6 3-1 4 2h2z" fill="#A1BB5A"/>
<path transform="translate(1723,1558)" d="m0 0 2 1-6 13-5 9-1-3 8-16z" fill="#808587"/>
<path transform="translate(729,1504)" d="m0 0h1l2 12v13h-2l-1-16z" fill="#7F8487"/>
<path transform="translate(1026,896)" d="m0 0 5 2 3 2h-2l-1 5-2 2-3-5z" fill="#6F7578"/>
<path transform="translate(1136,486)" d="m0 0 2 1-3 9-4 5-5 2 7-11z" fill="#B2BE8A"/>
<path transform="translate(330,1460)" d="m0 0 2 1-13 12-5 5-2-1 9-10z" fill="#94979A"/>
<path transform="translate(1146,321)" d="m0 0v3l-4 6-6 7-1-2 6-10z" fill="#9EBD4C"/>
<path transform="translate(720,1480)" d="m0 0 3 4 5 12 1 6h-2l-3-9-4-9z" fill="#808588"/>
<path transform="translate(1125,828)" d="m0 0 2 1-8 11-3 6-1-4 3-6z" fill="#FDFDFD"/>
<path transform="translate(1129,374)" d="m0 0 1 2-1 6 7 6 3 3-5-2-6-3-2-3 2-8z" fill="#AFBB85"/>
<path transform="translate(518,670)" d="m0 0 1 2-2 17-2 1v-10l2-9z" fill="#C1CAA1"/>
<path transform="translate(1138,1449)" d="m0 0 8 4 8 7-2 1-5-2-2-5-5-2-2-1z" fill="#8A8E90"/>
<path transform="translate(1217,1280)" d="m0 0h1v17l-4 1 1-8h1z" fill="#898D90"/>
<path transform="translate(938,1012)" d="m0 0 6 1 1 2-12 2-4 2 2-4z" fill="#FDFDFD"/>
<path transform="translate(1060,1006)" d="m0 0 4 2v5l-8-1 1-4h2z" fill="#AAB87B"/>
<path transform="translate(910,1452)" d="m0 0 4 2 13 9 2 3-4-2-15-10z" fill="#939699"/>
<path transform="translate(1052,1121)" d="m0 0 3 4 4 7 3 3-5-1-4-4z" fill="#AFBB86"/>
<path transform="translate(346,1450)" d="m0 0 1 2-8 6-7 2 5-5z" fill="#84888B"/>
<path transform="translate(1414,1723)" d="m0 0 5 5 6 7-1 2-5-4-5-7z" fill="#767776"/>
<path transform="translate(1e3 839)" d="m0 0h1v10l-2 8h-1v-12z" fill="#BEC89D"/>
<path transform="translate(592,1449)" d="m0 0 2 1-5 5-6 3-2-1 9-7z" fill="#7D8285"/>
<path transform="translate(1341 1e3)" d="m0 0 10 5v4l-6-4-4-3z" fill="#A2BB5F"/>
<path transform="translate(1275,1617)" d="m0 0 10 1 6 3 1 2-9-2-8-3z" fill="#797E81"/>
<path transform="translate(1130,1532)" d="m0 0 2 1-3 3-10 4-3-1 3-2 9-4z" fill="#808587"/>
<path transform="translate(1407,1497)" d="m0 0 2 3 3 9v3h-2l-3-9z" fill="#7E8386"/>
<path transform="translate(1349,1440)" d="m0 0 6 2 9 5-1 2-3-1v-2l-6-2-5-2z" fill="#939799"/>
<path transform="translate(1049,1029)" d="m0 0 7 6 6 5-2 1-7-5-4-5z" fill="#DEE3CE"/>
<path transform="translate(1036,314)" d="m0 0 12 2 1 2-12-1-2-2z" fill="#A1BC5A"/>
<path transform="translate(1018,891)" d="m0 0 2 1-6 5 2-4zm-6 6 2 1-2 4-4 1 2-4z" fill="#797E81"/>
<path transform="translate(1082,1032)" d="m0 0 4 1z" fill="#FDFDFD"/>
<path transform="translate(913,787)" d="m0 0 2 1h-3z" fill="#FDFDFD"/>
<path transform="translate(1086,1031)" d="m0 0 2 1z" fill="#ABB87F"/>
<path transform="translate(915,786)" d="m0 0" fill="#FDFDFD"/>
</svg>
