<?xml version="1.0" encoding="UTF-8"?>
<svg version="1.1" viewBox="0 0 2048 1905" width="1280" height="1280" xmlns="http://www.w3.org/2000/svg">
<path transform="translate(656,552)" d="m0 0h631v505l-4 8-6 7h-2l-2 6-5 8-11 1v8l-2 1h-25l-35 1h-23v150l-2 17-2 1h-6l1 6-4 13-4 7-8 1-1 10-2 3-23 4-12 1h-23l-21-3-8-5-2-12-4 1-1-3-4-1-2-1v-6l-1-2-4-1-1 1h-5l-1-1v-13l-3-1-1-27v-140h-48l-56 1-9 1-1 165-6 3-1 13-4 6-4 3h-2v-2l-7 6-3 4 2 1-1 2 2 1-5 4h-2l-2 4h-8l-16 3h12l-1 3-22 2h-10l-25-2-3-2 1-1h18l-17-2-4-2v-2l-4-1-3-9h3l-11-5v-2l-3-1-2-6-2-3h-4l-3-3-2-6 2-2-3-2-1-166-7-1-1 2v-2l-54-1-26-2-3-2 17-1-15-4-5-3-7-10v-3h-2v3l-5-3-1-2-3 1-2-6 2-1-6-2-1-55v-412l1-42zm8 514 1 2zm3 2m50 25v1l39 1h17l-3-2zm456 0m-135 174v7h1v-7zm-257 1m1 6 1 2z" fill="#9EC146"/>
<path transform="translate(765,203)" d="m0 0 2 1-1 2h2l1-2 1 1 1-2 8 2 4 10-1-9 3 4v2h2l1 5 5 2-2 3 5 9 3-3 6 11 3 4-1 4 5 10 10 3 2 2-10-1 1 4 4 2 4 1 1 4h3l4 4h2l4 7v2h2l1 3 2 1 1-3 4 1 7-3 22-7 24-4 23-3 13-1h42l42 3 38 5 3 2-13 1 37 4 10 2 1 2 8 1 6-5 3-9 5-7 4-1 2-4h-2l2-5 10-10-1-5-2-1 3-5h2l1 2 2-2 3 1 1-8 5-2 2-2h4v-7h2l6-12 9-2 3-2v2h5l1 1v10l-4 11-7 11-3 2h-3l1 7-8 10-3 3 2 3-3 5-2-1-1-3-3 7-2 1-1 3h-2l-1 3-2 1-3 2-1 5-3 1-1 3h-2v14l6 2 2 1 1-2 4 2 3 2v3h3v2h3l2-3 6 4v2h3l2 4 3-3 5 4h3v6h3v5l6 3v-2l5 2 2 2v3l-10-1-1 2h9l4 3h5l2 3h4l5 4 1 5 3 1 1 7 2 1-1-8v-5l4 5 3 8 1 4h2l6 7 2 5v1h5l3 4v4h2v2l3 1 1 3 3-4 4 2 1 1v7l1 1v5l3 1 3 8 1 8 1 2 2-4 3 3 3 7 2 13 4 11v-11l2 2 1 15 5 26 1 12v10l-4 1-11-1v-1l-223-1h-376l-3 1h-16l-3-2 2-1v-9l3-16 2-3 3-18 2-1 2-8h2l2-4 1 3 1-1 3-11 2-7 7-11-1-7 3-5 3-1 1 3 3-7 3-1v-4h-2l1-4 5-5 2-5h3l-1-6 1-2h2v-2h2l1 2 1-3h2l4-9h3v9h2l2-5 4-6h2l-1-5 4-2 1-5h2l2 5h2v-6l3-3h4v-2h2l2-3 3-1 1 2 1-4-2-2 8-4 1-7 3-6 1 4h2l1 3 3-7 1 4h3l1-7 2 1 1-3 4-1 1 2 2-1 2 1v-4l4-1v-2l7-2h3l4-1v-2l4-1 1-12-3-7-2-1-4-10-4-4-4-2-4-4v-3l4 1v-2l-4-2-4-5v-3l-2 1v2l-3-1 1-3h2l-2-7 3 1v-2h-5l-3-3 1-2-3 1-2-4-1-1-3-1v-2l-4 1-3-6-3-12 2-6zm2 20 1 2zm0 3 1 2zm384 1m-16 12m2 3v8l4-4-2-4zm-2 4m-322 12m-16 8 1 2zm83 12m155 0-1 2h3v-2zm-204 2m334 40 1 2 1-2zm-2 3m-399 2v3zm-2 3 1 2zm413 1 1 2zm-346 32v2l-10 2 2-2-6 1-7 7-4 6-1 5v16l2 9 4 6 2 2 16 2-16-1-2 4 4 4 16 3h15l9-2 3-4-1-3-8-1 6-1 7-4 4-2 2-4 1-8v-18l-2-5-4-3-3-1-1-2h-3v-2h-2v-2l-4 1-6-2-7-2zm9 0m377 0m-392 1m20 0m4 0-1 2h2zm262-2v3l-6-1-5 1-6 4-5 5v-6l-4 4-3 1-5 8-1 16 2 7h-2l2 6 3 4h3l2 4-2 2 1 4 3 2 3-3v-2l-2-1-1-6 4 3h2l-2 4 1 4 1 2 9 3h11l9-2 5-2 5-3-4-2-4-1v-2l7-1v-3h2l1-3 4-2 1 2 2-3 1-4 1-1 1-13-1-4h-2l1-6-3-4h-2v3h-4l1-3-2-3-4-2-1-3-1 2-1-3h-3l-1-2-1 2-3 1v-2h-4l-1-4zm4 2m4 0m-269 2m-133 5 1 2zm-10 11v2h-2v2h2l1 2 2-5zm529 6 1 2zm12 13-1 3 1 2 3-1zm-591 97m-1 4v5h1v-5z" fill="#9EC147"/>
<path transform="translate(1380,552)" d="m0 0h49l4 2-1 5 3 2 7 2 7 5v2l3 1v2l5 2 4 5v4l4-1 6 5 2 9v3h-4l4 1 1 2 1 13v283l-3 15-3 6-16 14-8 10-3 6-16 4-7 1v1h13l-1 4-16 1h-30l-5-1-1-4 2-3h-9l-7-2v-2h-5l-8-7-5-7 1-2 5 3 4 4v2l2-1-5-6-9-3v-2h-2v-2l-3-1-4-8-5-18-1-21v-265l1-9 3-5-1-5 1-8 7-5h2v-3h-2v-5l7-6 4-1 1 2 5-5 8-4h3l1-7 7-1v3l-3 2h5v-5zm-36 23 1 4zm113 6-1 2h4v-2zm7 5 1 2zm1 12m-120 331m15 14 1 3v-3zm2 3m22 9v1h6v-1z" fill="#9FC147"/>
<path transform="translate(525,551)" d="m0 0h26l18 2 8 2 3 2h-12l-2 1 7 2 13 5 3 2 4 1 4 8-1 7 6 2 1 4v10l2 3 1-2h5l2 24v261l-1 20-2 9h-2l1 5-1 4h-3v-13h-2v10h-2l-2 6-10 20h-1l-1-6-3 4-1 4-4 3-21 4h-37l-20-5-5-5h-1l-1 3-2-1v-3h-2l-4-9-2-5-3-7v7l-6-5-4-16-1-16v-278l3-27 1-3 8 1 2-2 1-9 4-6 4-3h4l1-2 16-4 5-2h-16v-2l19-4zm-1 6m34 1m-79 359m15 19v6l2-2z" fill="#9FC249"/>
<path transform="translate(348,1437)" d="m0 0h131l1 1v185h-38l-1-150-93 1-14 8-9 5-7 10-6 13-2 8v24l3 9 8 14 4 6v2l6 2-1-6h2l4 9 9 4 17 3 44 2 1 36-4 1-44-1-19-5-8-3-8-2-15-10-12-12-6-8-2-5h-2l1 4-5-5-8-26-2-11v-30l1-4 2-1 3-12 6-17 2-1v6l-1 2h2l2-6 9-11 12-12 10-7 8-4 14-5z" fill="#686768"/>
<path transform="translate(1280,1429)" d="m0 0h14l21 3 13 5 22 13 10 9 7 8 7 11 6 17 3 11 1 30-2 13-6 16-8 16-7 9-10 10-11 7-14 7-19 7-10 2h-19l-20-5-15-5-9-6-11-8v-2h-2l-3-6-3 3-7-8-8-16-7-16-3-13v-34l2-4 2-12 9-19 4-5 6-9h3v2l4-4 3-5 9-6 8-6 11-5zm-1 38-13 3-8 4-7 3-8 7-7 11-2 8-3 6-1 5v15l2 11 4 12 7 8 4 5 5 4 1 3 5 2 4-1 1 2h2l1 4 1 1 12 2 6 2 9-1 2-1 11-1 14-9 9-10 5-5 6-10 4-11 2-7v-10l-5-14-1-1-2-9-7-9-8-8-9-6-13-4-9-1z" fill="#686767"/>
<path transform="translate(617,1428)" d="m0 0 6 1 2 1 17 2 13 4 15 8 7 6 7 4v2l4-1 10 14 4 6 6 15 3 15 1 14v104h-37l-1-106-3-10-6-16-6-8-14-9-15-5-5-1h-14l-19 5-8 4-5 4-9 13-7 15-1 7v107h-35l1-118 5-19 8-16 9-14 2 1-1 4h2l2-6 7-6 8-6 16-8 5-2 21-2z" fill="#686768"/>
<path transform="translate(986,1437)" d="m0 0h88l30 1 12 7 11 6 7 7 6 5 6 12 4 10 1 5v27l-4 11-9 17-7 7-10 6 2 4 4 3 1-2 3 5 4 10 6 10 3 14 2 20-1 1-35 1-3-1-1-10-5-15-6-11-9-8-14-7-7-2-14-1-62-1-3-1v-34l101-1 9-3 8-4 6-10 2-6v-14l-3-9-5-6-8-5-3-1-107-1z" fill="#686768"/>
<path transform="translate(1513,1437)" d="m0 0h96l14 1 10 3 15 8 18 12 7 8 10 13 5 10 4 18 1 9v25l-2 9-8 22-7 11-9 10-7 7-26 13-21 7-99 1-1-1v-36l68-1 24-1 18-4 9-6 8-9 10-15 4-11 1-6v-11l-3-12-8-16-4-6-9-8-8-4-6-2-8-1-96-1z" fill="#686768"/>
<path transform="translate(776,1437)" d="m0 0h84l16 3 10 4 3 2v2l5 2 11 6 15 14 6 8 7 14 5 21v33l-10 30-6 9-8 10-8 7-7 1-2 4-10 6-26 9-5 1h-96v-36l92-1 1-4h5l2 1 11-4 8-7h2l2-4 7-8 4-8 2-3 3-9 3-3v-12l-4-10-2-8-4-5-3-9-7-8-13-8-6-2-8-1-95-1v-35z" fill="#686767"/>
<path transform="translate(1457,1670)" d="m0 0h46l11 1 15 5 10 7 9 11 6 13 2 9v21l-4 13-7 11-12 12-5 4-10 2-7 2h-54l-1-110zm31 22v60l1 8 10-1 13-4 5-3 4-6 4-1 3-9 1-16-4-12-2-3-5-3-5-5-14-4z" fill="#383737"/>
<path transform="translate(1578,1670)" d="m0 0h30l1 1v40 1l7-6 11-15 10-14 6-7h34l-2 5-11 13-7 8-6 5-10 13-4 6v6l6 9 11 13 8 7 8 9 4 6 9 9v2h-39l-8-11-13-18-9-11-5-2 1 42-31 1-1-1zm28 78v31h1v-31z" fill="#383737"/>
<path transform="translate(1427,1438)" d="m0 0h38l1 185h-39z" fill="#686768"/>
<path transform="translate(1388,1667)" d="m0 0h22l16 5 12 5v3h-6l-2 6-6 11-4-1-10-4-8-1-11 4-3 1v5l8 5 25 10 10 7 1 4 4 2 4 7 1 4v13l-4 11-7 8-10 7-11 4-5 1h-21l-16-4-8-5-1-5 6-13 3-6 11 6 13 4h8l7-3 3-5v-7l-5-4-8-3-12-3-12-5-5-3-6-14-1-7v-9l4-13 6-8 7-6z" fill="#373637"/>
<path transform="translate(813,671)" d="m0 0 1 3h2v2l5-1 2-3v3l3-1 5 4 2 7 1 7v124l-1 11-4 7h-2l-1 3-4 1-1-5h-2l-1 2-1-5-3 4-2-1-1 2-2-7-2 12-4 1v-2l-4-1-1-2v-135l2-16 3-6h3l1 4 1-2h2l2-9z" fill="#89AE37"/>
<path transform="translate(348,1437)" d="m0 0h131l1 1v185h-38l-1-150-93 1-14 8-9 5-7 10-4 8-1-4 8-14 11-9 17-7h89l5 2 2 6 1 21v114l2 6 6 1h21v-2h2v-165l-1-11-1-2h-130l-3 2-7 1-5 3-13 7-2 3h-2v2l-3 2h-3l-3 6h-2l-2 4-5 5-5 6-2-1 4-6 9-12 8-7 9-7 8-5 17-6z" fill="#7C8170"/>
<path transform="translate(1626,1477)" d="m0 0h4v2l5 1 8 8v2h2l9 13 4 10 2 3 2 10-1 12-4 11-8 11-1 2h-2l-1 5-7 9-10 8-11 4-18 2h-54l-27 2v27l1 4-5 1-1-1v-36l68-1 24-1 18-4 9-6 8-9 10-15 4-11 1-6v-11l-3-12-8-16-4-6-9-8z" fill="#787A74"/>
<path transform="translate(775,687)" d="m0 0 2 1v147l-2-1-5-13-1-17v-100l3-12 1-3h2z" fill="#89AE37"/>
<path transform="translate(776,1437)" d="m0 0h84l16 3 10 4 3 2v2l5 2 11 6 15 14 6 8 7 14 5 21v33l-8 25-2-1 3-13 3-9v-38l-4-17-8-16-6-5-6-8-10-7-12-7-8-6-9-2-13-1-97-1v31h82l19 1 1 2-103-1v-35z" fill="#8C996B"/>
<path transform="translate(1513,1437)" d="m0 0h96l14 1 10 3 15 8 18 12 7 8 10 13 5 10 4 20h-2l-5-14-2-6-6-11-5-7v-2l-3-1-4-6-16-12-8-4-10-6-6-1-37-1h-71v22l1 5 6 2 58 2v1h-69z" fill="#818A6B"/>
<path transform="translate(791,677)" d="m0 0 2 2 1 7v125l-1 20-2 1-1-16-2-2v-135h2z" fill="#89AE37"/>
<path transform="translate(986,1437)" d="m0 0h88l30 1 1 2-116-1 1 32h105l10 5 6 7 4 8v22l-4 10-6 7-5 3-4 1h-7l-2-2 9-3 8-4 6-10 2-6v-14l-3-9-5-6-8-5-3-1-107-1z" fill="#A6BC6F"/>
<path transform="translate(348,1437)" d="m0 0h131l1 1-1 56-2-2v-38l-1-11-1-2h-130l-3 2-7 1-5 3-13 7-2 3h-2v2l-3 2h-3l-3 6h-2l-2 4-5 5-5 6-2-1 4-6 9-12 8-7 9-7 8-5 17-6z" fill="#8E9E66"/>
<path transform="translate(1427,1438)" d="m0 0h38v1l-12 1h-22v183h-4z" fill="#A1C34C"/>
<path transform="translate(1578,1670)" d="m0 0h30l1 1v40l-2 2 2 1h-3l-1-2-2-40-21-1v69l-1 42-3-1z" fill="#9EC147"/>
<path transform="translate(1280,1429)" d="m0 0h14l21 3 13 5 22 13 10 9 7 8 7 11 4 11h-2l-8-16-6-8-4-4v-2l-4-2-8-5-21-11-8-4-17-4-10-1-21 2-11 3-14 7-11 6-6 4-4 1-1 2-2-1 3-5 9-6 8-6 11-5z" fill="#80896A"/>
<path transform="translate(550,1456)" d="m0 0 2 1v5l-5 4-1 2h-2l-1 5-4 8-7 22-1 41 1 70 1 5 6 2 3 2h-15l1-118 5-19 8-16z" fill="#787975"/>
<path transform="translate(273,1510)" d="m0 0h1l2 33 4 11 4 13 2 4 7 8 5 8 10 10 11 7 12 6 12 5 14 4 22 3v1h-20l-19-5-8-3-8-2-15-10-12-12-6-8-2-5h-2l1 4-5-5-8-26-2-11z" fill="#838B6D"/>
<path transform="translate(1214,1457)" d="m0 0 3 3-2 4-4 7-3 1v2h-2l-1 4-4 8h-2l-1 8-2 7-2 36 3 17 4 11 4 10 8 11 5 4-3 4-7-8-8-16-7-16-3-13v-34l2-4 2-12 9-19 4-5 6-9z" fill="#82896F"/>
<path transform="translate(1079,1439)" d="m0 0h24l10 4 14 8 7 7 6 5 6 12 4 10 1 5v27l-4 11-9 17-7 7-8 5-1-2 8-6 8-11 6-12 3-12v-27l-9-19-9-11-7-4-14-9-7-2-22-1z" fill="#848F68"/>
<path transform="translate(1626,1477)" d="m0 0h4v2l5 1 8 8v2h2l9 13 4 10 2 3 2 10-1 12-4 11-8 11-1 2-5 3-8 11-10 7-11 3h-9v-1l18-4 9-6 8-9 10-15 4-11 1-6v-11l-3-12-8-16-4-6-9-8z" fill="#7C8170"/>
<path transform="translate(986,1533)" d="m0 0h99v1l-65 1-31 1 1 26 1 2 21 1 54 1 9 4 7 4-1 2-9-4-7-2-14-1-62-1-3-1z" fill="#838D6A"/>
<path transform="translate(1453,1439)" d="m0 0h12l1 184h-2l-1-182-31 1v180h8v1h-9v-183z" fill="#879662"/>
<path transform="translate(330,1569)" d="m0 0h2l4 9 9 4 17 3 44 2 1 36-4 1h-9l-11-1v-1l19-1 1-1 1-27-12-2-34-2-17-3-5-4-6-3-6-5 1-3v2l6 2z" fill="#80876C"/>
<path transform="translate(1457,1670)" d="m0 0h46v1l-41 1-1 14-1 93-1 2h-2l-1-110z" fill="#6B6B6B"/>
<path transform="translate(1513,1437)" d="m0 0h96l14 1 5 1v1l-112-1v32l66 1v1h-69z" fill="#AFCC67"/>
<path transform="translate(617,1428)" d="m0 0 6 1 2 1 17 2 13 4 6 3-4 1-4-1-9-3-8-2-18-1-17 3-13 4-9 4-8 4-3 2h-3v2l-10 6v-3l7-6 8-6 16-8 5-2 21-2z" fill="#7C8170"/>
<path transform="translate(709,1502)" d="m0 0 2 3 1 14v104h-10v-1l6-1z" fill="#849067"/>
<path transform="translate(879,1572)" d="m0 0h2l-1 5-8 7-13 3-14 2-84 1v33h-1v-36l92-1 1-4h5l2 1 11-4z" fill="#777875"/>
<path transform="translate(349,1471)" d="m0 0h89l4 1v12h-1v-11l-93 1-14 8-9 5-7 10-4 8-1-4 8-14 11-9z" fill="#849066"/>
<path transform="translate(565,1499)" d="m0 0h2l-2 6-2 4-1 7v107h-14l4-2 5-1 1-4 1-100 1-8z" fill="#8B9A64"/>
<path transform="translate(892,1498)" d="m0 0h2l4 4 3 7 4 10 2 4v14l-6 10-5 10h-2l-2 4-5 7-6 4 2-4 7-8 4-8 2-3 3-9 3-3v-12l-4-10-2-8-4-5z" fill="#7F876D"/>
<path transform="translate(1682,1572)" d="m0 0 2 1-7 12-11 12-8 7-11 6-16 7-18 6h-9l3-3 21-6 17-8 14-7 9-8 1-2h2v-2h2l2-4 5-7z" fill="#818B69"/>
<path transform="translate(784,692)" d="m0 0h1l1 15v117l-2 2-1-65z" fill="#89AE37"/>
<path transform="translate(517,956)" d="m0 0h51v4l-5 1h-43l-6-2v-2z" fill="#A4C552"/>
<path transform="translate(1276,1430)" d="m0 0h15l-1 2-21 2-11 3-14 7-11 6-6 4-4 1-1 2-2-1 3-5 9-6 8-6 11-5z" fill="#7D8270"/>
<path transform="translate(1516,1439)" d="m0 0h100l9 1v1h-108v22l1 5 6 2 30 1v1h-38l-1-1v-30z" fill="#777"/>
<path transform="translate(1376,1559)" d="m0 0h2l-2 6-8 16-7 9-10 10-11 7-14 7-19 7-13 2v-2l10-2 9-3 10-4 9-4 16-10 4-2v-2l8-7 4-5 9-17z" fill="#7F876C"/>
<path transform="translate(674,1514)" d="m0 0h2l1 11 1 90 2 5 4 3h-9z" fill="#777776"/>
<path transform="translate(1127,1563)" d="m0 0 3 2 4 11 6 11 2 5 3 19 1 11-1 1h-12l4-2 3-5v-12l-5-17-3-9-4-10z" fill="#7C8170"/>
<path transform="translate(1077,1310)" d="m0 0 49 1-3 3-13 2h-33z" fill="#B5CF72"/>
<path transform="translate(339,1439)" d="m0 0h5l-4 2-4 3-6 3-13 7-2 3h-2v2l-3 2h-3l-3 6h-2l-2 4-5 5-5 6-2-1 4-6 9-12 8-7 9-7 8-5z" fill="#7E846E"/>
<path transform="translate(610,1465)" d="m0 0h18l12 3 12 6 7 5v2h2l7 11-1 3-7-11-13-9-13-5-9-2h-14l-19 5-4 1v-2l15-5z" fill="#859069"/>
<path transform="translate(1581,1671)" d="m0 0h1v69l-1 42h-2v-58l1-49z" fill="#747473"/>
<path transform="translate(1388,1667)" d="m0 0h22l16 5-4 1-10-2h-26l-9 3-6 5-6 9-3 12-1 7h-1v-9l4-13 6-8 7-6z" fill="#90A45E"/>
<path transform="translate(1606,1737)" d="m0 0 3 1 1 43h-6v-28l1-13zm0 11v31h1v-31z" fill="#788062"/>
<path transform="translate(1463,1457)" d="m0 0h1v166h-5l3-5z" fill="#777"/>
<path transform="translate(986,1533)" d="m0 0h99v1h-97v32h5l-4 2-3-1z" fill="#9EC146"/>
<path transform="translate(1112,1491)" d="m0 0 3 4v18l-4 10-6 7-5 3-4 1h-7l-2-2 9-3 8-4 6-10 2-6z" fill="#859264"/>
<path transform="translate(1607,1670)" d="m0 0 2 1v40l-2 2 2 1h-3l-1-2-2-41z" fill="#838D68"/>
<path transform="translate(1148,1488)" d="m0 0h1l1 10v16l-1 10-11 21-7 7-8 5-1-2 8-6 8-11 6-12 3-12z" fill="#7C8070"/>
<path transform="translate(934,1508)" d="m0 0 3 1 1 4v33l-8 25-2-1 3-13 3-9z" fill="#859167"/>
<path transform="translate(1219,1591)" d="m0 0 7 6 5 4 7 4 9 5 8 3 10 4 7 3-2 1-19-5-12-5-16-12v-2h-2l-2-3z" fill="#818B69"/>
<path transform="translate(273,1510)" d="m0 0h1l2 33 4 11 4 13 4 8h-4l-4-7-6-21-1-7z" fill="#818B69"/>
<path transform="translate(1457,1670)" d="m0 0h46v1l-43 1-1 16v33l-1 12h-1l-1-62z" fill="#848F6A"/>
<path transform="translate(617,1428)" d="m0 0 6 1 2 1 17 2 13 4 6 3-4 1-4-1-9-3-8-2-18-1h-6v-2z" fill="#87936A"/>
<path transform="translate(330,1569)" d="m0 0h2l4 9 9 4 17 3 2 2-15-1h-8l-5-4-6-3-6-5 1-3v2l6 2z" fill="#8C9A6B"/>
<path transform="translate(1378,1491)" d="m0 0 2 4 3 11 1 30-2 13-3 9-2-1 1-6 2-6 1-23-1-2v-13l-2-10z" fill="#777"/>
<path transform="translate(1367,1751)" d="m0 0 11 6 13 4h8l7-3 4-5-1 5-5 5-3 1h-9l-11-2-11-6-6 4 1-6z" fill="#787E69"/>
<path transform="translate(1504,1671)" d="m0 0h10l15 5 10 7 9 11 6 13 1 7-2-3-5-12-9-13-12-8-17-5-6-1z" fill="#808C62"/>
<path transform="translate(661,1440)" d="m0 0 6 2 10 8 7 4v2l4-1 8 11-1 2-8-7-16-12-1-3-4-1-4-2z" fill="#87926B"/>
<path transform="translate(928,1572)" d="m0 0 1 2-6 10-9 11-8 7-3 1-3-2 10-7 8-9 8-11z" fill="#828C68"/>
<path transform="translate(895,1604)" d="m0 0 4 1-8 6-15 6-12 4h-2l1-3 15-5z" fill="#879367"/>
<path transform="translate(714,1095)" d="m0 0h40l13 2-2 3v-2l-54-1z" fill="#FEFEFE"/>
<path transform="translate(344,1473)" d="m0 0m-2 1 3 1-4 3-10 6-6 3-7 10-4 8-1-4 8-14 11-9z" fill="#81896C"/>
<path transform="translate(879,1572)" d="m0 0h2l-1 5-8 7-4 1v-2l-12 3h-4l1-4h5l2 1 11-4z" fill="#869169"/>
<path transform="translate(1088,1471)" d="m0 0h7l10 5 6 7 4 8-1 4-1-4h-2l-4-8-9-7-10-3z" fill="#7D846E"/>
<path transform="translate(1513,1587)" d="m0 0h15v1l-11 1-1 5v30l-3-1z" fill="#A0C249"/>
<path transform="translate(314,1452)" d="m0 0m-1 1m-2 1 2 1-5 5-4 7h-2l-2 4-5 5-5 6-2-1 4-6 9-12 8-7z" fill="#7E846D"/>
<path transform="translate(649,552)" d="m0 0 5 1-1 37h-1z" fill="#C8DC97"/>
<path transform="translate(1429,1722)" d="m0 0 2 2 1 3 4 2 4 7 1 4v13l-4 11-7 8v-3l6-8 2-6v-18l-3-5-5-4z" fill="#767C65"/>
<path transform="translate(1283,1465)" d="m0 0h15l7 1 1 3-13-1h-14l-13 3-4 1v-2l8-3z" fill="#828C69"/>
<path transform="translate(1645,1559)" d="m0 0v3l-10 14-10 7-11 3h-9v-1l18-4 9-6 8-9z" fill="#A1C34C"/>
<path transform="translate(1143,1531)" d="m0 0 1 3-6 11-7 7-8 5-1-2 8-6 8-11 4-6z" fill="#80886B"/>
<path transform="translate(1682,1572)" d="m0 0 2 1-7 12-11 12-8 7-2-1 12-12 1-2h2v-2h2l2-4 5-7z" fill="#879366"/>
<path transform="translate(1388,1702)" d="m0 0 13 6 20 8 6 4-2 1-11-5-19-7-7-5z" fill="#7A8265"/>
<path transform="translate(1106,1611)" d="m0 0h2l2 7h4v2l18 2v1l-22 1-3-1z" fill="#7E8471"/>
<path transform="translate(986,1533)" d="m0 0h2v33h5l-4 2-3-1z" fill="#B8D279"/>
<path transform="translate(550,1456)" d="m0 0 2 1v5l-5 4-1 2h-2l-1 5-4 7-3 1 2-6 11-18z" fill="#899470"/>
<path transform="translate(1201,1571)" d="m0 0h2l4 7 7 9 4 3-3 4-7-8-7-13z" fill="#87926B"/>
<path transform="translate(1377,1671)" d="m0 0h5l-3 2-8 6-6 9-3 12-1 7h-1v-9l4-13 6-8z" fill="#818E60"/>
<path transform="translate(1268,1580)" d="m0 0h7l10 3 9-1 2-1h7l-4 2-5 2h-16l-10-4z" fill="#8D9D67"/>
<path transform="translate(896,1549)" d="m0 0h2l-1 6-1 2h-2l-2 4-5 7-6 4 2-4 7-8 4-8z" fill="#7C8170"/>
<path transform="translate(617,1428)" d="m0 0 6 1 2 1 11 1v1l-6 1h-18v-2z" fill="#869268"/>
<path transform="translate(537,1480)" d="m0 0 2 2-4 11-2 6-3 1 2-11 3-8z" fill="#7D836E"/>
<path transform="translate(655,483)" d="m0 0h1l1 13-1 1v5l-1 3v2l-3 1v-9z" fill="#FEFEFE"/>
<path transform="translate(1367,1751)" d="m0 0 11 6 8 3v1h-7l-9-5-6 4 1-6z" fill="#7F8964"/>
<path transform="translate(1376,1559)" d="m0 0h2l-2 6-8 16-3 3-1-2 9-17z" fill="#80896A"/>
<path transform="translate(1382,1529)" d="m0 0h1l1 7-2 13-3 9-2-1 1-6 2-6 1-15z" fill="#7A7D72"/>
<path transform="translate(1364,1583)" d="m0 0 1 2-7 8-7 7-3 2-3-1 5-5h2v-2l8-7z" fill="#7D836E"/>
<path transform="translate(576,1440)" d="m0 0 3 1-11 6-3 5-10 6v-3l7-6 8-6z" fill="#8B9B63"/>
<path transform="translate(1370,1729)" d="m0 0 5 1 16 5 9 3-4 1-12-3-12-5z" fill="#7A8165"/>
<path transform="translate(605,584)" d="m0 0 4 4 1 10-5-1-1-11z" fill="#ADCA64"/>
<path transform="translate(649,1473)" d="m0 0 4 2 6 4v2h2l7 11-1 3-7-11-11-8z" fill="#858F6A"/>
<path transform="translate(1059,1566)" d="m0 0h7l9 4 7 4-1 2-9-4-7-2v-2h-6z" fill="#7E846D"/>
<path transform="translate(1346,1599)" d="m0 0m-1 1m-2 1 4 2-14 8-6 2 1-3 11-6z" fill="#80896A"/>
<path transform="translate(1345,1514)" d="m0 0 2 1 2 12-1 8-4 8-2-1 4-13v-10z" fill="#889860"/>
<path transform="translate(286,1475)" d="m0 0h1v6l-1 2 2 1-5 5-3 7-2-1 7-19z" fill="#96A474"/>
<path transform="translate(1510,1755)" d="m0 0 2 1-7 4-9 2-7-1 4-2z" fill="#7F8966"/>
<path transform="translate(935,1550)" d="m0 0 1 3-6 18-2-1 3-13 3-6z" fill="#80896A"/>
<path transform="translate(1359,1767)" d="m0 0h1l1 6 13 7-4 1-10-5-2-3z" fill="#82896E"/>
<path transform="translate(1426,1673)" d="m0 0 5 1 8 4-1 2h-6l-2 6-1-3 1-7z" fill="#90A658"/>
<path transform="translate(1148,1488)" d="m0 0h1l1 10v16l-3-1z" fill="#777"/>
<path transform="translate(1685,1494)" d="m0 0h2v2h2l3 16h-2l-5-14z" fill="#7F866C"/>
<path transform="translate(1626,1477)" d="m0 0h4v2l5 1 8 8-1 3-8-8-8-5z" fill="#8B9A64"/>
<path transform="translate(682,1093)" d="m0 0h16l6 2v1h-10l-12-2z" fill="#FEFEFE"/>
<path transform="translate(1256,1090)" d="m0 0 1 3-1 3-12-2-2-2 11-1z" fill="#FEFEFE"/>
<path transform="translate(1280,1429)" d="m0 0h14l9 2 2 2h-10l-4-1v-2h-11z" fill="#869463"/>
<path transform="translate(1618,1617)" d="m0 0m-4 1h4v2h-2v2l-3 1h-9l3-3z" fill="#7C816F"/>
<path transform="translate(869,1580)" d="m0 0 2 1-5 3-10 2h-4l1-4h5l2 1z" fill="#BCD480"/>
<path transform="translate(1517,1700)" d="m0 0 7 4 4 5 1 3v8l-2-4-4-9v-2l-4-1z" fill="#828B6C"/>
<path transform="translate(1643,1670)" d="m0 0h34l-2 4-1-2-31-1z" fill="#777970"/>
<path transform="translate(565,1499)" d="m0 0h2l-2 6-2 4-1 7h-2v-8z" fill="#838D67"/>
<path transform="translate(879,1612)" d="m0 0m-1 1m-4 1 4 1-5 3-11 3 1-3z" fill="#7F866C"/>
<path transform="translate(653,508)" d="m0 0 4 1h15l-3 2h-16l-3-2z" fill="#EEF4E0"/>
<path transform="translate(1127,1563)" d="m0 0 3 2 4 11 3 7-3-1-4-8-3-9z" fill="#92A465"/>
<path transform="translate(1262,410)" d="m0 0 3 1 2 4v6h-3l-2-7z" fill="#C6DA92"/>
<path transform="translate(1086,412)" d="m0 0 6 3-1 4-1 3-2-1 1-2-3-1z" fill="#C4D98F"/>
<path transform="translate(339,1439)" d="m0 0h5l-4 2-4 3-6 3-1-4z" fill="#8B9A66"/>
<path transform="translate(809,1311)" d="m0 0h11l2 1v2h-11l-3-2z" fill="#FEFEFE"/>
<path transform="translate(1324,1568)" d="m0 0v3l-4 5-9 3 4-4 8-6z" fill="#A3BF5F"/>
<path transform="translate(1254,1572)" d="m0 0 4 1 4-1 1 3h2l-1 3-9-3z" fill="#C2D78B"/>
<path transform="translate(826,361)" d="m0 0 4 1-1 2-14 3 1-2 5-1v-2z" fill="#E3ECCA"/>
<path transform="translate(1606,1737)" d="m0 0 3 1v10h-3z" fill="#A5BF64"/>
<path transform="translate(1429,1722)" d="m0 0 2 2 1 3 4 2 4 7-1 2-4-6-5-4z" fill="#7F8C5F"/>
<path transform="translate(1662,1596)" d="m0 0m-1 1m-1 1v3l-8 6h-2l2-4z" fill="#7D836E"/>
<path transform="translate(857,1311)" d="m0 0h12l-1 3h-8z" fill="#FAFBF7"/>
<path transform="translate(1426,1772)" d="m0 0 3 1-11 7-5 1 5-4z" fill="#788063"/>
<path transform="translate(791,1295)" d="m0 0 3 1v2l5 2 1 4-5-1v-2h-2z" fill="#DCE8BE"/>
<path transform="translate(1373,553)" d="m0 0 5 1-3 3-6 2 1-5z" fill="#EDF3DE"/>
<path transform="translate(1427,1688)" d="m0 0 1 2-4 7-4-1-2-2 5-1z" fill="#757B65"/>
<path transform="translate(1378,1491)" d="m0 0 2 4 3 13-3-1-2-10z" fill="#828C69"/>
<path transform="translate(1231,374)" d="m0 0h2v2h2l4 5-2 1-5-1z" fill="#B2CE6D"/>
<path transform="translate(1134,237)" d="m0 0h2l2 5-3 3v2h-2v-4l-2-1z" fill="#FEFEFE"/>
<path transform="translate(889,1561)" d="m0 0 2 1-4 6-6 4 2-4z" fill="#90A262"/>
<path transform="translate(1340,1500)" d="m0 0h2l4 9-1 3-2-2-3-6z" fill="#869563"/>
<path transform="translate(607,914)" d="m0 0 2 2-1 7h-3v-7z" fill="#FEFEFE"/>
<path transform="translate(841,361)" d="m0 0 7 3 2 3-10-2-3-3z" fill="#FEFEFE"/>
<path transform="translate(1363,1718)" d="m0 0 4 2 3 9-3-1z" fill="#8B9869"/>
<path transform="translate(1504,1671)" d="m0 0h10l6 3-4 1-12-3z" fill="#747967"/>
<path transform="translate(916,1589)" d="m0 0 1 3-7 7h-2l2-4z" fill="#849066"/>
<path transform="translate(330,1569)" d="m0 0h2l3 9-7-2-1-2 4 1z" fill="#CEDFA2"/>
<path transform="translate(1381,1545)" d="m0 0 1 4-3 9-2-1 1-6z" fill="#7E856D"/>
<path transform="translate(1458,574)" d="m0 0 4 2 3 1 1 3-2 2-6-7z" fill="#AECB66"/>
<path transform="translate(663,1074)" d="m0 0 4 1 4 3-1 2-6-3z" fill="#F4F8EC"/>
<path transform="translate(1151,1293)" d="m0 0h3v8h-3z" fill="#FEFEFE"/>
<path transform="translate(779,1279)" d="m0 0h2l3 5v2h-2v-2h-2z" fill="#F8FAF3"/>
<path transform="translate(793,1293)" d="m0 0 5 2 1 4-4-2z" fill="#AAC85D"/>
<path transform="translate(1166,1268)" d="m0 0h1v8h-3z" fill="#DAE7B9"/>
<path transform="translate(1183,206)" d="m0 0 2 3-1 9h-1z" fill="#FEFEFE"/>
<path transform="translate(1370,956)" d="m0 0h7v3l-7-2z" fill="#FEFEFE"/>
<path transform="translate(747,336)" d="m0 0h5v2l-3 3-2-1z" fill="#FEFEFE"/>
<path transform="translate(777,244)" d="m0 0 5 1v3l-3-1v-2z" fill="#B6D074"/>
<path transform="translate(1051,1297)" d="m0 0 4 2-1 3-3-2z" fill="#DBE7BB"/>
<path transform="translate(1139,279)" d="m0 0h2l-2 4-2 1 1-4z" fill="#C9DC99"/>
<path transform="translate(910,1270)" d="m0 0 1 3-1 3h-2l1-4z" fill="#EAF1D9"/>
<path transform="translate(1166,243)" d="m0 0h2l-1 5-2-1z" fill="#F4F7EB"/>
<path transform="translate(772,198)" d="m0 0h2l1 2 3 2-5-1z" fill="#FEFEFE"/>
<path transform="translate(765,198)" d="m0 0 2 2-4 2z" fill="#FEFEFE"/>
<path transform="translate(1050,1293)" d="m0 0h2v2h3l-1 2-3-1z" fill="#CEDFA2"/>
<path transform="translate(509,956)" d="m0 0 4 1v2l-5-1z" fill="#FEFEFE"/>
<path transform="translate(1438,555)" d="m0 0 5 2-2 1-3-1z" fill="#FEFEFE"/>
<path transform="translate(768,199)" d="m0 0 3 1v2h-3z" fill="#FEFEFE"/>
<path transform="translate(1116,416)" d="m0 0h5l-1 2z" fill="#FEFEFE"/>
<path transform="translate(1135,380)" d="m0 0 2 1-1 3-2-3z" fill="#FEFEFE"/>
<path transform="translate(1164,201)" d="m0 0h6v1l-6 1z" fill="#FEFEFE"/>
<path transform="translate(987,1570)" d="m0 0 5 1v1h-5z" fill="#FEFEFE"/>
<path transform="translate(1035,1282)" d="m0 0 2 1v2h-2z" fill="#FEFEFE"/>
<path transform="translate(1134,404)" d="m0 0 2 2-3 1z" fill="#FEFEFE"/>
<path transform="translate(1148,1294)" d="m0 0 1 4z" fill="#FEFEFE"/>
<path transform="translate(571,957)" d="m0 0 2 1h-3z" fill="#FEFEFE"/>
<path transform="translate(503,956)" d="m0 0 4 1z" fill="#FEFEFE"/>
<path transform="translate(1346,939)" d="m0 0 2 1-1 2z" fill="#FEFEFE"/>
<path transform="translate(1136,399)" d="m0 0v3z" fill="#FEFEFE"/>
<path transform="translate(689,399)" d="m0 0v3z" fill="#FEFEFE"/>
<path transform="translate(1197,339)" d="m0 0 3 1h-3z" fill="#FEFEFE"/>
<path transform="translate(1119,259)" d="m0 0h2v2h-2z" fill="#FEFEFE"/>
<path transform="translate(781,199)" d="m0 0h2v2h-2z" fill="#FEFEFE"/>
<path transform="translate(890,1295)" d="m0 0 2 2h-2z" fill="#BED583"/>
<path transform="translate(786,1282)" d="m0 0" fill="#BED583"/>
<path transform="translate(575,956)" d="m0 0 2 1-2 1z" fill="#FEFEFE"/>
<path transform="translate(1452,567)" d="m0 0h2l-1 2z" fill="#FEFEFE"/>
<path transform="translate(716,363)" d="m0 0" fill="#FEFEFE"/>
<path transform="translate(1193,337)" d="m0 0h2l-1 2z" fill="#FEFEFE"/>
<path transform="translate(814,263)" d="m0 0h2l-1 2z" fill="#9EC146"/>
<path transform="translate(1183,220)" d="m0 0" fill="#FEFEFE"/>
<path transform="translate(1172,201)" d="m0 0 3 1z" fill="#FEFEFE"/>
<path transform="translate(1074,1574)" d="m0 0 2 1z" fill="#9EC146"/>
<path transform="translate(1148,1301)" d="m0 0 2 1z" fill="#FEFEFE"/>
<path transform="translate(896,1296)" d="m0 0 2 1z" fill="#CEDFA2"/>
<path transform="translate(1033,1280)" d="m0 0 2 1z" fill="#FEFEFE"/>
<path transform="translate(1024,1096)" d="m0 0 2 1z" fill="#FEFEFE"/>
<path transform="translate(500,955)" d="m0 0 2 1z" fill="#FEFEFE"/>
<path transform="translate(1345,937)" d="m0 0" fill="#FEFEFE"/>
<path transform="translate(1466,580)" d="m0 0 2 1z" fill="#CEDFA2"/>
<path transform="translate(1434,554)" d="m0 0" fill="#FEFEFE"/>
<path transform="translate(1139,399)" d="m0 0" fill="#FEFEFE"/>
<path transform="translate(1137,396)" d="m0 0" fill="#FEFEFE"/>
<path transform="translate(1136,377)" d="m0 0 2 1z" fill="#CEDFA2"/>
<path transform="translate(1135,296)" d="m0 0" fill="#FEFEFE"/>
<path transform="translate(770,234)" d="m0 0 2 1z" fill="#FEFEFE"/>
<path transform="translate(1150,219)" d="m0 0" fill="#FEFEFE"/>
<path transform="translate(1176,201)" d="m0 0 2 1z" fill="#FEFEFE"/>
<path transform="translate(777,197)" d="m0 0 2 1z" fill="#FEFEFE"/>
<path transform="translate(1073,1313)" d="m0 0" fill="#FEFEFE"/>
<path transform="translate(879,1312)" d="m0 0" fill="#FEFEFE"/>
<path transform="translate(790,1294)" d="m0 0" fill="#FEFEFE"/>
<path transform="translate(1054,1293)" d="m0 0" fill="#9EC146"/>
<path transform="translate(1047,1293)" d="m0 0" fill="#FEFEFE"/>
<path transform="translate(587,946)" d="m0 0" fill="#FEFEFE"/>
<path transform="translate(1343,934)" d="m0 0" fill="#FEFEFE"/>
<path transform="translate(605,580)" d="m0 0" fill="#FEFEFE"/>
<path transform="translate(605,578)" d="m0 0" fill="#FEFEFE"/>
<path transform="translate(1463,575)" d="m0 0" fill="#FEFEFE"/>
<path transform="translate(1456,572)" d="m0 0" fill="#FEFEFE"/>
<path transform="translate(1458,571)" d="m0 0" fill="#FEFEFE"/>
<path transform="translate(1455,571)" d="m0 0" fill="#FEFEFE"/>
<path transform="translate(1454,569)" d="m0 0" fill="#FEFEFE"/>
<path transform="translate(1113,416)" d="m0 0" fill="#FEFEFE"/>
<path transform="translate(692,402)" d="m0 0" fill="#FEFEFE"/>
<path transform="translate(690,398)" d="m0 0" fill="#FEFEFE"/>
<path transform="translate(1249,388)" d="m0 0" fill="#FEFEFE"/>
<path transform="translate(1137,384)" d="m0 0" fill="#FEFEFE"/>
<path transform="translate(1224,367)" d="m0 0" fill="#FEFEFE"/>
<path transform="translate(1119,366)" d="m0 0" fill="#FEFEFE"/>
<path transform="translate(1178,333)" d="m0 0" fill="#9EC146"/>
<path transform="translate(1183,331)" d="m0 0" fill="#FEFEFE"/>
<path transform="translate(1182,330)" d="m0 0" fill="#FEFEFE"/>
<path transform="translate(768,323)" d="m0 0" fill="#FEFEFE"/>
<path transform="translate(1158,314)" d="m0 0" fill="#FEFEFE"/>
<path transform="translate(839,283)" d="m0 0" fill="#FEFEFE"/>
<path transform="translate(798,273)" d="m0 0" fill="#FEFEFE"/>
<path transform="translate(830,272)" d="m0 0" fill="#FEFEFE"/>
<path transform="translate(824,262)" d="m0 0" fill="#FEFEFE"/>
<path transform="translate(1122,258)" d="m0 0" fill="#FEFEFE"/>
<path transform="translate(786,254)" d="m0 0" fill="#FEFEFE"/>
<path transform="translate(1138,245)" d="m0 0" fill="#9EC146"/>
<path transform="translate(1163,240)" d="m0 0" fill="#9EC146"/>
<path transform="translate(766,232)" d="m0 0" fill="#FEFEFE"/>
<path transform="translate(762,203)" d="m0 0" fill="#FEFEFE"/>
</svg>
