<?xml version="1.0" encoding="UTF-8"?>
<svg version="1.1" viewBox="0 0 1531 1600" width="1280" height="1280" xmlns="http://www.w3.org/2000/svg">
<path transform="translate(865,369)" d="m0 0h32l15 3 4 3 7 3v2h-3l-1 3 5 2 8 9 2 8 1 3h2l1 3 1 29h8l11 4v3l-4 1 9 2 2 1 1-3 4 2-3 2 5 3 13 4 7 3 13 4-3 2h-2v2l9 2 19 7 16 7 10 3-4 2 6 3 10 3 11 6 2 2h8l1 1h3l2-2v2l5-4 3 3v-5l1-4 3-2 7 1v3l4 1v-5l2-1-3-2v-4l14-1h16l8 2-3 4 4 1 6 2 4 4 1 2 5-2 4-6 2-9 3-5 2-1v3l4-4 3-5h3l1-7h2v-2l10-8h2v-2h2l2-4 1-3 8-4 22-8 7-1h44l11 1 22 8 5 3 9 3 1 2-13-3-1 1 14 6 4 3v2h3l1 4 7 2 1 3-2 4 3 1v2h2v2l3-1 4 10 6 16 1 4 1-7h2l3 11 1 8v52l-3 14-4 2-1-1-2 9h-5l1 3h-3l1 7-2 4h-3l-2 4-2 5-7 2 2 2v3l-7 1-1 4-5 3v2l-4 1v2l-2-1-2 2-9 3 2 2-1 2-8 3h-6v4 2l10 1 5 2-1 2 11 3 1 3-4 2h3l1 2 4-1 6 4 1 5 3-1 4 5 1 2h2l1 5 8 7 8 20 1 9 2-6v-3h2l3 11 1 11v47l-3 15-4 2-1-3-2 9-5 5-1 7-9 11-5 6 1 2-5 3-8 7-6 4-12 5 3 3-1 1-15 1-1 6 5 1 2 1v4l11 1 4 2-2 4 4 3h7l4 2 1 4 5 1 3 4v3l5 1 1 5 5 8 7 10 3 7 2 10 1-8h2l3 9 1 10 1 33-1 20-3 13h-2l-2 3-1-3-2 9h-2l-1 4-2 4-3 9h-4l-2 7-5 2-1 5-3 5-5 1-1 3-7 2h-2l-4 1v3l-6 6h-3l-1 3-9 3-20 3-12 1h-17l-18-3-11-3-7-4v-2l-17-8-8-8-3-4 1-2-1-1v-2l-5-1v-2l-3 1v-3l-2-1-1-5h-5l-2 1v-3h-2v-9l1-2-5-1-4-12v-6l-4-1 1 8-24 6h-16l-13-3-16-6v-2l7 1 1-3h-7v-2h-2l-1-3-3-2-8 1-4 4-8 1-2 2 4 2v2l-14 3-7 2-1 3-7 2h-7l1 3-6 3-14 2v3l8 1 1 2-10 1-8 2-4 3-12 4-3 3-9 2-4 1-2 1 3 2-10 5-9 3-1 2-9 3-8 1-2 9-1 28h-3-1l-3 15h-6l-1 6-7 3-1 4-19 3h-24l-16-2-5-6-5-2-2-4-4-4 1-4-6-3-1-2-2-36-4-2 3 3v2h-5l-1-1v-6l-14-5-8-4-14-5v-1h7v-2l-9-1-19-9-12-5-10-2v-3-2l-16-7-19-8-13-4 4-2-7-4-8-3-5-3-4 2-8 3-4 3 2 4-10 4-13 4h-18l-12-3-11-5v-2l3-3-6-2h-5l-2-3v-3l-6-3-2-12v-2l-11 2-3 3-1 4-19 6-31 7-33 5 16 1-2 2-20 2-19 1-42 1h-46l-50-2-24-3-4-2 12-1-28-4-27-6-26-8 3-3-3-2-8-4-5-5v-2l-2-1-1-6h-1v7l-4-1-1-9 1-424 7 1 2-5 3-6h2l2-4 10-3 3-3 13-3 12-2v-2l-12-1v-1l28-5 26-4 50-4 32-3h31l71 6 19 2 36 6 12 3v1l-13 1 26 7 16 6v4l2-6 4-10v-2l1-4 1-2h2l1-4 7-1 1 1 3-5 5-3 2-1h8v-2l-4-1v-2l4-2 6-1h21l9 2 1 2-7 2 4 1 8 1 4 3v2l5 2 7 4 2 3 5-1 4-4 13-5 9-4 8-1 1-1-4-2 8-4 12-5 13-5 8-4 11-2-3-2v-2l12-4 4-3 7-2h8v2h3l1-2h2l1-6 10-4h-2l-9 2 5-4 15-5h5v-25h3v23l3 1v-13l1-20 2-8 4-2 1-6 4-3 4-2-2-4 5-3 7 1v-5zm353 73-2 4h5v-4zm-5 2 1 2 2-2zm-286 12-4 6-2 1v2h2l-3 3-6 2-1 3-10 2-6 1h-24l-11-2-12-6-1-7-9-3-7 2-8 1-4 3 3 2-11 4-3 1v2l-9 3-15 6-9 3-2 1 1 4-4 2-10 1-2 4-13 3-4 3-17 5 4 2 3 1-24 8-14 5-3 8v14l3 7 12 6 17 4 13 5 14 4-9 1 4 2 14 4 12 5 30 9 9 4-8-1-3 2 13 3 7 4 16 2 1 5 4 1 2-7 5-1 3-4 1-3 5 1v-2l-2-1 4-4 20-4 14-1 13 4 7 2 3 1v2l-4 1 1 1 9 1 1 5 3 5 4 2 9-4 13-3v-3l4-2h12l1-2-7-1 14-5 13-4 10-4 5-1 3-1 2-3 14-3 4-1-7-3 13-3 8-1 2-4 21-5 3-3-3-1 2-1 12-2 1-3v-18l-1-6 1-6-3-2 1 7h-7l-14-4-2-4-4-1-12-4 5-1-3-2-9-2-12-5-14-6-11-5h-2v-2l2-1-20-8-21-9-9-4h-2l1-3-12-3zm190 30 1 2 1-2zm59 0m-553 3m553 0m-58 3 1 3 1-3zm-56 10m34 0 2 3v-3zm-17 1m2 2 2 9 2-2 1-7zm-489 2m502 0m-43 1m19 0m18 0v3zm4 0-1 2h2zm9 0m-58 1m53 0m3 0 1 2zm-2 1m-49 1m18 0 3 2h3v-2zm20 0v3zm2 0m10 0m2 0m-50 1 4 2 1-2zm23 2m9 0m-501 15m100 41v2h2v-2zm692 1m-693 1-3 8-1 1-2-2-10 7-2 3-8 2-10 1h-14l-13-2-16-8-3-1-3 2v126l1 3 5-1v-2h2v-3h9l1-4-2-3 22-3h14l11 2 4 3-3 3 8 1 4 6 5 2 2-1 1 3h2l2 4 1-2h2v-2l10-2 7-3 8-5 8 1 3-2-5-2 8-4 9-2 7-4 18-4 1-4 10-2-2-3 11-4 9-2 4-3h4v-2l8-1 8-2v-2l-6-2 19-4 3-6v-13l-1-7-20-7-17-6 3-2-26-9-30-10 6-1-2-2-36-12-19-7-4-1zm403 1-2 2-8 3-7 4-12 3-13 5-8 3-5 3 3 2-9 3v-2l-4-1-2 2-2 4-16 4-5 3-15 3-3 3 6 2-17 4-8 4-16 4-1 1-1 12 1 9 1 2 14 3 10 3-5 1-3 1 9 4 12 3 10 4 17 5 8 3-8-2h-7l1 2 13 4 10 4 16 5 17 6-5 1v2l10 2 11 1-2 2 6 4 9 2 2 5 2-2v-4l3 1 4-2 2-7 4-2 1 3 6-1 2-2v-2l-3-2 4-2 17-2h11l21 2-1 6h2l1 3 3-2 1 2 3 1 1-2 1 5 3-2h2l2-13 2-3v4h2l2-3 2-1 3-10 3-1 3-6 5-2 2-5 8-2 2-4-3-1v-2l10-2 1 2 2-2 7-5 9-2 1-4-4-3-9-2-2-1 4-1v-2h-5v-2l-8-2-15-10-5-4h-2l1-4-3-4h-2l-2-7-7-10h-2v-6h-2l-5-4-1-1h-5l-3 5-17 3-11 1-3 1-6-2-17-3-4-4-7-3-4-6zm95 20m-435 3 3 2 4-1zm9 2m218 0m-215 1m39 18m551 1m-12 11m-1 1m-502 3v19h4v-14l-2-5zm489 6m5 19m6 2m-5 2m2 0m-490 12-4 2-2 2h-4v2h-2l-1 3-2 1v-2h-2l-3 5-17 5v2l-19 4-4 2-3 3 4 1 2-1v2l-7 1-8 1v-2l-2 1-1 3 1 2-18 3 1 4-7 1-9 2-6 3 6 3-14 3-3 2v-2h-2l-4 4-12 3-4 8-2 1v2h3v9l2 7 1 1 12 2v2l-2 2 5 3 14 3 10 5 15 5 13 3v2l-5 1 4 3 13 4 12 5 12 4 8 3 3 1-4 1 8 5 12 4 4 4 3-1 3 1h9l3-1 1-4 8-4v-3l-1-2 6-1 4-3 9-2h21l10 2v2l11 1-1 4 2 3 6 3 2 5 4 1 10-3 1-2 17-4 4-3-3-2 10-2 8-5 9-3 8-3 11-4 9-3-4-3 5-2 9-3 10-4 9-2 2-3 22-6-1-2h-8l3-2 14-2 5-6 1-4v-10l-2-5-6-4-28-9h-3l1-5-24-8-19-8-7-3-2-4-17-5-26-9 7-1-4-2-13-2-1-4-7-1-5 3v3l-2 1h2l-5 6-7 3-8 1-3 3-3 1h-20l-14-2-14-6-1-6-4-1-2-5zm-23 8 1 2 1-2zm4 0 1 2zm102 0m430 0m2 0m-493 8m319 8m-468 30m-29 55-3 3v2l-6-1-2 10-9 2-4 3-12 2h-15l-14-3-13-5-1-8-3-1-2 1-2 9v121l7-1 12-6 11-4 5-1h17l18 7 8 6h4v6l3 1v2h7l13-3v-2l-3-1 8-3 16-5 17-5 1-3 22-4-1-3-2-1 21-7 15-4 4-1 4-3 15-3 2-2-5-3 13-3 1-1 1-17h1l1 17h3l1-11v-9l-16-5-25-10-10-3h4v-2l-12-5-15-6-18-6h2 6l-3-2-19-8-17-6-13-4 4-2-2-2-10-2-5-2v-2zm405 0-4 2-3 4-2-1v2l-9-1 1 3 3 2-19 5-1 2-16 5-3 2v2l-8 1-1 2v1h-3v3l-6 1-14 4-2 3-19 5v2l3 1-14 5v2l-11 3-12 5-8 3v20l5 2 15 2v2l-10 1 4 2 15 4 15 5 17 5 11 4 2 3h3v2l-5-1-2 7 1 2-9 3-5 2-23-6-21-7-7-2h-4v-2h11l-2-2-10-2h-13l-3 8-5 3-2 4-12 3-14 4h-8l-18-4-9-5-10-7-1-1 2-2-9-3-8 1h-7l2 5-9 3-10 2v2l-10 3-8 1-5 4-20 4 4 2 7 1-25 6-5 3-15 4-13 4v1l14-1v2h-7l-17 6-12 3-1 3v8l-1 9 2 3h2l2 4 13 4 5 1 1 2-4-1-4 1v2l11 2 12 6 22 8 9 3h-11l2 2 20 7 25 10 12 3v2h-8l2 2 14 4 6 5 13 2 2 7 2-1v-3h2v-3l5-1 4-3v-2l4-1v-2l17-1 3-2-6-2h-9v-2l17-1h17l7 1-2 2-7 2v1l15 2h6l2 1 3 5 6 4 3 7h2l2-6 11-5 7-1v-2l6-2 11-3-1-2-4-1 10-4 6-3 3-2 15-3 1-3 5-2 9-2 2-2-1-2h-4v-2l20-4 1-3 12-2 3-3-1-2 14-2 2-2-6-2 6-3 12-2 6-4 3-4v-10l-1-10-19-5-11-4 3-2-40-14-9-4h-3v-2l8 1 5-2v-2l-6-1v-2l4-2 13-3 11 1 13 4 12 4 12 3-3 3 1 2 11 2 4 4 3-5 7-3-1-7 6-1 2 1 2-4 15-4v-2l6-1h20l3 1 1 3 13 1 2 7 6 1 2 1 2-1 1 2 2-7 1-3 2-1 1 2 5-4 5-8 2-1 1-7 4-1v-2l4-1v-2h3l3-3 8-4-3-4 16-4 9-7v-5l-3-1-11-1-2-5-10-3-12-9-5-6-5-7-4-4-6-11-3-5v-2l-4 1-1-4-4-6-6 1-8 5-13 2h-17l-11-2-11-6-7-1 1-4-2-3h-2v-2h-2v-2zm-292 28m2 0 4 2 3-1zm70 0-2 2 17-1v-1zm25 0v1h7v-1zm79 0m51 0v3zm-217 1m213 0m-266 2m268 0-1 2h2zm-230 18m-21 63m584 1m-448 15m110 4m-1 1m-339 3m499 3-1 2h2zm-462 19v2l4-2zm342 0m-346 1m350 0m-347 1m352 0m-493 41m-1 1m805 21m-50 64m-8 1m1 2-1 2h2z" fill="#09080C"/>
<path transform="translate(369,516)" d="m0 0h57l39 3 37 4 28 6 17 7 20 8 5 3 2 8v124l-2 7-6 4-31 11-5 3-25 5-19 3-23 2-50 2h-20l-46-2-30-2-20-3-19-3-7-4-18-7-14-5-7-4-1-2-1-77v-53l2-7 10-6 7-3 17-5 10-5 11-3 35-4 23-2 8-2z" fill="#8F70ED"/>
<path transform="translate(231,709)" d="m0 0 5 2 21 8 15 7 8 3 48 7 20 2h91l16-1 8-3 9-5 3-5 3-3 5 1 1 1 1 12 15-2 14-3 13-3 8-4 15-5 2-2 14-4 6-1 1 3 1 14v103l-3 6-7 5-29 9-9 4-7 3-34 5-20 2-17 1h-89l-33-2-43-6-4-3-11-4-26-8-10-5-2-4v-103z" fill="#9071EE"/>
<path transform="translate(232,864)" d="m0 0 10 3 28 7 2 1 1 3 14 3 45 6 11 1h118l41-5 29-5v-3l16-4 20-6h5l2 6 1 26v46l-2 12-9 7-9 4-8 5-24 7-33 5-24 5-12 1h-98l-20-2-20-4-32-4-15-5-13-4-10-5-12-7-3-3-1-14v-65z" fill="#9071EE"/>
<path transform="translate(1262,668)" d="m0 0h23l14 3 20 10 4 5 16 11 9 17 5 10 3 13 1 12v14l-3 17-6 19-8 12-4 5-6 4-14 9-6 4-8 5-10 3-18 3-14-1-14-2-14-6-7-6-5-4-5-2-9-9-4-7-7-10-6-18-2-20v-18l4-18 6-11 7-11 11-12 6-4 2-4 17-8 14-4z" fill="#D32B2C"/>
<path transform="translate(1265,886)" d="m0 0h15l19 3 17 8-1 2 6 4 9 7 3 3 4 1 5 5 1 4 7 12 5 14 1 7v35l-3 10-2 6-6 12-7 9-1 4-4 1-11 9-12 7h-3l1 3-13 5-13 2h-21l-16-3-10-4 1-3-6-1-9-5-3-2h-2l-7-8-8-11-4-5-4-8-4-16-2-11v-24l2-7h2l3-13 3-9 4-6 2-5 4-5 8-7 5-1v-2l5-3h2v-4l14-5 12-3z" fill="#58B9B0"/>
<path transform="translate(1260,454)" d="m0 0h28l12 3 17 7v3l9 6 4 4v2h2l1 2 4 1 5 6 2 5 8 14 3 10 1 8v30l-2 10-3 7-3 9-8 10-2 4-2 8-3 1-5 5-14 4-6 7-10 4-23 4h-8l-17-3-14-5-4-4-12-8-5-2-8-7v-3l-7-10-6-9-4-14-2-8v-21l1-13 2-4 3-12 4-9 8-15 5-5 4-3 7-3 5-3 4-4 15-6 6-2z" fill="#58B9B0"/>
<path transform="translate(499,514)" d="m0 0h28l9 2 6 4 5 5v2l5 2 5 4 9 4v2l5 2 5 4 1 26-1 1v113l-5 5-10 3 2 6-1 7-1 6h5l-2 2-12 3-2 2-18 6-8 4-21 4-7 2-9 1-2-1-2-12-5-1-4 4-3 5-12 6-4 1-16 1h-91l-28-3-40-6-8-3-15-7-13-5-10-4-4-2 1-4h2l1-5 6-9-6-2v-3l12 6 21 7 8 4 3 2 19 3 20 3 49 3 27 1h20l50-2 31-3 32-6 7-3 18-7 17-6 4-4 1-5v-124l-1-8-45-18-32-6-16-2v-1h15l1-4z" fill="#04011B"/>
<path transform="translate(574,728)" d="m0 0h1l1 11 4 1 3 5 1 4v17l-3 6-4 2v38l1 12v10l-2 4-14 9h-2l1 7-4 10 3 1-4 2-5 1v3l-20 4 1 3-5 2-31 5-35 4h-118l-33-4-30-4-8-3v-3l-19-4-9-3 4-2-1-4v-8l7-4 1-2-4-2 10 2 13 4 8 4 1 1 43 6 33 2h89l27-2 39-5 9-2 6-4 20-6 7-3 10-3 5-4 2-5z" fill="#030206"/>
<path transform="translate(865,369)" d="m0 0h32l15 3 4 3 7 3v2h-3l-1 6 3 3 3 14 1 9v12l-3 10-3 7-2 11-3 5-8 4-6 1-22-5-5-2-17-4-10-5-1-3-4-2-7-5-1-13 1-20 2-8 4-2 1-6 4-3 4-2-2-4 5-3 7 1v-5z" fill="#270405"/>
<path transform="translate(276,578)" d="m0 0h6l10 2 9 2 68 6 20 1h31l35-2 25-3 23-2 17-3h8l7 5 1 3-3 7-4 2-1 3-10 4-22 4-52 5-17 1h-50l-46-3-30-4-19-3-12-4-2-5v-10l4-4z" fill="#03011A"/>
<path transform="translate(232,864)" d="m0 0 10 3 28 7 2 1 1 3 14 3 45 6 11 1h118l41-5 29-5v-3l16-4 20-6h5l2 6 1 26v46l-2 12-9 7-9 4-8 5-24 7-33 5-24 5-12 1h-98l-20-2-20-4-32-4-15-5-13-4-10-5-12-7-3-3-1-14v-65zm4 7-3 5v33l2 5 5 3 7 2 6 2 3 4h-8l-5 1-1 7 2 8 2 10 6 5 4 6 6 3 5 5 19 2h7l6 3 2 2 23 3 44 4 23 1 9 1 26-2 21-2h22l35-5 6-2v-2l25-3 18-8 11-7 3-4 3-48v-30l-1-1-9 1-9 4-10 3-30 5-40 4-17 3-9 2-16 1-34 1-36-2-11-1-12-3-29-3-32-5-21-6-8-4z" fill="#8260CA"/>
<path transform="translate(1241,713)" d="m0 0 7 1 7 8 5 2 1 5 4 2 4 4 6-1 8-5 3-5 6-6 13-1 3-1 3 3v14l-9 10h-2v2h-2v5l-5 2-2 2 1 4 6 4 4 5 4 6 6 8-1 14-3 2h-11l-7-2-3-6-16-14-3 2-3 5-4 2-2 4-5 2-4 6-3 1h-8l-7-3-2-5v-7l11-11 3-6 5-6 1-6-5-4-2-5-5-4-6-9-1-3v-7z" fill="#170303"/>
<path transform="translate(1268,653)" d="m0 0h10l31 7 7 5v2l9 3 12 5 10 10 7 11 8 24 2 5 3 31v13l-4 23-1 12-3 4-2 9-5 6-5 4-12 7-3 1-1 4-10 10-4 1-3-1h-14l-18-2-4-1-32-3-12-6 2-1 10 4 22 3 12-1 17-3 12-6 5-4 15-9 5-4 5-5 9-14 6-20 2-14v-14l-2-18-5-14-6-10-4-8v-2l-5-2-13-10-2-4-6-2-17-8-11-2h-23l-15 2 2-2 3-1 3-9h2v-2l6-3z" fill="#170303"/>
<path transform="translate(369,516)" d="m0 0h57l39 3 37 4 28 6 17 7 20 8 5 3 2 8v124l-2 7-6 4-31 11-5 3-25 5-19 3-10 1h-10v-1l29-4 20-6 14-3 22-8 6-3 4-3h2l1-4 3-5 1-11 1-22v-88l-2-4-9-2-8-4-17-4-13-6-10-2-6-1v-2h-7l-5-2v-2l-28-3-22-1h-63l-34 1-31 3-8 1v2l-8 2-3 1-15 3-23 9-16 5-6 4-1 2-1 10v106l3 8 3 5 16 8 13 5 8 2 5 1 16 2 6 1 2 3 15 4 9 1v1h-12l-20-3-19-3-7-4-18-7-14-5-7-4-1-2-1-77v-53l2-7 10-6 7-3 17-5 10-5 11-3 35-4 23-2 8-2z" fill="#8260CA"/>
<path transform="translate(886,1048)" d="m0 0 7 1 5 5 13 8 4 9 2 5v11l-5 12-12 10-6 4-3 4h-7l-12-6-9-4-7-7-2-4-1-15 4-16 10-9 8-3 7-2z" fill="#D42C2D"/>
<path transform="translate(883,611)" d="m0 0 11 1 7 3 4 6 5 3 6 11 1 5v8l-4 10-3 6-10 9-2 1h-21l-13-5-4-6-5-11-1-12 2-11 7-9 5-5 6-3z" fill="#D42C2D"/>
<path transform="translate(879,391)" d="m0 0h12l9 4 6 4 7 8 4 10v12l-5 10-7 8-14 7-10 1-9-3-10-5-6-13v-26l4-4 3-7 6-4z" fill="#D42C2D"/>
<path transform="translate(887,829)" d="m0 0 6 1 5 5 9 6 7 7 3 5v10l-4 13-3 6-14 9-8 4-9-1-15-6-5-5-3-9v-20l2-9 7-8 7-2 1-3 9-2z" fill="#D42C2D"/>
<path transform="translate(626,720)" d="m0 0h13l12 2 4 2 4 7 4 5 4 14v8l-5 13-7 6-11 3-7 1h-8l-9-3-7-7-5-13v-2h-2l1-11 8-14 3-5 4-5z" fill="#58B9B0"/>
<path transform="translate(499,514)" d="m0 0h28l9 2 6 4 5 5v2l5 2 5 4 9 4v2l5 2 5 4 1 26-1 1v113l-5 5-10 3 2 6-1 7-1 6h5l-2 2-12 3-2 2-18 6-8 4-21 4-7 2-9 1-2-1-1-15h-8l2-3 10-1 6-4 1-2 31-6 7-3 18-7 17-6 4-4 1-5v-124l-1-8-45-18-32-6-16-2v-1h15l1-4z" fill="#060129"/>
<path transform="translate(1128,930)" d="m0 0h9l9 3 9 5 3 9 4 3v22l-3 6-8 7v2l-10 4-4 1h-14l-10-5 1-3-3-1-6-9v-23l6-12 8-5z" fill="#58B9B0"/>
<path transform="translate(631,930)" d="m0 0h10l10 4 8 6 2 5 7 12-1 11-5 9-6 7h-2l-1 4-10 4h-12l-10-3-10-12-3-7-1-13 8-18 6-5z" fill="#58B9B0"/>
<path transform="translate(1128,720)" d="m0 0h15l5 2 3 6 5 5 6 7v16l-2 8-3 1-2 7-6 5-5 2-6 1h-15l-8-4-5-5-5-13v-20l6-8 3-2 1-3 5-4z" fill="#59B9B0"/>
<path transform="translate(1129,508)" d="m0 0 5 1 12 4 8 6 4 5 3 5 1 7v15l-2 5-6 7-12 5-6 1h-13l-10-5-6-6-2-9v-22l6-8 13-8z" fill="#58B9B0"/>
<path transform="translate(631,511)" d="m0 0h10l9 2 5 4v2l4 2 4 5 5 13-4 17-5 6-6 4-13 4h-10l-10-4-9-9-3-9v-15l3-9 6-7 10-5z" fill="#58B9B0"/>
<path transform="translate(574,728)" d="m0 0h1l1 11 4 1 3 5 1 4v17l-3 6-4 2v38l1 12v10l-2 4-14 9h-2l1 7-4 10 3 1-4 2-5 1v3l-20 4 1 3-5 2-31 5-23 2 3-2 2-1-15-4-17-2 1-2 18-4 17-6 1-1-8-1v-1l39-5 9-2 6-4 20-6 7-3 10-3 5-4 2-5z" fill="#060128"/>
<path transform="translate(1302,504)" d="m0 0 9 2 2 2 2 12-4 8-4 1-1 5-9 9-4-1-1 3-8 7-1 3-8 6-6 5-4 5-4 1-9-3-10-9-5-5-1-4-6-5v-10l2-5v-2l8-3 5 1 5 2 1 4 4 4h7l8-5 1-4 14-12 7-5 1-3 7-3z" fill="#020E11"/>
<path transform="translate(1302,937)" d="m0 0 5 1 5 2 2 6-1 9-4 7-3 3v2l-10 8-4 1-10 9v3l-11 9-6 5-2 1h-10l-3-3-1-3-5-3-7-5-2-5-5-7-1-9 2-5 7-3 6 1 5 2 2 4 1 4 11-1 4-3h2l-1-4 8-6 13-11 3-2 2-4z" fill="#020205"/>
<path transform="translate(892,1040)" d="m0 0h13l9 7 3 5 2 12 8 18 1 4v11h7l1-3 1 5 1-3v7h-3-1l-3 15h-6l-1 6-3 1v-5l-10-2-6-2-9 1-4 2h-13l-8-2-6-4-4-3v-2l-5-2-11-8-4-7 2-13 6-7 5-5 9-10 7-6 10-7zm-6 8-6 4-11 3-11 9-2 4-3 13 1 15 4 6 8 7 13 5 5 3h7l5-6 9-6 7-6 5-12v-11l-4-8-3-7-14-8-5-5z" fill="#1A0809"/>
<path transform="translate(251,846)" d="m0 0 10 2 13 4 8 4 1 1 43 6 13 1v1l-14 1 10 6 11 2 16 1 1 2-4 2-28 1-9 2h-6v2l11 1v1h-11l-36-5-8-3v-3l-19-4-9-3 4-2-1-4v-8l7-4 1-2z" fill="#04011B"/>
<path transform="translate(1272,659)" d="m0 0h9l16 5 11 5 12 6 11 9 12 7 5 5 3 8 2 11 2 4 4 2 3 5-1 7 2 16v25l-4 13-6 19-6 11-9 7-12 7-9 6-14 7-9 2h-10l-10-2v-1l18-3 10-3 8-5 9-6 11-7 7-5 10-15 7-22 2-14v-14l-2-18-5-14-6-10-4-8v-2l-5-2-13-10-2-4-6-2-17-8-11-2-22-1 2-1 2-5z" fill="#260305"/>
<path transform="translate(476,712)" d="m0 0 3 1-3 5-5 5h-2l-2 5-5 5-4 3-11 1h-33l-4-1-1-3 6-4h2v-5l-9-3-9-2-15 2-26 1h-22l-10-5-3-4h24l46 2h20l50-2z" fill="#030206"/>
<path transform="translate(233,686)" d="m0 0 16 7 20 7 6 3 3 2 10 2-3 2v2l13 1 20 7 1 5-7 5-10 2v1l-17-1-12-3-5-3-11-5-13-5-10-4-4-2 1-4h2l1-5 6-9-6-2z" fill="#060128"/>
<path transform="translate(525,572)" d="m0 0 4 2 4 5 4 4v13l-4 7-6 4-39 4-41 2h-20v-1l28-2 41-4 22-4 10-4 6-7 1-5-4-4-3-2h-8l-17 3-31 3-17 2-35 2h-31l-34-2-54-5-17-3-2-1h-6l-6 3-1 2v10l1 5 12 3 39 6 24 2v1h-34l-33-4-6-3-5-5-1-3v-16l2-3 8-3 5-1 2 2 12 2 13 3 27 3 43 2h27l5-1h50l35-4 17-4 7-1z" fill="#8260CA"/>
<path transform="translate(882,595)" d="m0 0h10l7 3v2l13 8 8 12 3 9v10l-3 6h-2l-1 2-2-12-5-9v-2l-5-2-3-3-2-4-6-2-11-1-9 1-8 4-9 12-2 11 1 12 2 6h-2l-4-4-9-4-8-5-2-7v-5l4-2 5-8 4-3 12-1 11-12 1-7 4-3z" fill="#170403"/>
<path transform="translate(231,709)" d="m0 0 5 2 21 8 15 7 8 3 48 7 20 2v1h-19l-31-4-19-3-15-3-2-1v-3l-11-2h-8l-4 6h-2l-1 7-2 7-1 33v30l1 16 7 12v2h2v2h3v2l7 1 13 5 20 7 13 2 13 3 25 3 7 2 19 1 85 1v1h-89l-33-2-43-6-4-3-11-4-26-8-10-5-2-4v-103z" fill="#8260CA"/>
<path transform="translate(1234,1052)" d="m0 0 11 5 31 8 12 4h15l7 5-1 2-6 3-14 2h-38l-11-1-5-2v-2l-6-1-3-5-4-2 1-3 6-4 2-6h2z" fill="#020205"/>
<path transform="translate(569,711)" d="m0 0h3l1 3 1 14v103l-3 6-7 5-29 9-9 4-7 3-34 5-20 2h-13v-1l26-3 26-5 21-5 3-2 13-3 19-10 6-9 1-2v-22l2-10 2-64h-2v-2l-5-2-6-2-7 1-3 1-1 3-30 5-11 1-9 2h-9v-1l12-2 14-3 13-3 8-4 15-5 2-2 14-4z" fill="#8260CA"/>
<path transform="translate(632,506)" d="m0 0h10l9 2 2 3 7 2 9 6 5 5-2 4-2 1 1 13-2 5-3 5-2 8 4 4 1 8 3 1 4-2 4 1-1 7-4 3-1-2-3 1v-3l-7 1-7 3h-15l-10-4v-2h-2l-2-3-11-6-1-3-7-6-6-14-1-4 4-12 4-8 7-7 6-4zm-1 5-9 3-8 6-4 6-2 7v15l3 9 9 9 10 4h10l15-5 7-6 2-3 4-17-6-15-5-5h-2l-2-4-5-3-7-1z" fill="#030F13"/>
<path transform="translate(293,512)" d="m0 0h11l22 3 85-1 26 1 19 1 20 3 2 2-52-4h-57l-16 1-8 2-43 4-19 3-9 3-8 4-22 7-9 5-3 1-2 18h-1v-19l5-5 16-9h2l2-5 7-6 16-6z" fill="#03021A"/>
<path transform="translate(499,514)" d="m0 0h28l9 2 6 4 5 5v2l5 2 5 4 9 4v2l5 2 5 4 1 26-1 1v113l-5 5-10 3 2 6-1 7-1 6h5l-2 2-8 1v-17l-1-3 2-3 13-5 2-3 1-5v-124l-1-8-45-18-32-6-16-2v-1h15l1-4z" fill="#03021A"/>
<path transform="translate(393,325)" d="m0 0h18l2 9 2 1v32l-3 5-2 2-8 1-8-1-5-6v-26l1-11z" fill="#040407"/>
<path transform="translate(399,1275)" d="m0 0h7l6 3 4 9v6l7 1 1 1v12l-5 8-3 1h-27v-33l3-5z" fill="#0A0A0E"/>
<path transform="translate(396,1065)" d="m0 0h15l2 7 2 6v32l-16 1v2l5 1 6 2v1l-6 1h-11l-3-7-1-6v-21l2-17zm17 28m-2 6m-2 2m-2 2m5 0 1 4zm-6 2m-2 1 1 2 1-2z" fill="#030407"/>
<path transform="translate(228,954)" d="m0 0 5 2 7 5 8 4 13 6 16 5 7 2 37 5 21 4 14 1 98 1v1l-121 1h-25l-9 1h-16l-14-3-5-5-6-7-19-9-6-5-5-7z" fill="#03011A"/>
<path transform="translate(526,854)" d="m0 0 1 2-2 1 1 5-9 4-13 3-6 4 17-1 3 2 1 4-1 1 2 2-24 4-23 2 3-2 2-1-15-4-17-2 1-2 18-4 17-6 1-1-8-1v-1l39-5 9-2z" fill="#04011B"/>
<path transform="translate(1089,232)" d="m0 0h26l10 1 7 7v7l-3 1-1 8-15 1h-12l-14-1-4-2-1-14 4-3 1-4z" fill="#0C0A10"/>
<path transform="translate(401,232)" d="m0 0 19 1 4 4v10l-3 6-6 5-5 12-2 1h-8l-8-2-2-3-1-14v-19z" fill="#131217"/>
<path transform="translate(481,233)" d="m0 0h39l1 4 4 1 3 3v5h-6v9l-2 1h-42l-2-1v-21z" fill="#06050B"/>
<path transform="translate(394,430)" d="m0 0h13l6 1v39l-1 7-13 1-8-2-1-2v-39l1-4z" fill="#07070C"/>
<path transform="translate(988,233)" d="m0 0h39l2 1 1 7v14l-1 1h-46v-19l2-3z" fill="#07060B"/>
<path transform="translate(1269,257)" d="m0 0h4l3 3 6 2 1 14v22l-1 10h-11l-11-3v-42l4-2h5z" fill="#0C0B10"/>
<path transform="translate(700,232)" d="m0 0h16l8 1v5l5 2v6h-4l-1 9-1 1h-39l-5-8v-11l4-3z" fill="#0C0B11"/>
<path transform="translate(887,233)" d="m0 0h38v5l5 1v8l-4 1v7l-1 1h-38l-5-1-2-10 1-6 5-5z" fill="#0B0A10"/>
<path transform="translate(1271,364)" d="m0 0h11l1 21v23l-4 4-3 1h-8l-1-3-7-2v-39l8-4z" fill="#0C0C10"/>
<path transform="translate(392,1171)" d="m0 0h20v46l-3 1h-15l-4-4-1-6v-17l2-18z" fill="#0C0A13"/>
<path transform="translate(1270,1233)" d="m0 0h3v5h8l1 1v45l-1 1-15-1-6-2v-43l8-2z" fill="#040307"/>
<path transform="translate(865,369)" d="m0 0h32l4 1v2h-2v3l-10 1-7 2-2 4-9 6-5 2v2h-2v2l-8 6-14 7-4 4-3 1v-9l2-8 4-2 1-6 4-3 4-2-2-4 5-3 7 1v-5z" fill="#1B090A"/>
<path transform="translate(781,233)" d="m0 0h41v2l3-1 1 4v17l-4 1h-41z" fill="#08080D"/>
<path transform="translate(1190,233)" d="m0 0h39l2 14-1 9-13 1h-14l-17-1v-19z" fill="#0D0C11"/>
<path transform="translate(476,1293)" d="m0 0h45l1 2v12l-1 7-5 2h-25l-14-1-1-7zm8 15v6h1v-6z" fill="#030206"/>
<path transform="translate(581,233)" d="m0 0h37l7 2v20l-9 1h-31l-5-1v-21z" fill="#0F0E15"/>
<path transform="translate(1266,1132)" d="m0 0h16v46l-7 1h-14l-1-1v-37l3-2-2-1v-5l2 1z" fill="#0D0C11"/>
<path transform="translate(1088,1285)" d="m0 0h38l-1 8h6l1 1v10l-1 3-2 1h-45l-2-5v-8l5-2zm8 6v1h26v-1z" fill="#06060B"/>
<path transform="translate(1189,1285)" d="m0 0h40l-1 7 4 2v13l-1 1h-45l-1-5v-8l1-2 5-1-1-4-2-2zm15 6v1h14v-1z" fill="#08070D"/>
<path transform="translate(581,1293)" d="m0 0h44v14l-4 2-1 6h-39l-1-7-3-2v-10z" fill="#030408"/>
<path transform="translate(681,1293)" d="m0 0h44l2 1 1 10-2 4h-3v6l-1 1h-37l-1-1v-6h-4l-2-4v-8zm10 15m9 0v1h21v-1z" fill="#030307"/>
<path transform="translate(305,601)" d="m0 0h12l15 3 24 2 28 1h54l29-4 6-1h25l2 2-7 2-15 1v2l-34 3-17 1h-50l-46-3v-2h-8l-19-4z" fill="#030208"/>
<path transform="translate(1291,758)" d="m0 0 6 3 5 6 4 6 6 8-1 14-3 2h-11l-7-2-3-6-8-7-5-6h2l-1-6 2-5 2-2 12-2z" fill="#270405"/>
<path transform="translate(1105,491)" d="m0 0 7 1v3l3 1v2h-2l3 7 3 1 12-2 13 3 6 5 7 3 4 10 2 3 1 6v16h-2l-1-14-2-9-6-8-9-6-10-3-5-1-18 11-5 7v28l-2-1-2-11v-14l3-8 3-3-1-2-5 1v-2l-1 3-10 1-5-1-3-4 3-9h2l1-2h2l2-2v2l5-4 3 3v-5l1-4zm-9 11 2 3v-3zm-2 5m-6 1v3zm4 0-1 2h2zm9 0m-5 1m3 0 1 2zm-2 1m-11 1v3zm2 0m10 0m2 0m-12 8 2 1z" fill="#0A151C"/>
<path transform="translate(565,965)" d="m0 0m-1 1m-4 1h4l-2 5-7 7-3 5-2 1-1 6h3l5-2h4l2-4 8-1h2l-1 4-19 6-32 7 1-4 2-4-1-5-15-3-9-1v-1l14-2-2-2 16-3 9-3 4 1 4 2h5l2-5 5-3z" fill="#07051E"/>
<path transform="translate(251,846)" d="m0 0 10 2 13 4 5 2v4l3 1h-5l3 6 1 1 16 1 7 2 2 4-2 1h-8l-15-2-3 3 1 3 4 2h-7l-4-2v-3l-19-4-9-3 4-2-1-4v-8l7-4 1-2z" fill="#060128"/>
<path transform="translate(276,578)" d="m0 0h6l10 2 9 2 15 2v1h-7l2 6-4 5-5 3h-2l-1 4 2 1h-12l-14-3-5-2-2-5v-10l4-4z" fill="#060128"/>
<path transform="translate(995,1292)" d="m0 0h28l7 1v15h-47l-2-6v-7l3-2z" fill="#0C0B12"/>
<path transform="translate(887,1292)" d="m0 0h36l6 2 1 9-2 5h-46l-2-7 1-7z" fill="#07060A"/>
<path transform="translate(801,1292)" d="m0 0h20l5 1v15h-45l-2-4v-8l3-3z" fill="#0D0C0F"/>
<path transform="translate(574,728)" d="m0 0h1l1 11 4 1 3 5 1 4v17l-3 6-4 2v38l1 12v10l-2 4-14 9h-2l1 7-4 10 3 1-3 2-5-5v-15l1-3 13-4 5-4 2-5z" fill="#04011B"/>
<path transform="translate(473,586)" d="m0 0h7v1l-9 3-15 4-19 1-31 1-36-1-15-1-7-2-7-3v-1h28l20 1h31z" fill="#030206"/>
<path transform="translate(1302,937)" d="m0 0 5 1 5 2 2 6-1 9-4 7-3 3v2l-10 8-4 1-10 9v3l-6 5-2-1 4-4 3-5 8-8 5-4 4-2-7-3-4-6 4-10 1-3-4 3-2-1 6-5 2-4z" fill="#020F12"/>
<path transform="translate(520,579)" d="m0 0h8l7 5 1 3-2 6-12 3-5 4-6 2-5-1-5-3-8-4 1-9h-7v-1l27-4z" fill="#060128"/>
<path transform="translate(1301,530)" d="m0 0h4l-1 4-5 6-2 3-4-1-1 3-6 3-5 4-2 4-10 8-5 5-7-1-6-4-2-3-5-3-4-3v-4l-3-1-5-5-1-4 1-3 10 2 7 3 5 12 1 7h2l9-3 8-7 7-6h2l3-10v-3h8z" fill="#020205"/>
<path transform="translate(1235,1052)" d="m0 0 10 3 16 3h21l17-2-3 2-10 2 3 4h8l8-1 10 3 2 2h6l3-4 4 1h-2v3l-6 6h-3l-1 3-9 3-20 3-12 1h-17l-18-3v-1h47l14-2 6-3-5-4-1-1h-15l-12-4-31-8-10-5zm88 18m-8 1m1 2-1 2h2z" fill="#0D181D"/>
<path transform="translate(885,825)" d="m0 0h25l8 6 4 7 3 9v9l-3 8-5 2-1 2v-15l-6-8-8-7-5-3-4-4-6-1-12 2-2 2-1 2-7 1 4-5 12-6z" fill="#260404"/>
<path transform="translate(1162,550)" d="m0 0h1v6l-8 9-3 3 1 6 4 6v2l7 1-2 6-6 2-12 2h-11v-2l3-1h13l8-4 1-2-7-1-3 1h-13l-4-2-7-10-10-5-8-7-1-5h2l3 5 8 6 5 2h13l12-3 8-5 4-5z" fill="#051216"/>
<path transform="translate(1307,716)" d="m0 0 3 1 1 2v14l-7 8-1-2-9 3-7 2-1-5-2-7-5 1 4-4 3-5 6-6 13-1z" fill="#270405"/>
<path transform="translate(854,1066)" d="m0 0h2v8l-2 7 1 15 4 6 7 6 13 5 5 3h7l5-6 6-4 2 1-8 7-2 4-2 1h-13l-8-2-6-4-4-3v-2l-5-2-11-8-4-7 2-13 6-7z" fill="#260305"/>
<path transform="translate(909,378)" d="m0 0 6 1 3 2 1 5 3 3 3 14 1 9v12l-3 10-3 7-2 11-3 5-8 4-6 1-15-3v-1h16l9-3 3-10 1-13 1-3h2l1-4 1-3v-9l-3-16-7-17z" fill="#170403"/>
<path transform="translate(1217,1042)" d="m0 0 3 1 1 2 3-1 12 5-3 6h-2v5l-6 5-2 1 1 3 4 2 4 4 3 1v2l5 1-2 1-8-3-6-3v-2l-17-8-6-7 4 1 4 3 3 1v-6l3-12z" fill="#09141A"/>
<path transform="translate(1072,498)" d="m0 0 5 2 2 2h8l-2 4h-3l1 9-2 1-1 9v24l-2 1v-20l-1-6 1-6-1 1v4l-7 1-14-4-2-2v-3l-3 1-15-6 4-3h12l4 2 2 8v-5l6 1 4-6 5 1v2h4l-1-5h2l-6-5zm7 5m-28 5m-8 1m5 2m18 0 3 2h3v-2zm-16 1 4 2 1-2z" fill="#161520"/>
<path transform="translate(335,726)" d="m0 0 9 1 26 6 2 2-3 2-21 2-28-3-10-3v-2l14-3z" fill="#030206"/>
<path transform="translate(1317,464)" d="m0 0 3 1 13 13 5 3 7 6 8 16 3 7 2 12v28l-2 17-4 10-9 16-2 10-4 4-16 6-7 1-2 5-3 2-3-1 7-7 9-3 9-4 2-3h3l2-10 6-8 5-8 5-15 1-7v-30l-2-11-3-8-8-15-2-5-5-4-3-1v-2h-2l-6-7-8-5z" fill="#020F12"/>
<path transform="translate(629,928)" d="m0 0h12l12 4 8 6 4 5 4 7 1 1v13l-3 10-2 5-1 3-5 2v2l-6 2 1-4 5-4 6-9 2-9-1-7-6-10-2-5-11-7-6-2h-10l-12 5-4 5-7 16 1 13 4 8v2l-3-1v-3h-2l-3-7v-19l5-7 5-9 2-2 5-1z" fill="#020F12"/>
<path transform="translate(1222,681)" d="m0 0 1 3-6 5-8 7-6 8-9 15-3 7-1-4 1-9-2-6 2-8 5-8 6-5 7-2h6l4 1z" fill="#180403"/>
<path transform="translate(1241,713)" d="m0 0 7 1 2 3h-2v7l2 5v15l-3 6-2-1-2-5-5-4-6-9-1-3v-7z" fill="#270405"/>
<path transform="translate(575,876)" d="m0 0h1l1 9 1 44 3 3-1 7-1 2v8l1 4-9 10-5 5-10 1-5 2-2 5-5 1-5-2 1-3 11-4 7-5 8-3 6-5 2-12v-46z" fill="#030419"/>
<path transform="translate(1350,609)" d="m0 0m5 0 1 3-1 2-7 2 2 2v3l-7 1-1 4-5 3v2l-4 1v2l-2-1-2 2-9 3 2 2-1 2-4 2-6-1-1-5 3-4 6 1 3-3 9-13 3-4 14-5h2l1 2 4-1z" fill="#1F2636"/>
<path transform="translate(251,846)" d="m0 0 10 2 13 4-1 5-2 1-9 1-2 3 6 7v2l-9 1-12-3-1-2 4-1-1-4v-8l7-4 1-2z" fill="#04011B"/>
<path transform="translate(1133,926)" d="m0 0 9 2 6 4 8 4 8 12 1 9-1 15-3 6-9 10-3-1 5-5 6-7 1-3 1-22-4-2-3-6-1-4-12-6-5-1h-9l-16 8-6 12v23l4 6v3l-6-7-2-6 1-21 6-12h2l1-3 8-4z" fill="#020F12"/>
<path transform="translate(1239,773)" d="m0 0 3 2 5-1 2 5 2 10 2 1-2 5-4 2h-8l-7-3-2-5v-7z" fill="#270405"/>
<path transform="translate(861,886)" d="m0 0 5 2 16 6 9-1h3l-4 4-2 6-8 4-7 1-6-2-4-4z" fill="#170303"/>
<path transform="translate(478,721)" d="m0 0 5 1 1 1v9l-5-2-12 5-8 4-10 3h-46l-53-2v-1l89-1 16-1 8-3 9-5 3-5z" fill="#8260CA"/>
<path transform="translate(884,1044)" d="m0 0h8l9 2 6 4 7 2 1 12 3 7v16h-1l-1-11-4-8-2-6-15-9-4-4h-5l-6 4-9 2-4-1 9-6z" fill="#260305"/>
<path transform="translate(1250,451)" d="m0 0 38 1 12 3 14 5 3 4-5-1-14-6-10-2h-28l-11 2-16 6-4 2-5 5-5 3-7 3-5 5-8 15-2 1 1-6 7-11 7-7 8-4 4-5 6-4 16-8z" fill="#020F12"/>
<path transform="translate(724,1293)" d="m0 0 3 1 1 10-2 4h-3v6l-1 1h-37l-1-1v-6l-4-1h45zm-33 15m9 0v1h21v-1z" fill="#E3DBF9"/>
<path transform="translate(914,434)" d="m0 0 1 4v7l-2 6-2 4-5 3-4 1-20-1-8-3-10-2v-1h10l7 2 10-1 14-7 8-10z" fill="#250404"/>
<path transform="translate(865,369)" d="m0 0h25v3l-21 5-16 8-3 4h-5l-2 1 2-6 5-1-2-5 5-3 7 1v-5z" fill="#1C1A25"/>
<path transform="translate(888,606)" d="m0 0 9 1 15 10 6 12-1 11h-1l-3-9-3-5v-2l-5-2-3-3-2-4-6-2-11-1-9 1-6 3-2-1 10-6z" fill="#260305"/>
<path transform="translate(889,825)" d="m0 0h21l8 6 4 7 3 9v9l-3 8-5 2-1 2 1-7 3-8-1-9-7-9-10-5-13-4z" fill="#170403"/>
<path transform="translate(1189,1285)" d="m0 0h40l-1 7 2 1h-41l2-1-1-4-2-2zm15 6v1h14v-1z" fill="#020C13"/>
<path transform="translate(1155,771)" d="m0 0 5 4 7 1 1 11-3 3-10-1-3-1-2-4-5-2-22-1v-1l21-2 8-4z" fill="#08131B"/>
<path transform="translate(1196,798)" d="m0 0 4 5 6 8 3 5 3 4h-7l-1 3h-6l-6-5-2-4v-8l4-4h2z" fill="#180403"/>
<path transform="translate(581,1308)" d="m0 0h39l1 3-1 4h-39z" fill="#A099C3"/>
<path transform="translate(301,981)" d="m0 0 15 1 26 5 14 1 98 1v1l-121 1-4-2-15-4-13-3z" fill="#03021A"/>
<path transform="translate(1223,1032)" d="m0 0 6 2v6l6-2 7-4 1 4-3 10-1 1-9-1-9-5-3-2h-2l-3-4v-2h7z" fill="#F3F7F9"/>
<path transform="translate(985,1309)" d="m0 0h44v5l-1 1h-40l-4-1z" fill="#FEFEFE"/>
<path transform="translate(783,1309)" d="m0 0h41l1 2-2 4h-40l-1-5z" fill="#DED5F7"/>
<path transform="translate(1262,884)" d="m0 0h21l7 2 14 3 8 4 3 2 6 2 1 5 11 8 4 2-1 2-4-1-8-7-10-7v-2l-15-7-19-3h-15l-20 4-13 4-5 1 4-3 17-6 7-2z" fill="#020F12"/>
<path transform="translate(396,1065)" d="m0 0h15v6l-1-2-17 1v39l3 6-1 2h5v-4l4 1 6 2v1l-6 1h-11l-3-7-1-6v-21l2-17z" fill="#DACFF8"/>
<path transform="translate(885,1309)" d="m0 0h40l-1 6h-38z" fill="#E3DCF8"/>
<path transform="translate(1196,497)" d="m0 0 1 3-4 11-2 7-1 3-1 13v21l5 17 2 6 5 8-1 2-3-4v-2h-5l-1-4-1-10-4-2v-32-3l-2-5 3-4 2-8 3-9z" fill="#020C13"/>
<path transform="translate(290,520)" d="m0 0h35l-3 2-35 4-7 2-11 1-11 4-2-1 5-4 7-3 14-3z" fill="#060325"/>
<path transform="translate(1136,717)" d="m0 0h9l5 2 9 7 1 7 3 4 1 5v9l-2 12-2 1 1-8v-16l-8-10-3-2-2-6-5-1h-15l-10 1-1 3-2-1 5-5z" fill="#020F12"/>
<path transform="translate(520,1293)" d="m0 0 2 2v12l-1 7-5 2h-25l-14-1v-7h7l2 3 24 1 8-1-1-3h3z" fill="#777590"/>
<path transform="translate(854,1066)" d="m0 0 1 2-3 6-4 2v14l5 11 8 5 8 6 5 4 4 2-7-1-6-4-4-3v-2l-5-2-11-8-4-7 2-13 6-7z" fill="#170403"/>
<path transform="translate(494,710)" d="m0 0v3l-6 4-10 1v1l6 1 1 2v10h-1l-1-9-5-1-4 4-3 5-12 6-4 1h-11l3-2 11-1 6-5h2l2-5 5-5 5-6v-2z" fill="#04011B"/>
<path transform="translate(575,831)" d="m0 0 2 1-1 6-14 9h-2l1 7-4 10 3 1-3 2-5-5v-15l1-3 14-3 7-6z" fill="#04011B"/>
<path transform="translate(253,971)" d="m0 0 10 2 9 1 12 4 17 2v2l13 2 16 4 6 1v1l-6 1-10-2-16-3-27-6-6-3-13-3-5-2z" fill="#060128"/>
<path transform="translate(856,627)" d="m0 0 1 2-2 11 1 12 2 6h-2l-3-6-7-6-2-3v-8l3-4z" fill="#260404"/>
<path transform="translate(991,1285)" d="m0 0h26l12 1-1 4h-5-2l-3 1h-22l-11-1-1-4z" fill="#977AEF"/>
<path transform="translate(1201,919)" d="m0 0 1 4-5 8-3 9-2 9-1 2h-2l-1 7v24l2 11 4 16-1 2-2-2-2-13-3-8-1-12v-21l2-7 3-4 2-8 6-12z" fill="#020F12"/>
<path transform="translate(1269,759)" d="m0 0h2l1 9-3 8-4 6-4 2-3 4-3-1 1-6 6-9 4-10z" fill="#040205"/>
<path transform="translate(886,1285)" d="m0 0h37l1 1v5h-38z" fill="#C1BDD4"/>
<path transform="translate(1087,1309)" d="m0 0 40 1-1 4-10 1h-28l-1-1z" fill="#B7B3CC"/>
<path transform="translate(575,876)" d="m0 0h1l1 9 1 44 3 3-1 7-3 3h-2l-1-25v-20z" fill="#050120"/>
<path transform="translate(411,1071)" d="m0 0 2 1 2 6v32h-14l3-6 5-4 2-9zm2 22m-2 6m-2 2m-2 2m5 0 1 4zm-6 2m-2 1 1 2 1-2z" fill="#E6DFFA"/>
<path transform="translate(783,1285)" d="m0 0h19l22 1-2 4h-39z" fill="#EAE5FB"/>
<path transform="translate(1253,989)" d="m0 0h6l7 3v4l-6 4 5 1-2 2h-10l-3-3-1-3-3-2 4-2z" fill="#020F12"/>
<path transform="translate(1247,997)" d="m0 0 2 1v29h-2l-3-9-6-3-5-5-1-6h-3v-2h5l3 4 1 5 6 1 2-13z" fill="#FEFEFE"/>
<path transform="translate(501,980)" d="m0 0h15l-3 2-14 1v2l-12 3-24 2h-8v-1l40-8z" fill="#050121"/>
<path transform="translate(1072,498)" d="m0 0 5 2 2 2h8l-2 4h-3l1 9-2 1-1 9v24l-2 1v-20l-1-6 1-6-4-2-1-6h4l-1-5h2l-6-5z" fill="#0D1524"/>
<path transform="translate(1188,1310)" d="m0 0h41v3l-1 1h-39z" fill="#C2C4C9"/>
<path transform="translate(495,1307)" d="m0 0h25l-2 2 2 2-10 2-24-1-1-4z" fill="#060C1A"/>
<path transform="translate(686,1285)" d="m0 0 37 1v4h-37z" fill="#FBFAFD"/>
<path transform="translate(651,722)" d="m0 0 9 2 8 14 2 5v11l-4 9-1-3 1-2v-8l-4-14-7-9v-3z" fill="#020F12"/>
<path transform="translate(1115,484)" d="m0 0h11v2h2l1 5h2v2l-7 5-9 1 1-8 2-1-3-2zm2 2 1 2 1-2zm1 6 1 3 1-3z" fill="#3B4053"/>
<path transform="translate(855,855)" d="m0 0h1v19l-6-5-5-2-1-2v-7l2-2 8 1z" fill="#180403"/>
<path transform="translate(1287,546)" d="m0 0 2 1-6 6v2l-8 6-6 5-4 5-4 1-9-3-10-9-4-4 2-4 1 3 5 4 4 2 5 5 5 2h6l2-4 9-8h2l2-5z" fill="#020C16"/>
<path transform="translate(1088,1285)" d="m0 0h37l-4 4 2 2h-28v-1l6-1-13-3z" fill="#020F12"/>
<path transform="translate(990,585)" d="m0 0h2l-1 3-10 3h-4l-1 7-2 2h-3v2l-7-1-9-1 1-2h12l-7-1 3-3 25-8z" fill="#494D5E"/>
<path transform="translate(1269,737)" d="m0 0h6l-1 5-2 3 6 2 1 6-3 2-4-1-3-3-1-4h-4l-1 2 1-4 2-2 1-5z" fill="#030205"/>
<path transform="translate(1214,688)" d="m0 0 3 1-8 7-6 8-5 8-1-2 1-4-1-1v-6l7-8 9-2z" fill="#270405"/>
<path transform="translate(1110,730)" d="m0 0v3l-4 5v20l5 13 3 4h-3l-1 3-5-2-1-3 2-5-3-5v-22l3-7z" fill="#020F12"/>
<path transform="translate(233,686)" d="m0 0 13 6 1 4-5 4h-2l-1 7-4 1-2-1v2h-3l1-4h2l1-5 6-9-6-2z" fill="#04011B"/>
<path transform="translate(228,878)" d="m0 0 2 1v74h-2v-43l-1-29z" fill="#04011B"/>
<path transform="translate(522,705)" d="m0 0 2 1-1 4-12 4h-10l-3-3 2-2z" fill="#04011B"/>
<path transform="translate(1068,498)" d="m0 0h4v2l4 2 3 3-1 2-1 1 1 3-5-1v-2h-10l-1 2-5-1-1-2 9-4 2-4z" fill="#02040B"/>
<path transform="translate(501,521)" d="m0 0h14l21 6 6 1v2l-25-3-15-3z" fill="#050323"/>
<path transform="translate(291,501)" d="m0 0 7 1-4 2-17 2-12 6h-3v-2l-12-1v-1l28-5z" fill="#050F17"/>
<path transform="translate(412,334)" d="m0 0 3 1v32l-3 5-2 2-8 1-8-1-1-2h16l2-6z" fill="#D2CAED"/>
<path transform="translate(1301,507)" d="m0 0h8l1 4-1 3h-7l-6 2-6 5-4-1 2-4 5-4h4l1-3z" fill="#030205"/>
<path transform="translate(1125,1285)" d="m0 0 1 2-1 6h-37v-7l11 1 7 2v1l-10 1h26l-9-1v-1l8-1z" fill="#B19BEB"/>
<path transform="translate(229,745)" d="m0 0h1l1 89 1 4 5 2-3 1-5-3-1-2z" fill="#030518"/>
<path transform="translate(478,721)" d="m0 0 5 1 1 1v9l-5-2-12 5-8 4-4-1 17-9 3-5z" fill="#8462D0"/>
<path transform="translate(1098,499)" d="m0 0 2 3 2 8-5 1h-2l-1 4-1-4-3 3-2-5-3 3 1-7h2l1-2h2l2-2v2zm-2 3 2 3v-3zm-2 5m-2 1-1 2h2z" fill="#A78FEE"/>
<path transform="translate(582,1309)" d="m0 0h36v3l-2 1h-12l-22-1z" fill="#020D13"/>
<path transform="translate(620,721)" d="m0 0 2 1-3 4-3 5-5 8-3 6-1 9-1 2h2l2 8-3-3-3-6v-10l5-10 9-12z" fill="#020F12"/>
<path transform="translate(392,326)" d="m0 0h1v46l-4-4v-26l1-11z" fill="#EDE8FB"/>
<path transform="translate(1125,905)" d="m0 0h20l4 2v3h-32l2-1-1-3z" fill="#DDD4F9"/>
<path transform="translate(874,806)" d="m0 0h21l7 2 3 1v2h2l-1 2-8-1-1-2h-33l1-2z" fill="#E7E1F8"/>
<path transform="translate(582,1286)" d="m0 0h37v3l-37 1z" fill="#FEFEFE"/>
<path transform="translate(574,800)" d="m0 0 2 1 2 23v10l-2 1-1-4-1 5-7 6-3-1 7-5 2-5z" fill="#030418"/>
<path transform="translate(874,1135)" d="m0 0h17l10 3-2 2h-26z" fill="#C6B7F2"/>
<path transform="translate(478,1286)" d="m0 0h42v3h-34l-5-1h-3z" fill="#FEFEFE"/>
<path transform="translate(1242,1080)" d="m0 0 55 1v1l-20 2h-17l-18-3z" fill="#DED5F9"/>
<path transform="translate(391,1173)" d="m0 0h2v43l-3-2-1-6v-17z" fill="#E9E3FA"/>
<path transform="translate(1196,497)" d="m0 0 1 3-4 11-2 7-1 3-2 34h-1l-1-21v-3l-2-5 3-4 2-8 3-9z" fill="#020F12"/>
<path transform="translate(1040,507)" d="m0 0h12l4 2 2 11-4-2v-3l-3 1-15-6zm11 1m-8 1m5 2m2 1 4 2 1-2z" fill="#F2EFFC"/>
<path transform="translate(985,1309)" d="m0 0h44v2l-2 1h-35l-8-1z" fill="#5E5393"/>
<path transform="translate(391,1279)" d="m0 0h1l1 37h-4v-33z" fill="#FCFCFD"/>
<path transform="translate(477,1308)" d="m0 0h7l2 3 28 1-1 2-36 1z" fill="#D1C4F6"/>
<path transform="translate(864,888)" d="m0 0 10 3 13 4-3 2-9 3-5-2-5-8z" fill="#270405"/>
<path transform="translate(630,905)" d="m0 0h17l8 3v1l-8 1-27-1 3-2z" fill="#363B4B"/>
<path transform="translate(1189,1285)" d="m0 0 3 1v5h29l2 1-1-5 7-2-1 7 2 1h-41l2-1-1-4-2-2z" fill="#182427"/>
<path transform="translate(1024,908)" d="m0 0 11 1 4 2h-10l-9 2-7 6v-2l-6-1v-2l6-4z" fill="#E9E3FA"/>
<path transform="translate(687,1309)" d="m0 0h35v2l-5 1h-29l-2-2z" fill="#030617"/>
<path transform="translate(413,1179)" d="m0 0 3 3v31l-2 2-1-1z" fill="#FEFEFE"/>
<path transform="translate(269,935)" d="m0 0 4 3v17l-5 1-2-3 2-7v-8z" fill="#8260CA"/>
<path transform="translate(1347,1051)" d="m0 0m-1 1m-1 1 3 2-1 3-5 1-1 3-7 2-3-3v-2h2v-3l3-2h7z" fill="#252D37"/>
<path transform="translate(1127,695)" d="m0 0h11l18 2v1l-10 1h-31l-5-1v-1z" fill="#656386"/>
<path transform="translate(426,515)" d="m0 0h11l19 1 20 3 2 2-52-4z" fill="#03061B"/>
<path transform="translate(725,722)" d="m0 0 3 1-2 1 5 2-1 2-14 3-3 1v-2h-2l-1-3 7-3z" fill="#2B303F"/>
<path transform="translate(1300,622)" d="m0 0 3 1-11 7-4-2-11 1h-14l-9-1v-2l21 1 23-4z" fill="#020F12"/>
<path transform="translate(391,431)" d="m0 0h1l1 45h-2l-1-2v-39z" fill="#F9F7FD"/>
<path transform="translate(416,1308)" d="m0 0 5 2-1 4-4 2h-23v-1l5-1 2-2 16-1z" fill="#041015"/>
<path transform="translate(1238,960)" d="m0 0 6 1v1l-9 2-1 3h-2l1 10 4 6 2 1 2 5 1 2-5-2-2-5-5-7-1-9 2-5z" fill="#020F12"/>
<path transform="translate(575,876)" d="m0 0h1l1 9v31l-3 1v-20z" fill="#030418"/>
<path transform="translate(601,825)" d="m0 0h1v89h-1z" fill="#FEFEFE"/>
<path transform="translate(870,809)" d="m0 0h27l6 1v1l-12 1h-25l-2 1h-6l4-3z" fill="#161C32"/>
<path transform="translate(734,596)" d="m0 0h9l4 1v-1l8 1v3l4-1v6l-25-8z" fill="#1E2338"/>
<path transform="translate(301,981)" d="m0 0 15 1 26 5v1h-11l-2 1-15-4-13-3z" fill="#030617"/>
<path transform="translate(835,427)" d="m0 0 5 5 8 11 5 4 4 3-5-1-6-4v-2l-4-2-7-5z" fill="#170403"/>
<path transform="translate(389,233)" d="m0 0h3v35l-2-2-1-14z" fill="#EDE8FB"/>
<path transform="translate(724,1293)" d="m0 0 3 1 1 10-2 4-33 1-13-1v-1h45z" fill="#2D373C"/>
<path transform="translate(1042,722)" d="m0 0 6 3 8 2 1 3 10 2-2 2-9-2-15-5z" fill="#7E7C96"/>
<path transform="translate(1379,564)" d="m0 0 1 3-3 14-4 2-1-1-1 7h-1v-11l1-5 4-3h2z" fill="#3C3E56"/>
<path transform="translate(396,1065)" d="m0 0h15v6l-1-2-17 1-1 4-1-7z" fill="#DCD3F7"/>
<path transform="translate(1030,477)" d="m0 0 14 6 10 3-4 2 6 3v1h-6l-6-3-1-3-14-7z" fill="#908DAA"/>
<path transform="translate(786,830)" d="m0 0 5 1 11 4v3l4 2-2 1-10-4-10-3-1-2 5-1z" fill="#827EA1"/>
<path transform="translate(563,964)" d="m0 0 4 1-7 3-9 3-2 5-5 1-5-2 1-3 12-3 5-3z" fill="#060127"/>
<path transform="translate(828,412)" d="m0 0h3v23l3 2h-6z" fill="#FEFEFE"/>
<path transform="translate(919,1309)" d="m0 0h5v2l-3 1h-33l-2-2z" fill="#050F17"/>
<path transform="translate(403,1068)" d="m0 0 7 1 2 6v16l-2-1v-14l-1-5-10 2-6 1v-4z" fill="#020E12"/>
<path transform="translate(253,971)" d="m0 0 10 2 9 1 12 4 8 1v1l-12 1-9-4-13-3-5-2z" fill="#050324"/>
<path transform="translate(511,1309)" d="m0 0 9 1-2 2-11 1-21-1-1-2z" fill="#03050F"/>
<path transform="translate(904,371)" d="m0 0 8 1 4 3 7 3v2h-3l-2 2-14-8z" fill="#5A576A"/>
<path transform="translate(566,984)" d="m0 0h7l-1 4-20 6v-3l5-2h4l2-4z" fill="#54566D"/>
<path transform="translate(476,721)" d="m0 0 2 1-4 4-3 5-12 6-4 1h-11l3-2 11-1 7-5 4-1 3-5z" fill="#020B14"/>
<path transform="translate(1313,634)" d="m0 0 5 2 4 4-1 2-4 2-6-1-1-5z" fill="#2A323C"/>
<path transform="translate(504,500)" d="m0 0 22 3 11 2v1h-10l-19-2-3-2z" fill="#E6E0F8"/>
<path transform="translate(828,1077)" d="m0 0h3v23l-3-1z" fill="#FEFEFE"/>
<path transform="translate(1087,783)" d="m0 0 6 1 3 3v2l6 1 1 6-4 1-4-2-1-7h-2v-2h-2v-2z" fill="#54556E"/>
<path transform="translate(880,1043)" d="m0 0m-1 1m-1 1m-2 1h2v2l-10 6 1 2-11 9-2 3-1-3 7-8 8-7z" fill="#180308"/>
<path transform="translate(739,998)" d="m0 0 6 1 18 6-1 2h-12v-2l-4-2v-2l-5-1z" fill="#8C89A5"/>
<path transform="translate(738,812)" d="m0 0 7 1 10 2 2 1v2l5 1 10 4-1 2-13-5-15-5-5-2z" fill="#9D99B7"/>
<path transform="translate(788,805)" d="m0 0 10 3 8 3 8 2v1h-11v-2l-8 1-4-1v-3l-3-2z" fill="#8A88A1"/>
<path transform="translate(721,940)" d="m0 0h8v2l-10 2-11 4-5-1 2-2 10-4z" fill="#E8E1FA"/>
<path transform="translate(1254,723)" d="m0 0h5l2 2v4l3 1-1 5-5-2-4-7z" fill="#080205"/>
<path transform="translate(537,506)" d="m0 0 10 1 8 2v1l-17 1-10-2v-2h8z" fill="#1F1E3B"/>
<path transform="translate(1031,592)" d="m0 0 3 1-5 3 7 1v1l-14 3v-2l-5-2v-1l11-2z" fill="#54576B"/>
<path transform="translate(570,712)" d="m0 0h2v10l-2 1-8-6 2-2z" fill="#9071EE"/>
<path transform="translate(913,598)" d="m0 0h7l2 1 3 7 1 3 4 2-3 1-8-7-2-5-4-1z" fill="#514A7E"/>
<path transform="translate(229,809)" d="m0 0h1l1 25 1 4 5 2-3 1-5-3-1-2v-17z" fill="#04011C"/>
<path transform="translate(510,504)" d="m0 0 17 1 10 1-1 2h-16l-11-2z" fill="#02090E"/>
<path transform="translate(315 1e3)" d="m0 0 6 1-2 2 7 1v1h-10l-18-3v-1z" fill="#E2DAF7"/>
<path transform="translate(601,625)" d="m0 0h1v61h-1z" fill="#FEFEFE"/>
<path transform="translate(783,1310)" d="m0 0h38l-3 3-35-2z" fill="#020B11"/>
<path transform="translate(490,1007)" d="m0 0h15l-2 2-20 2h-11v-1z" fill="#E7E1FA"/>
<path transform="translate(599,1309)" d="m0 0h19v3l-2 1h-12l-4-2z" fill="#030614"/>
<path transform="translate(1377 1e3)" d="m0 0h2l-1 9-2 3-3 3-1-13h5z" fill="#5C5B77"/>
<path transform="translate(829,853)" d="m0 0 2 1v17l2 1-2 1-4-2 1-17z" fill="#EEEBF7"/>
<path transform="translate(605,927)" d="m0 0 5 1 2 3v3l-3 2-4-1-2-3 1-4z" fill="#020E11"/>
<path transform="translate(890,586)" d="m0 0 5 1 7 2v1h-34v-1l11-2z" fill="#EAE5FA"/>
<path transform="translate(683,570)" d="m0 0 2 1 3 1 9 2-2 4-9-2-5-2v-2h2z" fill="#0D1524"/>
<path transform="translate(983,482)" d="m0 0h6l7 3v2l6 2 2 1v3l-6-1-6-3v-3l-9-3z" fill="#605F7C"/>
<path transform="translate(611,1011)" d="m0 0 10 1 2-1 9 3v3l-10-1-11-4z" fill="#575775"/>
<path transform="translate(1186,742)" d="m0 0h1l2 29v8h-1l-3-19v-13z" fill="#1E0304"/>
<path transform="translate(1055,507)" d="m0 0 7 3 1-3h5l-4 7-6-2 1 7-2-1-1-7-2-1z" fill="#040F16"/>
<path transform="translate(291,501)" d="m0 0 7 1-4 2-17 2h-9l3-2z" fill="#E6DFF9"/>
<path transform="translate(1052,940)" d="m0 0 7 1-2 2 7 2 1-2 2 3-1 3-20-7v-1z" fill="#BEAFEA"/>
<path transform="translate(535,850)" d="m0 0 5 1-2 5-3 2h-5l-1-2 1-3h2v-2z" fill="#04011B"/>
<path transform="translate(1098,704)" d="m0 0h2l1 3h-2l-2 4-1 3-7 5-3-1 1-4 6-1 3-8z" fill="#9A73A1"/>
<path transform="translate(1086,237)" d="m0 0 1 3-1 14h-3l-1-14z" fill="#C6C7CB"/>
<path transform="translate(1088,1286)" d="m0 0 11 1 7 2v1l-18 1z" fill="#8F70DD"/>
<path transform="translate(1150,1011)" d="m0 0h12v1l-13 3-8 2-4-1 1-2 5-2z" fill="#4B4870"/>
<path transform="translate(976,806)" d="m0 0 3 1-6 2-1 3-10 5-6-2 2-2 10-2z" fill="#AFA6D0"/>
<path transform="translate(501,980)" d="m0 0h15l-3 2-22 3 1-2h3v-2z" fill="#050323"/>
<path transform="translate(988,826)" d="m0 0 2 2-10 2v2l8 1v1l-12 2-1-5 5-3z" fill="#555962"/>
<path transform="translate(521,237)" d="m0 0 4 1 3 3v5h-6l-1-1z" fill="#EAE6F6"/>
<path transform="translate(477,1308)" d="m0 0h7v6l2 1h-9z" fill="#CFCBDF"/>
<path transform="translate(1346,618)" d="m0 0 4 2-2 2h-5l-1 4-5 3-1-5h2v-2l6-2 2 1z" fill="#A391DC"/>
<path transform="translate(1064,494)" d="m0 0 5 2 2 2-5 3v3l-5 1-2-1v-5h5v-2z" fill="#3E415B"/>
<path transform="translate(1202,1042)" d="m0 0h2l1 5-3 6h-5v-3l-1-1 4-4z" fill="#3D4157"/>
<path transform="translate(1125,905)" d="m0 0h20l1 2-12 1-12-1z" fill="#0A0C18"/>
<path transform="translate(1287,546)" d="m0 0 2 1-6 6v2l-8 6-6 5-2-1 10-9h2l2-5z" fill="#020E11"/>
<path transform="translate(1266,1180)" d="m0 0h10v4l-1 1h-7z" fill="#B9B2D4"/>
<path transform="translate(1083,569)" d="m0 0 3 1-2 5-11 3v-4l4-2h5z" fill="#292E45"/>
<path transform="translate(1080,520)" d="m0 0 2 2-1 28-4 3-2-2 4-2v-27z" fill="#041015"/>
<path transform="translate(974,1048)" d="m0 0 3 1-2 1 3 2-10 5-2-1 3-6z" fill="#9A98B0"/>
<path transform="translate(479,984)" d="m0 0 4 1-1 1-7 1v2l-20 1v-1z" fill="#030517"/>
<path transform="translate(973,615)" d="m0 0 9 3-1 2-12 2 2-1-1-4z" fill="#74748D"/>
<path transform="translate(1173,491)" d="m0 0 3 1h-2l1 3 3 3-3 4-4-1v-3l-2-1 3-3z" fill="#252A3D"/>
<path transform="translate(914,1092)" d="m0 0 1 4-3 6h2l-1 4h-9l5-5 4-6z" fill="#270405"/>
<path transform="translate(1290,749)" d="m0 0 4 1-3 4h-2l-1 3h-4l-1-4z" fill="#050205"/>
<path transform="translate(1048,698)" d="m0 0 8 3v1l-7 2 8 1-1 2-7-1-3-2v-4h2z" fill="#8684A0"/>
<path transform="translate(827,632)" d="m0 0 1 2h2v18h-2l-1 2z" fill="#E9E4F9"/>
<path transform="translate(1078,517)" d="m0 0h2v32l-2 1v-20l-1-6z" fill="#C2B1F3"/>
<path transform="translate(925,238)" d="m0 0 5 1v8l-2 1-3-1z" fill="#4B4C67"/>
<path transform="translate(997,607)" d="m0 0 3 1-7 4-12 2v-2l9-3z" fill="#575774"/>
<path transform="translate(1072,498)" d="m0 0 5 2 2 2h8l-2 4h-3l1 5-2-1-3-5-6-5z" fill="#D7CEF3"/>
<path transform="translate(747,498)" d="m0 0h2v2l-6 4-12 3v-2l9-4 6-2z" fill="#65667B"/>
<path transform="translate(687,1309)" d="m0 0h9v1l21 1v1h-29l-2-2z" fill="#020F12"/>
<path transform="translate(523,1294)" d="m0 0 4 1v11l-3 1z" fill="#FBFAFD"/>
<path transform="translate(991,1285)" d="m0 0 6 2 2 2-14 1-1-4z" fill="#FEFEFE"/>
<path transform="translate(321,1006)" d="m0 0 18 4v1h-13v-2h-7l-2-2z" fill="#3D4056"/>
<path transform="translate(233,983)" d="m0 0 5 3 1 2 9 3-3 1-16-5z" fill="#CDBFF2"/>
<path transform="translate(568,863)" d="m0 0h5l1 3h-7l-16 4v-2l8-3z" fill="#020F12"/>
<path transform="translate(908,811)" d="m0 0h6l2 1v6l-9-3z" fill="#181F30"/>
<path transform="translate(1325,658)" d="m0 0 7 1 1 3-4 2 3 1-3 1-6-4z" fill="#343651"/>
<path transform="translate(529,594)" d="m0 0 3 1-3 1-1 3-10 4h-6l4-2 9-3 1-3z" fill="#020F12"/>
<path transform="translate(1219,439)" d="m0 0 3 1-1 3-4 2-1 2h-6l1-4zm-6 5 1 2 2-2z" fill="#F3F0FC"/>
<path transform="translate(331,987)" d="m0 0 14 1 2 2-1 1h-13z" fill="#04011D"/>
<path transform="translate(1e3 920)" d="m0 0h12l-2 5-5-1-4-2-1 2-1-2z" fill="#D3C6F7"/>
<path transform="translate(479,729)" d="m0 0 5 3v2l-6 2-5-1 5-5z" fill="#FEFEFE"/>
<path transform="translate(232,714)" d="m0 0 7 2 1 4-2 1h-6z" fill="#9071EE"/>
<path transform="translate(574,682)" d="m0 0 2 3-5 5-10 3-1-2 10-4z" fill="#030418"/>
<path transform="translate(969,597)" d="m0 0 2 1 1 2-1 2-7-1-9-1 1-2h12z" fill="#61627C"/>
<path transform="translate(634,596)" d="m0 0 19 1v1l-5 1h-10l-12-1v-1z" fill="#B5A1F3"/>
<path transform="translate(1228,1285)" d="m0 0 1 2-1 5 2 1-7-1-1-5z" fill="#E1D9F7"/>
<path transform="translate(769,702)" d="m0 0h5l4 1h2v2l-7 2h-6v-3h2z" fill="#191E36"/>
<path transform="translate(1066,552)" d="m0 0h9l-2 4-17-2v-1z" fill="#343357"/>
<path transform="translate(1068,507)" d="m0 0 5 1 1 6-1 1h-5l-3-2 2-5zm-2 4 3 2h3v-2z" fill="#CEC1F6"/>
<path transform="translate(712,491)" d="m0 0h5l-4 3-13 5-4-1z" fill="#9592AC"/>
<path transform="translate(988,233)" d="m0 0h5l-2 1-1 5h-7l2-5z" fill="#1C2432"/>
<path transform="translate(865,1026)" d="m0 0h6l4 2 1 3-15-2v-2z" fill="#DED5F7"/>
<path transform="translate(1034,806)" d="m0 0 2 1-3 1v2l-8 2 5 1-4 2-5-1 1-4 9-3z" fill="#B4ACD2"/>
<path transform="translate(752,788)" d="m0 0 8 1 2 1v2l-2 1h-6l-4-4z" fill="#2E2E41"/>
<path transform="translate(714,725)" d="m0 0 6 3v2l-7 2v-2h-2l-1-3z" fill="#31324A"/>
<path transform="translate(1179,692)" d="m0 0 1 4 1 1 1-5 2 4h-2l-1 3h-3l-2 7h-1l1-10z" fill="#686290"/>
<path transform="translate(655,490)" d="m0 0 8 1 4 3v2l-9-2-5-2z" fill="#4E5265"/>
<path transform="translate(481 1e3)" d="m0 0h8l1 3-14 2 2-1-1-3z" fill="#222640"/>
<path transform="translate(711,704)" d="m0 0 4 2-4 3-8 3-4-1 11-6z" fill="#75748A"/>
<path transform="translate(797,592)" d="m0 0 7 1 11 4-4 1-8-1-3-1-3-2z" fill="#D9D3ED"/>
<path transform="translate(1136,590)" d="m0 0h12v2l-4 1h-11v-2z" fill="#2B2B51"/>
<path transform="translate(1092,501)" d="m0 0 1 2 2 1-4 3-2 3-1-1-3 3 1-7h2l1-2h2z" fill="#FBFAFD"/>
<path transform="translate(817,439)" d="m0 0 2 1v3l-7 1-9 2 5-4z" fill="#BAB7CD"/>
<path transform="translate(1131,240)" d="m0 0h1v7l-3 1-1 8h-2l-1-3 1-7h5z" fill="#5E5B7F"/>
<path transform="translate(1083,1297)" d="m0 0h3v11l-3-1-1-9z" fill="#D7CCF8"/>
<path transform="translate(411,1278)" d="m0 0 3 3 2 7-2 5-2-1z" fill="#DFD7F8"/>
<path transform="translate(610,918)" d="m0 0h6l1 1v5l-5 1h-1z" fill="#020F12"/>
<path transform="translate(997,676)" d="m0 0 19 6v1l-9-1-10-3-2-2z" fill="#D4CFE6"/>
<path transform="translate(613,491)" d="m0 0 4 1-6 3-6 7-2-1 2-5 6-4z" fill="#404353"/>
<path transform="translate(926,1294)" d="m0 0h3l1 9-2 5-3-1 1-1z" fill="#F4F2FC"/>
<path transform="translate(880,1135)" d="m0 0h11l2 2-2 1h-11z" fill="#09141E"/>
<path transform="translate(902,1106)" d="m0 0 2 1-8 7-2 4-4 1 2-5 6-5z" fill="#250404"/>
<path transform="translate(1355,1039)" d="m0 0h3l-2 7-5 2-1 4-1-5 5-5z" fill="#35394F"/>
<path transform="translate(577,929)" d="m0 0 3 1 1 6-2 5h-2z" fill="#04011B"/>
<path transform="translate(1166,917)" d="m0 0 6 2h2l2 5-3 2-6-5zm7 5-1 2h2z" fill="#454269"/>
<path transform="translate(1011,911)" d="m0 0 5 1-2 4-5 1-2-1v-2z" fill="#C7B7F6"/>
<path transform="translate(940,899)" d="m0 0h7l8 4 3 2-7-1-11-3z" fill="#F1EDFB"/>
<path transform="translate(876,828)" d="m0 0 3 1-6 4-1 3-7 1 4-5z" fill="#230404"/>
<path transform="translate(1064,504)" d="m0 0 1 2h6l1 2h-9l-1 2-5-1-1-2z" fill="#03021A"/>
<path transform="translate(937,459)" d="m0 0 10 2v6l-5-2-1-3-7-1z" fill="#6F6C90"/>
<path transform="translate(985,889)" d="m0 0 12 3 1 2-11-1-5-2z" fill="#6C6C81"/>
<path transform="translate(822,680)" d="m0 0h3l-1 4h-2v-2h-2l-1 4-2 2h-6l3-3 4-1 1-3z" fill="#F4F1FC"/>
<path transform="translate(1016,600)" d="m0 0v3l-2 2-9 2-4-1z" fill="#9994B5"/>
<path transform="translate(1271,364)" d="m0 0h11v1l-11 2-5 2h-5l4-3z" fill="#E1D9F8"/>
<path transform="translate(1269,257)" d="m0 0h4l3 3 5 1v1h-9-1-7v-1h5z" fill="#E7E0F8"/>
<path transform="translate(1020,233)" d="m0 0h7l2 1v4l-8-1z" fill="#3D376D"/>
<path transform="translate(579,1294)" d="m0 0h1v12h-3v-10z" fill="#FEFEFE"/>
<path transform="translate(724,1293)" d="m0 0 3 1 1 10-2 4-3-1h2z" fill="#E3DCF9"/>
<path transform="translate(564,988)" d="m0 0 4 1-16 5v-3l5-2z" fill="#DCD3F7"/>
<path transform="translate(275,977)" d="m0 0 9 1 8 1v1l-12 1-5-2z" fill="#050321"/>
<path transform="translate(762,921)" d="m0 0 11 1 1 2-5 1h-7z" fill="#CEC5EA"/>
<path transform="translate(575,831)" d="m0 0 2 1-1 6-9 6-3-1 9-7z" fill="#060126"/>
<path transform="translate(489,732)" d="m0 0h11v2l-13 2v-3z" fill="#03021A"/>
<path transform="translate(815,1286)" d="m0 0h9l-2 4h-7z" fill="#A4A2B9"/>
<path transform="translate(533,974)" d="m0 0h5v2l-17 5-3-1 6-2 8-3z" fill="#060127"/>
<path transform="translate(820,461)" d="m0 0 4 2-2 1 3 3-5 2-4-1 2-4h2z" fill="#6B7588"/>
<path transform="translate(1020,1286)" d="m0 0h9l-1 4h-5-4l-2-2z" fill="#FEFEFE"/>
<path transform="translate(893,1136)" d="m0 0 8 2-2 2h-11l3-3z" fill="#ECE7FB"/>
<path transform="translate(272,996)" d="m0 0h6l3 2v2l-9-1-4-2z" fill="#3E4257"/>
<path transform="translate(1021,909)" d="m0 0m-8 1h8l-2 4-6 5 2-7z" fill="#EBE5F7"/>
<path transform="translate(1318,854)" d="m0 0 5 2-1 2h-9l-3-2z" fill="#5B5976"/>
<path transform="translate(1060,766)" d="m0 0h6l1 4h-10v-3z" fill="#F0ECFC"/>
<path transform="translate(743,599)" d="m0 0 10 1 6 2-1 3-15-5z" fill="#DFD6F9"/>
<path transform="translate(1133,483)" d="m0 0h12l8 2-3 3-6-3-11-1z" fill="#DDD4F6"/>
<path transform="translate(721,940)" d="m0 0h8v2l-7 1h-9l2-2z" fill="#585283"/>
<path transform="translate(776,891)" d="m0 0 4 1v2l-10 2-2-2z" fill="#E5DEFA"/>
<path transform="translate(1217,873)" d="m0 0h5l-3 5-3 1-3-2v-2z" fill="#393556"/>
<path transform="translate(969,592)" d="m0 0 4 2-4 3h-8l3-3z" fill="#CBBDF5"/>
<path transform="translate(859,591)" d="m0 0 4 2-3 3v3h-3v-2l-3-1z" fill="#1F303D"/>
<path transform="translate(1030,504)" d="m0 0h10v2h5v1h-11l-4-2z" fill="#2B333D"/>
<path transform="translate(1098,499)" d="m0 0 2 3 2 8-4 1-2-4 3-1-1-4h-2v-2z" fill="#9881D9"/>
<path transform="translate(1189,1285)" d="m0 0 3 1v5h12v1l-15 1 2-1-1-4-2-2z" fill="#DFD6F6"/>
<path transform="translate(1260,1275)" d="m0 0 2 3h2l5 6-8-1-1-1z" fill="#B8ACDF"/>
<path transform="translate(400,1113)" d="m0 0 4 1 6 2v1l-11 1z" fill="#FAF9FD"/>
<path transform="translate(1225,1072)" d="m0 0 6 2 4 2v2l5 1-2 1-8-3-6-3z" fill="#5F5987"/>
<path transform="translate(1006,1035)" d="m0 0 3 1-4 3-9 2v-2l7-3z" fill="#71718A"/>
<path transform="translate(991,1017)" d="m0 0 2 1-12 5-4-1 4-3z" fill="#818293"/>
<path transform="translate(1107,1011)" d="m0 0 9 1 7 2v2l-8-1-8-3z" fill="#E0D8F9"/>
<path transform="translate(706,980)" d="m0 0 9 2 3 4-8-1-4-3z" fill="#EBE5FA"/>
<path transform="translate(208,963)" d="m0 0 4 1v7l-4-1z" fill="#9E94C4"/>
<path transform="translate(1376,787)" d="m0 0 2 4-2 6h-4l2-1v-6z" fill="#D2C9EC"/>
<path transform="translate(1373,784)" d="m0 0 2 2 4-1-1 6-2-2-2 7h-1l-1-10z" fill="#2F2D57"/>
<path transform="translate(1227,638)" d="m0 0 4 2 1 4-7-1-3-3h5z" fill="#737092"/>
<path transform="translate(1123,596)" d="m0 0h11l3 2-9 1-6-1z" fill="#45406F"/>
<path transform="translate(1376,571)" d="m0 0h1l1 7-3 5h-2v-8z" fill="#BBABE5"/>
<path transform="translate(255,507)" d="m0 0h6l4 3-3 2v-2l-12-1v-1z" fill="#D7CDF5"/>
<path transform="translate(914,375)" d="m0 0 9 3v2h-3l-2 2-4-4z" fill="#787194"/>
<path transform="translate(820,1309)" d="m0 0 5 1-2 5h-5l1-4z" fill="#EBE5FB"/>
<path transform="translate(797,1050)" d="m0 0h3v6l-10-3v-1h7z" fill="#DAD3F0"/>
<path transform="translate(1334,1031)" d="m0 0 3 2-5 3-5 4-5 2 5-5z" fill="#020F12"/>
<path transform="translate(919,604)" d="m0 0h5l2 5 4 2-3 1-8-7z" fill="#3E3A68"/>
<path transform="translate(725,508)" d="m0 0 11 2-3 2-6 1-4-4z" fill="#EEEAFB"/>
<path transform="translate(724,238)" d="m0 0 5 2v6h-4z" fill="#EBE5FB"/>
<path transform="translate(1270,1233)" d="m0 0h3v5l-3 1h-7v-1l5-1z" fill="#CFC9E1"/>
<path transform="translate(1326,1064)" d="m0 0 4 1h-2v3l-5 5-2-1 2-4z" fill="#4C596C"/>
<path transform="translate(1082,995)" d="m0 0h12l1 4-4-2-8 1-2 1z" fill="#5A5979"/>
<path transform="translate(702,919)" d="m0 0 2 1v4l-4 1v-2l-5-1 3-2z" fill="#A5A4B5"/>
<path transform="translate(1009,897)" d="m0 0 3 1v2l3 1v2l-5-1-1 6h-1v-10z" fill="#E9E3F8"/>
<path transform="translate(944,684)" d="m0 0h9l4 2v2l-7-1-6-2z" fill="#F2EEFC"/>
<path transform="translate(788,614)" d="m0 0 6 1 2 2 1 2-2 2-7-3 3-2z" fill="#D5C9F4"/>
<path transform="translate(743,569)" d="m0 0 10 3v1h-9l-5-2z" fill="#EAE4FB"/>
<path transform="translate(1374,496)" d="m0 0h2l3 11v6h-1l-4-14z" fill="#DCD3F4"/>
<path transform="translate(1324,439)" d="m0 0 10 4 6 3-2 1-9-3-4-1-2-2z" fill="#CCC4E7"/>
<path transform="translate(416,1308)" d="m0 0 5 2-1 4-4 1v-4z" fill="#E4DCF6"/>
<path transform="translate(1315,1045)" d="m0 0 2 1-5 5-3 2-3-1 1-3z" fill="#020F12"/>
<path transform="translate(749,1029)" d="m0 0 5 2 1 3-8-1v-3z" fill="#343554"/>
<path transform="translate(614,981)" d="m0 0 5 4 4 5-6-1-2-2z" fill="#020F12"/>
<path transform="translate(563,964)" d="m0 0 4 1-7 3-9 3 4-4z" fill="#07012A"/>
<path transform="translate(1018,811)" d="m0 0 3 1v5l-9 1 4-2zm1 3-1 2h2z" fill="#C8C5D8"/>
<path transform="translate(1087,783)" d="m0 0 6 1 3 3v2h2v3l-4-2v-2h-2v-2h-2v-2z" fill="#605A87"/>
<path transform="translate(735,782)" d="m0 0 9 2 7 3-4 1-10-4z" fill="#E9E3FB"/>
<path transform="translate(1374,712)" d="m0 0h2l2 9-3 1-2-6z" fill="#EDE8FA"/>
<path transform="translate(269,595)" d="m0 0 8 3 2 1v2l-7-1-3-3z" fill="#030617"/>
<path transform="translate(1088,572)" d="m0 0 6 1 1 7-5-4-5-2z" fill="#333553"/>
<path transform="translate(692,529)" d="m0 0 1 3-1 8h-2v3h-2v-6h2v-6z" fill="#2A2B4A"/>
<path transform="translate(545,507)" d="m0 0 10 2v1h-15l1-2z" fill="#F5F3FC"/>
<path transform="translate(1348,460)" d="m0 0 7 2 1 3-3 3-2-1v-3l-3-3z" fill="#BBA5DE"/>
<path transform="translate(886,1285)" d="m0 0 6 2v3l-6 1z" fill="#AD96F2"/>
<path transform="translate(607,913)" d="m0 0 3 1-2 3-10 2 1-2z" fill="#7F7A9D"/>
<path transform="translate(1176,811)" d="m0 0 5 5 1 3h-3l-4-5z" fill="#3E3E56"/>
<path transform="translate(1042,722)" d="m0 0 9 4v1l-7 1-3-1z" fill="#B3A4E2"/>
<path transform="translate(599,576)" d="m0 0 3 1 1 4-2 2-5-1 1-4h2z" fill="#2F3546"/>
<path transform="translate(1370,482)" d="m0 0h2l3 13-2 1-3-9z" fill="#FEFEFE"/>
<path transform="translate(1305,432)" d="m0 0 14 5-4 1-9-3z" fill="#C5B9EE"/>
<path transform="translate(389,228)" d="m0 0h26v1h-26z" fill="#FEFEFE"/>
<path transform="translate(1177,596)" d="m0 0 3 3 1 6-4-2-1-6z" fill="#E6E3F2"/>
<path transform="translate(698,552)" d="m0 0 9 1v3l-6-1z" fill="#191C2D"/>
<path transform="translate(1370,698)" d="m0 0 2 1 2 9-1 4-3-10z" fill="#4E5064"/>
<path transform="translate(485,228)" d="m0 0h22v1h-22z" fill="#FEFEFE"/>
<path transform="translate(578,239)" d="m0 0h1v6l-3 1-1-4z" fill="#B0AACA"/>
<path transform="translate(1370,916)" d="m0 0 2 2 1 5h-2l-2-6z" fill="#E3DCF7"/>
<path transform="translate(1138,598)" d="m0 0h9l1 2-10-1z" fill="#FEFEFE"/>
<path transform="translate(1012,898)" d="m0 0 7 1v2l-7-2z" fill="#FEFEFE"/>
<path transform="translate(927,249)" d="m0 0h2v5h-2z" fill="#FEFEFE"/>
<path transform="translate(960,443)" d="m0 0 5 1-1 2-4-1z" fill="#413A73"/>
<path transform="translate(1232,241)" d="m0 0 4 1v2h-3z" fill="#FEFEFE"/>
<path transform="translate(623,1309)" d="m0 0 1 3-2 1z" fill="#EBE6FB"/>
<path transform="translate(1e3 924)" d="m0 0h4v2z" fill="#C7B7F6"/>
<path transform="translate(816,599)" d="m0 0 4 1-4 1z" fill="#312B57"/>
<path transform="translate(1373,799)" d="m0 0 1 2-2 2z" fill="#D2C5F7"/>
<path transform="translate(676,791)" d="m0 0 3 1-3 1z" fill="#9F95C8"/>
<path transform="translate(1334,659)" d="m0 0 2 1v2h-2z" fill="#FEFEFE"/>
<path transform="translate(1073,525)" d="m0 0 3 1-1 2z" fill="#D2C5F7"/>
<path transform="translate(928,387)" d="m0 0h2l1 3h-2z" fill="#E8E1FA"/>
<path transform="translate(477,229)" d="m0 0h5v1h-5z" fill="#FEFEFE"/>
<path transform="translate(1042,940)" d="m0 0 4 1z" fill="#6550A5"/>
<path transform="translate(1190,895)" d="m0 0 2 1h-3z" fill="#A39FBF"/>
<path transform="translate(1324,856)" d="m0 0h2v2h-2z" fill="#FEFEFE"/>
<path transform="translate(831,680)" d="m0 0 4 1z" fill="#FEFEFE"/>
<path transform="translate(827,680)" d="m0 0 3 1h-3z" fill="#FEFEFE"/>
<path transform="translate(1018,599)" d="m0 0h2v2h-2z" fill="#C3B3ED"/>
<path transform="translate(1006,575)" d="m0 0 2 1h-3z" fill="#494080"/>
<path transform="translate(395,1223)" d="m0 0 3 1z" fill="#FEFEFE"/>
<path transform="translate(1278,1181)" d="m0 0 2 1-2 1z" fill="#FEFEFE"/>
<path transform="translate(1325,1071)" d="m0 0h2l-1 2z" fill="#FEFEFE"/>
<path transform="translate(575,985)" d="m0 0 1 2-2-1z" fill="#FEFEFE"/>
<path transform="translate(1329,874)" d="m0 0 2 1-2 1z" fill="#FEFEFE"/>
<path transform="translate(735,811)" d="m0 0 3 1z" fill="#312F5B"/>
<path transform="translate(754,683)" d="m0 0 3 1z" fill="#8B6BE2"/>
<path transform="translate(1188,680)" d="m0 0 1 2-2-1z" fill="#D9CFF8"/>
<path transform="translate(787,668)" d="m0 0 3 1z" fill="#D9CFF8"/>
<path transform="translate(1350,618)" d="m0 0h2l-1 2z" fill="#FEFEFE"/>
<path transform="translate(695,551)" d="m0 0 3 1z" fill="#FEFEFE"/>
<path transform="translate(605,492)" d="m0 0 2 1-2 1z" fill="#312F5B"/>
<path transform="translate(1e3 464)" d="m0 0 3 1z" fill="#FEFEFE"/>
<path transform="translate(936,400)" d="m0 0 2 1-2 1z" fill="#FEFEFE"/>
<path transform="translate(1178,242)" d="m0 0 2 1-2 1z" fill="#FEFEFE"/>
<path transform="translate(871,1134)" d="m0 0 2 1z" fill="#FEFEFE"/>
<path transform="translate(936,1105)" d="m0 0" fill="#FEFEFE"/>
<path transform="translate(1213,1070)" d="m0 0 2 1z" fill="#FEFEFE"/>
<path transform="translate(788,1051)" d="m0 0 2 1z" fill="#FEFEFE"/>
<path transform="translate(1373,1017)" d="m0 0" fill="#FEFEFE"/>
<path transform="translate(1e3 917)" d="m0 0 2 1z" fill="#C7B7F6"/>
<path transform="translate(1361,904)" d="m0 0" fill="#FEFEFE"/>
<path transform="translate(750,898)" d="m0 0 2 1z" fill="#FEFEFE"/>
<path transform="translate(1334,876)" d="m0 0 2 1z" fill="#FEFEFE"/>
<path transform="translate(1217,855)" d="m0 0" fill="#FEFEFE"/>
<path transform="translate(1022,815)" d="m0 0 2 1z" fill="#FEFEFE"/>
<path transform="translate(1032,811)" d="m0 0 2 1z" fill="#8968DC"/>
<path transform="translate(1175,809)" d="m0 0" fill="#808688"/>
<path transform="translate(1e3 790)" d="m0 0 2 1z" fill="#FEFEFE"/>
<path transform="translate(713,768)" d="m0 0 2 1z" fill="#FEFEFE"/>
<path transform="translate(986,704)" d="m0 0 2 1z" fill="#FEFEFE"/>
<path transform="translate(1162,703)" d="m0 0 2 1z" fill="#FEFEFE"/>
<path transform="translate(983,703)" d="m0 0 2 1z" fill="#FEFEFE"/>
<path transform="translate(751,683)" d="m0 0 2 1z" fill="#9071EE"/>
<path transform="translate(1356,680)" d="m0 0" fill="#020F12"/>
<path transform="translate(1119,597)" d="m0 0 2 1z" fill="#FEFEFE"/>
<path transform="translate(756,574)" d="m0 0 2 1z" fill="#8260CA"/>
<path transform="translate(753,573)" d="m0 0 2 1z" fill="#494080"/>
<path transform="translate(247,509)" d="m0 0 2 1z" fill="#FEFEFE"/>
<path transform="translate(705,491)" d="m0 0 2 1z" fill="#9071EE"/>
<path transform="translate(708,490)" d="m0 0 2 1z" fill="#FEFEFE"/>
<path transform="translate(777,489)" d="m0 0 2 1z" fill="#FEFEFE"/>
<path transform="translate(711,489)" d="m0 0 2 1z" fill="#FEFEFE"/>
<path transform="translate(942,467)" d="m0 0 2 1z" fill="#FEFEFE"/>
<path transform="translate(680,252)" d="m0 0" fill="#FEFEFE"/>
<path transform="translate(524,1309)" d="m0 0" fill="#FEFEFE"/>
<path transform="translate(871,1138)" d="m0 0" fill="#FEFEFE"/>
<path transform="translate(844,1121)" d="m0 0" fill="#FEFEFE"/>
<path transform="translate(843,1120)" d="m0 0" fill="#FEFEFE"/>
<path transform="translate(411,1116)" d="m0 0" fill="#FEFEFE"/>
<path transform="translate(1216,1071)" d="m0 0" fill="#FEFEFE"/>
<path transform="translate(947,1070)" d="m0 0" fill="#FEFEFE"/>
<path transform="translate(945,1069)" d="m0 0" fill="#FEFEFE"/>
<path transform="translate(1194,1052)" d="m0 0" fill="#FEFEFE"/>
<path transform="translate(1193,1051)" d="m0 0" fill="#FEFEFE"/>
<path transform="translate(1192,1050)" d="m0 0" fill="#FEFEFE"/>
<path transform="translate(784,1050)" d="m0 0" fill="#FEFEFE"/>
<path transform="translate(1195,1049)" d="m0 0" fill="#FEFEFE"/>
<path transform="translate(1190,1049)" d="m0 0" fill="#FEFEFE"/>
<path transform="translate(985,1049)" d="m0 0" fill="#8260CA"/>
<path transform="translate(987,1048)" d="m0 0" fill="#9071EE"/>
<path transform="translate(1187,1046)" d="m0 0" fill="#FEFEFE"/>
<path transform="translate(1189,1045)" d="m0 0" fill="#FEFEFE"/>
<path transform="translate(1370,1031)" d="m0 0" fill="#FEFEFE"/>
<path transform="translate(1371,1024)" d="m0 0" fill="#FEFEFE"/>
<path transform="translate(1166,1007)" d="m0 0" fill="#FEFEFE"/>
<path transform="translate(697,1007)" d="m0 0" fill="#FEFEFE"/>
<path transform="translate(726,988)" d="m0 0" fill="#9071EE"/>
<path transform="translate(723,988)" d="m0 0" fill="#9071EE"/>
<path transform="translate(1042,987)" d="m0 0" fill="#9071EE"/>
<path transform="translate(1043,986)" d="m0 0" fill="#9071EE"/>
<path transform="translate(1373,927)" d="m0 0" fill="#FEFEFE"/>
<path transform="translate(1372,925)" d="m0 0" fill="#FEFEFE"/>
<path transform="translate(1362,906)" d="m0 0" fill="#FEFEFE"/>
<path transform="translate(1013,906)" d="m0 0" fill="#FEFEFE"/>
<path transform="translate(1186,899)" d="m0 0" fill="#8260CA"/>
<path transform="translate(826,899)" d="m0 0" fill="#FEFEFE"/>
<path transform="translate(1187,898)" d="m0 0" fill="#020F12"/>
<path transform="translate(1356,897)" d="m0 0" fill="#020F12"/>
<path transform="translate(1188,897)" d="m0 0" fill="#FEFEFE"/>
<path transform="translate(1192,894)" d="m0 0" fill="#020F12"/>
<path transform="translate(1204,882)" d="m0 0" fill="#9071EE"/>
<path transform="translate(1337,877)" d="m0 0" fill="#FEFEFE"/>
<path transform="translate(1220,857)" d="m0 0" fill="#FEFEFE"/>
<path transform="translate(988,834)" d="m0 0" fill="#FEFEFE"/>
<path transform="translate(1e3 791)" d="m0 0" fill="#FEFEFE"/>
<path transform="translate(1086,787)" d="m0 0" fill="#020F12"/>
<path transform="translate(1086,784)" d="m0 0" fill="#FEFEFE"/>
<path transform="translate(676,707)" d="m0 0" fill="#FEFEFE"/>
<path transform="translate(598,707)" d="m0 0" fill="#FEFEFE"/>
<path transform="translate(704,706)" d="m0 0" fill="#020F12"/>
<path transform="translate(601,704)" d="m0 0" fill="#FEFEFE"/>
<path transform="translate(602,703)" d="m0 0" fill="#FEFEFE"/>
<path transform="translate(661,698)" d="m0 0" fill="#FEFEFE"/>
<path transform="translate(1016,683)" d="m0 0" fill="#9071EE"/>
<path transform="translate(1357,682)" d="m0 0" fill="#9071EE"/>
<path transform="translate(757,682)" d="m0 0" fill="#9071EE"/>
<path transform="translate(760,681)" d="m0 0" fill="#9071EE"/>
<path transform="translate(1353,677)" d="m0 0" fill="#FEFEFE"/>
<path transform="translate(1333,662)" d="m0 0" fill="#FEFEFE"/>
<path transform="translate(948,599)" d="m0 0" fill="#9071EE"/>
<path transform="translate(1149,598)" d="m0 0" fill="#9071EE"/>
<path transform="translate(849,598)" d="m0 0" fill="#9071EE"/>
<path transform="translate(815,598)" d="m0 0" fill="#9071EE"/>
<path transform="translate(653,598)" d="m0 0" fill="#FEFEFE"/>
<path transform="translate(1117,597)" d="m0 0" fill="#FEFEFE"/>
<path transform="translate(733,595)" d="m0 0" fill="#FEFEFE"/>
<path transform="translate(1125,594)" d="m0 0" fill="#FEFEFE"/>
<path transform="translate(1371,592)" d="m0 0" fill="#9071EE"/>
<path transform="translate(1372,586)" d="m0 0" fill="#9071EE"/>
<path transform="translate(761,575)" d="m0 0" fill="#020F12"/>
<path transform="translate(1095,498)" d="m0 0" fill="#FEFEFE"/>
<path transform="translate(703,492)" d="m0 0" fill="#020F12"/>
<path transform="translate(607,491)" d="m0 0" fill="#020F12"/>
<path transform="translate(1168,490)" d="m0 0" fill="#9071EE"/>
<path transform="translate(1110,487)" d="m0 0" fill="#FEFEFE"/>
<path transform="translate(715,487)" d="m0 0" fill="#FEFEFE"/>
<path transform="translate(615,487)" d="m0 0" fill="#FEFEFE"/>
<path transform="translate(1360,471)" d="m0 0" fill="#FEFEFE"/>
<path transform="translate(1359,470)" d="m0 0" fill="#FEFEFE"/>
<path transform="translate(798,454)" d="m0 0" fill="#FEFEFE"/>
<path transform="translate(1345,453)" d="m0 0" fill="#020F12"/>
<path transform="translate(1206,446)" d="m0 0" fill="#FEFEFE"/>
<path transform="translate(1207,445)" d="m0 0" fill="#FEFEFE"/>
<path transform="translate(1209,444)" d="m0 0" fill="#FEFEFE"/>
<path transform="translate(926,385)" d="m0 0" fill="#9071EE"/>
<path transform="translate(979,244)" d="m0 0" fill="#FEFEFE"/>
</svg>
