<?xml version="1.0" encoding="UTF-8"?>
<svg version="1.1" xmlns="http://www.w3.org/2000/svg" width="500" height="500">
<path d="M0 0 C10.55568446 12.3717162 11.20851305 24.16318076 11.01171875 39.76171875 C11.00880835 41.84527898 11.00843321 43.92884412 11.01045227 46.0124054 C11.00725363 50.35545195 10.98051443 54.69747499 10.93530273 59.0402832 C10.87853216 64.58137682 10.87045917 70.12120226 10.87871075 75.66253948 C10.88151957 79.95654368 10.86384338 84.25026968 10.83957863 88.54419899 C10.82943478 90.58653721 10.82427051 92.62890696 10.82437706 94.67127037 C10.80282789 110.06125847 9.76135048 122.29648112 -1.54296875 133.75390625 C-5.08234939 136.9963852 -8.08124444 138.84132517 -12.8125 140 C-14.00230469 140.34160156 -15.19210937 140.68320313 -16.41796875 141.03515625 C-21.03683817 142.18921248 -25.44825479 142.2616727 -30.1875 142.1875 C-30.99316406 142.18685547 -31.79882812 142.18621094 -32.62890625 142.18554688 C-38.53037309 142.14106346 -38.53037309 142.14106346 -40.8125 141 C-40.8027373 141.97460017 -40.79297461 142.94920034 -40.78291607 143.95333385 C-40.54664268 167.65524706 -40.33926924 191.35727838 -40.16228771 215.0597105 C-40.07603031 226.52198864 -39.9803453 237.98404395 -39.86254883 249.44604492 C-39.75991455 259.43503076 -39.67488462 269.42398383 -39.61109048 279.41329604 C-39.57668666 284.70379819 -39.53340345 289.99389476 -39.46904564 295.28412437 C-39.40876368 300.26216489 -39.37199939 305.23982205 -39.35336304 310.21818733 C-39.34235646 312.04641417 -39.32271569 313.87461229 -39.29384804 315.70264435 C-39.25573623 318.19746323 -39.24858819 320.69052634 -39.24919128 323.18559265 C-39.22150855 324.2726666 -39.22150855 324.2726666 -39.19326657 325.38170165 C-39.22781328 328.96777174 -39.76787027 330.93172918 -41.74039936 333.94913864 C-46.05211462 336.82753725 -49.4482886 336.69357565 -54.52941895 336.62818909 C-55.51429936 336.63528347 -56.49917977 336.64237786 -57.51390505 336.64968723 C-60.81760844 336.66730431 -64.12014114 336.64914273 -67.42382812 336.63110352 C-69.79081255 336.63624088 -72.15779315 336.64352077 -74.52476501 336.65278625 C-80.95656125 336.67133139 -87.387944 336.65834162 -93.81972313 336.63869596 C-97.83584697 336.6275413 -101.85192152 336.62725879 -105.86805725 336.6301403 C-106.86816874 336.63085647 -106.86816874 336.63085647 -107.88848451 336.6315871 C-109.2429652 336.63261343 -110.59744588 336.63366879 -111.95192653 336.63475286 C-123.92846807 336.64332008 -135.90484594 336.62664435 -147.88134766 336.59692383 C-159.50218582 336.56808631 -171.12278821 336.5610028 -182.74365234 336.57641602 C-195.39862691 336.59317783 -208.05348952 336.59721263 -220.70846701 336.57970566 C-222.05795891 336.57786127 -223.40745082 336.57602654 -224.75694275 336.57420158 C-225.42091482 336.57328949 -226.0848869 336.5723774 -226.76897934 336.57143768 C-231.44749664 336.56583213 -236.12594197 336.56929711 -240.80445862 336.57574654 C-247.10166543 336.58339786 -253.39853188 336.57132041 -259.69568062 336.54389763 C-262.00920667 336.53700068 -264.32276442 336.53692976 -266.6362896 336.54411316 C-269.78976883 336.55277756 -272.94219042 336.53690189 -276.09558105 336.5146637 C-277.01532479 336.52290446 -277.93506852 336.53114523 -278.88268328 336.53963572 C-282.82517944 336.48817422 -285.31944394 336.24878396 -288.8822279 334.45109081 C-291.49727186 331.13046559 -291.49453579 328.32439555 -291.41377258 324.2678833 C-291.41804471 323.4845071 -291.42231683 322.7011309 -291.42671841 321.89401603 C-291.4349612 319.26632931 -291.40744367 316.64023518 -291.38012695 314.01269531 C-291.37871675 312.13035622 -291.37950791 310.24801437 -291.38233948 308.36567688 C-291.38377614 303.25220028 -291.35434576 298.13930816 -291.31946969 293.0259676 C-291.28824789 287.68349978 -291.28527874 282.34101909 -291.27934265 276.99847412 C-291.26379194 266.88013601 -291.22274676 256.76206749 -291.1725952 246.64384818 C-291.11674001 235.12527021 -291.08922484 223.60667947 -291.06411803 212.08799982 C-291.01183207 188.39185032 -290.92386582 164.69594026 -290.8125 141 C-291.8025 141.33 -292.7925 141.66 -293.8125 142 C-303.9812516 142.90698985 -313.85490058 141.62136314 -322.1875 135.4375 C-330.37215104 128.23816008 -335.07479291 118.79862779 -335.98856163 107.90011406 C-336.27599611 101.86131494 -336.23304764 95.81744993 -336.2109375 89.7734375 C-336.21296219 87.81531669 -336.21587691 85.85719662 -336.21963501 83.89907837 C-336.22403767 79.81252807 -336.21769255 75.7261756 -336.20361328 71.63964844 C-336.18649994 66.42018119 -336.19638937 61.20117613 -336.21433067 55.98172569 C-336.22520489 51.94437213 -336.22170589 47.90712699 -336.2139473 43.86977005 C-336.21195652 41.94577605 -336.21436479 40.02177198 -336.22138596 38.09778976 C-336.2290632 35.40396008 -336.21731017 32.71086524 -336.20068359 30.01708984 C-336.20979263 28.84322472 -336.20979263 28.84322472 -336.21908569 27.64564514 C-336.13465879 20.20708235 -334.20860656 13.3653281 -329.875 7.25 C-329.35035156 6.50878906 -328.82570313 5.76757812 -328.28515625 5.00390625 C-327.79917969 4.34261719 -327.31320312 3.68132812 -326.8125 3 C-326.1525 2.071875 -325.4925 1.14375 -324.8125 0.1875 C-319.62494141 -5.48639221 -312.72315434 -8.48453128 -305.13869572 -9.28066778 C-302.1045668 -9.39533677 -299.08328507 -9.41729011 -296.04699707 -9.40545654 C-294.89001202 -9.41280894 -293.73302697 -9.42016133 -292.54098177 -9.42773652 C-289.35195531 -9.44501864 -286.16323715 -9.44908402 -282.97417474 -9.4473989 C-279.52623196 -9.44883895 -276.07837561 -9.46750937 -272.63047791 -9.48399353 C-265.8849045 -9.51355389 -259.13938691 -9.52737758 -252.3937577 -9.53589597 C-244.53213598 -9.54645204 -236.67059228 -9.5729918 -228.80901366 -9.60024002 C-214.77845605 -9.64835598 -200.74789969 -9.68248158 -186.71728516 -9.70849609 C-173.11405649 -9.73373451 -159.51089312 -9.76808424 -145.90771484 -9.81298828 C-145.06984824 -9.81575251 -144.23198163 -9.81851674 -143.36872512 -9.82136473 C-141.68072461 -9.82693937 -139.9927241 -9.83251415 -138.30472359 -9.83808906 C-137.47196975 -9.84083711 -136.63921591 -9.84358515 -135.78122711 -9.84641647 C-134.53517554 -9.85053223 -134.53517554 -9.85053223 -133.26395121 -9.85473113 C-120.2842852 -9.89726077 -107.30459674 -9.93194739 -94.32490519 -9.96563159 C-89.62701443 -9.97789805 -84.92912802 -9.99121381 -80.2312423 -10.00527182 C-72.77828112 -10.02751135 -65.32532818 -10.04631954 -57.87234271 -10.05821076 C-54.46870459 -10.0636952 -51.06509027 -10.07073306 -47.6614666 -10.08220482 C-43.96696919 -10.09373743 -40.27251542 -10.09892579 -36.57800293 -10.10247803 C-35.50921921 -10.10723546 -34.4404355 -10.11199289 -33.33926439 -10.11689448 C-20.64731436 -10.11234562 -9.94523617 -8.80544506 0 0 Z M-314.1875 9.8125 C-315.02023437 10.47894531 -315.85296875 11.14539063 -316.7109375 11.83203125 C-321.91893283 17.20459149 -321.93967677 24.61372402 -321.92602539 31.73974609 C-321.92614593 32.39467356 -321.92626646 33.04960102 -321.92639065 33.72437477 C-321.92565001 35.82409807 -321.91806088 37.92373028 -321.91015625 40.0234375 C-321.90914917 41.31483643 -321.90814209 42.60623535 -321.90710449 43.93676758 C-321.90188214 48.74952078 -321.88792087 53.56226131 -321.875 58.375 C-321.854375 69.14125 -321.83375 79.9075 -321.8125 91 C-297.0625 91 -272.3125 91 -246.8125 91 C-246.8125 95.29 -246.8125 99.58 -246.8125 104 C-271.5625 104 -296.3125 104 -321.8125 104 C-320.67185499 114.26580513 -318.96846903 118.07561072 -312.23828125 125.265625 C-305.88408348 129.80872292 -297.83654634 129.28756035 -290.35707092 129.26069641 C-288.65350163 129.26643473 -288.65350163 129.26643473 -286.91551679 129.27228898 C-283.11949307 129.28258705 -279.3236215 129.27863284 -275.52758789 129.2746582 C-272.80212468 129.27791387 -270.07666986 129.28412566 -267.35121155 129.29014587 C-260.72246614 129.30287536 -254.09376128 129.30468879 -247.4650057 129.30234561 C-242.07577617 129.30056047 -236.68655892 129.30231629 -231.29733086 129.30657005 C-230.14552886 129.30746284 -230.14552886 129.30746284 -228.97045813 129.30837366 C-227.41039598 129.30958544 -225.85033384 129.31079958 -224.29027169 129.31201603 C-209.67032445 129.32288465 -195.05040028 129.32073219 -180.43045174 129.31463119 C-167.06423462 129.30946161 -153.69809038 129.32071974 -140.33188767 129.33972941 C-126.59628332 129.35911421 -112.86071343 129.36736274 -99.12509531 129.36360615 C-91.41804413 129.36169522 -83.71105497 129.36417129 -76.00401497 129.37832069 C-69.44354532 129.39024359 -62.88317591 129.39162915 -56.32270486 129.37953053 C-52.97771201 129.37364835 -49.63305235 129.37415635 -46.28804779 129.38453293 C-42.65683313 129.3949846 -39.02610975 129.38691168 -35.39491272 129.3742218 C-33.81989608 129.38528323 -33.81989608 129.38528323 -32.21306092 129.39656812 C-24.70323438 129.34142083 -17.63430071 128.40657856 -11.5 123.75 C-4.90356365 117.00015815 -4.8125 113.9562222 -4.8125 104 C-62.2325 104 -119.6525 104 -178.8125 104 C-178.8125 99.71 -178.8125 95.42 -178.8125 91 C-176.72110687 91.00222061 -174.62971375 91.00444122 -172.47494507 91.00672913 C-152.78661002 91.02715636 -133.09827636 91.04204235 -113.40993309 91.05181217 C-103.28744463 91.05696869 -93.16496394 91.06399914 -83.04248047 91.07543945 C-74.21984274 91.08540594 -65.39721064 91.09185812 -56.57456744 91.09408849 C-51.90296966 91.09539225 -47.23138799 91.09845701 -42.55979538 91.10573006 C-38.16205379 91.11252124 -33.76433493 91.11461063 -29.36658859 91.11310768 C-27.75332516 91.11338261 -26.14006096 91.11536935 -24.52680206 91.11920547 C-22.32182582 91.12419111 -20.11693507 91.12298034 -17.91195679 91.12025452 C-16.06191827 91.12163721 -16.06191827 91.12163721 -14.17450523 91.12304783 C-10.96564039 91.00560487 -7.96205241 90.60678097 -4.8125 90 C-3.74114875 82.23991393 -3.70493499 74.6301754 -3.79296875 66.8046875 C-3.79992579 66.13765934 -3.80688282 65.47063118 -3.81405067 64.78339005 C-3.85118923 61.26092524 -3.89505949 57.73862025 -3.94458008 54.21630859 C-3.99411299 50.59755205 -4.0201857 46.97901804 -4.04101086 43.3599987 C-4.0614403 40.55609795 -4.09933067 37.7526228 -4.1418705 34.94897842 C-4.16743296 32.97114276 -4.17451348 30.99309575 -4.18119812 29.0151062 C-4.33027608 21.14286094 -4.98826429 16.2741458 -10.33984375 10.29296875 C-16.18513014 5.71065283 -20.71702173 4.70306863 -28.04249573 4.7215271 C-28.86858603 4.7157347 -29.69467633 4.7099423 -30.54579967 4.70397437 C-33.31515928 4.68696968 -36.08435215 4.68409667 -38.85375977 4.68115234 C-40.84266567 4.67184967 -42.83156768 4.66168049 -44.82046509 4.65071106 C-50.24397501 4.62331127 -55.66745871 4.60821161 -61.09101987 4.59528303 C-66.83414158 4.5795566 -72.57721214 4.55275586 -78.32029724 4.5272522 C-88.03277018 4.48565108 -97.7452463 4.45123288 -107.45776367 4.421875 C-120.89711502 4.38124675 -134.33639534 4.3283994 -147.77569127 4.27263594 C-169.84043563 4.181517 -191.90518149 4.10875325 -213.97004128 4.05233383 C-224.92392652 4.02403777 -235.87772717 3.98981188 -246.83153993 3.94067276 C-253.41444617 3.91136416 -259.99734878 3.88837783 -266.5802986 3.87143815 C-270.21188366 3.8618595 -273.8433813 3.84912116 -277.47491646 3.82752609 C-281.32954925 3.8046606 -285.18411985 3.79723597 -289.03881836 3.79150391 C-290.13387381 3.78237598 -291.22892925 3.77324806 -292.3571682 3.76384354 C-300.65891982 3.77240938 -307.54500893 4.33296873 -314.1875 9.8125 Z M-277.8125 141 C-277.8125 200.73 -277.8125 260.46 -277.8125 322 C-204.2225 322 -130.6325 322 -54.8125 322 C-53.62791779 318.44625337 -53.68960439 315.63466866 -53.69224548 311.88166809 C-53.69138947 311.15399231 -53.69053345 310.42631653 -53.68965149 309.67658997 C-53.68799288 307.22422863 -53.69352549 304.7719352 -53.69897461 302.31958008 C-53.69928085 300.53702388 -53.69914761 298.75446757 -53.69860935 296.97191143 C-53.69838322 292.19020515 -53.70418698 287.40852381 -53.71121979 282.62682343 C-53.71690679 278.14293843 -53.71718248 273.65905956 -53.71789551 269.1751709 C-53.72314676 256.05427729 -53.73710786 242.93338833 -53.75 229.8125 C-53.770625 200.504375 -53.79125 171.19625 -53.8125 141 C-127.7325 141 -201.6525 141 -277.8125 141 Z " fill="#F2F4FB" transform="translate(415.8125,90)"/>
<path d="M0 0 C4.97306516 0.49730652 8.63799813 1.55302334 13 4 C12.56442027 6.96194213 11.92173285 9.15378438 10.5546875 11.83984375 C9.12736411 14.74111165 8.26184727 17.32569696 7.4375 20.4375 C5.32975743 27.4659204 2.4558407 34.03390602 -0.51953125 40.73364258 C-4.88827226 50.62181977 -8.98002715 60.61596693 -13.0625 70.625 C-18.31833263 83.49886469 -23.60825063 96.34997951 -29.17431641 109.09375 C-29.73217746 110.38167995 -30.28112664 111.67350125 -30.82177734 112.96875 C-32.03354379 115.86792954 -33.2487235 118.37308525 -35 121 C-39.03520597 119.41037341 -43.01811282 117.71767682 -47 116 C-45.21589586 110.3636511 -42.95531713 104.97934093 -40.65429688 99.54101562 C-39.14899928 95.93940338 -37.7533729 92.34740201 -36.55078125 88.6328125 C-34.83917081 83.37414078 -32.74347668 78.29324188 -30.625 73.1875 C-30.22506836 72.21772217 -29.82513672 71.24794434 -29.41308594 70.2487793 C-28.62670084 68.34334458 -27.83899365 66.43845482 -27.04980469 64.53417969 C-26.18809789 62.45405956 -25.33059836 60.37233827 -24.4765625 58.2890625 C-22.63869551 53.82901586 -20.7414348 49.41518556 -18.703125 45.04296875 C-15.7023783 38.46377079 -13.10050404 31.74528499 -10.5 25 C-7.23970923 16.54333543 -3.85888055 8.20326017 0 0 Z " fill="#E7EAF6" transform="translate(264,262)"/>
<path d="M0 0 C5.62940857 2.25176343 5.62940857 2.25176343 8.26953125 4.5390625 C8.84405029 5.03301514 9.41856934 5.52696777 10.01049805 6.03588867 C10.60515869 6.56029541 11.19981934 7.08470215 11.8125 7.625 C12.74606323 8.43578003 12.74606323 8.43578003 13.69848633 9.26293945 C17.63531497 12.71093793 21.36244881 16.29951601 25 20.0625 C28.26328593 23.22380824 31.82685651 26.00620914 35.38671875 28.82421875 C42.52870577 34.77053679 42.52870577 34.77053679 43.98828125 38.578125 C44.00329589 41.68114987 43.30164636 42.51654515 41.1875 44.75 C40.22070312 45.77287109 40.22070312 45.77287109 39.234375 46.81640625 C34.25014026 51.68736293 29.07059396 56.32420883 23.6875 60.75 C20.99514035 62.93682452 20.99514035 62.93682452 18.6875 65.3125 C13.83487289 70.16512711 8.71591642 75.16937534 3 79 C0.8125 78.8125 0.8125 78.8125 -1 78 C-1.33 77.34 -1.66 76.68 -2 76 C-2.99 75.67 -3.98 75.34 -5 75 C-8 71.55555556 -8 71.55555556 -8 69 C-6.77734375 67.73046875 -6.77734375 67.73046875 -4.9375 66.1875 C-3.85082031 65.26130859 -3.85082031 65.26130859 -2.7421875 64.31640625 C-1.83726562 63.55199219 -0.93234375 62.78757812 0 62 C8.29146425 54.93540668 16.47537749 47.89167727 24 40 C22.74507047 36.23521141 21.16902481 35.30619333 18.0625 32.875 C13.34446848 29.11035308 8.82150903 25.20778017 4.36328125 21.140625 C1.48945637 18.53755717 -1.44960897 16.01611043 -4.40625 13.5078125 C-6 12 -6 12 -8 9 C-5.36 6.03 -2.72 3.06 0 0 Z " fill="#E7E9F6" transform="translate(292,279)"/>
<path d="M0 0 C3.76029095 1.69134425 5.4866339 3.73262407 8 7 C8.66 7.33 9.32 7.66 10 8 C10 8.99 10 9.98 10 11 C9.34 11 8.68 11 8 11 C8 11.66 8 12.32 8 13 C6.38617052 14.45659977 4.70636784 15.84048951 3 17.1875 C-0.53705347 20.02261244 -4.06614205 22.85271945 -7.5 25.8125 C-8.1084375 26.33457031 -8.716875 26.85664063 -9.34375 27.39453125 C-11.0845721 28.99597212 -11.0845721 28.99597212 -12.56640625 31.10546875 C-14.37326604 33.49328073 -16.42845053 34.49470275 -19 36 C-20.35398257 37.31235923 -21.69050813 38.64324409 -23 40 C-22.33613281 40.51949219 -21.67226562 41.03898437 -20.98828125 41.57421875 C-16.40663619 45.19271507 -12.07599851 48.81077931 -8 53 C-6.9031787 53.90481182 -5.79879589 54.80052602 -4.6875 55.6875 C-3.3571875 56.8321875 -3.3571875 56.8321875 -2 58 C-2 58.66 -2 59.32 -2 60 C-1.42765625 60.25523437 -0.8553125 60.51046875 -0.265625 60.7734375 C2.24173733 62.13087159 4.1330456 63.71974104 6.25 65.625 C7.30960938 66.57246094 7.30960938 66.57246094 8.390625 67.5390625 C8.92171875 68.02117187 9.4528125 68.50328125 10 69 C7.61820737 72.74281699 5.25524265 75.97727468 2 79 C-6.19830324 75.21616774 -12.6806223 69.3193777 -19 63 C-20.09720469 62.09565314 -21.20144846 61.19978004 -22.3125 60.3125 C-23.199375 59.549375 -24.08625 58.78625 -25 58 C-25 57.34 -25 56.68 -25 56 C-25.55558594 55.74734375 -26.11117187 55.4946875 -26.68359375 55.234375 C-32.35092946 52.21434451 -37.55016993 48.05392593 -41.25 42.8125 C-42.19055812 39.28540704 -41.6729394 38.20040582 -40 35 C-37.79296875 32.90234375 -37.79296875 32.90234375 -35.1875 30.9375 C-34.33542969 30.28652344 -33.48335937 29.63554687 -32.60546875 28.96484375 C-31.31576172 27.99224609 -31.31576172 27.99224609 -30 27 C-25.38508482 23.37833889 -21.36405043 19.42749463 -17.3125 15.1875 C-15 13 -15 13 -13 13 C-12.78601563 12.43796875 -12.57203125 11.8759375 -12.3515625 11.296875 C-10.5318038 8.2043371 -8.18147612 6.46907414 -5.375 4.25 C-4.37210938 3.45078125 -3.36921875 2.6515625 -2.3359375 1.828125 C-1.56507813 1.22484375 -0.79421875 0.6215625 0 0 Z " fill="#E7EAF6" transform="translate(200,279)"/>
<path d="M0 0 C0 3.96 0 7.92 0 12 C-10.89 12 -21.78 12 -33 12 C-33 7.71 -33 3.42 -33 -1 C-28.62218616 -1.19218929 -24.24409441 -1.37092139 -19.86523438 -1.53710938 C-18.37517512 -1.59556854 -16.88525624 -1.65772629 -15.39550781 -1.72363281 C-13.25611936 -1.81764056 -11.11658132 -1.89840682 -8.9765625 -1.9765625 C-7.68830566 -2.02893066 -6.40004883 -2.08129883 -5.07275391 -2.13525391 C-2 -2 -2 -2 0 0 Z " fill="#E8ECF9" transform="translate(220,182)"/>
<path d="M0 0 C13.50276958 20.25415437 2 48.65753596 2 73 C-56.08 73 -114.16 73 -174 73 C-174 72.67 -174 72.34 -174 72 C-139.6068746 70.82930665 -105.21860006 70.87629253 -70.81108725 70.92797339 C-61.6031811 70.94155077 -52.39526971 70.94670053 -43.187356 70.95248318 C-28.79155791 70.96173283 -14.39579603 70.98169767 0 71 C0 47.57 0 24.14 0 0 Z " fill="#8191EB" transform="translate(411,109)"/>
<path d="M0 0 C0.66 0.33 1.32 0.66 2 1 C0.57282151 2.67551353 -0.86708482 4.34019309 -2.3125 6 C-3.51326172 7.3921875 -3.51326172 7.3921875 -4.73828125 8.8125 C-7 11 -7 11 -10 11 C-8.9015258 9.53737408 -7.7959964 8.08004497 -6.6875 6.625 C-6.07261719 5.81289062 -5.45773438 5.00078125 -4.82421875 4.1640625 C-3 2 -3 2 0 0 Z " fill="#BCC6EB" transform="translate(96,86)"/>
<path d="M0 0 C0.66 0 1.32 0 2 0 C1.51675181 5.15464734 -1.18610761 8.81550319 -4 13 C-4.97918775 9.92443042 -5.1498998 9.31407577 -3.6875 6.25 C-3.130625 5.5075 -2.57375 4.765 -2 4 C-1.34 4 -0.68 4 0 4 C0 2.68 0 1.36 0 0 Z " fill="#B4C1EA" transform="translate(422,207)"/>
<path d="M0 0 C0 3 0 3 -2 6 C-2.16699232 9.12521833 -2.16699232 9.12521833 -2 12 C-2.66 12 -3.32 12 -4 12 C-7 8.53846154 -7 8.53846154 -7 6 C-5.46875 4.4921875 -5.46875 4.4921875 -3.5 2.875 C-2.8503125 2.33617187 -2.200625 1.79734375 -1.53125 1.2421875 C-1.0259375 0.83226562 -0.520625 0.42234375 0 0 Z " fill="#AFB7E8" transform="translate(291,342)"/>
<path d="M0 0 C3.63 0 7.26 0 11 0 C11 0.33 11 0.66 11 1 C8.36 1.33 5.72 1.66 3 2 C2.34 4.97 1.68 7.94 1 11 C0.67 11 0.34 11 0 11 C0 7.37 0 3.74 0 0 Z " fill="#E4EEFF" transform="translate(237,182)"/>
<path d="M0 0 C2.31 0.33 4.62 0.66 7 1 C4.37801226 3.15377564 2.35595828 4.40072174 -1 5 C-0.67 3.35 -0.34 1.7 0 0 Z " fill="#B5BEE3" transform="translate(264,262)"/>
<path d="M0 0 C0.66 0.33 1.32 0.66 2 1 C-0.97 3.97 -3.94 6.94 -7 10 C-7.66 9.34 -8.32 8.68 -9 8 C-6.03 5.36 -3.06 2.72 0 0 Z " fill="#A1A6EB" transform="translate(173,303)"/>
<path d="M0 0 C0.33 0 0.66 0 1 0 C1.3125 2.6875 1.3125 2.6875 1 6 C-1.5 8.875 -1.5 8.875 -4 11 C-3.52269162 9.5410574 -3.04308958 8.08286504 -2.5625 6.625 C-2.29566406 5.81289063 -2.02882813 5.00078125 -1.75390625 4.1640625 C-1 2 -1 2 0 0 Z " fill="#969EEA" transform="translate(262,267)"/>
<path d="M0 0 C0.99 0.33 1.98 0.66 3 1 C2.34 2.32 1.68 3.64 1 5 C-1.475 4.01 -1.475 4.01 -4 3 C-2.1875 1.4375 -2.1875 1.4375 0 0 Z " fill="#ADB4E8" transform="translate(228,378)"/>
<path d="M0 0 C0.66 1.32 1.32 2.64 2 4 C1.01 4.495 1.01 4.495 0 5 C0 5.66 0 6.32 0 7 C-0.66 7 -1.32 7 -2 7 C-2 7.66 -2 8.32 -2 9 C-2.66 8.67 -3.32 8.34 -4 8 C-2.68 5.36 -1.36 2.72 0 0 Z " fill="#B9C0DE" transform="translate(85,98)"/>
<path d="M0 0 C1.98 0.495 1.98 0.495 4 1 C2.35 2.65 0.7 4.3 -1 6 C-0.67 4.02 -0.34 2.04 0 0 Z " fill="#ACB1E8" transform="translate(372,420)"/>
</svg>
