<?xml version="1.0" encoding="UTF-8"?>
<svg version="1.1" xmlns="http://www.w3.org/2000/svg" width="500" height="500">
<path d="M0 0 C2.21875 1.3984375 2.21875 1.3984375 4.1875 2.875 C5.16203125 3.54402344 5.16203125 3.54402344 6.15625 4.2265625 C11.00783203 7.90636412 13.59436164 12.44466321 16.1875 17.875 C16.80625 19.0815625 16.80625 19.0815625 17.4375 20.3125 C19.72298588 28.12124342 19.19643768 35.07168833 17.1875 42.875 C18.3321875 42.9678125 18.3321875 42.9678125 19.5 43.0625 C24.77897672 44.22566436 29.33028917 46.54966862 34.1875 48.875 C34.99316406 49.21144531 35.79882812 49.54789063 36.62890625 49.89453125 C43.15513631 52.76521235 48.11258701 56.9580919 53.36645508 61.68579102 C57.40434995 65.32680009 57.40434995 65.32680009 62.1875 67.875 C63.87431738 66.77458081 63.87431738 66.77458081 65.1875 64.875 C65.05135049 62.01586022 64.45497721 59.58080375 63.44140625 56.90625 C60.38233932 48.8268005 59.79753401 40.83731322 62.8125 32.625 C67.14738581 23.13388159 74.27297252 15.08290194 83.8203125 10.625 C93.13644005 7.67335563 103.60129431 7.99418478 112.375 12.1875 C121.21742415 16.95917401 127.42956234 23.69495396 131.125 33.1875 C134.21394549 44.11464468 132.18352015 53.56287955 126.87890625 63.26953125 C124.54924515 67.21682053 124.54924515 67.21682053 123.1875 68.875 C122.5275 68.875 121.8675 68.875 121.1875 68.875 C121.1875 69.535 121.1875 70.195 121.1875 70.875 C118.9921875 72.53125 118.9921875 72.53125 116.0625 74.375 C115.11117188 74.9834375 114.15984375 75.591875 113.1796875 76.21875 C105.44980455 80.49743195 97.87118292 80.78587583 89.1875 79.875 C85.83669651 78.7356521 82.80928788 77.41170238 79.67578125 75.7734375 C77.21248713 74.5832411 77.21248713 74.5832411 74.85546875 75.7265625 C74.30503906 76.10554688 73.75460937 76.48453125 73.1875 76.875 C73.78374738 80.60580505 75.40133881 82.64198268 77.8125 85.5 C90.34182511 100.71096124 90.34182511 100.71096124 92.5625 108 C93.89207413 112.16599895 95.55614051 116.07357367 97.41796875 120.02734375 C98.1875 121.875 98.1875 121.875 98.1875 123.875 C99.363125 123.38 99.363125 123.38 100.5625 122.875 C111.07470197 119.97508221 119.9120198 122.9938668 129.34765625 128.02734375 C131 129.0625 131 129.0625 133.1875 130.875 C133.1875 131.535 133.1875 132.195 133.1875 132.875 C133.8475 132.875 134.5075 132.875 135.1875 132.875 C136.625 134.66796875 136.625 134.66796875 138.1875 137.0625 C138.703125 137.83980469 139.21875 138.61710938 139.75 139.41796875 C143.17351779 145.26957931 143.55268075 150.01531822 143.5625 156.6875 C143.58699219 157.55181641 143.61148437 158.41613281 143.63671875 159.30664062 C143.6646602 165.47704359 142.41439913 169.64315789 139.1875 174.875 C138.64609375 175.79667969 138.1046875 176.71835937 137.546875 177.66796875 C133.80474821 183.23574478 130.29345058 187.00161149 124.1875 189.875 C123.43339844 190.24367188 122.67929687 190.61234375 121.90234375 190.9921875 C118.45679399 192.11261088 115.49012699 192.06757247 111.875 192 C110.62074219 191.98195313 109.36648438 191.96390625 108.07421875 191.9453125 C107.12160156 191.92210937 106.16898437 191.89890625 105.1875 191.875 C105.5175 192.865 105.8475 193.855 106.1875 194.875 C104.97932851 204.13353864 101.98275298 212.41229304 98.1875 220.875 C97.49045223 222.57945987 96.80246666 224.28766301 96.125 226 C95.795 226.81597656 95.465 227.63195312 95.125 228.47265625 C94.52572892 230.0082884 93.9595922 231.55753637 93.4375 233.12109375 C91.31795119 239.16384588 88.18148275 244.37811912 84.75 249.75 C84.28327881 250.48806885 83.81655762 251.2261377 83.33569336 251.98657227 C80.67160035 256.05758255 78.15759564 258.97199184 74.1875 261.875 C73.15387721 263.01198507 72.15250859 264.17922848 71.1875 265.375 C67.86703466 269.25131416 64.28472057 272.76616884 60.5625 276.25 C60.01207031 276.77400391 59.46164062 277.29800781 58.89453125 277.83789062 C55.78743088 280.70915085 53.097318 282.36470929 49.1875 283.875 C48.8575 284.865 48.5275 285.855 48.1875 286.875 C45.85710847 288.47071577 43.56725692 289.91010801 41.125 291.3125 C40.43325684 291.71500977 39.74151367 292.11751953 39.02880859 292.53222656 C37.0866866 293.65548071 35.13758736 294.76565665 33.1875 295.875 C32.16765015 296.47163452 32.16765015 296.47163452 31.12719727 297.08032227 C13.30941585 307.3375921 -11.70768261 310.15789701 -31.6875 310.3125 C-32.4840802 310.3186734 -33.2806604 310.3248468 -34.10137939 310.33120728 C-50.52529992 310.38457853 -67.07275612 308.73177039 -81.8125 300.875 C-83.2174045 300.38178885 -84.63395248 299.9198403 -86.0625 299.5 C-90.43557641 298.10386581 -94.3931932 296.18806778 -98.453125 294.05859375 C-102.04197102 292.24413047 -102.04197102 292.24413047 -105.8125 290.875 C-107.49023934 292.01586275 -109.15984401 293.17282843 -110.76171875 294.41796875 C-118.06491549 299.60671615 -125.27910306 300.41263963 -133.96069336 299.12915039 C-143.71912874 297.37428777 -151.9915714 293.07076422 -157.8125 284.875 C-163.04834891 274.64534872 -164.72502007 264.23142561 -161.8203125 253.05859375 C-159.85291912 247.19918304 -157.9021783 242.56764369 -153.8125 237.875 C-154.13863281 237.28074219 -154.46476562 236.68648437 -154.80078125 236.07421875 C-157.64565186 230.67819574 -159.65061928 225.55473632 -161.0390625 219.61328125 C-161.77986224 216.7383482 -161.77986224 216.7383482 -163.26171875 213.6328125 C-174.84772841 187.21114577 -170.46378515 150.88194891 -161.1171875 124.703125 C-160.35211178 122.55302508 -159.77786074 120.66879837 -159.3984375 118.41015625 C-153.79848873 94.18104459 -128.1775013 69.33831237 -108.5390625 55.58203125 C-102.10312222 51.6507579 -95.88439946 48.45025784 -88.8125 45.875 C-86.20216992 44.84863203 -83.60149197 43.79853162 -81 42.75 C-79.74364362 42.24701091 -78.48713955 41.74439051 -77.23046875 41.2421875 C-75.20207806 40.43083123 -73.17801022 39.60828969 -71.1640625 38.76171875 C-64.7156036 36.330157 -57.62701087 35.63216787 -50.8125 34.875 C-50.85890625 34.18535156 -50.9053125 33.49570313 -50.953125 32.78515625 C-51.22329356 25.75112485 -50.18305787 21.01381673 -46.8125 14.875 C-46.48894531 14.21242188 -46.16539062 13.54984375 -45.83203125 12.8671875 C-43.74091416 8.78737538 -41.84542651 6.93835775 -37.8125 4.875 C-36.07171454 3.63043844 -34.36232251 2.3502194 -32.65625 1.05859375 C-24.16854516 -4.39008118 -8.99000371 -4.32800488 0 0 Z M-31.25 16.3125 C-33.79741804 18.85991804 -34.82460744 20.46228023 -35.8125 23.875 C-36.1425 24.865 -36.4725 25.855 -36.8125 26.875 C-37.76319718 35.0374144 -36.26313576 40.98325796 -31.8125 47.875 C-27.71079925 51.97670075 -20.91387936 53.0432663 -15.25 53.3125 C-9.6191122 53.08327802 -4.48669449 51.19133391 -0.20703125 47.484375 C4.42168397 42.32627593 5.61110302 36.89967975 5.44140625 30.1796875 C4.79541501 24.31607475 2.48740187 18.94859125 -1.8125 14.875 C-12.42678524 8.6658529 -21.40264965 8.76526068 -31.25 16.3125 Z M83.875 27.375 C78.95605826 31.46580348 76.11695098 36.76865507 74.7109375 42.98046875 C74.2713814 48.77566898 76.89021436 53.34880475 80.1875 57.875 C84.63130581 62.67621646 89.96801088 65.97316094 96.5625 66.3125 C102.32209599 66.08018016 106.7776365 64.17799594 110.94921875 60.19140625 C116.14685854 54.33934208 118.64294606 48.83391986 118.1875 40.875 C116.14972108 34.35599427 112.93789246 29.52428753 107.1875 25.875 C99.06876979 21.75318312 91.48974564 22.35098549 83.875 27.375 Z M-71 53 C-71.82588623 53.31348389 -72.65177246 53.62696777 -73.50268555 53.94995117 C-91.53255837 60.92965109 -108.61536502 70.85506532 -121.0390625 85.9453125 C-122.8125 87.875 -122.8125 87.875 -125.2265625 89.73046875 C-128.19362127 92.19106582 -130.3620951 94.93343912 -132.5625 98.0625 C-132.99079102 98.67053467 -133.41908203 99.27856934 -133.86035156 99.9050293 C-147.10805199 119.17950734 -155.62341702 141.38160297 -156.8125 164.875 C-156.89177734 166.35226562 -156.89177734 166.35226562 -156.97265625 167.859375 C-157.58113672 190.39960801 -151.77290207 210.8967872 -141.8125 230.875 C-135.06812792 232.23120526 -128.79555981 232.76325247 -122.8125 228.875 C-116.28618766 220.31861673 -112.55622919 209.76766663 -108.49755859 199.88037109 C-106.47981127 195.00700675 -104.10274596 190.36971034 -101.5625 185.75 C-100.78654544 184.30273409 -100.01180504 182.85481655 -99.23828125 181.40625 C-98.8510791 180.68566406 -98.46387695 179.96507812 -98.06494141 179.22265625 C-95.59037304 174.58416709 -93.17551146 169.91426957 -90.75 165.25 C-87.8869731 159.74551999 -85.01966519 154.24455025 -82.0859375 148.77734375 C-81.45957397 147.60776123 -81.45957397 147.60776123 -80.82055664 146.41455078 C-80.04756567 144.97464398 -79.27095217 143.53667343 -78.48999023 142.10107422 C-76.5967634 138.62839963 -76.5967634 138.62839963 -75.32617188 134.90234375 C-74.78248673 132.75654458 -73.99451145 131.08475289 -72.94921875 129.13671875 C-72.56314453 128.41097656 -72.17707031 127.68523437 -71.77929688 126.9375 C-71.14604492 125.761875 -71.14604492 125.761875 -70.5 124.5625 C-69.58671977 122.84793303 -68.67398303 121.13307649 -67.76171875 119.41796875 C-67.28009277 118.51481934 -66.7984668 117.61166992 -66.30224609 116.68115234 C-63.77820765 111.9267607 -61.29721276 107.1500255 -58.8125 102.375 C-55.03065117 95.11983913 -51.24365308 87.86744516 -47.4375 80.625 C-47.02967285 79.84842041 -46.6218457 79.07184082 -46.20166016 78.27172852 C-43.46511703 73.07522578 -40.66159408 67.92270527 -37.7734375 62.80859375 C-36.66415289 60.93636491 -36.66415289 60.93636491 -36.8125 58.875 C-38.47465268 57.53604368 -40.14213607 56.20369858 -41.8125 54.875 C-42.43125 53.988125 -43.05 53.10125 -43.6875 52.1875 C-45.68049656 49.60791617 -45.68049656 49.60791617 -49 49 C-56.9089834 48.74068907 -63.64114438 50.1687309 -71 53 Z M10.1875 53.875 C9.6925 54.596875 9.1975 55.31875 8.6875 56.0625 C2.84379145 62.63667211 -5.27922066 66.23788943 -14.015625 67.08984375 C-18.04048798 67.15897308 -21.86280049 66.56675528 -25.8125 65.875 C-26.34359375 67.009375 -26.8746875 68.14375 -27.421875 69.3125 C-28.13536397 70.83335806 -28.84890862 72.35418999 -29.5625 73.875 C-29.91054687 74.61878906 -30.25859375 75.36257812 -30.6171875 76.12890625 C-34.35586225 84.09089877 -38.32727342 91.91155054 -42.4375 99.6875 C-42.86844971 100.50500732 -43.29939941 101.32251465 -43.7434082 102.16479492 C-45.97250465 106.39300488 -48.20595126 110.61889909 -50.44140625 114.84375 C-54.70966179 122.91941906 -58.91043959 131.0138231 -62.95703125 139.203125 C-64.79126674 142.87364655 -66.7260832 146.48844577 -68.65771484 150.10839844 C-73.79170702 159.65388399 -73.79170702 159.65388399 -77.8984375 169.671875 C-78.94250783 172.1883522 -80.27716488 174.48002475 -81.64794922 176.83056641 C-83.95502154 180.88076003 -86.04802832 185.04712714 -88.1875 189.1875 C-91.61716914 195.80618821 -95.08063206 202.40349346 -98.640625 208.953125 C-99.11666672 209.8302137 -99.11666672 209.8302137 -99.60232544 210.72502136 C-101.15089352 213.57648623 -102.70506467 216.42467906 -104.26708984 219.26879883 C-105.11327881 220.82377075 -105.11327881 220.82377075 -105.9765625 222.41015625 C-106.47623535 223.321604 -106.9759082 224.23305176 -107.49072266 225.17211914 C-108.88078161 228.01462794 -109.8779023 230.85516785 -110.8125 233.875 C-109.58440909 235.52055699 -109.58440909 235.52055699 -107.8125 236.875 C-105.1494138 236.62790953 -104.00880375 236.06295974 -102.06640625 234.203125 C-101.50824219 233.51734375 -100.95007813 232.8315625 -100.375 232.125 C-99.46234375 231.03638672 -99.46234375 231.03638672 -98.53125 229.92578125 C-97.9640625 229.24902344 -97.396875 228.57226562 -96.8125 227.875 C-92.1714972 222.99599706 -87.10409729 218.55358727 -81.8828125 214.3046875 C-81.28210938 213.81226563 -80.68140625 213.31984375 -80.0625 212.8125 C-79.26585937 212.17634766 -79.26585937 212.17634766 -78.453125 211.52734375 C-76.64502971 209.82458425 -76.64502971 209.82458425 -75.09960938 207.17578125 C-72.67074626 203.49038379 -69.70948696 200.50181556 -66.578125 197.41015625 C-65.98126892 196.81375839 -65.38441284 196.21736053 -64.76947021 195.60289001 C-63.51111815 194.34754478 -62.25035085 193.09461637 -60.98730469 191.84399414 C-59.07693849 189.95180114 -57.17461343 188.0518127 -55.2734375 186.15039062 C-49.79029781 180.68401414 -44.30295259 175.30350026 -38.40625 170.27954102 C-35.96765865 168.13045767 -33.8430118 165.74167396 -31.6875 163.3125 C-25.84337845 156.84603284 -19.72039588 150.66493977 -13.5625 144.5 C-13.09100525 144.02609833 -12.6195105 143.55219666 -12.13372803 143.06393433 C-7.07652946 137.98463704 -1.96311452 133.06458512 3.47509766 128.39599609 C5.9262234 126.21884847 8.0769006 123.8270551 10.25 121.375 C16.2699297 114.7105163 22.59240704 108.35201263 28.9375 102 C29.4329129 101.50218018 29.92832581 101.00436035 30.43875122 100.49145508 C35.64261255 95.26596077 40.85930178 90.11856902 46.54003906 85.40576172 C48.37589798 83.69994735 49.80323103 81.96300053 51.1875 79.875 C51.1875 79.215 51.1875 78.555 51.1875 77.875 C50.5275 77.875 49.8675 77.875 49.1875 77.875 C48.86458984 77.01455078 48.86458984 77.01455078 48.53515625 76.13671875 C44.13735655 68.7560636 32.73002599 63.90853162 25.3125 59.9375 C24.61181396 59.56020752 23.91112793 59.18291504 23.18920898 58.79418945 C18.92419352 56.57180398 14.85536466 55.03891926 10.1875 53.875 Z M61.1875 88.875 C60.0149869 89.82617134 58.84962985 90.78617009 57.6875 91.75 C57.0378125 92.28367187 56.388125 92.81734375 55.71875 93.3671875 C54.96078125 94.11355469 54.96078125 94.11355469 54.1875 94.875 C54.1875 95.535 54.1875 96.195 54.1875 96.875 C53.32112915 97.23501099 53.32112915 97.23501099 52.43725586 97.60229492 C49.7360002 99.13041708 48.20858807 100.88032211 46.19140625 103.23828125 C41.23486203 108.88247372 36.01368936 114.20080273 30.6940918 119.4987793 C29.11975845 121.0677236 27.55088411 122.64198558 25.98242188 124.21679688 C21.07811605 129.12365996 16.1184404 133.89827111 10.84350586 138.41040039 C8.53904546 140.44850417 6.51726865 142.68070037 4.5 145 C2.11305329 147.71731996 -0.25894711 150.37718678 -2.875 152.875 C-5.04443174 154.65031613 -5.04443174 154.65031613 -4.8125 156.875 C-5.39443115 157.13023437 -5.9763623 157.38546875 -6.57592773 157.6484375 C-9.03890403 158.99916263 -10.64041981 160.49047385 -12.59765625 162.5 C-13.29310547 163.20640625 -13.98855469 163.9128125 -14.70507812 164.640625 C-15.77918945 165.74664062 -15.77918945 165.74664062 -16.875 166.875 C-18.30109839 168.33556988 -19.72939484 169.79399767 -21.16015625 171.25 C-21.78929932 171.89710938 -22.41844238 172.54421875 -23.06665039 173.2109375 C-24.8125 174.875 -24.8125 174.875 -27.8125 176.875 C-27.8125 177.535 -27.8125 178.195 -27.8125 178.875 C-28.4725 178.875 -29.1325 178.875 -29.8125 178.875 C-29.8125 179.535 -29.8125 180.195 -29.8125 180.875 C-30.70763306 181.26341064 -30.70763306 181.26341064 -31.62084961 181.65966797 C-33.99371262 182.97548752 -35.17658843 184.22469213 -36.87890625 186.3203125 C-41.94857822 192.31186608 -47.61677582 197.71051058 -53.22485352 203.19140625 C-54.64244803 204.57899001 -56.05375905 205.97298418 -57.46484375 207.3671875 C-58.30007568 208.18558105 -59.13530762 209.00397461 -59.99584961 209.84716797 C-62.03491956 211.6695157 -62.03491956 211.6695157 -61.8125 213.875 C-62.4725 213.875 -63.1325 213.875 -63.8125 213.875 C-63.8125 214.535 -63.8125 215.195 -63.8125 215.875 C-64.39386719 215.96652344 -64.97523438 216.05804688 -65.57421875 216.15234375 C-68.36607059 217.05372698 -69.59845397 218.32840627 -71.625 220.4375 C-72.33140625 221.1696875 -73.0378125 221.901875 -73.765625 222.65625 C-75.51398926 224.55142347 -77.20444363 226.47416571 -78.875 228.4375 C-84.75903435 235.30220675 -91.38355336 241.52664767 -97.8125 247.875 C-97.1525 249.855 -96.4925 251.835 -95.8125 253.875 C-78.78881053 245.48047012 -61.89713825 236.80316316 -45.19921875 227.77734375 C-44.57312714 227.43942307 -43.94703552 227.10150238 -43.30197144 226.75334167 C-40.28916337 225.12627853 -37.28022062 223.49295527 -34.27636719 221.84936523 C-28.70956552 218.83244109 -23.21721778 216.14460104 -17.30297852 213.89013672 C-12.47899879 211.92384834 -7.91391531 209.43243925 -3.3125 207 C-2.34441406 206.49597656 -1.37632812 205.99195313 -0.37890625 205.47265625 C4.15350721 203.09389965 8.60453698 200.65322872 12.9609375 197.96484375 C19.51578475 193.97516318 26.42749284 190.68414587 33.3125 187.3125 C35.9425362 186.02440404 38.5706499 184.73260738 41.1953125 183.43359375 C41.81738586 183.12577972 42.43945923 182.8179657 43.0803833 182.50082397 C46.45482158 180.80996601 49.69488231 179.01681867 52.8671875 176.97265625 C55.72669278 175.16612174 57.08434054 174.61837942 60.1875 173.875 C61.43084239 173.29924958 62.65531338 172.68127377 63.859375 172.02734375 C64.52324219 171.66962891 65.18710937 171.31191406 65.87109375 170.94335938 C66.55300781 170.57017578 67.23492187 170.19699219 67.9375 169.8125 C68.63488281 169.43544922 69.33226562 169.05839844 70.05078125 168.66992188 C71.76518302 167.74226612 73.47663661 166.80916546 75.1875 165.875 C75.06568359 164.27785156 75.06568359 164.27785156 74.94140625 162.6484375 C74.36669412 151.69211533 75.90833328 144.05691497 82.1875 134.875 C83.80846554 133.16385235 85.46379233 131.48260301 87.1875 129.875 C83.74932942 121.31372757 80.02599486 113.14665193 75.125 105.3125 C74.52679443 104.35053711 74.52679443 104.35053711 73.91650391 103.36914062 C71.07739565 98.94377725 68.00965957 94.51252093 64.1875 90.875 C63.5275 90.875 62.8675 90.875 62.1875 90.875 C61.8575 90.215 61.5275 89.555 61.1875 88.875 Z M91.1875 143.875 C87.3588633 153.32365387 87.20235758 160.27366777 90.921875 169.67578125 C93.84933975 174.76270303 99.08063408 176.31228761 104.3828125 178.140625 C111.4920154 180.0020876 117.98900492 177.48874713 124.1875 173.875 C128.62944948 169.78373074 130.99456266 163.82279483 131.2890625 157.796875 C130.71680132 150.87523978 127.87968953 145.0905195 122.6875 140.5 C112.81894768 132.47058697 99.84726267 135.21523733 91.1875 143.875 Z M74 180.875 C69.27513321 183.70538239 64.51011236 186.27075583 59.5625 188.6875 C53.6665261 191.57764153 47.90797881 194.65177982 42.1875 197.875 C33.984326 202.49093959 25.63631246 206.73012301 17.1875 210.875 C15.54092873 211.70687431 13.89499758 212.54001809 12.25 213.375 C9.343796 214.83294567 6.41871045 216.23889957 3.46875 217.60546875 C-9.57823995 223.65099553 -22.4870694 230.01129914 -34.8125 237.4375 C-41.318221 241.30822227 -48.15062917 244.42211066 -55.00390625 247.6171875 C-61.33295285 250.57166769 -67.56490776 253.71248621 -73.79931641 256.86035156 C-77.42397705 258.68718756 -81.05628663 260.49873449 -84.6875 262.3125 C-86.01826048 262.97780195 -87.34899223 263.64316139 -88.6796875 264.30859375 C-90.390625 265.1640625 -92.1015625 266.01953125 -93.8125 266.875 C-94.4650075 268.89237076 -94.4650075 268.89237076 -94.875 271.25 C-95.39660686 273.89683151 -95.95642083 276.3067625 -96.8125 278.875 C-77.92492115 289.43061144 -58.72496443 297.0911949 -36.8125 297.875 C-35.91144531 297.91496094 -35.01039063 297.95492187 -34.08203125 297.99609375 C-4.68576946 298.67050192 26.0615864 288.59237319 48.1875 268.875 C50.74589673 266.39092978 53.25659855 263.87291759 55.73046875 261.3046875 C58.1875 258.875 58.1875 258.875 61.17578125 256.48828125 C64.45390501 253.64383923 66.74800052 250.74100184 69.1875 247.1875 C69.62046387 246.56520508 70.05342773 245.94291016 70.49951172 245.30175781 C71.74182784 243.50125925 72.96780972 241.69087826 74.1875 239.875 C75.02667969 238.63556641 75.02667969 238.63556641 75.8828125 237.37109375 C83.81568604 224.90824597 91.7759843 208.8813497 91.1875 193.875 C91.538125 192.905625 91.88875 191.93625 92.25 190.9375 C92.52227343 187.78194879 92.52227343 187.78194879 90.28515625 185.79296875 C88.65189981 184.36096666 86.98623725 182.96501303 85.2890625 181.609375 C83.1875 179.875 83.1875 179.875 82.1875 177.875 C78.48407822 177.875 77.13638163 178.93693245 74 180.875 Z M-146.5546875 251.95703125 C-149.49054792 256.43376251 -151.17147727 260.59387094 -150.6875 266 C-149.03476414 273.3192588 -145.79901868 278.72470655 -139.6875 283.125 C-134.6592861 285.76292806 -129.2269331 286.45840134 -123.640625 285.50390625 C-116.84003522 283.3820168 -112.44701814 278.61677237 -108.875 272.625 C-107.2612147 266.92928717 -106.50783129 261.24974307 -108.69140625 255.6015625 C-111.919004 250.04114657 -116.47326488 244.86966578 -122.75 243 C-123.760625 242.95875 -124.77125 242.9175 -125.8125 242.875 C-127.09125 242.771875 -128.37 242.66875 -129.6875 242.5625 C-136.89166619 242.69998409 -142.22086398 246.4035798 -146.5546875 251.95703125 Z " fill="#F1F7EE" transform="translate(262.8125,96.125)"/>
<path d="M0 0 C0.495 0.99 0.495 0.99 1 2 C-0.18683026 5.14573827 -1.83526818 7.03039153 -4.375 9.1875 C-4.96023437 9.69667969 -5.54546875 10.20585937 -6.1484375 10.73046875 C-8 12 -8 12 -10.1640625 12.48828125 C-10.76992187 12.65714844 -11.37578125 12.82601563 -12 13 C-12.33 13.99 -12.66 14.98 -13 16 C-13.66 16.33 -14.32 16.66 -15 17 C-15.33 17.99 -15.66 18.98 -16 20 C-16.66 20 -17.32 20 -18 20 C-18.226875 20.61875 -18.45375 21.2375 -18.6875 21.875 C-20.37929835 24.61410209 -21.99244161 25.05024472 -25 26 C-25 26.99 -25 27.98 -25 29 C-26.75 30.60546875 -26.75 30.60546875 -29 32.1875 C-29.7425 32.71730469 -30.485 33.24710937 -31.25 33.79296875 C-31.8275 34.19128906 -32.405 34.58960938 -33 35 C-33.66 34.67 -34.32 34.34 -35 34 C-30.98308033 29.95824679 -26.96279996 25.91987687 -22.93945312 21.88452148 C-21.57297806 20.51303687 -20.20740428 19.14065361 -18.84277344 17.76733398 C-16.87414571 15.78649214 -14.90223305 13.8089708 -12.9296875 11.83203125 C-12.32631561 11.22349808 -11.72294373 10.6149649 -11.10128784 9.98799133 C-7.55227232 6.43851375 -3.90553684 3.15407203 0 0 Z " fill="#BFD6B4" transform="translate(224,266)"/>
<path d="M0 0 C0 3.20395416 -0.74335022 5.09399739 -2 8 C-2.99 8 -3.98 8 -5 8 C-5.0928125 8.86625 -5.0928125 8.86625 -5.1875 9.75 C-6.33209348 12.91964348 -8.32560305 13.99420228 -11 16 C-11.86625 16.886875 -12.7325 17.77375 -13.625 18.6875 C-16 21 -16 21 -19 22 C-19 22.66 -19 23.32 -19 24 C-20.32 23.67 -21.64 23.34 -23 23 C-13.61916953 13.44616241 -13.61916953 13.44616241 -8.6875 9.25 C-5.37366663 6.42013418 -2.67949498 3.43310294 0 0 Z " fill="#D5E6C8" transform="translate(273,216)"/>
<path d="M0 0 C0.33 1.32 0.66 2.64 1 4 C-0.32 4 -1.64 4 -3 4 C-3 4.99 -3 5.98 -3 7 C-3.804375 7.2475 -4.60875 7.495 -5.4375 7.75 C-6.283125 8.1625 -7.12875 8.575 -8 9 C-8.36548445 10.32488113 -8.6937566 11.66018514 -9 13 C-11.78630475 16.16283242 -14.24152066 18.1855617 -18 20 C-18.66 20.99 -19.32 21.98 -20 23 C-20.99 22.67 -21.98 22.34 -23 22 C-19.92079217 18.89171772 -16.83593071 15.7891067 -13.75 12.6875 C-12.44095703 11.36588867 -12.44095703 11.36588867 -11.10546875 10.01757812 C-9.83896484 8.74624023 -9.83896484 8.74624023 -8.546875 7.44921875 C-7.77182617 6.66893311 -6.99677734 5.88864746 -6.19824219 5.0847168 C-4.22101866 3.20960443 -2.21699442 1.57883567 0 0 Z " fill="#BED6B0" transform="translate(307,183)"/>
<path d="M0 0 C0.66 0.33 1.32 0.66 2 1 C0.37317535 6.70323584 -2.33197987 11.68013903 -5.125 16.875 C-5.59292969 17.75414062 -6.06085938 18.63328125 -6.54296875 19.5390625 C-7.6912093 21.69494271 -8.84363903 23.84846777 -10 26 C-10.33 26 -10.66 26 -11 26 C-11.125 22.625 -11.125 22.625 -11 19 C-10.34 18.34 -9.68 17.68 -9 17 C-8.32558869 15.3364521 -7.6599679 13.66933058 -7 12 C-5.5 9.1875 -5.5 9.1875 -4 7 C-3.34 7 -2.68 7 -2 7 C-2 5.68 -2 4.36 -2 3 C-1.34 3 -0.68 3 0 3 C0 2.01 0 1.02 0 0 Z " fill="#D3E7C9" transform="translate(199,232)"/>
<path d="M0 0 C-0.680625 0.495 -1.36125 0.99 -2.0625 1.5 C-5.0655262 4.05576698 -7.46839203 6.77131052 -10.01953125 9.76171875 C-13.49405533 13.68854774 -17.25584932 17.33226056 -21 21 C-21.66 20.34 -22.32 19.68 -23 19 C-21.71937515 17.2925002 -20.38232443 15.62626404 -19 14 C-18.34 14 -17.68 14 -17 14 C-16.67 13.01 -16.34 12.02 -16 11 C-14.0625 8.8125 -14.0625 8.8125 -12 7 C-11.34 7 -10.68 7 -10 7 C-10 6.34 -10 5.68 -10 5 C-9.01 5 -8.02 5 -7 5 C-6.67 3.35 -6.34 1.7 -6 0 C-3 -1 -3 -1 0 0 Z " fill="#D0E4C4" transform="translate(323,187)"/>
<path d="M0 0 C0.66 0.33 1.32 0.66 2 1 C1.26394531 1.79664063 0.52789062 2.59328125 -0.23046875 3.4140625 C-1.21621999 4.4843067 -2.20189288 5.55462307 -3.1875 6.625 C-3.67025391 7.14707031 -4.15300781 7.66914063 -4.65039062 8.20703125 C-7.08121502 10.849941 -9.43503216 13.51531771 -11.6875 16.3125 C-14.05766185 19.06701242 -15.55425866 20.01550247 -19 21 C-17.54254576 17.63664406 -15.68882146 15.45465995 -13.0859375 12.890625 C-12.32539063 12.13652344 -11.56484375 11.38242188 -10.78125 10.60546875 C-9.9871875 9.82816406 -9.193125 9.05085937 -8.375 8.25 C-7.57320312 7.45722656 -6.77140625 6.66445312 -5.9453125 5.84765625 C-3.96797154 3.89385507 -1.98611091 1.94487897 0 0 Z " fill="#C4DBBB" transform="translate(143,161)"/>
<path d="M0 0 C0.33 0 0.66 0 1 0 C1.061875 0.969375 1.12375 1.93875 1.1875 2.9375 C2.05654632 8.95962379 5.11941077 14.167631 9.4375 18.375 C12.2094268 20.13280724 15.0247071 21.61614284 18 23 C14.79937313 24.60031344 12.27728194 23.03173691 9 22 C9 21.34 9 20.68 9 20 C8.401875 19.896875 7.80375 19.79375 7.1875 19.6875 C4.57426238 18.86619675 3.65327053 18.17931115 2 16 C-0.43563119 10.74416428 -0.20149019 5.66411316 0 0 Z " fill="#A1DB95" transform="translate(337,138)"/>
<path d="M0 0 C2.97 0 5.94 0 9 0 C9 0.66 9 1.32 9 2 C8.35933594 2.08636719 7.71867187 2.17273438 7.05859375 2.26171875 C1.03001598 3.24102572 -3.6539453 4.55019333 -8 9 C-9.59296269 11.27836207 -10.76983 13.4904532 -12 16 C-12.33 16 -12.66 16 -13 16 C-13 14.35 -13 12.7 -13 11 C-12.34 10.67 -11.68 10.34 -11 10 C-10.896875 9.360625 -10.79375 8.72125 -10.6875 8.0625 C-10.460625 7.381875 -10.23375 6.70125 -10 6 C-7.5 4.875 -7.5 4.875 -5 4 C-4.67 3.34 -4.34 2.68 -4 2 C-2.68 2 -1.36 2 0 2 C0 1.34 0 0.68 0 0 Z " fill="#A3C596" transform="translate(352,118)"/>
<path d="M0 0 C1.485 0.99 1.485 0.99 3 2 C2.67 2.66 2.34 3.32 2 4 C2.66 4 3.32 4 4 4 C5.22485812 6.44971624 5.16722808 8.14234461 5.1875 10.875 C5.20167969 11.73867187 5.21585937 12.60234375 5.23046875 13.4921875 C4.98859252 16.1241288 4.32983541 17.73980544 3 20 C2.34 20 1.68 20 1 20 C1 20.99 1 21.98 1 23 C0.34 23 -0.32 23 -1 23 C-0.690625 22.21625 -0.38125 21.4325 -0.0625 20.625 C2.06582434 13.36365814 2.64024315 7.14418735 0 0 Z " fill="#B9D8AC" transform="translate(378,130)"/>
<path d="M0 0 C2.3125 0 2.3125 0 5 1 C6.00566136 2.95862431 6.62529122 4.87602495 7.2265625 6.9921875 C7.87888688 9.09479518 7.87888688 9.09479518 9.5859375 10.5703125 C11 12 11 12 11 15 C11.66 15 12.32 15 13 15 C13.12375 15.804375 13.2475 16.60875 13.375 17.4375 C13.58125 18.283125 13.7875 19.12875 14 20 C14.66 20.33 15.32 20.66 16 21 C15.34 21.66 14.68 22.32 14 23 C13.40832031 21.98679688 12.81664062 20.97359375 12.20703125 19.9296875 C11.40913579 18.57795872 10.61094279 17.22640555 9.8125 15.875 C9.42513672 15.20984375 9.03777344 14.5446875 8.63867188 13.859375 C6.68660867 10.56829324 4.70034541 7.53535455 2.19921875 4.6328125 C0 2 0 2 0 0 Z " fill="#B4D0A3" transform="translate(329,189)"/>
<path d="M0 0 C7.65581157 0.60440618 15.5064159 4.68953537 21 10 C21 10.66 21 11.32 21 12 C19.125 11.6875 19.125 11.6875 17 11 C16.34 10.01 15.68 9.02 15 8 C11.93443402 7.26656572 11.93443402 7.26656572 9 7 C9 6.34 9 5.68 9 5 C7.35 4.67 5.7 4.34 4 4 C4 3.34 4 2.68 4 2 C2.68 1.34 1.36 0.68 0 0 Z " fill="#A5DB9A" transform="translate(364,105)"/>
<path d="M0 0 C1.8984375 0.828125 1.8984375 0.828125 4.5859375 2.328125 C4.2559375 3.318125 3.9259375 4.308125 3.5859375 5.328125 C2.8228125 4.833125 2.0596875 4.338125 1.2734375 3.828125 C-5.12410095 1.22573648 -11.75601178 1.83518053 -18.4140625 3.328125 C-18.0840625 2.338125 -17.7540625 1.348125 -17.4140625 0.328125 C-12.62013486 -2.06883882 -5.06369982 -1.40931451 0 0 Z " fill="#BBD6B3" transform="translate(142.4140625,337.671875)"/>
<path d="M0 0 C0.99 0.33 1.98 0.66 3 1 C-2.33333333 6.33333333 -7.66666667 11.66666667 -13 17 C-13.66 16.34 -14.32 15.68 -15 15 C-14.67 14.34 -14.34 13.68 -14 13 C-12.68 13 -11.36 13 -10 13 C-9.92910156 12.26394531 -9.85820312 11.52789062 -9.78515625 10.76953125 C-8.78172587 7.23006787 -7.24258346 6.01848485 -4.4375 3.6875 C-3.19806641 2.64142578 -3.19806641 2.64142578 -1.93359375 1.57421875 C-1.29550781 1.05472656 -0.65742188 0.53523437 0 0 Z " fill="#CDE2C2" transform="translate(267,239)"/>
<path d="M0 0 C0.99 0 1.98 0 3 0 C1.68386288 3.52850096 0.11613059 6.61946934 -1.875 9.8125 C-4.5048861 14.11184811 -6.81422184 18.4603069 -9 23 C-10.53271273 18.41201223 -9.02911182 16.22055258 -7 12 C-6.34 12 -5.68 12 -5 12 C-4.67 10.35 -4.34 8.7 -4 7 C-3.34 7 -2.68 7 -2 7 C-2.04125 6.21625 -2.0825 5.4325 -2.125 4.625 C-2 2 -2 2 0 0 Z " fill="#C3DBB9" transform="translate(126,196)"/>
<path d="M0 0 C0.33 0 0.66 0 1 0 C1.66 8.25 2.32 16.5 3 25 C-1.17076297 20.82923703 -1.13953392 15.42453083 -1.1875 9.8125 C-1.16535026 6.36157067 -0.98836963 3.31301501 0 0 Z " fill="#B1D6A6" transform="translate(325,130)"/>
<path d="M0 0 C0 3.10551666 -0.5393715 4.35261084 -2 7 C-2.99 7 -3.98 7 -5 7 C-5.2475 7.53625 -5.495 8.0725 -5.75 8.625 C-7.29696975 11.56424252 -9.13014369 14.25754408 -11 17 C-12.32 16.34 -13.64 15.68 -15 15 C-14.0479279 13.99403703 -13.08812654 12.99538437 -12.125 12 C-11.32449219 11.1646875 -11.32449219 11.1646875 -10.5078125 10.3125 C-9 9 -9 9 -7 9 C-6.773125 8.443125 -6.54625 7.88625 -6.3125 7.3125 C-4.64103234 4.36753316 -2.44723648 2.31843456 0 0 Z " fill="#BAC8AC" transform="translate(176,313)"/>
<path d="M0 0 C0.8971875 0.309375 0.8971875 0.309375 1.8125 0.625 C0.02576795 2.1308745 -1.76703508 3.6295485 -3.5625 5.125 C-5.05910156 6.37796875 -5.05910156 6.37796875 -6.5859375 7.65625 C-9.1875 9.625 -9.1875 9.625 -11.1875 9.625 C-11.5175 10.615 -11.8475 11.605 -12.1875 12.625 C-13.1775 12.955 -14.1675 13.285 -15.1875 13.625 C-15.1875 12.635 -15.1875 11.645 -15.1875 10.625 C-13.56696188 9.23596733 -11.89044787 7.91167172 -10.1875 6.625 C-9.32125 5.75875 -8.455 4.8925 -7.5625 4 C-3.04115854 -0.52134146 -3.04115854 -0.52134146 0 0 Z " fill="#CADFBE" transform="translate(323.1875,370.375)"/>
<path d="M0 0 C0.99 0.33 1.98 0.66 3 1 C2.0409375 2.485 2.0409375 2.485 1.0625 4 C-2.4802865 10.23128406 -2.28964498 16.12189344 -1 23 C-1.66 23 -2.32 23 -3 23 C-4.50930882 19.98138236 -4.18438844 16.87008697 -4.1875 13.5625 C-4.19974609 12.88123047 -4.21199219 12.19996094 -4.22460938 11.49804688 C-4.23555848 7.77170191 -4.12005619 6.18008429 -2 3 C-1.34 3 -0.68 3 0 3 C0 2.01 0 1.02 0 0 Z " fill="#D6EACE" transform="translate(115,346)"/>
<path d="M0 0 C0 0.66 0 1.32 0 2 C-0.639375 2.103125 -1.27875 2.20625 -1.9375 2.3125 C-2.618125 2.539375 -3.29875 2.76625 -4 3 C-4.33 3.99 -4.66 4.98 -5 6 C-7.31 6.33 -9.62 6.66 -12 7 C-12 7.66 -12 8.32 -12 9 C-14.31 9.33 -16.62 9.66 -19 10 C-15.46704136 6.99600559 -11.97059208 4.79547138 -7.8125 2.75 C-6.76707031 2.22921875 -5.72164063 1.7084375 -4.64453125 1.171875 C-2 0 -2 0 0 0 Z " fill="#BBCFB2" transform="translate(291,286)"/>
<path d="M0 0 C-2.58010196 1.48505869 -5.16377559 2.96317311 -7.75 4.4375 C-8.47960937 4.85837891 -9.20921875 5.27925781 -9.9609375 5.71289062 C-10.66992188 6.11572266 -11.37890625 6.51855469 -12.109375 6.93359375 C-12.75874023 7.30540771 -13.40810547 7.67722168 -14.07714844 8.06030273 C-16.03827134 9.0187032 -17.86964435 9.5503043 -20 10 C-20.33 9.34 -20.66 8.68 -21 8 C-17.27034861 5.96564469 -15.33094958 5 -11 5 C-11 4.34 -11 3.68 -11 3 C-10.01 3 -9.02 3 -8 3 C-8 2.34 -8 1.68 -8 1 C-4.85571151 -0.9090323 -3.47925125 -1.04523725 0 0 Z " fill="#BAD5AF" transform="translate(308,385)"/>
<path d="M0 0 C1.32 0.33 2.64 0.66 4 1 C-0.95 5.95 -5.9 10.9 -11 16 C-11.33 15.01 -11.66 14.02 -12 13 C-10.68 12.34 -9.36 11.68 -8 11 C-8 10.01 -8 9.02 -8 8 C-6.68 7.67 -5.36 7.34 -4 7 C-4 6.34 -4 5.68 -4 5 C-3.34 5 -2.68 5 -2 5 C-1.34 3.35 -0.68 1.7 0 0 Z " fill="#CFE3C7" transform="translate(216,289)"/>
<path d="M0 0 C1.63001953 0.01353516 1.63001953 0.01353516 3.29296875 0.02734375 C4.12441406 0.03894531 4.95585937 0.05054688 5.8125 0.0625 C6.1425 0.7225 6.4725 1.3825 6.8125 2.0625 C5.85988281 2.18367187 4.90726562 2.30484375 3.92578125 2.4296875 C2.67152344 2.59726563 1.41726563 2.76484375 0.125 2.9375 C-1.11636719 3.09992188 -2.35773438 3.26234375 -3.63671875 3.4296875 C-6.76545295 3.98728369 -9.30898102 4.75258123 -12.1875 6.0625 C-12.1875 5.0725 -12.1875 4.0825 -12.1875 3.0625 C-11.1975 3.0625 -10.2075 3.0625 -9.1875 3.0625 C-9.1875 2.4025 -9.1875 1.7425 -9.1875 1.0625 C-5.90230525 -0.03256492 -3.45086585 -0.03710608 0 0 Z " fill="#B6D2A5" transform="translate(371.1875,229.9375)"/>
<path d="M0 0 C4.8388291 0.52958699 8.14968204 1.94395649 12.3125 4.4375 C13.36050781 5.05496094 14.40851563 5.67242187 15.48828125 6.30859375 C18 8 18 8 19 10 C11.375 8.25 11.375 8.25 8 6 C8 5.34 8 4.68 8 4 C5.36 3.67 2.72 3.34 0 3 C0 2.01 0 1.02 0 0 Z " fill="#B5CDA0" transform="translate(292,144)"/>
<path d="M0 0 C1.32 1.32 2.64 2.64 4 4 C3.67 4.99 3.34 5.98 3 7 C1.5 5.625 1.5 5.625 0 4 C0 3.34 0 2.68 0 2 C-1.26457031 2.6496875 -1.26457031 2.6496875 -2.5546875 3.3125 C-3.65039062 3.869375 -4.74609375 4.42625 -5.875 5 C-6.96554687 5.556875 -8.05609375 6.11375 -9.1796875 6.6875 C-12 8 -12 8 -14 8 C-13.67 7.01 -13.34 6.02 -13 5 C-11.02 4.67 -9.04 4.34 -7 4 C-7 3.34 -7 2.68 -7 2 C-4.69 1.34 -2.38 0.68 0 0 Z " fill="#BCD6B1" transform="translate(345,272)"/>
<path d="M0 0 C0 0.99 0 1.98 0 3 C-4.18434276 6.98972217 -7.84406887 9.85973639 -13.8125 10.125 C-14.534375 10.08375 -15.25625 10.0425 -16 10 C-12.75359085 7.439119 -9.33059284 5.37523283 -5.75 3.3125 C-4.13351562 2.37857422 -4.13351562 2.37857422 -2.484375 1.42578125 C-1.25460937 0.72001953 -1.25460937 0.72001953 0 0 Z " fill="#C1DDB3" transform="translate(319,270)"/>
<path d="M0 0 C0.33 0.66 0.66 1.32 1 2 C0.34 2 -0.32 2 -1 2 C-1 3.98 -1 5.96 -1 8 C-1.99 8.33 -2.98 8.66 -4 9 C-4.66 9.66 -5.32 10.32 -6 11 C-8.125 10.625 -8.125 10.625 -10 10 C-8.76302083 8.53515625 -7.52604167 7.0703125 -6.2890625 5.60546875 C-5.10798901 4.1344954 -4.04641471 2.56962206 -3 1 C-2.01 0.67 -1.02 0.34 0 0 Z " fill="#DBEBD4" transform="translate(191,300)"/>
<path d="M0 0 C1.43657507 4.72745272 -0.03683623 7.83288151 -2 12.25 C-3 14 -3 14 -5 16 C-5.66 15.67 -6.32 15.34 -7 15 C-5.45454854 9.52067211 -2.84456788 4.88570819 0 0 Z " fill="#CADFC1" transform="translate(171,262)"/>
<path d="M0 0 C0.66 0.33 1.32 0.66 2 1 C0.79347883 4.82065036 -0.56242803 8.57374007 -2 12.3125 C-2.495 13.60607422 -2.495 13.60607422 -3 14.92578125 C-4 17 -4 17 -6 18 C-5.67 16.02 -5.34 14.04 -5 12 C-4.34 12 -3.68 12 -3 12 C-3.20625 11.443125 -3.4125 10.88625 -3.625 10.3125 C-4.10695211 7.340462 -3.26565028 5.68020059 -2 3 C-1.34 3 -0.68 3 0 3 C0 2.01 0 1.02 0 0 Z " fill="#B9D7AC" transform="translate(231,169)"/>
<path d="M0 0 C1.07765625 0.00902344 2.1553125 0.01804687 3.265625 0.02734375 C4.08546875 0.03894531 4.9053125 0.05054688 5.75 0.0625 C5.42 0.7225 5.09 1.3825 4.75 2.0625 C-1.06751117 3.4389647 -7.31431476 3.15671723 -13.25 3.0625 C-8.72900181 0.04850121 -5.38967935 -0.05858347 0 0 Z " fill="#C2DBBA" transform="translate(134.25,324.9375)"/>
<path d="M0 0 C0.86161359 3.1396677 1.12904845 4.89511676 0 8 C-1.5 10.5 -1.5 10.5 -3 13 C-3.69579454 15.19130534 -3.69579454 15.19130534 -4 17 C-4.99 17 -5.98 17 -7 17 C-5.24009216 11.08030998 -2.60305395 5.58365008 0 0 Z " fill="#ABC3A0" transform="translate(350,308)"/>
<path d="M0 0 C0.33 0.99 0.66 1.98 1 3 C-1.3125 6.1875 -1.3125 6.1875 -4 9 C-4.66 9 -5.32 9 -6 9 C-6 9.66 -6 10.32 -6 11 C-7.32 10.67 -8.64 10.34 -10 10 C-6.7 6.7 -3.4 3.4 0 0 Z " fill="#B9D3AD" transform="translate(260,229)"/>
<path d="M0 0 C0 3 0 3 -1.96875 5.26171875 C-2.8040625 6.06222656 -3.639375 6.86273438 -4.5 7.6875 C-5.3353125 8.49574219 -6.170625 9.30398437 -7.03125 10.13671875 C-7.6809375 10.75160156 -8.330625 11.36648437 -9 12 C-9.66 11.67 -10.32 11.34 -11 11 C-10.67 10.01 -10.34 9.02 -10 8 C-9.34 8 -8.68 8 -8 8 C-8 7.34 -8 6.68 -8 6 C-7.34 6 -6.68 6 -6 6 C-6 5.34 -6 4.68 -6 4 C-5.34 4 -4.68 4 -4 4 C-4 3.34 -4 2.68 -4 2 C-2.68 1.34 -1.36 0.68 0 0 Z " fill="#A3CD99" transform="translate(146,176)"/>
<path d="M0 0 C-0.33 1.98 -0.66 3.96 -1 6 C-1.86625 5.835 -2.7325 5.67 -3.625 5.5 C-6.81225199 5.02781452 -9.78485027 4.92344882 -13 5 C-10.54278328 3.36185552 -8.65432189 2.38047801 -5.9375 1.375 C-5.24527344 1.11460937 -4.55304688 0.85421875 -3.83984375 0.5859375 C-2 0 -2 0 0 0 Z " fill="#C8DBC1" transform="translate(280,384)"/>
<path d="M0 0 C0.33 0.66 0.66 1.32 1 2 C-1.82522609 6.67248931 -4.67760044 9.65996398 -9 13 C-9.33 12.01 -9.66 11.02 -10 10 C-9.44570313 9.52949219 -8.89140625 9.05898438 -8.3203125 8.57421875 C-7.59585937 7.95160156 -6.87140625 7.32898438 -6.125 6.6875 C-5.40570313 6.07261719 -4.68640625 5.45773437 -3.9453125 4.82421875 C-1.80820669 2.9587676 -1.80820669 2.9587676 0 0 Z " fill="#C9DFC0" transform="translate(328,347)"/>
<path d="M0 0 C0.33 0 0.66 0 1 0 C1.02691685 2.45840605 1.04679802 4.91651882 1.0625 7.375 C1.07087891 8.07367188 1.07925781 8.77234375 1.08789062 9.4921875 C1.11328125 14.7734375 1.11328125 14.7734375 0 17 C-0.66 17 -1.32 17 -2 17 C-2.33 17.99 -2.66 18.98 -3 20 C-2.855625 19.01 -2.71125 18.02 -2.5625 17 C-2.17373168 14.29504859 -1.82497866 11.5883139 -1.5 8.875 C-1.11234857 5.87070139 -0.64662704 2.95600934 0 0 Z " fill="#B0D8A2" transform="translate(354,288)"/>
<path d="M0 0 C1.75 2 1.75 2 3 4 C2.113125 3.731875 1.22625 3.46375 0.3125 3.1875 C-3.20542015 2.60690249 -3.20542015 2.60690249 -5.875 5.4375 C-6.57625 6.283125 -7.2775 7.12875 -8 8 C-8.25 5.6875 -8.25 5.6875 -8 3 C-5.18144066 0.08077783 -4.20010777 0 0 0 Z " fill="#C2D8B6" transform="translate(276,148)"/>
<path d="M0 0 C3.63 0.33 7.26 0.66 11 1 C11 1.66 11 2.32 11 3 C11.61875 3.12375 12.2375 3.2475 12.875 3.375 C15 4 15 4 17 6 C13.08878502 5.31063929 9.44491404 4.21749819 5.6875 2.9375 C4.61886719 2.57527344 3.55023438 2.21304687 2.44921875 1.83984375 C1.64097656 1.56269531 0.83273438 1.28554688 0 1 C0 0.67 0 0.34 0 0 Z " fill="#A8C6A0" transform="translate(174,394)"/>
<path d="M0 0 C0 3 0 3 -2.3125 5.5625 C-5 8 -5 8 -8 10 C-10.1875 9.625 -10.1875 9.625 -12 9 C-11.21753906 8.43410156 -10.43507813 7.86820312 -9.62890625 7.28515625 C-8.61699219 6.55167969 -7.60507812 5.81820313 -6.5625 5.0625 C-5.55316406 4.33160156 -4.54382813 3.60070312 -3.50390625 2.84765625 C-1.17707392 1.22678115 -1.17707392 1.22678115 0 0 Z " fill="#BCD5AC" transform="translate(311,364)"/>
<path d="M0 0 C0 0.66 0 1.32 0 2 C0.66 2 1.32 2 2 2 C2 1.34 2 0.68 2 0 C3.65 0 5.3 0 7 0 C3.87218586 2.52631142 0.70422589 4.42373366 -3 6 C-3.99 5.67 -4.98 5.34 -6 5 C-5.01 4.67 -4.02 4.34 -3 4 C-3.33 3.01 -3.66 2.02 -4 1 C-2 0 -2 0 0 0 Z " fill="#B3CDA7" transform="translate(317,284)"/>
<path d="M0 0 C2.92272621 1.94848414 4.29387543 2.99397099 6 6 C6.1875 9.75 6.1875 9.75 6 13 C5.01 13 4.02 13 3 13 C3.33 12.34 3.66 11.68 4 11 C3.229355 8.8241616 3.229355 8.8241616 2.0625 6.5 C0 2.19322034 0 2.19322034 0 0 Z " fill="#BED9B3" transform="translate(345,215)"/>
<path d="M0 0 C0.556875 0.268125 1.11375 0.53625 1.6875 0.8125 C0.6975 2.2975 0.6975 2.2975 -0.3125 3.8125 C-0.9725 3.8125 -1.6325 3.8125 -2.3125 3.8125 C-2.3125 4.4725 -2.3125 5.1325 -2.3125 5.8125 C-5.77403846 8.8125 -5.77403846 8.8125 -8.3125 8.8125 C-7.82204356 4.398392 -4.79279276 -0.38860482 0 0 Z " fill="#BEE1AE" transform="translate(386.3125,161.1875)"/>
<path d="M0 0 C0 0.33 0 0.66 0 1 C-5.445 1.495 -5.445 1.495 -11 2 C-11 2.66 -11 3.32 -11 4 C-13.70879335 5.35439668 -16.00933268 5.06501451 -19 5 C-18 3 -18 3 -15.8125 1.9375 C-10.50813565 0.16937855 -5.57082044 -0.11141641 0 0 Z " fill="#A1C68D" transform="translate(362,105)"/>
<path d="M0 0 C0 3 0 3 -1 6 C-2.84765625 7.60546875 -2.84765625 7.60546875 -5.0625 9.1875 C-5.79597656 9.71730469 -6.52945313 10.24710937 -7.28515625 10.79296875 C-7.85105469 11.19128906 -8.41695312 11.58960938 -9 12 C-9.66 11.67 -10.32 11.34 -11 11 C-7.37 7.37 -3.74 3.74 0 0 Z " fill="#9EBC92" transform="translate(200,289)"/>
<path d="M0 0 C0.33 1.32 0.66 2.64 1 4 C0.34 4 -0.32 4 -1 4 C-1.12375 5.134375 -1.2475 6.26875 -1.375 7.4375 C-1.58125 8.613125 -1.7875 9.78875 -2 11 C-2.99 11.495 -2.99 11.495 -4 12 C-4.33 12.99 -4.66 13.98 -5 15 C-5.66 15 -6.32 15 -7 15 C-5.63408831 11.45756548 -4.09068516 8.07372071 -2.375 4.6875 C-1.70597656 3.36298828 -1.70597656 3.36298828 -1.0234375 2.01171875 C-0.68570313 1.34785156 -0.34796875 0.68398437 0 0 Z " fill="#ACD0A2" transform="translate(185,235)"/>
<path d="M0 0 C0.33 0.66 0.66 1.32 1 2 C-0.87577357 6.06417607 -2.93582393 8.12422643 -7 10 C-7.66 9.67 -8.32 9.34 -9 9 C-6.03 6.03 -3.06 3.06 0 0 Z " fill="#B9D0A9" transform="translate(283,206)"/>
<path d="M0 0 C0 3.48961209 -0.90379374 5.11480295 -2.5 8.1875 C-2.9640625 9.08855469 -3.428125 9.98960937 -3.90625 10.91796875 C-4.2671875 11.60503906 -4.628125 12.29210937 -5 13 C-5.66 12.67 -6.32 12.34 -7 12 C-6.67 10.68 -6.34 9.36 -6 8 C-5.34 8 -4.68 8 -4 8 C-3.67 5.69 -3.34 3.38 -3 1 C-2.01 0.67 -1.02 0.34 0 0 Z " fill="#B9D7A7" transform="translate(220,195)"/>
<path d="M0 0 C0.66 0.33 1.32 0.66 2 1 C-1.3 4.63 -4.6 8.26 -8 12 C-8.33 11.01 -8.66 10.02 -9 9 C-6.03 6.03 -3.06 3.06 0 0 Z " fill="#CCE3C4" transform="translate(143,161)"/>
<path d="M0 0 C0.66 0.33 1.32 0.66 2 1 C-3.32006564 4.41029848 -7.05542387 4.09644404 -13 3 C-12.67 2.34 -12.34 1.68 -12 1 C-11.07767578 1.01740234 -11.07767578 1.01740234 -10.13671875 1.03515625 C-8.92435547 1.04869141 -8.92435547 1.04869141 -7.6875 1.0625 C-6.88699219 1.07410156 -6.08648437 1.08570313 -5.26171875 1.09765625 C-2.83138666 1.09657855 -2.83138666 1.09657855 0 0 Z " fill="#9BD78A" transform="translate(255,147)"/>
<path d="M0 0 C1.71056541 2.58430745 2.05220752 3.68321539 1.5390625 6.796875 C1.23742187 7.77140625 0.93578125 8.7459375 0.625 9.75 C0.32851562 10.73484375 0.03203125 11.7196875 -0.2734375 12.734375 C-0.51320313 13.48203125 -0.75296875 14.2296875 -1 15 C-1.66 15 -2.32 15 -3 15 C-2.44854729 9.76119922 -1.57077907 5.02649303 0 0 Z " fill="#BFD9B9" transform="translate(99,228)"/>
<path d="M0 0 C1.32 0 2.64 0 4 0 C4 0.66 4 1.32 4 2 C6.475 2.99 6.475 2.99 9 4 C9 5.65 9 7.3 9 9 C8.01 8.67 7.02 8.34 6 8 C6.33 7.34 6.66 6.68 7 6 C6.34 6 5.68 6 5 6 C3.2856382 4.04072937 1.61594832 2.04119788 0 0 Z " fill="#C5DEB8" transform="translate(307,168)"/>
<path d="M0 0 C0.9435441 2.53899138 1.16906025 3.60909275 0.07421875 6.140625 C-0.61220703 7.18476563 -0.61220703 7.18476563 -1.3125 8.25 C-1.76238281 8.95640625 -2.21226562 9.6628125 -2.67578125 10.390625 C-3.11277344 10.92171875 -3.54976563 11.4528125 -4 12 C-4.66 12 -5.32 12 -6 12 C-4.43358249 7.69235185 -2.31663844 3.93828536 0 0 Z " fill="#B8D3AC" transform="translate(342,326)"/>
<path d="M0 0 C0.66 0 1.32 0 2 0 C1.40895235 4.84659077 0.02055843 8.60748167 -2 13 C-2.33 13 -2.66 13 -3 13 C-3 10.69 -3 8.38 -3 6 C-2.34 6 -1.68 6 -1 6 C-1.0309375 4.7934375 -1.0309375 4.7934375 -1.0625 3.5625 C-1 1 -1 1 0 0 Z " fill="#BEDFB3" transform="translate(362,307)"/>
<path d="M0 0 C0.33 0.66 0.66 1.32 1 2 C0.00390625 4.3828125 0.00390625 4.3828125 -1.4375 7.125 C-1.91058594 8.03507813 -2.38367188 8.94515625 -2.87109375 9.8828125 C-3.24363281 10.58148438 -3.61617187 11.28015625 -4 12 C-4.33 12 -4.66 12 -5 12 C-5.32469403 7.34605219 -4.79790518 4.76641082 -2 1 C-1.34 0.67 -0.68 0.34 0 0 Z " fill="#BBD5B1" transform="translate(213,208)"/>
<path d="M0 0 C0.66 0 1.32 0 2 0 C0.58707905 4.8274799 -1.42974154 8.7162359 -4 13 C-4.33 13 -4.66 13 -5 13 C-5 11.35 -5 9.7 -5 8 C-4.01 7.67 -3.02 7.34 -2 7 C-1.855625 6.21625 -1.71125 5.4325 -1.5625 4.625 C-1 2 -1 2 0 0 Z " fill="#C4DCB6" transform="translate(162,305)"/>
<path d="M0 0 C0.33 1.32 0.66 2.64 1 4 C-0.32 4 -1.64 4 -3 4 C-3 4.99 -3 5.98 -3 7 C-3.99 7.66 -4.98 8.32 -6 9 C-6.99 8.67 -7.98 8.34 -9 8 C-6.03 5.36 -3.06 2.72 0 0 Z " fill="#B2D5A3" transform="translate(307,183)"/>
<path d="M0 0 C0.99 0.33 1.98 0.66 3 1 C0.36 3.64 -2.28 6.28 -5 9 C-5.33 7.68 -5.66 6.36 -6 5 C-5.38125 4.9175 -4.7625 4.835 -4.125 4.75 C-1.81562433 4.18741541 -1.81562433 4.18741541 -0.75 1.9375 C-0.5025 1.298125 -0.255 0.65875 0 0 Z " fill="#D1E6C9" transform="translate(178,328)"/>
<path d="M0 0 C0.66 0.33 1.32 0.66 2 1 C0.77782954 5.04256383 -0.62754296 8.49288959 -3 12 C-3.33 12 -3.66 12 -4 12 C-4 10.35 -4 8.7 -4 7 C-3.34 7 -2.68 7 -2 7 C-2 5.68 -2 4.36 -2 3 C-1.34 3 -0.68 3 0 3 C0 2.01 0 1.02 0 0 Z " fill="#A4BC9C" transform="translate(199,232)"/>
<path d="M0 0 C0.99 0 1.98 0 3 0 C1.18690997 3.77727089 -0.9073259 7.37269822 -3 11 C-3.33 11 -3.66 11 -4 11 C-4 9.35 -4 7.7 -4 6 C-3.34 5.67 -2.68 5.34 -2 5 C-1.6278958 3.67696283 -1.29369827 2.34262065 -1 1 C-0.67 0.67 -0.34 0.34 0 0 Z " fill="#B0D6A2" transform="translate(343,123)"/>
<path d="M0 0 C0.75 1.6875 0.75 1.6875 1 4 C-0.8125 6.75 -0.8125 6.75 -3 9 C-3.66 9 -4.32 9 -5 9 C-3.7508258 5.54074837 -2.32472205 2.85306797 0 0 Z " fill="#BFD9AE" transform="translate(346,229)"/>
<path d="M0 0 C0.33 1.32 0.66 2.64 1 4 C0.01 4.495 0.01 4.495 -1 5 C-2.05352843 7.30965848 -3.05719096 9.6429774 -4 12 C-4.66 12 -5.32 12 -6 12 C-4.68139111 7.38486888 -2.78644563 3.90102388 0 0 Z " fill="#AFCBA5" transform="translate(115,192)"/>
<path d="M0 0 C-0.7425 0.5775 -1.485 1.155 -2.25 1.75 C-4.66087643 3.72253526 -6.84042701 5.76044282 -9 8 C-9.33 7.01 -9.66 6.02 -10 5 C-9.01 5 -8.02 5 -7 5 C-6.67 3.35 -6.34 1.7 -6 0 C-3 -1 -3 -1 0 0 Z " fill="#B5D8A7" transform="translate(323,187)"/>
<path d="M0 0 C0.66 0 1.32 0 2 0 C1.35341074 3.49158202 0.03960471 6.0974856 -2 9 C-2.99 9.33 -3.98 9.66 -5 10 C-3.66749209 6.4124787 -2.169283 3.1635377 0 0 Z " fill="#BEDCB4" transform="translate(220,104)"/>
<path d="M0 0 C2.64 0 5.28 0 8 0 C5.77174356 2.22825644 4.34238372 2.69239369 1.375 3.625 C0.55773437 3.88539062 -0.25953125 4.14578125 -1.1015625 4.4140625 C-1.72804687 4.60742188 -2.35453125 4.80078125 -3 5 C-3 4.01 -3 3.02 -3 2 C-2.01 2 -1.02 2 0 2 C0 1.34 0 0.68 0 0 Z " fill="#A6CE92" transform="translate(236,106)"/>
<path d="M0 0 C-4.73762839 2.45049744 -7.8482928 3.07919747 -13.1875 2.5625 C-14.81751953 2.40974609 -14.81751953 2.40974609 -16.48046875 2.25390625 C-17.72763672 2.12822266 -17.72763672 2.12822266 -19 2 C-19 1.67 -19 1.34 -19 1 C-12.65333314 0.41639845 -6.37625222 -0.14491482 0 0 Z " fill="#B2D0A5" transform="translate(146,393)"/>
<path d="M0 0 C0.66 0 1.32 0 2 0 C1.91253716 1.43861294 1.80434652 2.87597508 1.6875 4.3125 C1.62949219 5.11300781 1.57148438 5.91351563 1.51171875 6.73828125 C0.91793306 9.36272334 0.04219706 10.30820672 -2 12 C-2.21278058 7.53160785 -1.59138085 4.17737474 0 0 Z " fill="#ADC9A5" transform="translate(167,363)"/>
<path d="M0 0 C3.16115776 1.36983503 3.9927092 1.9890638 6 5 C6.07905064 7.33199388 6.08798769 9.66832622 6 12 C4.28982274 9.4347341 3.09582189 7.12039035 1.875 4.3125 C1.52179688 3.50425781 1.16859375 2.69601563 0.8046875 1.86328125 C0.53914063 1.24839844 0.27359375 0.63351563 0 0 Z " fill="#A1D490" transform="translate(388,239)"/>
<path d="M0 0 C3.54875053 -0.19715281 6.09557968 -0.17831524 9 2 C9.609375 4.58203125 9.609375 4.58203125 10 7 C8.33073546 6.02526874 6.66464358 5.04510211 5 4.0625 C4.071875 3.51722656 3.14375 2.97195312 2.1875 2.41015625 C1.465625 1.94480469 0.74375 1.47945312 0 1 C0 0.67 0 0.34 0 0 Z " fill="#B7D5A5" transform="translate(378,232)"/>
<path d="M0 0 C0.99 0.33 1.98 0.66 3 1 C2.38125 2.0725 1.7625 3.145 1.125 4.25 C-0.3323679 6.79780984 -1.72924491 9.35259355 -3 12 C-3.125 5.25 -3.125 5.25 -2 3 C-1.34 3 -0.68 3 0 3 C0 2.01 0 1.02 0 0 Z " fill="#A5C79D" transform="translate(115,346)"/>
<path d="M0 0 C0.33 0 0.66 0 1 0 C1 1.98 1 3.96 1 6 C0.01 6.33 -0.98 6.66 -2 7 C-2 7.66 -2 8.32 -2 9 C-2.66 9 -3.32 9 -4 9 C-2.94124926 5.59687262 -1.99097846 2.98646769 0 0 Z " fill="#BCD5B2" transform="translate(202,201)"/>
<path d="M0 0 C0.99 0 1.98 0 3 0 C1.88424427 3.34726719 1.48655378 3.62079748 -1.4375 5.25 C-3.2009375 6.11625 -3.2009375 6.11625 -5 7 C-5.66 6.67 -6.32 6.34 -7 6 C-6.67 5.34 -6.34 4.68 -6 4 C-5.01 4 -4.02 4 -3 4 C-3 3.34 -3 2.68 -3 2 C-2.01 2 -1.02 2 0 2 C0 1.34 0 0.68 0 0 Z " fill="#AFCEA0" transform="translate(172,155)"/>
<path d="M0 0 C0 0.99 0 1.98 0 3 C-2 4.6875 -2 4.6875 -4 6 C-5.32 5.34 -6.64 4.68 -8 4 C-2.25 0 -2.25 0 0 0 Z " fill="#C6DDBF" transform="translate(161,149)"/>
<path d="M0 0 C7.42857143 -0.14285714 7.42857143 -0.14285714 11 1 C11.33 2.32 11.66 3.64 12 5 C10.56068883 4.54738642 9.12361001 4.08767021 7.6875 3.625 C6.88699219 3.36976562 6.08648437 3.11453125 5.26171875 2.8515625 C3 2 3 2 0 0 Z " fill="#A4D49A" transform="translate(249,106)"/>
<path d="M0 0 C0.66 0.33 1.32 0.66 2 1 C0.875 3.4375 0.875 3.4375 -1 6 C-4.1875 6.8125 -4.1875 6.8125 -7 7 C-4.66666667 4.66666667 -2.33333333 2.33333333 0 0 Z " fill="#C7DCB8" transform="translate(230,97)"/>
<path d="M0 0 C0.66 0 1.32 0 2 0 C0.92289822 4.30840713 -0.03947516 7.63576723 -3 11 C-2.67 8.69 -2.34 6.38 -2 4 C-1.34 4 -0.68 4 0 4 C0 2.68 0 1.36 0 0 Z " fill="#B8D4AB" transform="translate(357,320)"/>
<path d="M0 0 C2.31 0 4.62 0 7 0 C5.694761 2.61047801 4.64173426 2.68066423 1.9375 3.625 C0.83728516 4.01558594 0.83728516 4.01558594 -0.28515625 4.4140625 C-0.85105469 4.60742188 -1.41695312 4.80078125 -2 5 C-1 2 -1 2 0 0 Z " fill="#A8BE9D" transform="translate(254,316)"/>
<path d="M0 0 C0.33 0.66 0.66 1.32 1 2 C0.34 2 -0.32 2 -1 2 C-1.268125 2.639375 -1.53625 3.27875 -1.8125 3.9375 C-3 6 -3 6 -6 7 C-5.8125 5.1875 -5.8125 5.1875 -5 3 C-2.4375 1.25 -2.4375 1.25 0 0 Z " fill="#CADFC0" transform="translate(207,284)"/>
<path d="M0 0 C0.99 0.33 1.98 0.66 3 1 C-0.465 3.97 -0.465 3.97 -4 7 C-4.66 6.34 -5.32 5.68 -6 5 C-4.68 4.67 -3.36 4.34 -2 4 C-2 3.01 -2 2.02 -2 1 C-1.34 0.67 -0.68 0.34 0 0 Z " fill="#CEE4C6" transform="translate(242,264)"/>
<path d="M0 0 C0 3.30941204 -0.40339294 5.11090151 -2 8 C-4.625 8.8125 -4.625 8.8125 -7 9 C-6.02180976 7.68677212 -5.0424189 6.37443848 -4.0625 5.0625 C-3.51722656 4.33160156 -2.97195313 3.60070312 -2.41015625 2.84765625 C-1 1 -1 1 0 0 Z " fill="#B0CAA2" transform="translate(273,216)"/>
<path d="M0 0 C2.5 0.5 2.5 0.5 4.3125 2.5 C4.704375 3.16 5.09625 3.82 5.5 4.5 C4.4275 4.12875 3.355 3.7575 2.25 3.375 C-1.31629347 2.18508268 -1.31629347 2.18508268 -3.9375 3.375 C-4.453125 3.74625 -4.96875 4.1175 -5.5 4.5 C-3.87797194 1.76816326 -3.18732969 0.63746594 0 0 Z " fill="#B0CC9B" transform="translate(341.5,168.5)"/>
<path d="M0 0 C1.875 0.3125 1.875 0.3125 4 1 C6.1519437 4.22791555 6.20086443 5.28400809 6 9 C3.75972706 6.11964908 1.83827868 3.15133488 0 0 Z " fill="#C5DCBC" transform="translate(149,345)"/>
<path d="M0 0 C0.99 0.33 1.98 0.66 3 1 C0.525 4.465 0.525 4.465 -2 8 C-2.33 6.68 -2.66 5.36 -3 4 C-1.5625 1.75 -1.5625 1.75 0 0 Z " fill="#BEDBB6" transform="translate(345,344)"/>
<path d="M0 0 C0 0.66 0 1.32 0 2 C-0.66 2 -1.32 2 -2 2 C-2 2.66 -2 3.32 -2 4 C-4.31 4.33 -6.62 4.66 -9 5 C-2.87096774 0 -2.87096774 0 0 0 Z " fill="#ABC09D" transform="translate(281,291)"/>
<path d="M0 0 C0.66 0 1.32 0 2 0 C1.38461538 5.53846154 1.38461538 5.53846154 -0.5625 7.875 C-1.036875 8.24625 -1.51125 8.6175 -2 9 C-1.125 2.25 -1.125 2.25 0 0 Z " fill="#BBCEAB" transform="translate(179,271)"/>
<path d="M0 0 C0.99 0.33 1.98 0.66 3 1 C1.25 6.75 1.25 6.75 -1 9 C-1.125 2.25 -1.125 2.25 0 0 Z " fill="#C0D8B7" transform="translate(189,249)"/>
<path d="M0 0 C0.33 0 0.66 0 1 0 C0.25 6.625 0.25 6.625 -2 10 C-2.66 10 -3.32 10 -4 10 C-2.8905928 6.51329166 -1.73662334 3.22515763 0 0 Z " fill="#C8DEB9" transform="translate(207,191)"/>
<path d="M0 0 C3.08089673 2.77280706 4.68775452 5.06326356 6 9 C3.5625 7.875 3.5625 7.875 1 6 C0.1875 2.8125 0.1875 2.8125 0 0 Z " fill="#BBD9B1" transform="translate(344,187)"/>
<path d="M0 0 C2.475 0.495 2.475 0.495 5 1 C5.33 2.98 5.66 4.96 6 7 C5.34 7 4.68 7 4 7 C0 2.52941176 0 2.52941176 0 0 Z " fill="#BED7B3" transform="translate(329,189)"/>
<path d="M0 0 C3.57104439 1.87949705 5.54744301 3.17053157 7 7 C5.02 6.34 3.04 5.68 1 5 C0.67 3.35 0.34 1.7 0 0 Z " fill="#A8DB9E" transform="translate(267,100)"/>
<path d="M0 0 C0.66 0.33 1.32 0.66 2 1 C0.35 2.98 -1.3 4.96 -3 7 C-3.33 5.68 -3.66 4.36 -4 3 C-2.68 2.01 -1.36 1.02 0 0 Z " fill="#D2E8CA" transform="translate(186,320)"/>
<path d="M0 0 C0 3.16880694 -0.2058242 4.43689172 -2 7 C-4.625 7.75 -4.625 7.75 -7 8 C-6.02133662 6.85373678 -5.04205413 5.70800212 -4.0625 4.5625 C-3.51722656 3.92441406 -2.97195312 3.28632813 -2.41015625 2.62890625 C-1.63204305 1.73008851 -0.84063472 0.84063472 0 0 Z " fill="#96B686" transform="translate(176,313)"/>
<path d="M0 0 C0.99 0.33 1.98 0.66 3 1 C1.625 3 1.625 3 0 5 C-0.66 5 -1.32 5 -2 5 C-2 5.66 -2 6.32 -2 7 C-2.66 6.67 -3.32 6.34 -4 6 C-2.25 1.125 -2.25 1.125 0 0 Z " fill="#B8CFB0" transform="translate(201,305)"/>
<path d="M0 0 C0.99 0.33 1.98 0.66 3 1 C2.71890887 2.64767247 2.42481474 4.29313145 2.125 5.9375 C1.96257812 6.85402344 1.80015625 7.77054687 1.6328125 8.71484375 C1.42398437 9.46894531 1.21515625 10.22304688 1 11 C0.01 11.495 0.01 11.495 -1 12 C-0.67 8.04 -0.34 4.08 0 0 Z " fill="#95D384" transform="translate(365,294)"/>
<path d="M0 0 C1.32 0.33 2.64 0.66 4 1 C2.625 2.5 2.625 2.5 1 4 C0.34 4 -0.32 4 -1 4 C-1 4.66 -1 5.32 -1 6 C-1.99 6.33 -2.98 6.66 -4 7 C-4 5.68 -4 4.36 -4 3 C-2.68 3 -1.36 3 0 3 C0 2.01 0 1.02 0 0 Z " fill="#BBCD9B" transform="translate(234,271)"/>
<path d="M0 0 C0.66 0 1.32 0 2 0 C0.375 6.75 0.375 6.75 -3 9 C-2.44271087 5.65626525 -1.64826111 2.96687001 0 0 Z " fill="#CDE3C0" transform="translate(403,263)"/>
<path d="M0 0 C0.33 1.32 0.66 2.64 1 4 C-1.35438733 5.42944945 -2.48032433 6.08661261 -5.25 5.625 C-5.8275 5.41875 -6.405 5.2125 -7 5 C-6.21625 4.54625 -5.4325 4.0925 -4.625 3.625 C-1.96301969 2.11571258 -1.96301969 2.11571258 0 0 Z " fill="#C2DCB4" transform="translate(264,141)"/>
<path d="M0 0 C0 3 0 3 -2.5 5.6875 C-3.325 6.450625 -4.15 7.21375 -5 8 C-5.66 7.67 -6.32 7.34 -7 7 C-4.69 4.69 -2.38 2.38 0 0 Z " fill="#A1BF92" transform="translate(249,240)"/>
<path d="M0 0 C0.33 0 0.66 0 1 0 C1 2.31 1 4.62 1 7 C-0.32 7.33 -1.64 7.66 -3 8 C-1.125 2.25 -1.125 2.25 0 0 Z " fill="#C0D7B3" transform="translate(194,216)"/>
<path d="M0 0 C0.99 0 1.98 0 3 0 C1.8141763 3.37503669 0.72426311 5.64722731 -2 8 C-2.125 5.125 -2.125 5.125 -2 2 C-1.34 1.34 -0.68 0.68 0 0 Z " fill="#B6D2AC" transform="translate(126,196)"/>
<path d="M0 0 C-2.39509338 2.89932357 -4.31245243 3.50168276 -8 4 C-7.67 3.01 -7.34 2.02 -7 1 C-4.53721199 -0.231394 -2.7204945 -0.07159196 0 0 Z " fill="#AED1A1" transform="translate(378,170)"/>
<path d="M0 0 C2.64 0 5.28 0 8 0 C8 0.66 8 1.32 8 2 C4.71303767 2.79953138 3.28976808 3.09658936 0 2 C0 1.34 0 0.68 0 0 Z " fill="#DCECD4" transform="translate(354,162)"/>
<path d="M0 0 C3.77545388 1.09068668 6.47043472 1.9083091 9 5 C7.68428397 4.7452486 6.37239624 4.47065859 5.0625 4.1875 C4.33160156 4.03667969 3.60070312 3.88585937 2.84765625 3.73046875 C2.23792969 3.48941406 1.62820313 3.24835938 1 3 C0.67 2.01 0.34 1.02 0 0 Z " fill="#BCD3AB" transform="translate(302,149)"/>
<path d="M0 0 C3.2542015 2.83430453 4.5206753 4.68607774 5 9 C4.01 9.495 4.01 9.495 3 10 C3 8.35 3 6.7 3 5 C2.01 4.67 1.02 4.34 0 4 C0 2.68 0 1.36 0 0 Z " fill="#AED89E" transform="translate(274,107)"/>
<path d="M0 0 C2.91517292 1.07401108 4.77810176 1.77810176 7 4 C6.34 4.66 5.68 5.32 5 6 C4.54625 5.505 4.0925 5.01 3.625 4.5 C2.12364481 2.77390663 2.12364481 2.77390663 0 3 C0 2.01 0 1.02 0 0 Z " fill="#C9DDBE" transform="translate(166,375)"/>
<path d="M0 0 C0.625 1.875 0.625 1.875 1 4 C0.34 4.66 -0.32 5.32 -1 6 C-3.125 5.625 -3.125 5.625 -5 5 C-3.35 3.35 -1.7 1.7 0 0 Z " fill="#B4CDA7" transform="translate(151,372)"/>
<path d="M0 0 C0.33 0.66 0.66 1.32 1 2 C-0.175625 2.928125 -0.175625 2.928125 -1.375 3.875 C-3.96837647 5.89858661 -3.96837647 5.89858661 -6 8 C-5.67 6.35 -5.34 4.7 -5 3 C-4.34 3 -3.68 3 -3 3 C-3 2.34 -3 1.68 -3 1 C-2.01 0.67 -1.02 0.34 0 0 Z " fill="#B8D5AB" transform="translate(341,352)"/>
<path d="M0 0 C-1.75 5.75 -1.75 5.75 -4 8 C-4 5.69 -4 3.38 -4 1 C-2 0 -2 0 0 0 Z " fill="#BED8B2" transform="translate(177,280)"/>
<path d="M0 0 C0.33 0.66 0.66 1.32 1 2 C-1.3125 4.5 -1.3125 4.5 -4 7 C-4.99 7 -5.98 7 -7 7 C-4.69 4.69 -2.38 2.38 0 0 Z " fill="#95B682" transform="translate(212,277)"/>
<path d="M0 0 C0.66 0 1.32 0 2 0 C1.8125 1.8125 1.8125 1.8125 1 4 C-1.5625 5.75 -1.5625 5.75 -4 7 C-4.33 6.34 -4.66 5.68 -5 5 C-4.67 4.34 -4.34 3.68 -4 3 C-2.68 3 -1.36 3 0 3 C0 2.01 0 1.02 0 0 Z " fill="#BCE0B1" transform="translate(257,249)"/>
<path d="M0 0 C0.33 0 0.66 0 1 0 C1 2.97 1 5.94 1 9 C0.01 9.33 -0.98 9.66 -2 10 C-1.34 6.7 -0.68 3.4 0 0 Z " fill="#C1D2B7" transform="translate(104,212)"/>
<path d="M0 0 C0.33 0 0.66 0 1 0 C1.144375 1.0725 1.28875 2.145 1.4375 3.25 C1.83749442 5.91662949 2.27591924 8.41399729 3 11 C2.01 10.67 1.02 10.34 0 10 C0 6.7 0 3.4 0 0 Z " fill="#B0DBA6" transform="translate(337,138)"/>
<path d="M0 0 C2.31 0.33 4.62 0.66 7 1 C7.33 2.65 7.66 4.3 8 6 C6.66402348 5.19185349 5.331275 4.37836819 4 3.5625 C3.2575 3.11003906 2.515 2.65757813 1.75 2.19140625 C1.1725 1.79824219 0.595 1.40507813 0 1 C0 0.67 0 0.34 0 0 Z " fill="#B5D5AB" transform="translate(368,121)"/>
<path d="M0 0 C2.49361571 1.20381448 4.68143083 2.45428722 7 4 C7 4.66 7 5.32 7 6 C5.1875 5.8125 5.1875 5.8125 3 5 C1.25 2.4375 1.25 2.4375 0 0 Z " fill="#A6CA92" transform="translate(378,111)"/>
</svg>
