<svg version="1.1" id="Layer_1" xmlns="http://www.w3.org/2000/svg" xmlns:xlink="http://www.w3.org/1999/xlink" x="0px" y="0px"
	 width="100%" viewBox="0 0 134 137" enable-background="new 0 0 134 137" xml:space="preserve">
<path fill="#020202" opacity="1.000000" stroke="none" 
	d="
M134.000000,138.000000 
	C89.714828,138.000000 45.429657,138.000000 1.072242,138.000000 
	C1.072242,92.431206 1.072242,46.862259 1.072242,1.000000 
	C45.020458,1.000000 89.041573,1.000000 133.532745,1.468655 
	C134.001877,47.291542 134.000946,92.645767 134.000000,138.000000 
M46.502987,41.996544 
	C52.897324,48.556126 59.367043,55.044750 65.645126,61.713768 
	C67.844086,64.049652 70.077240,65.209686 73.413925,65.081711 
	C80.566856,64.807358 87.737602,64.997604 94.901054,64.997604 
	C105.171310,64.997604 115.441566,64.997604 125.749939,64.997604 
	C125.749939,46.097252 125.749939,27.698271 125.749939,9.256457 
	C88.807785,9.256457 52.113857,9.256457 14.698233,9.256457 
	C25.455120,20.325586 35.735661,30.904543 46.502987,41.996544 
M20.517324,73.003006 
	C16.746979,73.003006 12.976632,73.003006 9.286201,73.003006 
	C9.286201,92.304245 9.286201,111.038605 9.286201,129.713181 
	C27.638620,129.713181 45.706512,129.713181 63.712753,129.713181 
	C63.712753,110.693642 63.712753,91.959259 63.712753,73.003006 
	C49.456745,73.003006 35.483929,73.003006 20.517324,73.003006 
M81.149307,73.000099 
	C79.979370,73.117805 78.809433,73.235512 77.130188,73.404465 
	C93.528763,90.225967 109.421371,106.528450 125.683830,123.210327 
	C125.683830,105.905815 125.683830,89.531044 125.683830,73.000099 
	C110.916412,73.000099 96.464577,73.000099 81.149307,73.000099 
M97.112419,105.388535 
	C88.632095,97.366844 80.151764,89.345161 72.354996,81.970062 
	C72.354996,97.172958 72.354996,113.548248 72.354996,129.597092 
	C88.543404,129.597092 104.375168,129.597092 120.206940,129.597092 
	C120.635277,129.030777 121.063606,128.464462 121.491943,127.898148 
	C113.532181,120.561623 105.572418,113.225098 97.112419,105.388535 
M24.503313,64.999626 
	C35.296753,64.999626 46.090195,64.999626 57.820484,64.999626 
	C41.208195,47.949814 25.485321,31.812840 9.299964,15.201202 
	C9.299964,32.217449 9.299964,48.511337 9.299964,64.999626 
	C14.233684,64.999626 18.869211,64.999626 24.503313,64.999626 
z"/>
<path fill="#FFFFFF" opacity="1.000000" stroke="none" 
	d="
M134.500000,138.000000 
	C134.000946,92.645767 134.001877,47.291542 134.001404,1.468656 
	C134.333328,2.333334 134.956497,3.666336 134.958023,5.000049 
	C135.008728,49.333321 135.000000,93.666664 134.500000,138.000000 
z"/>
<path fill="#FFFFFF" opacity="1.000000" stroke="none" 
	d="
M46.259598,41.740021 
	C35.735661,30.904543 25.455120,20.325586 14.698233,9.256457 
	C52.113857,9.256457 88.807785,9.256457 125.749939,9.256457 
	C125.749939,27.698271 125.749939,46.097252 125.749939,64.997604 
	C115.441566,64.997604 105.171310,64.997604 94.901054,64.997604 
	C87.737602,64.997604 80.566856,64.807358 73.413925,65.081711 
	C70.077240,65.209686 67.844086,64.049652 65.645126,61.713768 
	C59.367043,55.044750 52.897324,48.556126 46.259598,41.740021 
z"/>
<path fill="#FFFFFF" opacity="1.000000" stroke="none" 
	d="
M21.014217,73.003006 
	C35.483929,73.003006 49.456745,73.003006 63.712753,73.003006 
	C63.712753,91.959259 63.712753,110.693642 63.712753,129.713181 
	C45.706512,129.713181 27.638620,129.713181 9.286201,129.713181 
	C9.286201,111.038605 9.286201,92.304245 9.286201,73.003006 
	C12.976632,73.003006 16.746979,73.003006 21.014217,73.003006 
z"/>
<path fill="#FEFEFE" opacity="1.000000" stroke="none" 
	d="
M81.581024,73.000099 
	C96.464577,73.000099 110.916412,73.000099 125.683830,73.000099 
	C125.683830,89.531044 125.683830,105.905815 125.683830,123.210327 
	C109.421371,106.528450 93.528763,90.225967 77.130188,73.404465 
	C78.809433,73.235512 79.979370,73.117805 81.581024,73.000099 
z"/>
<path fill="#FDFDFD" opacity="1.000000" stroke="none" 
	d="
M97.362541,105.638550 
	C105.572418,113.225098 113.532181,120.561623 121.491943,127.898148 
	C121.063606,128.464462 120.635277,129.030777 120.206940,129.597092 
	C104.375168,129.597092 88.543404,129.597092 72.354996,129.597092 
	C72.354996,113.548248 72.354996,97.172958 72.354996,81.970062 
	C80.151764,89.345161 88.632095,97.366844 97.362541,105.638550 
z"/>
<path fill="#FEFEFE" opacity="1.000000" stroke="none" 
	d="
M24.004026,64.999626 
	C18.869211,64.999626 14.233684,64.999626 9.299964,64.999626 
	C9.299964,48.511337 9.299964,32.217449 9.299964,15.201202 
	C25.485321,31.812840 41.208195,47.949814 57.820484,64.999626 
	C46.090195,64.999626 35.296753,64.999626 24.004026,64.999626 
z"/>
</svg>