<svg version="1.1" id="Layer_1" xmlns="http://www.w3.org/2000/svg" xmlns:xlink="http://www.w3.org/1999/xlink" x="0px" y="0px"
	 width="100%" viewBox="0 0 213 213" enable-background="new 0 0 213 213" xml:space="preserve">
<path fill="#000000" opacity="1.000000" stroke="none" 
	d="
M214.000000,80.000000 
	C214.000000,125.000000 214.000000,169.500000 214.000000,214.000000 
	C143.000000,214.000000 72.000000,214.000000 1.000000,214.000000 
	C1.000000,143.000000 1.000000,72.000000 1.000000,1.000000 
	C72.000000,1.000000 143.000000,1.000000 214.000000,1.000000 
	C214.000000,27.166666 214.000000,53.333332 214.000000,80.000000 
M31.506691,10.000000 
	C26.455671,10.000000 21.404654,10.000000 15.911200,10.000000 
	C16.543451,10.860749 16.692356,11.129449 16.901112,11.338332 
	C46.445679,40.901089 75.971420,70.482819 105.621758,99.939140 
	C106.907784,101.216766 109.338829,101.906761 111.240601,101.914917 
	C139.884659,102.037674 168.529404,102.003845 197.173996,101.987053 
	C198.429153,101.986320 199.684235,101.796501 200.671112,101.716507 
	C200.671112,70.910980 200.671112,40.521332 200.671112,10.000000 
	C144.396225,10.000000 88.450127,10.000000 31.506691,10.000000 
M42.500000,203.000000 
	C62.594673,203.000000 82.689346,203.000000 102.713982,203.000000 
	C102.713982,171.691132 102.713982,140.955215 102.713982,110.286034 
	C72.024490,110.286034 41.621864,110.286034 11.286005,110.286034 
	C11.286005,141.308823 11.286005,172.044739 11.286005,203.000000 
	C21.547029,203.000000 31.523514,203.000000 42.500000,203.000000 
M168.500015,173.999985 
	C149.538116,155.036972 130.576218,136.073959 111.277573,116.774162 
	C111.277573,145.992249 111.277573,174.378342 111.277573,202.733246 
	C139.899689,202.733246 168.243378,202.733246 197.372635,202.733246 
	C187.563614,192.972412 178.281815,183.736206 168.500015,173.999985 
M34.000000,39.500000 
	C26.555696,32.042255 19.111395,24.584513 11.232359,16.691250 
	C11.232359,45.584721 11.232359,73.628510 11.232359,101.779678 
	C39.490803,101.779678 67.516472,101.779678 96.305115,101.779678 
	C75.376099,80.859276 54.938049,60.429638 34.000000,39.500000 
M132.500015,126.999985 
	C155.124939,149.625595 177.749863,172.251190 200.729034,195.231033 
	C200.729034,166.358002 200.729034,138.303589 200.729034,110.269684 
	C172.441513,110.269684 144.425827,110.269684 115.612999,110.269684 
	C121.431999,116.033035 126.716003,121.266510 132.500015,126.999985 
z"/>
<path fill="#FFFFFF" opacity="1.000000" stroke="none" 
	d="
M32.005360,10.000000 
	C88.450127,10.000000 144.396225,10.000000 200.671112,10.000000 
	C200.671112,40.521332 200.671112,70.910980 200.671112,101.716507 
	C199.684235,101.796501 198.429153,101.986320 197.173996,101.987053 
	C168.529404,102.003845 139.884659,102.037674 111.240601,101.914917 
	C109.338829,101.906761 106.907784,101.216766 105.621758,99.939140 
	C75.971420,70.482819 46.445679,40.901089 16.901112,11.338332 
	C16.692356,11.129449 16.543451,10.860749 15.911200,10.000000 
	C21.404654,10.000000 26.455671,10.000000 32.005360,10.000000 
z"/>
<path fill="#FFFFFF" opacity="1.000000" stroke="none" 
	d="
M42.000000,203.000000 
	C31.523514,203.000000 21.547029,203.000000 11.286005,203.000000 
	C11.286005,172.044739 11.286005,141.308823 11.286005,110.286034 
	C41.621864,110.286034 72.024490,110.286034 102.713982,110.286034 
	C102.713982,140.955215 102.713982,171.691132 102.713982,203.000000 
	C82.689346,203.000000 62.594673,203.000000 42.000000,203.000000 
z"/>
<path fill="#FFFFFF" opacity="1.000000" stroke="none" 
	d="
M168.750015,174.249985 
	C178.281815,183.736206 187.563614,192.972412 197.372635,202.733246 
	C168.243378,202.733246 139.899689,202.733246 111.277573,202.733246 
	C111.277573,174.378342 111.277573,145.992249 111.277573,116.774162 
	C130.576218,136.073959 149.538116,155.036972 168.750015,174.249985 
z"/>
<path fill="#FFFFFF" opacity="1.000000" stroke="none" 
	d="
M34.250000,39.750000 
	C54.938049,60.429638 75.376099,80.859276 96.305115,101.779678 
	C67.516472,101.779678 39.490803,101.779678 11.232359,101.779678 
	C11.232359,73.628510 11.232359,45.584721 11.232359,16.691250 
	C19.111395,24.584513 26.555696,32.042255 34.250000,39.750000 
z"/>
<path fill="#FFFFFF" opacity="1.000000" stroke="none" 
	d="
M132.250015,126.749985 
	C126.716003,121.266510 121.431999,116.033035 115.612999,110.269684 
	C144.425827,110.269684 172.441513,110.269684 200.729034,110.269684 
	C200.729034,138.303589 200.729034,166.358002 200.729034,195.231033 
	C177.749863,172.251190 155.124939,149.625595 132.250015,126.749985 
z"/>
</svg>