<?xml version="1.0" encoding="UTF-8"?>
<svg version="1.1" viewBox="0 0 1960 1440" width="1280" height="1280" xmlns="http://www.w3.org/2000/svg">
<path transform="translate(226,414)" d="m0 0h1494l32 3 1 5 13 4 10 4 11 8 5 8 6 3 6 11 7 15 1 16v458l-1 10-4 2v5l-7 15-2 5-6 4-4 5-3 2h-4l-1 6-6 4-12 5-14 4-11 2h-4l-1 4-2 1h-1500l-3-2v-3h-10l-20-5-16-6-5-3-4-3-2-5-3-3-7-3-3-10-2-6-6-1-2-6-3-20v-466l6-24 3 1 1 3v-5l3-6 6-5h4l1-8 6-5 7-3 17-7 7-1v-3l13-3z" fill="#082D1F"/>
<path transform="translate(1333,608)" d="m0 0 1 2h37l11 1 36 2 35 4 2 1-1 5-3 11-6 2-3 11-4 8-5 1-2 11-1 1h-16l1 10 1 82v37l-2 43-1 2-4-1-1 14-4 14-1 7-4 2-2-1-1 5-4 11-2 2h-4l-3 6h-2l-1 3-7 2 1 4-8 6-6 1-8 5-6 1-11 3-1 5-14 3-16 2-26 2h-35l-31-3-24-4-8-3v-1l9 1v-2l-10-1-2-7 1-54h7l18 6v2l13 3 25 4h43l13-2 13-3-1-5 10-4 5-6 1-2 5-1 5-24 1-10-28 5-13 1h-21l-21-2-28-7v-5l-8-2-8-6-2 1-5-4v-2l-3-1-1-7-2 1 2 5-4-2-3-7-4-6-1-4-1 2-4-1-2-13-3-7-2-9-1-24 1-19 3-18 4-15 2-2 4 1 2-6 2-2v-6l3-3h4l6-8 5-1 4-4 1-5 6-2 4-2 6-4 9-1-1-6 10-2 3-2 40-8 22-2h20z" fill="#FCFCFC"/>
<path transform="translate(433,508)" d="m0 0h73l3 1v311l-3 2-36 4-32 2h-59l-28-3-12-2-4-2-10-2-9-3 2-2 7 2v-2l-10-2-4-3-8-2-6-5-2 1-6-5 1-6h-2l-1-2h-6l-6-11-1-7-1-1v8h-2l-4-15-1-1-1-9-2-9-1-9v-29l2-17 3-12 3-8h3l2 1 1-10 6-9h4l4-5h2v-7l9-4 4-4 8-2-1-4 5-3 6-2 16-5 13-3 13-2h12l1-5h5l-3 3 1 1 7 1v-5h20v2h-3l1 2h12l2 1 12 1-1-13v-85z" fill="#FCFCFC"/>
<path transform="translate(1573,605)" d="m0 0h15l16 2v1l-7 1 23 3 16 4 14 5 9 3 1 7 8 1 5 6 7 3 2 7 3 5v2l5-1 4 7 2 8 3 8 1-3 2 1 4 27v35l-3 16-2 4-2-2-2 10-3 8-2 8-3 3-4 1-3 6-3 3v5l-6 2-6 6-8 3-4 3-7 1 1 4-6 3-17 5-15 3-14 1h11l1 2-12 2-13 1h-24l-9-1-2-1v-2l3-1-23-3-17-5-10-3-1-4 1-2-9-1-6-5v-2l-5 1-7-8v-7l-4 2-4-4-4-7-2-2-4-1v-6l-4-10-3-16-1-12v-22l2-22 3-13 4-12v-4h2v6l2-1 1-7 4-5 3-6h5l3-9 3-4 7-1 5-6 1-4h3l-1 4-1 2 3-1v-5l6-4 7-2 7-3 10-2 9-2 20-3-4-1v-1z" fill="#FCFCFC"/>
<path transform="translate(1036,606)" d="m0 0h11l2 2v1h8l13 2 16 2 18 4 14 6 3 2v5l6 1 5 6 1 2 6 2 5 18 2 20 1 2-1 5h2v-9l2-1 1 19v130l-4 1-10 1h-66l-3-3-1-141-1-6-5-1-6-7-19-3h-22l-18 2v158l-3 1h-77l-2-1-1-13v-189l2-3 22-3 25-4 12-1 3-1 31-2 5-1h18v-2z" fill="#FCFCFC"/>
<path transform="translate(781,609)" d="m0 0h15l35 4 12 3 10 4 4 3 6 2 4 9 4 7h3l1 6 2 17v159l-2 1-30 2-8 1-19 1-60 1-36-2-16-4-6-1-5-2-1-5 1-2-3 1 2 5-4-1-1-3 1-2-5-2-3-5-4 1-4-5-2-3-3-19-1 7h-2v-39h2l1 9 3-20 6-8 5-2 5-6 1-5 7-2 5-3 13-4 19-5 10-1-10-1v-1l23-4 30-3 18-1-1-8-1-13-6-1-2-2v-6l-14-1h-11l-21 2-6 3-31 7-24 7-3-1v-48l2-5 24-7 24-5 27-3z" fill="#FCFCFC"/>
<path transform="translate(557,614)" d="m0 0h79l1 1 1 24-1 160-3 36-1 8-2-1v-11l-3 17-3 12-3 6-2 1-3-1-1 9-6 9-2 1-3-1-1 2-1 7-4 4-7 2-6 5-7 1v2l-1 4-9 2-3 3-10 3-11-1-8-3-5-1-4-2-7-1v-4l-3-2-4-2h-6l-5-3-7-1-13-4-1-4v-5l9-3 6-3 8-2 4-4 1-4 3 1-2 4h5l-2-5 8-6 5-1 6-8 1-5 3-1-2 7 4-1-1-6h2l1-5 3-7 2-11 2-1v11l1-1 4-29 2-75v-112z" fill="#FCFCFC"/>
<path transform="translate(1572,660)" d="m0 0 23 1-1 5 8 4 5 1 7 9 2 7-1-7h3l4 16 2 17v16l-2 16-4 12-2-1v-2l-2 1-1 8-3 1-2 4-9 4-4 2-9 1h9v3l-22 2-11-1-2-6-9-2-4-4-7-2-5-16-2-3h-4l-1-11v-26l1-12 3-2 1 1 4-11 2-7 4-4 4-1 7-5 10-2v-2l-3-1 2-2z" fill="#092D1F"/>
<path transform="translate(390,661)" d="m0 0h28l4 2-11 1 5 1 6 1 9 1 1 83v21l-5 2h-38l-14-3-11-3-5-5-1-5-6-2-4-6-3-14 1-5h-2v12l-2-4-2-13v-13l3-9 1 4 1 2 2-15 3-6 2-5 1-4 6-2 5-4 15-6 14-2 2-1h-9l-1-2z" fill="#082D1F"/>
<path transform="translate(1309,666)" d="m0 0h25l1 19v85l-13 2h-33l-15-5-3-4h-5l-1-3h6l-1-2-5-1-6-8-2-14-1 11-2-1-2-17v-15l2-10h2l1 2 3-12 4-6 1-3v-3l7-2 3-3 9-4 16-5z" fill="#082C1F"/>
<path transform="translate(577,509)" d="m0 0h60v70l-57 1h-21l-3-1v-69z" fill="#FDFDFD"/>
<path transform="translate(795,735)" d="m0 0h12l-1 46-2 1-17 1-5 1h-17l-16-2-5-3-1-9-5 1-1-1v-14l3-3 1 15 1-15 4-5 14-5 10-2h8v-2l-3 1h-12v-1l21-3z" fill="#072C1E"/>
<path transform="translate(1810,480)" d="m0 0h1l1 11v458l-1 10-2 2h-3v-7l2-6v-467z" fill="#071E16"/>
<path transform="translate(1e3 666)" d="m0 0h12l1 2-8 1-9 7v42l-1 38 1 5-2 4h2v6 3 8l-1 7 1 29h1v8l-5 4-9 2-7 1h-33l-23-2h-3l-5-1-3-3 83-1-1-38v-100l1-20z" fill="#061F16"/>
<path transform="translate(147,479)" d="m0 0 2 3-1 6-1 16v425l-1 19-2-1v-458l2-9z" fill="#072218"/>
<path transform="translate(638,622)" d="m0 0 4 2 1 6 2 43v89l-1 18-3 4 2 5v4h-2l-1 8-3 2v-10l1-4z" fill="#061D15"/>
<path transform="translate(323,819)" d="m0 0 12 1 4 2 29 4 11 1h59l32-2 10-1h16l-4 1v2h-7l-8 3-29 3h-7l-2-1v2h-3l-4-1-3-1-42-1h-18l-5-2h-8l-10-1-7-2-8-3-7-2z" fill="#062017"/>
<path transform="translate(1065,689)" d="m0 0 2 1v125h-2l-1-9v-16l-1-24-1-30 1-39z" fill="#061D15"/>
<path transform="translate(1109,826)" d="m0 0h28l9 1 1 2-17 3-19 1h-15l-25-2-2-4z" fill="#061F16"/>
<path transform="translate(1332,822)" d="m0 0h4v10l-1 5-4-2 1-4-12-2-4 2-20 2-4-1-23-1-9-2-4-1v-2l18 1h21l19-2z" fill="#061F16"/>
<path transform="translate(638,513)" d="m0 0h2l1 5 2 51-1 2h-2v2l2 1-3 7-4 2v1l-43-1-3-2 1-1 47-1 1-34z" fill="#061D15"/>
<path transform="translate(1189,932)" d="m0 0h11l19 3 24 2h57l-4 2-26 2h-27l-17-2h-11l-17-3-9-3z" fill="#062016"/>
<path transform="translate(880,696)" d="m0 0h1l3 22-1 38-2 15h-2v-73z" fill="#061D15"/>
<path transform="translate(837,826)" d="m0 0h17l-3 2-9 2-12 2-3 1-6-1-1 2-2-1h-8l-10-1h-13l-5 1-1-4 34-1 3-1z" fill="#061E15"/>
<path transform="translate(769,659)" d="m0 0h11l14 1 1 3 1 5 7 2-1 9-2-3v-2l-4-1-4-3-3-5-4-1h-11l-17-1-7 1h-2v-3z" fill="#062017"/>
<path transform="translate(809,414)" d="m0 0h147v1h-73l-1 2-7 1-19-1v-1l-47-1z" fill="#B2BAB7"/>
<path transform="translate(669,779)" d="m0 0h1l3 20 5 7 3 1 1-2 4 6 4 2 1 5 3 1-3-6h4v7l5 1 2 1-1 2-6-1v-2l-3 1-5-4-2-5-5-2-9-6-2-7v-6l-1-3v-9z" fill="#062319"/>
<path transform="translate(420,415)" d="m0 0h63v2l-33 2-3 2-5-3-11 1-2-1-9-1z" fill="#082D1F"/>
<path transform="translate(1643,820)" d="m0 0h7l-3 2-18 6-8 4-4 1-8 1-1-3h-25v-1l28-2 23-5z" fill="#062319"/>
<path transform="translate(1691,415)" d="m0 0h42l8 2v2l-7 1-9-2-7 1-10 1-3-1v-2l-3 1h-10l-5 2v-2l-6-1v-1z" fill="#0C251C"/>
<path transform="translate(1260,745)" d="m0 0 4 4 6 3 4 4v2l5 2 4 6v2h-7l-5-5h-5l-1-3h6l-1-2-5-1-5-6z" fill="#062017"/>
<path transform="translate(1258,702)" d="m0 0h3v7l-3 13-2 4 1 5-3 1v-7h-2v-12l2-10h2l1 2z" fill="#061E15"/>
<path transform="translate(513,904)" d="m0 0 8 1v3 2l9 2 4 2 6 1 15 5v1l-6 1-7-2-10-3-2-1-7-1-3-1v-2h-2v-3h-2v-2l-4-2z" fill="#062017"/>
<path transform="translate(795,735)" d="m0 0h12l-1 5-3 3-12-4-16 1h-12v-1l21-3z" fill="#062218"/>
<path transform="translate(910,677)" d="m0 0 2 1v49l-1 28h-1l-1-19v-26z" fill="#061D15"/>
<path transform="translate(1443,696)" d="m0 0 2 1v42l-4-4-1-8v-15l1-2 1-12z" fill="#061D15"/>
<path transform="translate(1212,871)" d="m0 0h7l1 1 9 1 4 2 13 2 16 1v1h-28l-18-3-4-3z" fill="#062017"/>
<path transform="translate(1e3 415)" d="m0 0h68l-4 2-8 1v-1l-21 1-34-1z" fill="#061D15"/>
<path transform="translate(631,823)" d="m0 0h1v23 1l-3 11-1 4h-2l-1 4-2 4-2-4 4-9 2-9z" fill="#062017"/>
<path transform="translate(715,415)" d="m0 0h58l-4 2-45 1-12-1z" fill="#061D15"/>
<path transform="translate(1549,834)" d="m0 0 10 1h38l-4 2h-6v2l-4 1h-13l-6-2h-8l-7-2z" fill="#061D15"/>
<path transform="translate(1780,434)" d="m0 0 6 3 3 5 3 4 6 3 6 11h-3l-2-4-3-1-1-4-10-5-2-5-3-4z" fill="#0A231A"/>
<path transform="translate(1315,608)" d="m0 0h16v2l-38 4-3-2 6-2 15-1z" fill="#062017"/>
<path transform="translate(707,672)" d="m0 0h6v2l-9 2-3 3-11 3h-3v2l-3-1v-3h3v-2z" fill="#062016"/>
<path transform="translate(1198,800)" d="m0 0 4 1 5 5 3-1 7 6 9 2-4 4-2-2-11-4-10-6-3-4z" fill="#062419"/>
<path transform="translate(288,798)" d="m0 0 8 4h3l6 5 7 2-2 4-7-3v-2h-6l-8-6z" fill="#062118"/>
<path transform="translate(579,904)" d="m0 0h2l-1 9-4 2-7 1-3 3-10 2v-3l10-3 3-3 9-2-1-5z" fill="#062117"/>
<path transform="translate(1020,661)" d="m0 0h23l4 2-5 1h-33l3-2z" fill="#082D1F"/>
<path transform="translate(429,599)" d="m0 0 2 1v11h-8l-2-1-1-4 7-5h2z" fill="#061D15"/>
<path transform="translate(1346,922)" d="m0 0h5v2l-6 1-1 2-6-1-1 7-8 2h-6l1-3 10-2 1-5z" fill="#061F16"/>
<path transform="translate(636,811)" d="m0 0 3 1-1 10v8l-2 6v6l-2-4v-15z" fill="#062017"/>
<path transform="translate(1245,621)" d="m0 0h4l-1 3-2 1h-8l1 6-11 3-4 1 2-1v-2l7-4 1-3 6-3z" fill="#062118"/>
<path transform="translate(1592,668)" d="m0 0h7l5 2 4 2 5 7v8l-2-3v-4l-4-2-2-3-13-6z" fill="#062017"/>
<path transform="translate(149,952)" d="m0 0h1l1 10 3 7-1 4-5-2-2-11 1-6z" fill="#0F271F"/>
<path transform="translate(758,828)" d="m0 0h18v3l-31 1-7-2v-1z" fill="#072C1E"/>
<path transform="translate(1278,937)" d="m0 0h22l-4 2-12 1-37-1v-1z" fill="#07251A"/>
<path transform="translate(1540,757)" d="m0 0 1 2h3v3l5 2 4 4 8 3v1h-8l-6-5-7-2z" fill="#062117"/>
<path transform="translate(441,416)" d="m0 0h42v1l-33 2-3 2-5-3z" fill="#061D15"/>
<path transform="translate(1706,689)" d="m0 0 2 4 2 27-2 5h-1v-18h-2v-17z" fill="#061D15"/>
<path transform="translate(364,827)" d="m0 0h15l9 2-1 2h-18l-5-2z" fill="#061E16"/>
<path transform="translate(878,815)" d="m0 0 3 3-2 6-4 2-20 1 1-3 22-1z" fill="#062117"/>
<path transform="translate(663,748)" d="m0 0h2v34l-2 1-1-10v-19z" fill="#061D15"/>
<path transform="translate(1381,607)" d="m0 0 8 1h10l16 2 2 2h-11l-26-2z" fill="#061D15"/>
<path transform="translate(213,416)" d="m0 0h25l-3 2-13 2h-7v-2h-6z" fill="#061D15"/>
<path transform="translate(484,896)" d="m0 0h7l10 3 5 2 4 4-9-1-8-4-5-1z" fill="#062117"/>
<path transform="translate(360,757)" d="m0 0 9 6 4 3v2l-9-1-5-5z" fill="#061F16"/>
<path transform="translate(380,668)" d="m0 0 4 1-12 4-8 4-3 4h-2v2l-3-1 1-2h2l1-4 6-4 8-3z" fill="#061F16"/>
<path transform="translate(1170,714)" d="m0 0h2v31h-2l-1-17z" fill="#FDFDFD"/>
<path transform="translate(732,666)" d="m0 0h12l-2 2-8 1-6 2-11 1-1 2v-3h3v-2z" fill="#062117"/>
<path transform="translate(1091,612)" d="m0 0 7 1 14 5 7 4-3 1-12-5-12-3z" fill="#062318"/>
<path transform="translate(276,784)" d="m0 0h3l2 5h6l1 3h2l-1 4h-3l-3-3-5-3-2-2z" fill="#062318"/>
<path transform="translate(863,625)" d="m0 0h2v3l4 2 3 5 3 3-1 2h-5l-5-9z" fill="#061F16"/>
<path transform="translate(1090,414)" d="m0 0h19l9 2v1h-23v-1l-5-1z" fill="#53645E"/>
<path transform="translate(617,867)" d="m0 0h2v10l-4 6h-2l-2 4-2-1 2-4 5-8z" fill="#061F16"/>
<path transform="translate(1526,827)" d="m0 0h9l12 2v3l-6-1h-11v-2z" fill="#062117"/>
<path transform="translate(1611,754)" d="m0 0h2v9l-3 1-2 4-4 1-1-3 5-3 1-5z" fill="#062117"/>
<path transform="translate(802,682)" d="m0 0 2 1v8l-3 1h-13v-2l9-1 4-4z" fill="#062118"/>
<path transform="translate(965,612)" d="m0 0h7l-1 2-22 3h-6l-1-2z" fill="#062218"/>
<path transform="translate(347,694)" d="m0 0 3 1v13l-2 4-3-1z" fill="#062017"/>
<path transform="translate(1167,709)" d="m0 0h2l-1 32h-1l-1-14v-10z" fill="#061D15"/>
<path transform="translate(1066,607)" d="m0 0h9l1 1 7 1 1 4-18-3z" fill="#061E15"/>
<path transform="translate(155,455)" d="m0 0 2 1-1 8-3 3-4-2 1-8 3 1 1 3v-5z" fill="#5C6F68"/>
<path transform="translate(513,904)" d="m0 0 8 1v3 2l7 1v1l-8 2v-2h-2v-3h-2v-2l-4-2z" fill="#062117"/>
<path transform="translate(776,830)" d="m0 0 4 2-1 1h-23l-1-2z" fill="#FDFDFD"/>
<path transform="translate(348,741)" d="m0 0 2 3 2 4v3l5 2 2 2-1 1h-5l-5-7z" fill="#062117"/>
<path transform="translate(174,432)" d="m0 0h5l-5 8h-5l-1 2v-5z" fill="#152D24"/>
<path transform="translate(1725,416)" d="m0 0h14l2 1v2l-7 1-9-2z" fill="#061D15"/>
<path transform="translate(1043,668)" d="m0 0h12l6 7v3h-2l-3-4v-2l-10-2z" fill="#062218"/>
<path transform="translate(1234,876)" d="m0 0 28 2v1h-28z" fill="#061E15"/>
<path transform="translate(1643,820)" d="m0 0h7l-3 2-9 3-4 2-4-1 1-2z" fill="#062017"/>
<path transform="translate(162,445)" d="m0 0 5 1-2 4-5 3h-4l2-4z" fill="#485B54"/>
<path transform="translate(1458,781)" d="m0 0h5l7 11v2l-4-2-3-3-3-6z" fill="#061F16"/>
<path transform="translate(373,608)" d="m0 0h3v3l-11 1h-11l3-2z" fill="#061F16"/>
<path transform="translate(1374,911)" d="m0 0 2 1-5 3h-2l-2 4h-6l1-4 5-1 2-2z" fill="#061F16"/>
<path transform="translate(1793,448)" d="m0 0 5 1 6 11h-3l-2-4-3-1-1-4-3-2z" fill="#061F16"/>
<path transform="translate(1206,808)" d="m0 0h5l8 4 7 1-4 4-2-2-11-4z" fill="#061F16"/>
<path transform="translate(1473,791)" d="m0 0h2l2 9 5 5v2l-3-1v-2l-4-2-3-4z" fill="#062117"/>
<path transform="translate(1254,703)" d="m0 0h2l1 10-3 1-1 11h-1v-12z" fill="#082D1F"/>
<path transform="translate(1754,423)" d="m0 0 7 1 11 4v2h-6l-6-3-4-1v-2z" fill="#1E362D"/>
<path transform="translate(1691,415)" d="m0 0 11 1v1l-10 1-5 2v-2l-6-1v-1z" fill="#061D15"/>
<path transform="translate(1346,922)" d="m0 0h5v2l-6 1-1 2-8-1v5l-2-1 1-5z" fill="#062419"/>
<path transform="translate(290,640)" d="m0 0h1l1 7-5 5-4 1v-3l3-2z" fill="#061F16"/>
<path transform="translate(1563,661)" d="m0 0h8l1 3-4 2h-4v-2l-3-1zm-1 5 2 1z" fill="#637B72"/>
<path transform="translate(631,823)" d="m0 0h1v20h-2v2l-2-1z" fill="#082D1F"/>
<path transform="translate(728,611)" d="m0 0 5 1-2 3-5 1h-11v-1l12-3z" fill="#061F16"/>
<path transform="translate(523,912)" d="m0 0h7l4 2v2l2 1-2 1-4-2-7-1z" fill="#061E16"/>
<path transform="translate(1303,872)" d="m0 0 5 1v2l-11 3-6-1v-1l12-3z" fill="#062017"/>
<path transform="translate(1680,641)" d="m0 0h2v4l4 2 1 7-3-1-4-7z" fill="#062017"/>
<path transform="translate(739,753)" d="m0 0h1v14h-3v-11z" fill="#082D1F"/>
<path transform="translate(1324,855)" d="m0 0 1 4-6 7-4-1 7-7z" fill="#062017"/>
<path transform="translate(744,769)" d="m0 0 2 3 2 6h2l1 3-6-1-1-1z" fill="#061F16"/>
<path transform="translate(1416,708)" d="m0 0 2 1 1 8h-1v5l1 3h-2l-1 2z" fill="#061D15"/>
<path transform="translate(718,703)" d="m0 0 3 1v2l-13 4-4-1 7-3z" fill="#062218"/>
<path transform="translate(738,829)" d="m0 0h19l-3 3h-9l-7-2z" fill="#061D15"/>
<path transform="translate(756,660)" d="m0 0h11v1l-9 1-5 2h-5v-3z" fill="#07251A"/>
<path transform="translate(995,607)" d="m0 0h13l-1 3h-16l1-2z" fill="#061D15"/>
<path transform="translate(420,416)" d="m0 0h20l-1 2-8 1-2-1-9-1z" fill="#061D15"/>
<path transform="translate(352,680)" d="m0 0 3 1-1 8-4 4-1-4 3-5z" fill="#062117"/>
<path transform="translate(1803,968)" d="m0 0h1l-1 7-3 5-2-3 3-7h2z" fill="#062016"/>
<path transform="translate(1240,824)" d="m0 0h10l3 1 1 3-10-1z" fill="#061F16"/>
<path transform="translate(1660,625)" d="m0 0 2 3 7 2v2h2l-1 3-5-3-5-1z" fill="#062017"/>
<path transform="translate(1805,472)" d="m0 0 5 1 1 7-3 1z" fill="#0E281F"/>
<path transform="translate(1669,804)" d="m0 0h2l-1 4-6 3-4-1 3-3 5-2z" fill="#062017"/>
<path transform="translate(1091,612)" d="m0 0 7 1 5 2v1h-9l-3-2z" fill="#061F16"/>
<path transform="translate(480,824)" d="m0 0h16l-4 1v2l-7-1-5-1z" fill="#062117"/>
<path transform="translate(1777,998)" d="m0 0 4 2-2 4h-4l-1-3z" fill="#0F261E"/>
<path transform="translate(531,855)" d="m0 0h2l-2 4-5 6h-2l1-4 4-1 1-4z" fill="#062117"/>
<path transform="translate(1409,854)" d="m0 0h1v7l-2 3h-2l1-9z" fill="#062117"/>
<path transform="translate(722,828)" d="m0 0h12l-1 3-4 1-7-3z" fill="#061D15"/>
<path transform="translate(1196,792)" d="m0 0 3 1v7h-4v-3h1l-1-4z" fill="#072A1D"/>
<path transform="translate(685,719)" d="m0 0h2v2l2 1-5 5h-4l4-5z" fill="#062117"/>
<path transform="translate(877,656)" d="m0 0 4 5-1 5h-3z" fill="#061D15"/>
<path transform="translate(1282,612)" d="m0 0 4 2-5 2h-9l3-2z" fill="#061F16"/>
<path transform="translate(985,609)" d="m0 0 4 1v2h-14l3-2z" fill="#061F16"/>
<path transform="translate(755,607)" d="m0 0 4 1 1 2-11 1 2-1v-2z" fill="#061D15"/>
<path transform="translate(197,418)" d="m0 0 3 1h-3z" fill="#FDFDFD"/>
</svg>
