<?xml version="1.0" encoding="UTF-8"?>
<svg version="1.1" xmlns="http://www.w3.org/2000/svg" width="680" height="367">
<path d="M0 0 C0.76828125 0.24202148 1.5365625 0.48404297 2.328125 0.73339844 C22.81432729 7.3218832 43.23831193 18.16323414 59 33 C59 33.66 59 34.32 59 35 C59.86625 35.39251953 59.86625 35.39251953 60.75 35.79296875 C66.51783286 38.88717075 71.07088163 43.85150007 75 49 C75.9075 49.886875 76.815 50.77375 77.75 51.6875 C80 54 80 54 80 56 C80.99 56.33 81.98 56.66 83 57 C84.38671875 58.55859375 84.38671875 58.55859375 85.6875 60.4375 C86.12449219 61.05496094 86.56148438 61.67242187 87.01171875 62.30859375 C88 64 88 64 88 66 C88.66 66 89.32 66 90 66 C90.8353125 67.485 90.8353125 67.485 91.6875 69 C93.18552409 71.62696026 94.7432727 74.19916912 96.3671875 76.75 C103.7484725 88.53174497 109.63815281 100.8045536 114 114 C114.37898438 115.13695312 114.75796875 116.27390625 115.1484375 117.4453125 C120.18591361 133.76976514 121.55928617 150.30793188 121.4375 167.3125 C121.43479095 168.20564911 121.43208191 169.09879822 121.42929077 170.01901245 C121.36661546 183.67414888 120.63833997 196.76724476 117 210 C116.81276367 210.70688965 116.62552734 211.4137793 116.43261719 212.14208984 C115.16060589 216.84018338 113.65103488 221.42278579 112 226 C111.73815918 226.73734375 111.47631836 227.4746875 111.20654297 228.234375 C106.67145926 240.87217694 100.91321923 251.99402808 93.26171875 263.0625 C92.01031401 264.98416177 90.98390001 266.9305765 90 269 C89.34 269 88.68 269 88 269 C87.7525 269.721875 87.505 270.44375 87.25 271.1875 C85.87730408 274.27606582 84.27646704 276.51011418 82 279 C81.34 279 80.68 279 80 279 C79.73445313 279.58136719 79.46890625 280.16273438 79.1953125 280.76171875 C75.90871159 286.91604007 70.41794241 291.70833314 65.1484375 296.16015625 C62.80482103 298.16714417 60.56773518 300.26938398 58.3125 302.375 C32.87233337 325.22081174 -1.1768806 338.92879694 -35 342 C-36.670625 342.16435547 -36.670625 342.16435547 -38.375 342.33203125 C-72.41278902 345.34244891 -108.96579143 339.6843575 -138.37890625 321.60546875 C-140.69307908 320.18799478 -143.02708294 318.92975834 -145.4375 317.6875 C-151.79337341 314.20690265 -157.33130097 309.47728571 -163 305 C-163.78761719 304.44570313 -164.57523437 303.89140625 -165.38671875 303.3203125 C-165.91910156 302.88460938 -166.45148438 302.44890625 -167 302 C-167 301.34 -167 300.68 -167 300 C-167.99 300 -168.98 300 -170 300 C-171.36639342 298.3603279 -172.6949419 296.68889872 -174 295 C-174.825 294.34 -175.65 293.68 -176.5 293 C-179.13802151 290.88958279 -180.92642062 288.65677358 -183 286 C-183.9075 285.113125 -184.815 284.22625 -185.75 283.3125 C-188 281 -188 281 -188 279 C-188.66 279 -189.32 279 -190 279 C-191.5078125 277.3203125 -191.5078125 277.3203125 -193.125 275.125 C-193.66382813 274.40570313 -194.20265625 273.68640625 -194.7578125 272.9453125 C-196 271 -196 271 -196 269 C-196.66 269 -197.32 269 -198 269 C-198 268.01 -198 267.02 -198 266 C-198.66 266 -199.32 266 -200 266 C-201.33203125 264.12890625 -201.33203125 264.12890625 -202.8125 261.5625 C-203.34617188 260.63953125 -203.87984375 259.7165625 -204.4296875 258.765625 C-204.94789063 257.85296875 -205.46609375 256.9403125 -206 256 C-206.41507813 255.29359375 -206.83015625 254.5871875 -207.2578125 253.859375 C-214.55392352 241.19989761 -219.78680348 227.95862398 -224 214 C-224.32307129 212.93934326 -224.64614258 211.87868652 -224.97900391 210.78588867 C-228.79608972 196.63200305 -229.54798707 182.27553814 -229.4375 167.6875 C-229.43346161 166.79069519 -229.42942322 165.89389038 -229.42526245 164.96990967 C-229.33915064 151.30531744 -228.79943078 138.20822913 -225 125 C-224.54874756 123.41324463 -224.54874756 123.41324463 -224.08837891 121.79443359 C-218.73994084 103.51735971 -211.86856813 86.08564271 -200.27734375 70.8125 C-198.81325549 68.91978685 -198.81325549 68.91978685 -198 66 C-197.01930503 64.98106066 -196.01725873 63.98243813 -195 63 C-193.67990006 61.1706627 -192.43215674 59.30446015 -191.18359375 57.42578125 C-190.79300781 56.95527344 -190.40242188 56.48476562 -190 56 C-189.34 56 -188.68 56 -188 56 C-187.7525 55.443125 -187.505 54.88625 -187.25 54.3125 C-184.63774187 49.47982245 -181.23751432 46.39001145 -177 43 C-175.66172696 41.33729713 -174.32810215 39.67083819 -173 38 C-169.48275862 35 -169.48275862 35 -167 35 C-166.67 34.01 -166.34 33.02 -166 32 C-164.37695312 30.5612793 -164.37695312 30.5612793 -162.28125 29.07421875 C-161.51296875 28.52443359 -160.7446875 27.97464844 -159.953125 27.40820312 C-159.14359375 26.84037109 -158.3340625 26.27253906 -157.5 25.6875 C-156.72140625 25.13126953 -155.9428125 24.57503906 -155.140625 24.00195312 C-152.7718816 22.31755695 -150.38934958 20.65501382 -148 19 C-147.24517334 18.47293457 -146.49034668 17.94586914 -145.71264648 17.40283203 C-140.6865716 13.96040472 -135.57989735 11.07723994 -130.0625 8.5 C-129.24837646 8.11763184 -128.43425293 7.73526367 -127.59545898 7.34130859 C-88.11845228 -10.7629418 -41.32810596 -13.28148042 0 0 Z " fill="#393939" transform="translate(394,16)"/>
<path d="M0 0 C1.65140991 0.01135986 1.65140991 0.01135986 3.33618164 0.02294922 C15.10205203 0.2622669 25.12003809 3.12585914 34.5625 10.4375 C34.5625 11.0975 34.5625 11.7575 34.5625 12.4375 C35.5525 12.7675 36.5425 13.0975 37.5625 13.4375 C37.5625 14.0975 37.5625 14.7575 37.5625 15.4375 C38.5525 15.7675 39.5425 16.0975 40.5625 16.4375 C40.5625 17.0975 40.5625 17.7575 40.5625 18.4375 C42.0475 18.9325 42.0475 18.9325 43.5625 19.4375 C56.22406834 35.09959625 58.5625 53.90313295 58.5625 73.4375 C26.2225 73.4375 -6.1175 73.4375 -39.4375 73.4375 C-37.80489351 87.15736738 -37.80489351 87.15736738 -32.4375 99.4375 C-32.4375 100.0975 -32.4375 100.7575 -32.4375 101.4375 C-31.7775 101.4375 -31.1175 101.4375 -30.4375 101.4375 C-30.1075 102.4275 -29.7775 103.4175 -29.4375 104.4375 C-27.45276401 106.26365653 -27.45276401 106.26365653 -25.0625 108 C-23.87527344 108.89912109 -23.87527344 108.89912109 -22.6640625 109.81640625 C-12.67306828 117.09055117 -2.37215427 117.47529602 9.5625 116.4375 C13.66980843 115.70898658 17.6018245 114.74219311 21.5625 113.4375 C21.5625 112.7775 21.5625 112.1175 21.5625 111.4375 C22.5525 111.1075 23.5425 110.7775 24.5625 110.4375 C29.65708981 105.50211612 32.93954412 99.99488971 35.5625 93.4375 C42.1625 93.4375 48.7625 93.4375 55.5625 93.4375 C55.5625 100.19894905 55.02296796 102.5938886 52.5625 108.4375 C51.9025 108.4375 51.2425 108.4375 50.5625 108.4375 C50.52125 109.118125 50.48 109.79875 50.4375 110.5 C47.96385693 118.80437316 39.26339535 124.58145521 32.18359375 128.8828125 C21.62435528 134.54378465 10.96738714 135.92083651 -0.875 135.75 C-2.01904297 135.75322266 -3.16308594 135.75644531 -4.34179688 135.75976562 C-9.62174675 135.72582089 -13.55983457 135.55261164 -18.4375 133.4375 C-20.2628125 133.06625 -20.2628125 133.06625 -22.125 132.6875 C-27.51289001 131.39643956 -31.8570685 128.45879439 -36.4375 125.4375 C-37.12585938 124.98761719 -37.81421875 124.53773438 -38.5234375 124.07421875 C-41.7405727 121.88195152 -44.45166962 119.82509301 -46.4375 116.4375 C-46.4375 115.7775 -46.4375 115.1175 -46.4375 114.4375 C-47.4275 114.1075 -48.4175 113.7775 -49.4375 113.4375 C-60.96587359 96.30243105 -63.8837521 72.15017721 -61.12109375 52.14648438 C-60.29421123 48.08833765 -58.94928978 44.28388973 -57.4375 40.4375 C-57.07527344 39.3959375 -56.71304688 38.354375 -56.33984375 37.28125 C-51.29749038 23.74381317 -41.20063338 13.01501998 -28.3828125 6.4453125 C-26.20774815 5.3636178 -26.20774815 5.3636178 -23.4375 3.4375 C-15.69385446 0.57490033 -8.19587189 -0.0790417 0 0 Z " fill="#FCFCFC" transform="translate(273.4375,115.5625)"/>
<path d="M0 0 C3.95092059 -0.07409401 7.90157294 -0.12857406 11.85302734 -0.16479492 C13.85919374 -0.18732251 15.86516526 -0.2254357 17.87109375 -0.26367188 C19.12792969 -0.27333984 20.38476562 -0.28300781 21.6796875 -0.29296875 C22.84226074 -0.3086792 24.00483398 -0.32438965 25.20263672 -0.34057617 C26.1257666 -0.22818604 27.04889648 -0.1157959 28 0 C30 3 30 3 30 6 C30.99 6.33 31.98 6.66 33 7 C33.69937532 8.31647119 34.36729133 9.65022151 35 11 C35.66 11.33 36.32 11.66 37 12 C38.0703125 13.55859375 38.0703125 13.55859375 39.125 15.4375 C39.47820312 16.05496094 39.83140625 16.67242187 40.1953125 17.30859375 C41 19 41 19 41 21 C41.66 21 42.32 21 43 21 C43 21.99 43 22.98 43 24 C43.66 24 44.32 24 45 24 C46.2265625 25.765625 46.2265625 25.765625 47.625 28.25 C50.05567546 32.43483288 52.58758241 36.52046603 55.25 40.5625 C55.91515625 41.57441406 56.5803125 42.58632812 57.265625 43.62890625 C58.78209484 46.081833 58.78209484 46.081833 61 47 C61.25652344 46.27039063 61.51304687 45.54078125 61.77734375 44.7890625 C63.05425605 41.87623379 64.54725787 39.82358229 66.5625 37.375 C68.67486686 34.80151356 69.93885026 33.18344921 71 30 C71.99846744 28.99846978 72.99886814 27.99886686 74 27 C75.576318 24.82910592 77.11413022 22.65263004 78.625 20.4375 C79.03234375 19.84775391 79.4396875 19.25800781 79.859375 18.65039062 C82.08591643 15.41946605 82.08591643 15.41946605 84 12 C84.66 12 85.32 12 86 12 C86 11.01 86 10.02 86 9 C86.66 9 87.32 9 88 9 C88.4021875 7.88625 88.4021875 7.88625 88.8125 6.75 C90.00689854 3.98402444 90.89479654 2.15083935 93 0 C95.8190918 -0.45410156 95.8190918 -0.45410156 99.19921875 -0.390625 C100.40771484 -0.37773438 101.61621094 -0.36484375 102.86132812 -0.3515625 C104.12396484 -0.31804687 105.38660156 -0.28453125 106.6875 -0.25 C107.96173828 -0.23195313 109.23597656 -0.21390625 110.54882812 -0.1953125 C113.69996841 -0.14810441 116.8496114 -0.08226384 120 0 C118.04060713 4.09134591 116.24701254 6.8544566 113 10 C112.46375 10.9075 111.9275 11.815 111.375 12.75 C110.92125 13.4925 110.4675 14.235 110 15 C109.34 15 108.68 15 108 15 C108 15.99 108 16.98 108 18 C107.0246803 19.02408568 106.01801357 20.01834406 105 21 C104.01 22.485 104.01 22.485 103 24 C101 27 101 27 99.66015625 28.26953125 C96.7302197 31.32355923 94.54930817 34.99733604 92.22851562 38.52539062 C91.20077472 40.05070225 90.10522482 41.52986225 89 43 C88.34 43 87.68 43 87 43 C86.731875 43.7425 86.46375 44.485 86.1875 45.25 C85.04723249 47.89061949 83.90619694 49.85552844 82 52 C81.34 52 80.68 52 80 52 C80 52.99 80 53.98 80 55 C79.34 55 78.68 55 78 55 C77.71125 55.7425 77.4225 56.485 77.125 57.25 C76.17697356 59.56739797 75.15154089 61.77917115 74 64 C74.66 64 75.32 64 76 64 C77.2890625 65.6796875 77.2890625 65.6796875 78.625 67.875 C79.07101562 68.59429687 79.51703125 69.31359375 79.9765625 70.0546875 C81 72 81 72 81 74 C81.66 74 82.32 74 83 74 C83 74.99 83 75.98 83 77 C83.66 77 84.32 77 85 77 C86.21875 78.71484375 86.21875 78.71484375 87.5 80.9375 C89.18454879 84.05432026 89.18454879 84.05432026 92 86 C92.94730162 87.65777783 93.89083856 89.31784671 94.81298828 90.98974609 C96.01016151 93.01720893 97.31667672 94.85354715 98.7421875 96.7265625 C99.27005859 97.42241455 99.79792969 98.1182666 100.34179688 98.83520508 C101.96225961 100.95072968 103.58608755 103.06362511 105.2109375 105.17578125 C106.265625 106.5546875 107.3203125 107.93359375 108.375 109.3125 C108.92027344 110.01439453 109.46554687 110.71628906 110.02734375 111.43945312 C110.54167969 112.11556641 111.05601562 112.79167969 111.5859375 113.48828125 C112.0504834 114.09196533 112.5150293 114.69564941 112.99365234 115.31762695 C114 117 114 117 114 120 C115.485 120.495 115.485 120.495 117 121 C118.75390625 123.3984375 118.75390625 123.3984375 120.5625 126.375 C121.16191406 127.35210937 121.76132812 128.32921875 122.37890625 129.3359375 C122.91386719 130.21507812 123.44882812 131.09421875 124 132 C124.66 132.99 125.32 133.98 126 135 C122.01763976 135.27420913 118.03899406 135.47247272 114.04931641 135.60424805 C112.03482031 135.68608545 110.02295083 135.82595153 108.01171875 135.96679688 C98.38511032 136.23285892 98.38511032 136.23285892 94.3125 132.60791016 C91.56604406 128.88732063 89.46367715 125.39103146 88 121 C87.34 120.67 86.68 120.34 86 120 C84.88669319 117.98213141 83.9579613 115.90804034 83 113.8125 C82.12855431 111.82798477 82.12855431 111.82798477 80 111 C79.21979127 109.71718489 78.49987238 108.3973631 77.8125 107.0625 C74.37904431 100.69333812 70.26728714 94.83410893 65.75 89.1875 C61 83.25 61 83.25 61 80 C60.01 80 59.02 80 58 80 C57.896875 80.556875 57.79375 81.11375 57.6875 81.6875 C56.85821592 84.4769101 55.65700944 86.6139064 54 89 C53.34 89 52.68 89 52 89 C51.896875 89.556875 51.79375 90.11375 51.6875 90.6875 C50.85821592 93.4769101 49.65700944 95.6139064 48 98 C47.34 98 46.68 98 46 98 C45.87923096 98.58789307 45.75846191 99.17578613 45.6340332 99.78149414 C44.98548512 102.05078811 44.16912316 103.54837415 42.85546875 105.49609375 C42.21061523 106.45805664 42.21061523 106.45805664 41.55273438 107.43945312 C41.10220703 108.09880859 40.65167969 108.75816406 40.1875 109.4375 C39.74857422 110.09298828 39.30964844 110.74847656 38.85742188 111.42382812 C36.38521112 115.08622653 33.777714 118.56033634 31 122 C30.29114106 123.31138904 29.60543548 124.63777017 29 126 C28.34 126 27.68 126 27 126 C26.896875 126.556875 26.79375 127.11375 26.6875 127.6875 C25.82131695 130.6010248 24.86868222 132.58270929 23 135 C20.1809082 135.56762695 20.1809082 135.56762695 16.80078125 135.48828125 C14.98803711 135.46411133 14.98803711 135.46411133 13.13867188 135.43945312 C11.87603516 135.39755859 10.61339844 135.35566406 9.3125 135.3125 C7.40114258 135.27866211 7.40114258 135.27866211 5.45117188 135.24414062 C2.2996104 135.18512262 -0.84961279 135.10282975 -4 135 C-0.20068431 127.27780546 5.08475879 120.44351478 10.171875 113.53125 C11.64528401 111.49114521 13.03138407 109.43822073 14.375 107.3125 C14.91125 106.549375 15.4475 105.78625 16 105 C16.66 105 17.32 105 18 105 C18.10441406 104.43796875 18.20882813 103.8759375 18.31640625 103.296875 C19.12613235 100.57619529 20.36203338 98.60742193 21.9375 96.25 C22.46214844 95.45078125 22.98679687 94.6515625 23.52734375 93.828125 C24.01332031 93.22484375 24.49929688 92.6215625 25 92 C25.66 92 26.32 92 27 92 C27.0721875 91.46632813 27.144375 90.93265625 27.21875 90.3828125 C28.30890391 87.05784307 30.36553139 84.59099566 32.5 81.875 C35.51409067 78.11033356 35.51409067 78.11033356 38 74 C38.66 74 39.32 74 40 74 C40.0825 73.443125 40.165 72.88625 40.25 72.3125 C41.22610013 69.30285794 42.95188814 67.37845248 45 65 C43.4469385 61.6086208 41.4606489 58.74894231 39.25 55.75 C38.54359375 54.78707031 37.8371875 53.82414062 37.109375 52.83203125 C34.78598406 49.71266379 32.42668626 46.62296832 30.03125 43.55859375 C29 42 29 42 29 40 C28.34 40 27.68 40 27 40 C27 39.01 27 38.02 27 37 C25.515 36.505 25.515 36.505 24 36 C22.45703125 33.84765625 22.45703125 33.84765625 20.8125 31.0625 C17.744066 26.0336776 14.33017089 21.56619596 10.50390625 17.09375 C9 15 9 15 9 12 C8.01 11.67 7.02 11.34 6 11 C4.90234375 9.40625 4.90234375 9.40625 3.9375 7.5 C2.57554472 4.66980932 2.57554472 4.66980932 0 3 C0 2.01 0 1.02 0 0 Z " fill="#FCFCFC" transform="translate(342,116)"/>
<path d="M0 0 C6.10027523 3.95187458 9.66345061 7.55183885 12.98046875 14.06640625 C13.59148437 15.22269531 14.2025 16.37898438 14.83203125 17.5703125 C16.35546875 21.50390625 16.35546875 21.50390625 17.35546875 31.50390625 C-7.39453125 31.50390625 -32.14453125 31.50390625 -57.64453125 31.50390625 C-55.31268412 17.51282345 -55.31268412 17.51282345 -50.64453125 10.50390625 C-50.20496094 9.8078125 -49.76539063 9.11171875 -49.3125 8.39453125 C-48.01953125 6.44140625 -48.01953125 6.44140625 -45.64453125 3.50390625 C-44.65453125 3.50390625 -43.66453125 3.50390625 -42.64453125 3.50390625 C-42.31453125 2.51390625 -41.98453125 1.52390625 -41.64453125 0.50390625 C-29.37486085 -8.69834655 -12.79813703 -7.240305 0 0 Z " fill="#393939" transform="translate(291.64453125,139.49609375)"/>
<path d="M0 0 C2.475 0.99 2.475 0.99 5 2 C1.55549263 4.29633824 -0.93812283 4.54016485 -5 5 C-4.360625 4.731875 -3.72125 4.46375 -3.0625 4.1875 C-0.66868314 3.11332248 -0.66868314 3.11332248 0 0 Z " fill="#424242" transform="translate(256,114)"/>
<path d="M0 0 C0.66 0 1.32 0 2 0 C2 0.66 2 1.32 2 2 C2.66 2 3.32 2 4 2 C4 3.98 4 5.96 4 8 C3.67 7.34 3.34 6.68 3 6 C2.34 6 1.68 6 1 6 C0.67 4.02 0.34 2.04 0 0 Z " fill="#3F3F3F" transform="translate(203,289)"/>
<path d="M0 0 C0.66 0.33 1.32 0.66 2 1 C1.67 2.65 1.34 4.3 1 6 C-0.32 6 -1.64 6 -3 6 C-2 4 -1 2 0 0 Z " fill="#323232" transform="translate(419,173)"/>
</svg>
