<?xml version="1.0" encoding="UTF-8"?>
<svg version="1.1" xmlns="http://www.w3.org/2000/svg" width="500" height="500">
<path d="M0 0 C0.72121033 -0.00067474 1.44242065 -0.00134949 2.18548584 -0.00204468 C22.89180678 0.02846198 42.78017008 2.81371817 62.90673828 7.65771484 C65.05762755 8.17384317 67.21223288 8.66324239 69.37109375 9.14453125 C80.84780575 11.89743369 91.58651402 16.5348468 102.375 21.25 C103.21675781 21.61786621 104.05851562 21.98573242 104.92578125 22.36474609 C121.16375533 29.5546465 136.2740286 38.43537069 150.375 49.25 C151.10332031 49.78625 151.83164062 50.3225 152.58203125 50.875 C158.51811033 55.3243854 163.88527558 60.32688405 169.29296875 65.390625 C171.724025 67.66247409 174.21010452 69.84971955 176.75 72 C179.95949744 74.78156445 182.72079178 77.78280854 185.4609375 81.0234375 C187.69692691 83.62448641 190.03594584 86.11634675 192.375 88.625 C196.87324261 93.55877593 200.66975267 98.70985746 204.375 104.25 C205.47744632 105.79289736 206.58165716 107.33453521 207.6875 108.875 C216.40377951 121.43268234 223.42521773 134.03726111 229.44238281 148.10302734 C230.58214678 150.72687142 231.81980378 153.29858204 233.0625 155.875 C238.35355981 167.65304409 241.71314017 179.93882593 244.5625 192.5 C244.80025146 193.53253906 245.03800293 194.56507813 245.28295898 195.62890625 C249.24512064 213.8018731 250.9367436 231.85688947 250.8125 250.4375 C250.80793793 251.90044495 250.80793793 251.90044495 250.80328369 253.39294434 C250.73013124 269.33497761 249.69215663 284.61488092 246.375 300.25 C246.06151611 301.80823486 246.06151611 301.80823486 245.74169922 303.39794922 C239.29015641 334.98876223 226.49121174 366.14978605 207.375 392.25 C206.59256633 393.37066441 205.8127995 394.49319367 205.03515625 395.6171875 C200.55709894 402.05668628 195.94884733 408.08144357 190.58203125 413.82421875 C188.25847456 416.37807487 186.13567415 419.03773177 184 421.75 C179.31078014 427.54400988 173.99484274 432.37667369 168.375 437.25 C167.69695312 437.86488281 167.01890625 438.47976563 166.3203125 439.11328125 C156.76443631 447.73736039 146.08965836 455.14448972 135.375 462.25 C134.32828125 462.94609375 133.2815625 463.6421875 132.203125 464.359375 C110.04430815 478.56843075 84.57850807 488.66191973 59 494.5 C57.97382568 494.73452881 56.94765137 494.96905762 55.89038086 495.21069336 C38.58133586 498.93055526 21.39038064 500.76051325 3.69775391 500.64111328 C0.87483461 500.62499906 -1.94665393 500.64110586 -4.76953125 500.66015625 C-22.54344581 500.68168664 -39.92103612 498.45604244 -57.25 494.5 C-58.94346558 494.11702759 -58.94346558 494.11702759 -60.67114258 493.72631836 C-76.64821482 489.98276969 -91.79313713 484.21693458 -106.625 477.25 C-107.60629883 476.79222168 -107.60629883 476.79222168 -108.60742188 476.32519531 C-130.84750067 465.85608505 -150.6575709 451.84427807 -168.578125 435.07421875 C-170.9978982 432.81481893 -173.47327227 430.63988376 -176 428.5 C-179.21691117 425.71201032 -181.98387634 422.70463529 -184.7265625 419.453125 C-186.07681815 417.88616165 -187.47300829 416.35827994 -188.8984375 414.859375 C-196.11960227 407.25095534 -201.87245748 398.99249192 -207.625 390.25 C-208.4295043 389.04675249 -209.23418417 387.84362234 -210.0390625 386.640625 C-231.54404347 354.1959552 -244.19699756 316.83455707 -248.625 278.25 C-248.7192627 277.43708496 -248.81352539 276.62416992 -248.91064453 275.78662109 C-249.74520633 267.74407296 -249.86709401 259.70329613 -249.875 251.625 C-249.87600708 250.90511902 -249.87701416 250.18523804 -249.87805176 249.44354248 C-249.85918081 229.33211246 -247.32698703 209.79815358 -242.625 190.25 C-242.44743164 189.48558594 -242.26986328 188.72117188 -242.08691406 187.93359375 C-237.85911263 169.87688747 -231.45279122 152.61098046 -222.69775391 136.25537109 C-221.96043134 134.87704438 -221.23137472 133.49427392 -220.50927734 132.10791016 C-214.21326505 120.03011763 -206.8290806 109.10758344 -198.625 98.25 C-197.96628906 97.35667969 -197.30757812 96.46335937 -196.62890625 95.54296875 C-192.50401986 90.05301204 -187.86023401 85.05251626 -183.18359375 80.03515625 C-181.2425643 77.92224939 -179.41530848 75.79908828 -177.625 73.5625 C-174.36799337 69.69714443 -170.41987118 66.70582749 -166.4765625 63.5703125 C-163.79534723 61.38861131 -161.27423806 59.10979258 -158.75 56.75 C-153.62037166 52.08964365 -148.07376597 48.17292769 -142.30175781 44.36181641 C-140.6881694 43.29188606 -139.08980675 42.19910088 -137.4921875 41.10546875 C-96.82799358 13.91435113 -48.78059567 0.04140014 0 0 Z M-134.625 101.25 C-135.7588017 104.87816543 -135.82967449 106.63597653 -134.625 110.25 C-133.965 110.25 -133.305 110.25 -132.625 110.25 C-132.13 111.735 -132.13 111.735 -131.625 113.25 C-129.62834686 114.93538601 -129.62834686 114.93538601 -127.625 116.25 C-127.85204101 120.26687944 -128.26519439 121.88289724 -131.12890625 124.8046875 C-132.13824219 125.57039063 -133.14757812 126.33609375 -134.1875 127.125 C-135.19941406 127.90617187 -136.21132812 128.68734375 -137.25390625 129.4921875 C-138.03636719 130.07226562 -138.81882812 130.65234375 -139.625 131.25 C-139.45742187 131.90226562 -139.28984375 132.55453125 -139.1171875 133.2265625 C-136.97289979 142.42799962 -136.97289979 142.42799962 -139.625 147.25 C-141.52418067 148.71090821 -143.20193355 149.15772625 -145.5234375 149.6640625 C-150.00933989 150.64795931 -152.72062399 151.41622366 -155.625 155.25 C-155.955 156.24 -156.285 157.23 -156.625 158.25 C-155.965 159.24 -155.305 160.23 -154.625 161.25 C-149.17020815 160.68179252 -144.71440744 159.30362055 -139.625 157.25 C-139.625 157.91 -139.625 158.57 -139.625 159.25 C-140.53378906 159.48783203 -140.53378906 159.48783203 -141.4609375 159.73046875 C-150.15598851 162.15170603 -160.98513859 165.4868861 -166.03125 173.4765625 C-168.84056579 178.6425821 -170.19187657 182.26276433 -169.625 188.25 C-168.58256926 190.97254956 -167.47139841 193.54922202 -166.25 196.1875 C-161.06797731 208.13307943 -158.31457725 220.72756764 -155.39111328 233.36889648 C-151.66610237 249.26508825 -146.29066815 264.36047844 -139.4375 279.1875 C-138.97827148 280.18547607 -138.51904297 281.18345215 -138.04589844 282.21166992 C-133.62855577 291.59815076 -128.45992264 300.44133536 -122.91748047 309.20117188 C-121.8012596 310.97059491 -120.71243692 312.75724705 -119.62890625 314.546875 C-116.15030252 320.23475361 -112.23423332 325.33457468 -107.9375 330.4296875 C-105.57603761 333.30971427 -103.41802147 336.28501288 -101.25 339.3125 C-96.68402593 345.44802766 -91.46309425 350.34050995 -85.625 355.25 C-84.70332031 356.03375 -83.78164062 356.8175 -82.83203125 357.625 C-71.84944873 366.79522405 -60.11469811 374.32092264 -47.625 381.25 C-46.71886963 381.75345947 -46.71886963 381.75345947 -45.79443359 382.26708984 C-21.13565588 395.62888566 8.14169626 398.59377131 35.625 401 C36.36457947 401.06529907 37.10415894 401.13059814 37.8661499 401.19787598 C51.05101068 402.33966076 63.98847128 402.55791889 77.1875 401.4375 C78.78549438 401.30275269 78.78549438 401.30275269 80.41577148 401.1652832 C104.09458219 399.29648012 104.09458219 399.29648012 126.9375 393.23828125 C131.41412568 391.95125137 135.91882802 391.43127601 140.4375 392.9375 C143.15513908 393.37582888 144.86346763 392.14536883 147.30444336 391.05834961 C150.96264733 389.63017919 154.78341088 388.95266898 158.625 388.1875 C160.21475682 387.86929305 161.80336933 387.54530082 163.390625 387.21484375 C164.08446289 387.0768335 164.77830078 386.93882324 165.49316406 386.79663086 C167.68032189 386.26354048 167.68032189 386.26354048 170.375 384.25 C170.85058206 382.348006 170.85058206 382.348006 170.75 380.25 C170.75773437 379.54875 170.76546875 378.8475 170.7734375 378.125 C170.515914 375.83941406 170.515914 375.83941406 167.375 374.25 C165.03914694 373.9159277 165.03914694 373.9159277 162.4453125 373.90625 C161.48496094 373.87660156 160.52460938 373.84695313 159.53515625 373.81640625 C158.03275391 373.78353516 158.03275391 373.78353516 156.5 373.75 C154.52323187 373.70641367 152.54662453 373.6546003 150.5703125 373.59375 C149.25571045 373.56571289 149.25571045 373.56571289 147.91455078 373.53710938 C145.11958175 373.22112364 142.93061541 372.3995967 140.375 371.25 C139.96636719 371.73855469 139.55773437 372.22710937 139.13671875 372.73046875 C136.43146502 375.06382507 134.19132937 374.59306532 130.75 374.48828125 C127.9850815 374.21087989 125.43303355 373.46561256 122.76953125 372.6953125 C117.39669776 371.69612324 111.81798128 372.11239654 106.375 372.25 C106.89768547 368.44092962 107.71057294 366.44800015 110.375 363.6875 C112.71195126 361.25504833 113.78914706 359.59668493 114.375 356.25 C113.715 355.92 113.055 355.59 112.375 355.25 C112.045 356.24 111.715 357.23 111.375 358.25 C111.375 356.93 111.375 355.61 111.375 354.25 C104.44511948 354.39437251 101.17739407 357.47255343 96.375 362.25 C97.035 362.58 97.695 362.91 98.375 363.25 C98.375 364.24 98.375 365.23 98.375 366.25 C97.653125 365.981875 96.93125 365.71375 96.1875 365.4375 C95.259375 365.375625 94.33125 365.31375 93.375 365.25 C92.694375 366.075 92.01375 366.9 91.3125 367.75 C87.94933173 370.61227086 87.34766392 370.61695346 83.125 370.375 C65.58153464 368.05874785 46.94667551 361.15885622 31.96875 351.859375 C29.6268135 350.40624573 27.26179197 349.13414305 24.8125 347.875 C19.10502503 344.72249578 14.29381165 340.49395347 9.375 336.25 C8.51519531 335.52554688 7.65539062 334.80109375 6.76953125 334.0546875 C1.43151712 329.43668458 -3.05694416 324.52140287 -7.41796875 318.9765625 C-9.50024975 316.40411624 -11.70047421 314.06462968 -14 311.6875 C-45.69030579 276.77821393 -49.92965184 218.05804241 -48.625 173.25 C-48.13 171.765 -48.13 171.765 -47.625 170.25 C-41.51062288 167.48684934 -37.27156706 168.72186447 -31.0625 170.6875 C-23.46953341 173.10923346 -23.46953341 173.10923346 -15.625 172.25 C-15.955 170.93 -16.285 169.61 -16.625 168.25 C-16.955 169.24 -17.285 170.23 -17.625 171.25 C-18.94118998 170.46448343 -20.25285228 169.6713763 -21.5625 168.875 C-22.65884766 168.21371094 -22.65884766 168.21371094 -23.77734375 167.5390625 C-25.625 166.25 -25.625 166.25 -26.625 164.25 C-24.315 164.58 -22.005 164.91 -19.625 165.25 C-26.99391139 158.38928939 -37.24870439 155.54657407 -46.61035156 152.39306641 C-52.02301465 150.55145002 -56.9282239 148.45188307 -61.625 145.125 C-64.75530275 143.16856078 -66.98491396 142.59667486 -70.625 142.25 C-70.810625 141.321875 -70.99625 140.39375 -71.1875 139.4375 C-72.34935924 136.06459845 -72.34935924 136.06459845 -75.375 134.5625 C-80.23756882 132.82513397 -85.36709374 131.91627363 -90.41796875 130.8984375 C-92.8439962 130.40791307 -95.23257294 129.87927362 -97.625 129.25 C-97.29947917 127.23177083 -96.97395833 125.21354167 -96.6484375 123.1953125 C-96.64070313 122.55335937 -96.63296875 121.91140625 -96.625 121.25 C-98.97829129 118.89670871 -99.52388239 118.97980522 -102.72265625 118.87109375 C-103.52380859 118.83693359 -104.32496094 118.80277344 -105.15039062 118.76757812 C-105.98763672 118.74115234 -106.82488281 118.71472656 -107.6875 118.6875 C-116.50506757 118.36993243 -116.50506757 118.36993243 -117.625 117.25 C-117.61586312 113.71859411 -117.49152953 110.19708803 -117.3671875 106.66796875 C-117.64086198 103.03970861 -117.98841392 101.70208457 -120.625 99.25 C-126.18604115 97.88253086 -129.84015342 97.63218917 -134.625 101.25 Z " fill="#020202" transform="translate(249.625,-0.25)"/>
<path d="M0 0 C1.875 0.9375 1.875 0.9375 2.98046875 3.1015625 C3.99120948 6.30591958 4.10670131 8.89471896 4.0625 12.25 C4.04832031 13.38695312 4.03414063 14.52390625 4.01953125 15.6953125 C3.89942506 18.38958641 3.65468683 20.96284324 3.25 23.625 C3.064375 25.2646875 3.064375 25.2646875 2.875 26.9375 C3.865 27.9275 3.865 27.9275 4.875 28.9375 C5.0703125 31.06054688 5.0703125 31.06054688 5 33.65625 C4.98453125 34.58824219 4.9690625 35.52023438 4.953125 36.48046875 C4.90104167 38.45182292 4.84895833 40.42317708 4.796875 42.39453125 C4.78140625 43.32652344 4.7659375 44.25851563 4.75 45.21875 C4.72679687 46.07533203 4.70359375 46.93191406 4.6796875 47.81445312 C4.6669251 50.15566225 4.6669251 50.15566225 6.875 51.9375 C7.08858801 55.78208427 7.05381287 59.25370978 5.875 62.9375 C7.36 63.4325 7.36 63.4325 8.875 63.9375 C8.565625 65.3296875 8.565625 65.3296875 8.25 66.75 C7.50807034 70.08923402 7.50807034 70.08923402 9.875 72.9375 C10.4019361 74.7362354 10.8613258 76.55523493 11.27734375 78.3828125 C11.52806641 79.46046875 11.77878906 80.538125 12.03710938 81.6484375 C12.29298828 82.77507812 12.54886719 83.90171875 12.8125 85.0625 C14.50970288 92.49373103 16.30942203 99.75543246 18.875 106.9375 C19.205 107.9275 19.535 108.9175 19.875 109.9375 C17.9375 112.625 17.9375 112.625 15.875 114.9375 C16.638125 115.35 17.40125 115.7625 18.1875 116.1875 C20.875 117.9375 20.875 117.9375 22.5 120.125 C22.95375 120.723125 23.4075 121.32125 23.875 121.9375 C24.865 121.9375 25.855 121.9375 26.875 121.9375 C28.2677289 123.55486259 29.59437515 125.2300002 30.875 126.9375 C31.514375 127.515 32.15375 128.0925 32.8125 128.6875 C34.74094265 130.79125562 35.76270412 132.49388672 37.0625 135 C40.63029597 141.69238748 45.53372252 147.81580914 51.07421875 152.9921875 C53.06153471 155.13900604 53.50457887 156.43308794 54.125 159.25 C56.19061412 166.03861291 61.431602 169.78687011 67.5 173.0625 C72.41842561 175.33555726 77.58259918 177.03377308 82.703125 178.7890625 C87.21128246 180.42132641 89.93634323 181.66004401 92.9375 185.4375 C94.88372186 187.87414912 96.20893182 189.16012121 98.875 190.9375 C102.00021833 191.10449232 102.00021833 191.10449232 104.875 190.9375 C104.875 191.5975 104.875 192.2575 104.875 192.9375 C108.175 192.9375 111.475 192.9375 114.875 192.9375 C115.205 194.2575 115.535 195.5775 115.875 196.9375 C117.56640267 197.94564174 117.56640267 197.94564174 119.69140625 198.421875 C120.45517578 198.63457031 121.21894531 198.84726562 122.00585938 199.06640625 C123.20952148 199.37384766 123.20952148 199.37384766 124.4375 199.6875 C125.64696289 200.01814453 125.64696289 200.01814453 126.88085938 200.35546875 C128.87478327 200.8981936 130.87441917 201.41985236 132.875 201.9375 C132.875 202.9275 132.875 203.9175 132.875 204.9375 C120.97289903 208.90486699 107.83450416 203.2185332 97.1796875 197.98828125 C93.05656869 196.10841861 89.462263 195.75597056 84.9375 195.6875 C83.91785156 195.66171875 82.89820313 195.6359375 81.84765625 195.609375 C78.46178655 195.98311095 76.72742072 197.15180004 73.875 198.9375 C72.555 198.9375 71.235 198.9375 69.875 198.9375 C68.20274271 199.24154678 66.53419896 199.56878912 64.875 199.9375 C64.17375 198.9475 63.4725 197.9575 62.75 196.9375 C61.42244393 195.24690218 61.42244393 195.24690218 59.875 193.9375 C56.91682893 193.68744614 56.91682893 193.68744614 53.875 193.9375 C50.5 192.4375 50.5 192.4375 47.875 190.9375 C47.875 190.2775 47.875 189.6175 47.875 188.9375 C45.895 189.2675 43.915 189.5975 41.875 189.9375 C41.875 188.9475 41.875 187.9575 41.875 186.9375 C43.525 186.9375 45.175 186.9375 46.875 186.9375 C47.184375 186.31875 47.49375 185.7 47.8125 185.0625 C48.5 183.6875 49.1875 182.3125 49.875 180.9375 C49.19695312 180.97230469 48.51890625 181.00710938 47.8203125 181.04296875 C40.03285984 181.26947361 32.69044119 180.75365897 26.25 176 C24.875 173.9375 24.875 173.9375 24.875 169.9375 C26.133125 170.06125 27.39125 170.185 28.6875 170.3125 C29.74904297 170.41691406 29.74904297 170.41691406 30.83203125 170.5234375 C32.875 170.9375 32.875 170.9375 35.875 172.9375 C35.215 173.5975 34.555 174.2575 33.875 174.9375 C37.70017513 177.32823445 41.47165524 177.49716552 45.875 177.9375 C39.68273797 170.45103529 33.03833196 162.69681568 23.875 158.9375 C23.545 159.2675 23.215 159.5975 22.875 159.9375 C16.01190431 160.87198401 10.89132146 159.12344801 4.875 155.9375 C4.875 155.6075 4.875 155.2775 4.875 154.9375 C6.29155793 154.9102585 7.70827045 154.89099533 9.125 154.875 C9.91390625 154.86339844 10.7028125 154.85179687 11.515625 154.83984375 C13.78897859 154.93393951 15.68629768 155.35398066 17.875 155.9375 C17.20968262 155.66075439 16.54436523 155.38400879 15.85888672 155.09887695 C12.81793382 153.82673881 9.78403293 152.53855013 6.75 151.25 C5.17992187 150.59741211 5.17992187 150.59741211 3.578125 149.93164062 C-2.05995136 147.52296876 -6.74220866 145.26721256 -11.125 140.9375 C-11.125 140.6075 -11.125 140.2775 -11.125 139.9375 C-10.031875 140.123125 -8.93875 140.30875 -7.8125 140.5 C-4.18875867 141.1953068 -4.18875867 141.1953068 -1.125 139.9375 C-0.795 140.9275 -0.465 141.9175 -0.125 142.9375 C0.865 142.9375 1.855 142.9375 2.875 142.9375 C3.865 143.2675 4.855 143.5975 5.875 143.9375 C5.875 144.5975 5.875 145.2575 5.875 145.9375 C7.525 146.2675 9.175 146.5975 10.875 146.9375 C10.42144521 142.061786 9.50428114 139.29458506 5.875 135.9375 C3.89381727 135.20386156 3.89381727 135.20386156 1.6875 134.625 C-4.11636877 132.97639276 -8.03275981 129.2522497 -12.125 124.9375 C-12.125 124.6075 -12.125 124.2775 -12.125 123.9375 C-10.990625 123.628125 -9.85625 123.31875 -8.6875 123 C-5.33724901 122.30825469 -5.33724901 122.30825469 -4.125 120.9375 C-3.53536322 118.69525342 -3.53536322 118.69525342 -4.125 115.9375 C-5.92260027 113.40618534 -7.96744313 111.16569118 -10.125 108.9375 C-9.135 112.8975 -9.135 112.8975 -8.125 116.9375 C-12.125 115.9375 -12.125 115.9375 -13.21484375 114.16015625 C-13.49457031 113.44730469 -13.77429688 112.73445313 -14.0625 112 C-15.61445082 108.51050732 -15.61445082 108.51050732 -18.875 106.4375 C-19.6175 106.2725 -20.36 106.1075 -21.125 105.9375 C-21.455 107.5875 -21.785 109.2375 -22.125 110.9375 C-23.115 110.6075 -24.105 110.2775 -25.125 109.9375 C-25.125 108.9475 -25.125 107.9575 -25.125 106.9375 C-28.095 107.4325 -28.095 107.4325 -31.125 107.9375 C-30.465 109.5875 -29.805 111.2375 -29.125 112.9375 C-31.635922 113.8553626 -32.87126866 114.01631833 -35.45922852 113.21240234 C-38.2097789 111.9272464 -40.95559034 110.63695046 -43.6875 109.3125 C-44.64591797 108.87292969 -45.60433594 108.43335938 -46.59179688 107.98046875 C-47.51154297 107.54089844 -48.43128906 107.10132813 -49.37890625 106.6484375 C-50.63682983 106.04974854 -50.63682983 106.04974854 -51.92016602 105.43896484 C-54.59669246 103.61628323 -55.69253767 101.81554035 -57.125 98.9375 C-57.49609375 96.796875 -57.49609375 96.796875 -57.5625 94.6875 C-58.04552641 89.12340727 -59.45482504 83.36611879 -63.72265625 79.484375 C-65.51041295 78.24038169 -65.51041295 78.24038169 -68.125 76.9375 C-67.135 75.9475 -67.135 75.9475 -66.125 74.9375 C-65.99193843 72.95383305 -65.99193843 72.95383305 -67.125 70.9375 C-70.10263043 68.67424754 -70.10263043 68.67424754 -73.125 66.9375 C-71.59791037 63.50154834 -69.52572955 60.81837546 -67.125 57.9375 C-63.45079134 58.24368405 -62.34364487 58.69521784 -59.8125 61.5 C-58.9771875 62.7065625 -58.9771875 62.7065625 -58.125 63.9375 C-59.61 64.9275 -59.61 64.9275 -61.125 65.9375 C-60.795 68.9075 -60.465 71.8775 -60.125 74.9375 C-59.135 74.9375 -58.145 74.9375 -57.125 74.9375 C-57.09622882 66.44458585 -57.09622882 66.44458585 -60.125 58.75 C-63.4874017 56.71854897 -66.27732581 56.02407022 -70.13671875 55.4921875 C-72.125 54.9375 -72.125 54.9375 -74.125 51.9375 C-74.25 49.25 -74.25 49.25 -74.125 46.9375 C-72.64 46.4425 -72.64 46.4425 -71.125 45.9375 C-70.91875 45.133125 -70.7125 44.32875 -70.5 43.5 C-69.125 40.9375 -69.125 40.9375 -67.0703125 40.234375 C-65.46035426 39.91546953 -63.84236846 39.63438398 -62.21875 39.39453125 C-59.91700107 39.08952829 -59.91700107 39.08952829 -58.125 36.9375 C-58.44917863 33.12840105 -58.98081442 31.15377837 -61.125 27.9375 C-61.3125 24.8125 -61.3125 24.8125 -61.125 21.9375 C-58.80095013 19.61345013 -53.38240169 20.08383877 -50.2265625 19.73046875 C-47.03109495 19.21309552 -47.03109495 19.21309552 -45.2109375 16.86328125 C-44.67339844 15.91001953 -44.67339844 15.91001953 -44.125 14.9375 C-44.455 14.2775 -44.785 13.6175 -45.125 12.9375 C-44.20267578 13.00710937 -44.20267578 13.00710937 -43.26171875 13.078125 C-40.82784837 13.18681459 -38.54449362 13.23830191 -36.125 12.9375 C-35.63 12.256875 -35.135 11.57625 -34.625 10.875 C-34.13 10.235625 -33.635 9.59625 -33.125 8.9375 C-30.05522958 8.8766577 -27.13329246 9.35728426 -24.125 9.9375 C-24.785 8.9475 -25.445 7.9575 -26.125 6.9375 C-20.39243035 4.51218207 -15.02701707 3.30370698 -8.859375 2.46484375 C-5.67476273 1.85066853 -3.19334871 -0.09392202 0 0 Z M-3.125 14.9375 C-6.32663893 18.13913893 -6.19393759 21.76980762 -6.3125 26.125 C-6.55169463 29.95848498 -6.55169463 29.95848498 -4.125 31.9375 C-2.99983915 30.10465557 -2.99983915 30.10465557 -2.125 27.9375 C-2.455 26.9475 -2.785 25.9575 -3.125 24.9375 C-3.04038508 23.20425881 -2.88895645 21.47357188 -2.6875 19.75 C-2.58566406 18.84894531 -2.48382813 17.94789063 -2.37890625 17.01953125 C-2.25322266 15.98892578 -2.25322266 15.98892578 -2.125 14.9375 C-2.455 14.9375 -2.785 14.9375 -3.125 14.9375 Z M-0.125 19.9375 C0.875 21.9375 0.875 21.9375 0.875 21.9375 Z M-1.125 23.9375 C-0.125 25.9375 -0.125 25.9375 -0.125 25.9375 Z M-37.125 29.9375 C-36.795 30.9275 -36.465 31.9175 -36.125 32.9375 C-36.125 31.9475 -36.125 30.9575 -36.125 29.9375 C-36.455 29.9375 -36.785 29.9375 -37.125 29.9375 Z M-44.125 32.9375 C-44.01886164 35.38974694 -44.01886164 35.38974694 -43.125 37.9375 C-40.64863988 39.31216625 -40.64863988 39.31216625 -38.125 39.9375 C-37.9013932 37.0120356 -37.9013932 37.0120356 -39.125 34.9375 C-40.76863134 34.21590576 -42.43550386 33.54398579 -44.125 32.9375 Z M-51.125 42.9375 C-50.86824087 45.43255992 -50.86824087 45.43255992 -49.125 47.9375 C-45.87910038 49.31324553 -42.55801724 50.15842044 -39.125 50.9375 C-42.22526309 47.66007902 -45.09598894 45.00645163 -49.125 42.9375 C-49.785 42.9375 -50.445 42.9375 -51.125 42.9375 Z M-55.125 47.9375 C-52.49551309 51.81702544 -52.49551309 51.81702544 -48.375 53.75 C-47.26125 53.8428125 -47.26125 53.8428125 -46.125 53.9375 C-49.90093959 49.65679002 -49.90093959 49.65679002 -55.125 47.9375 Z M-56.125 52.9375 C-55.795 53.9275 -55.465 54.9175 -55.125 55.9375 C-56.445 55.6075 -57.765 55.2775 -59.125 54.9375 C-57.475 56.9175 -55.825 58.8975 -54.125 60.9375 C-53.135 60.6075 -52.145 60.2775 -51.125 59.9375 C-50.795 58.9475 -50.465 57.9575 -50.125 56.9375 C-51.29166667 54.6875 -51.29166667 54.6875 -53.125 52.9375 C-54.115 52.9375 -55.105 52.9375 -56.125 52.9375 Z M-11.125 59.9375 C-12.99008503 63.66767006 -12.69382373 67.87706676 -12.125 71.9375 C-10.73150446 74.70012928 -9.17766152 76.57693925 -7.125 78.9375 C-6.465 78.6075 -5.805 78.2775 -5.125 77.9375 C-5.455 73.6475 -5.785 69.3575 -6.125 64.9375 C-7.115 64.9375 -8.105 64.9375 -9.125 64.9375 C-9.455 63.2875 -9.785 61.6375 -10.125 59.9375 C-10.455 59.9375 -10.785 59.9375 -11.125 59.9375 Z M1.875 61.9375 C2.875 63.9375 2.875 63.9375 2.875 63.9375 Z M-38.125 63.9375 C-37.125 65.9375 -37.125 65.9375 -37.125 65.9375 Z M-34.125 63.9375 C-33.795 64.845 -33.465 65.7525 -33.125 66.6875 C-32.125 69.9375 -32.125 69.9375 -32.125 73.9375 C-33.445 71.2975 -34.765 68.6575 -36.125 65.9375 C-37.31326921 69.50230762 -36.89313843 70.13719907 -35.375 73.4375 C-35.02953125 74.2109375 -34.6840625 74.984375 -34.328125 75.78125 C-33.14373779 77.90391798 -31.9255254 79.32323585 -30.125 80.9375 C-26.48919673 79.89399702 -26.48919673 79.89399702 -24.0625 77.1875 C-24.16309143 73.56620848 -25.90311626 71.72909752 -28.125 68.9375 C-30.05372486 67.14017246 -32.03439494 65.55296755 -34.125 63.9375 Z M-47.125 66.9375 C-46.125 68.9375 -46.125 68.9375 -46.125 68.9375 Z M-53.125 67.9375 C-53.59251788 70.29349235 -53.59251788 70.29349235 -53.75 73 C-53.82476562 73.91910156 -53.89953125 74.83820313 -53.9765625 75.78515625 C-54.02554688 76.49542969 -54.07453125 77.20570313 -54.125 77.9375 C-55.445 77.9375 -56.765 77.9375 -58.125 77.9375 C-56.76196103 81.09293521 -55.3067387 82.86938133 -52.625 85 C-50.18835088 86.94622186 -48.90237879 88.27143182 -47.125 90.9375 C-47.7025 91.040625 -48.28 91.14375 -48.875 91.25 C-51.44549158 92.03542798 -53.06157284 93.24254197 -55.125 94.9375 C-48.31931865 97.53776749 -48.31931865 97.53776749 -41.125 97.9375 C-42.42655006 93.85785719 -42.42655006 93.85785719 -44.125 89.9375 C-43.135 89.6075 -42.145 89.2775 -41.125 88.9375 C-41.62 88.48375 -42.115 88.03 -42.625 87.5625 C-44.125 85.9375 -44.125 85.9375 -44.125 83.9375 C-43.568125 84.2675 -43.01125 84.5975 -42.4375 84.9375 C-39.82215478 86.0684601 -37.9443354 86.09412974 -35.125 85.9375 C-34.795 84.9475 -34.465 83.9575 -34.125 82.9375 C-35.17611021 80.80607549 -35.17611021 80.80607549 -36.8125 78.75 C-37.59173828 77.67685547 -37.59173828 77.67685547 -38.38671875 76.58203125 C-40.21046156 74.47933572 -40.21046156 74.47933572 -44.125 74.9375 C-45.14604551 75.91600195 -46.1456121 76.91730427 -47.125 77.9375 C-48.445 78.2675 -49.765 78.5975 -51.125 78.9375 C-50.795 74.9775 -50.465 71.0175 -50.125 66.9375 C-51.3486068 66.8629644 -51.3486068 66.8629644 -53.125 67.9375 Z M-40.125 69.9375 C-40.125 70.9275 -40.125 71.9175 -40.125 72.9375 C-39.465 72.6075 -38.805 72.2775 -38.125 71.9375 C-38.785 71.2775 -39.445 70.6175 -40.125 69.9375 Z M3.875 69.9375 C3.545 71.5875 3.215 73.2375 2.875 74.9375 C4.195 73.6175 5.515 72.2975 6.875 70.9375 C5.885 70.6075 4.895 70.2775 3.875 69.9375 Z M-40.125 90.9375 C-39.72765845 92.87905532 -39.30636959 94.81572038 -38.875 96.75 C-38.52695313 98.36841797 -38.52695313 98.36841797 -38.171875 100.01953125 C-37.01521838 103.2434958 -36.02849865 104.22779522 -33.125 105.9375 C-33.36640764 99.04001671 -33.36640764 99.04001671 -36.0625 92.8125 C-37.90708204 90.71327574 -37.90708204 90.71327574 -40.125 90.9375 Z M11.875 102.9375 C12.205 104.9175 12.535 106.8975 12.875 108.9375 C13.5564823 107.04570797 13.5564823 107.04570797 13.875 104.9375 C13.215 104.2775 12.555 103.6175 11.875 102.9375 Z M36.875 146.9375 C37.41726981 150.73338866 39.07627563 152.40961993 41.875 154.9375 C40.60553486 150.11307816 40.60553486 150.11307816 36.875 146.9375 Z " fill="#141414" transform="translate(195.125,175.0625)"/>
<path d="M0 0 C-0.04125 0.94875 -0.0825 1.8975 -0.125 2.875 C-0.34973818 6.10244856 -0.34973818 6.10244856 2 8 C2 8.99 2 9.98 2 11 C0.68 10.34 -0.64 9.68 -2 9 C-2.66 10.65 -3.32 12.3 -4 14 C-2.7625 13.7834375 -1.525 13.566875 -0.25 13.34375 C13.3698968 11.10479 27.19117218 9.87816022 41 11 C42 12 42 12 42.3125 15.75 C42.25698816 18.85311158 41.99806486 20.00348326 40.4375 22.8125 C35.46274424 27.2770244 28.70890648 28.82695922 22.375 30.5625 C21.58520752 30.77938477 20.79541504 30.99626953 19.98168945 31.21972656 C11.1804367 33.5724395 2.53784399 34.89198647 -6.5625 35.3125 C-14.71499414 35.88014065 -21.16992918 39.14167407 -28.4296875 42.6640625 C-29.56664062 43.20804688 -30.70359375 43.75203125 -31.875 44.3125 C-32.90367187 44.82425781 -33.93234375 45.33601563 -34.9921875 45.86328125 C-38.21222691 47.08020523 -40.58821576 47.21896526 -44 47 C-43.67 46.01 -43.34 45.02 -43 44 C-47.95 44.495 -47.95 44.495 -53 45 C-53.33 46.32 -53.66 47.64 -54 49 C-56.38480081 49.83414558 -57.63319086 50.11903995 -60.0703125 49.328125 C-60.74835938 48.97234375 -61.42640625 48.6165625 -62.125 48.25 C-62.80820313 47.90453125 -63.49140625 47.5590625 -64.1953125 47.203125 C-66 46 -66 46 -68 43 C-67.48275862 39.48275862 -67.48275862 39.48275862 -66 38 C-68.475 38.495 -68.475 38.495 -71 39 C-73.10428384 44.12919186 -73.21755666 48.5610835 -73 54 C-73.66 54 -74.32 54 -75 54 C-77.40460957 50.0267181 -78.98255776 47.02909209 -79.0625 42.3125 C-77.74753035 38.21288875 -76.41570012 36.61628094 -73 34 C-68.17320129 31.57142203 -63.33992187 30.55624186 -58 30 C-57.855625 31.093125 -57.71125 32.18625 -57.5625 33.3125 C-57.11471329 35.28286199 -57.11471329 35.28286199 -56 37 C-52.59887384 38.86451151 -48.89368712 40 -45 40 C-45.66 39.4225 -46.32 38.845 -47 38.25 C-49 36 -49 36 -49 32 C-49.99 31.34 -50.98 30.68 -52 30 C-51.67 29.01 -51.34 28.02 -51 27 C-50.11183594 26.86464844 -49.22367188 26.72929687 -48.30859375 26.58984375 C-38.47499824 24.93271918 -29.13287912 22.36927286 -19.63256836 19.33764648 C-18.68518799 19.03673096 -17.73780762 18.73581543 -16.76171875 18.42578125 C-15.91569092 18.15161377 -15.06966309 17.87744629 -14.19799805 17.5949707 C-12 17 -12 17 -9 17 C-11.31 14.03 -13.62 11.06 -16 8 C-16.33 9.32 -16.66 10.64 -17 12 C-18.5625 11.47916667 -20.125 10.95833333 -21.6875 10.4375 C-28.43310706 9.16130407 -34.46889869 10.32477817 -41 12 C-41.77472656 12.19078125 -42.54945312 12.3815625 -43.34765625 12.578125 C-45.23382399 13.04384543 -47.11722494 13.52074817 -49 14 C-48.67 13.01 -48.34 12.02 -48 11 C-45.47265625 9.97265625 -45.47265625 9.97265625 -42.0625 9.0625 C-40.80050781 8.72476563 -39.53851563 8.38703125 -38.23828125 8.0390625 C-32.99149793 6.72582095 -27.70944987 5.57133542 -22.42114258 4.4387207 C-18.29439299 3.54682322 -14.27483915 2.54110051 -10.25 1.25 C-6.7341877 0.12469676 -3.72491252 -0.29407204 0 0 Z M14 13 C11.69328085 15.71549154 11.69328085 15.71549154 12.375 18.1875 C12.58125 18.785625 12.7875 19.38375 13 20 C14.65 20 16.3 20 18 20 C17.72965366 17.56282742 17.72965366 17.56282742 17 15 C16.01 14.34 15.02 13.68 14 13 Z M-12 21 C-10.10244856 23.34973818 -10.10244856 23.34973818 -6.875 23.125 C-5.92625 23.08375 -4.9775 23.0425 -4 23 C-3.67 22.34 -3.34 21.68 -3 21 C-5.97 21 -8.94 21 -12 21 Z M-30 28 C-29.67 28.99 -29.34 29.98 -29 31 C-27.35 31 -25.7 31 -24 31 C-24.66 30.01 -25.32 29.02 -26 28 C-27.32 28 -28.64 28 -30 28 Z M-35 32 C-35.99 33.485 -35.99 33.485 -37 35 C-32.545 36.98 -32.545 36.98 -28 39 C-29.06802746 34.72789016 -29.43878426 34.15831257 -33 32 C-33.66 32 -34.32 32 -35 32 Z " fill="#161616" transform="translate(165,143)"/>
<path d="M0 0 C0.66 0 1.32 0 2 0 C2 1.32 2 2.64 2 4 C3.00740234 4.38091797 3.00740234 4.38091797 4.03515625 4.76953125 C8.25507355 6.52088033 12.32925327 8.59425671 16.38476562 10.69726562 C20.68604565 12.79768765 23.37610892 13.29354604 28 12 C28.02835938 12.59683594 28.05671875 13.19367188 28.0859375 13.80859375 C28.86447892 16.30935734 28.86447892 16.30935734 31.8515625 17.59765625 C33.10124676 18.10638026 34.3599311 18.59333953 35.625 19.0625 C36.29797119 19.31999023 36.97094238 19.57748047 37.66430664 19.84277344 C44.62468037 22.39974463 51.67834164 23.86608163 59 25 C60.28777344 25.20496094 61.57554687 25.40992188 62.90234375 25.62109375 C70.76891832 26.78116394 78.46630346 27.19083839 86.41748047 27.0144043 C91.64588735 26.90717743 91.64588735 26.90717743 93.9074707 27.5 C96.35631177 28.08513901 98.5110473 28.07937287 101.02734375 28.02734375 C101.98447266 28.01509766 102.94160156 28.00285156 103.92773438 27.99023438 C105.9304121 27.95514528 107.93302448 27.91609785 109.93554688 27.87304688 C111.37317383 27.85661133 111.37317383 27.85661133 112.83984375 27.83984375 C113.70988037 27.82300537 114.57991699 27.80616699 115.47631836 27.78881836 C118.30100833 28.02518837 120.43129452 28.83214478 123 30 C109.32191372 39.11872419 81.09120366 32.20399782 66 30 C64.76378906 29.82307617 63.52757812 29.64615234 62.25390625 29.46386719 C37.66730442 25.87986858 11.31218007 20.46646391 -9 5 C-9 4.34 -9 3.68 -9 3 C-7.68 3.33 -6.36 3.66 -5 4 C-5 3.34 -5 2.68 -5 2 C-4.360625 1.855625 -3.72125 1.71125 -3.0625 1.5625 C-1.02454854 1.18992819 -1.02454854 1.18992819 0 0 Z " fill="#3D3D3D" transform="translate(200,367)"/>
<path d="M0 0 C4.26573711 3.80895697 6.52466397 7.48052661 8.8125 12.6875 C9.12380859 13.36361328 9.43511719 14.03972656 9.75585938 14.73632812 C12 19.69316621 12 19.69316621 12 22 C12.66 22 13.32 22 14 22 C15.75457396 24.21692791 17.39006763 26.43169739 19 28.75 C19.45117188 29.38421875 19.90234375 30.0184375 20.3671875 30.671875 C23.7840359 35.52420408 23.7840359 35.52420408 25 38.203125 C25.97453353 40.24226003 25.97453353 40.24226003 28.4609375 41.83984375 C31.59253759 44.50411275 32.33055188 46.69236429 33.625 50.5625 C35.32096729 55.94068962 35.32096729 55.94068962 39 60 C40.423125 60.5878125 40.423125 60.5878125 41.875 61.1875 C45.12498643 63.07249213 45.74227333 63.92127234 47.5 67.0625 C49.4638122 70.57437435 49.4638122 70.57437435 53.25 72.25 C54.61125 72.62125 54.61125 72.62125 56 73 C56.625 74.8125 56.625 74.8125 57 77 C59.03124403 80.15971294 60.2072152 81.7357384 63.8125 82.9375 C67.9732062 84.32440207 71.13360086 86.66717496 74 90 C74 90.99 74 91.98 74 93 C64.19662509 92.38061466 64.19662509 92.38061466 60 89 C58.80224963 87.54327657 57.60656088 86.08448657 56.44140625 84.6015625 C54.81664973 82.79627747 53.09435752 81.48165166 51.125 80.0625 C39.49359512 71.58353196 32.42404296 59.5770343 25.23046875 47.37036133 C23.15705066 43.86785607 21.00913731 40.49123312 18.625 37.1875 C0 11.14739461 0 11.14739461 0 0 Z " fill="#333333" transform="translate(110,268)"/>
<path d="M0 0 C3.67420866 0.30618405 4.78135513 0.75771784 7.3125 3.5625 C8.1478125 4.7690625 8.1478125 4.7690625 9 6 C8.01 6.66 7.02 7.32 6 8 C6.33 10.97 6.66 13.94 7 17 C9.33317216 17.77772405 11.61435923 18.42415568 14 19 C13.67 19.66 13.34 20.32 13 21 C11.68 20.67 10.36 20.34 9 20 C9.7115625 20.6496875 9.7115625 20.6496875 10.4375 21.3125 C12 23 12 23 13 26 C14.32407669 26.68486725 15.65909241 27.34870203 17 28 C18.37086915 29.29470975 19.71340837 30.62150897 21 32 C20.67 32.66 20.34 33.32 20 34 C18.67696283 34.3721042 17.34262065 34.70630173 16 35 C15.67 35.33 15.34 35.66 15 36 C18.6678852 37.96189209 21.87248551 39.39301257 26 40 C25.505 39.05125 25.01 38.1025 24.5 37.125 C23 34 23 34 23 32 C24.32 31.67 25.64 31.34 27 31 C29 37 29 37 29.625 39.19140625 C31.2344008 44.59570098 33.22724345 47.83011118 37 52 C37.33 52.99 37.66 53.98 38 55 C35.489078 55.9178626 34.25373134 56.07881833 31.66577148 55.27490234 C28.9152211 53.9897464 26.16940966 52.69945046 23.4375 51.375 C22.47908203 50.93542969 21.52066406 50.49585938 20.53320312 50.04296875 C19.61345703 49.60339844 18.69371094 49.16382813 17.74609375 48.7109375 C16.48817017 48.11224854 16.48817017 48.11224854 15.20483398 47.50146484 C12.52830754 45.67878323 11.43246233 43.87804035 10 41 C9.62890625 38.859375 9.62890625 38.859375 9.5625 36.75 C9.07947359 31.18590727 7.67017496 25.42861879 3.40234375 21.546875 C1.61458705 20.30288169 1.61458705 20.30288169 -1 19 C-0.34 18.34 0.32 17.68 1 17 C1.13306157 15.01633305 1.13306157 15.01633305 0 13 C-2.97763043 10.73674754 -2.97763043 10.73674754 -6 9 C-4.47291037 5.56404834 -2.40072955 2.88087546 0 0 Z " fill="#3D3D3D" transform="translate(128,233)"/>
<path d="M0 0 C10.55808656 0.77904328 10.55808656 0.77904328 15 3 C14 6 14 6 11 8 C11.99 8.99 12.98 9.98 14 11 C12.68 11.33 11.36 11.66 10 12 C11.2375 12.6496875 11.2375 12.6496875 12.5 13.3125 C13.325 13.869375 14.15 14.42625 15 15 C15 15.99 15 16.98 15 18 C15.804375 18.804375 16.60875 19.60875 17.4375 20.4375 C19.96782184 22.96782184 20.46219579 23.66561388 21 27 C21.63654342 28.3479743 22.29605388 29.68596724 23 31 C16.40167887 28.80055962 10.89300795 25.65805842 5 22 C2.6775805 20.64629024 0.34025858 19.32275485 -2 18 C-2 17.34 -2 16.68 -2 16 C-1.34 15.67 -0.68 15.34 0 15 C-1.32 13.68 -2.64 12.36 -4 11 C-3.34 10.67 -2.68 10.34 -2 10 C-3.32 8.35 -4.64 6.7 -6 5 C-4.68 5 -3.36 5 -2 5 C-2 4.01 -2 3.02 -2 2 C-1.34 2 -0.68 2 0 2 C0 1.34 0 0.68 0 0 Z " fill="#2D2D2D" transform="translate(159,292)"/>
<path d="M0 0 C0.12375 1.0725 0.2475 2.145 0.375 3.25 C0.81001307 5.23562266 0.81001307 5.23562266 2 7 C5.1845878 8.82955623 8.4874601 9.95660715 12 11 C10.75 13 10.75 13 9 15 C7.68 15 6.36 15 5 15 C4.67 16.32 4.34 17.64 4 19 C1.61519919 19.83414558 0.36680914 20.11903995 -2.0703125 19.328125 C-2.74835938 18.97234375 -3.42640625 18.6165625 -4.125 18.25 C-4.80820313 17.90453125 -5.49140625 17.5590625 -6.1953125 17.203125 C-8 16 -8 16 -10 13 C-9.48275862 9.48275862 -9.48275862 9.48275862 -8 8 C-9.65 8.33 -11.3 8.66 -13 9 C-15.10428384 14.12919186 -15.21755666 18.5610835 -15 24 C-15.66 24 -16.32 24 -17 24 C-19.40460957 20.0267181 -20.98255776 17.02909209 -21.0625 12.3125 C-19.74753035 8.21288875 -18.41570012 6.61628094 -15 4 C-10.27148286 1.74832517 -5.2606273 0 0 0 Z " fill="#333333" transform="translate(107,173)"/>
<path d="M0 0 C0 1.32 0 2.64 0 4 C0.66 4.66 1.32 5.32 2 6 C1.01 6.66 0.02 7.32 -1 8 C2.42307436 10.15208628 2.42307436 10.15208628 6 12 C6.66 11.67 7.32 11.34 8 11 C8 12.65 8 14.3 8 16 C6.29870914 16.84761822 4.58856916 17.6774868 2.875 18.5 C1.92367187 18.9640625 0.97234375 19.428125 -0.0078125 19.90625 C-3.21196631 21.07748116 -5.61717313 21.20076124 -9 21 C-8.67 20.01 -8.34 19.02 -8 18 C-9.65 18 -11.3 18 -13 18 C-12.67 16.68 -12.34 15.36 -12 14 C-11.34 14 -10.68 14 -10 14 C-10.99 13.13375 -10.99 13.13375 -12 12.25 C-14 10 -14 10 -14 6 C-14.99 5.34 -15.98 4.68 -17 4 C-16.67 3.01 -16.34 2.02 -16 1 C-14.0852312 0.63571223 -12.16807707 0.28394694 -10.25 -0.0625 C-9.18265625 -0.25972656 -8.1153125 -0.45695313 -7.015625 -0.66015625 C-4.25228095 -0.97156937 -2.59053383 -0.8991416 0 0 Z " fill="#292929" transform="translate(130,169)"/>
<path d="M0 0 C-0.04125 0.94875 -0.0825 1.8975 -0.125 2.875 C-0.34973818 6.10244856 -0.34973818 6.10244856 2 8 C2 8.99 2 9.98 2 11 C0.68 10.34 -0.64 9.68 -2 9 C-2.61875 10.423125 -2.61875 10.423125 -3.25 11.875 C-5 15 -5 15 -9 17 C-11.31 14.03 -13.62 11.06 -16 8 C-16.33 9.32 -16.66 10.64 -17 12 C-18.5625 11.47916667 -20.125 10.95833333 -21.6875 10.4375 C-28.43310706 9.16130407 -34.46889869 10.32477817 -41 12 C-41.77472656 12.19078125 -42.54945312 12.3815625 -43.34765625 12.578125 C-45.23382399 13.04384543 -47.11722494 13.52074817 -49 14 C-48.67 13.01 -48.34 12.02 -48 11 C-45.47265625 9.97265625 -45.47265625 9.97265625 -42.0625 9.0625 C-40.80050781 8.72476563 -39.53851563 8.38703125 -38.23828125 8.0390625 C-32.99149793 6.72582095 -27.70944987 5.57133542 -22.42114258 4.4387207 C-18.29439299 3.54682322 -14.27483915 2.54110051 -10.25 1.25 C-6.7341877 0.12469676 -3.72491252 -0.29407204 0 0 Z " fill="#353535" transform="translate(165,143)"/>
<path d="M0 0 C2.52661709 2.52661709 2.56883137 4.20742693 3.25 7.6875 C4.44586053 12.82846744 5.9353666 15.92188824 9.6953125 19.59765625 C11 21 11 21 12 24 C9.489078 24.9178626 8.25373134 25.07881833 5.66577148 24.27490234 C2.9152211 22.9897464 0.16940966 21.69945046 -2.5625 20.375 C-3.52091797 19.93542969 -4.47933594 19.49585938 -5.46679688 19.04296875 C-6.38654297 18.60339844 -7.30628906 18.16382813 -8.25390625 17.7109375 C-9.09252197 17.31181152 -9.9311377 16.91268555 -10.79516602 16.50146484 C-13.50976025 14.65285953 -14.61793763 12.96376532 -16 10 C-16 8.68 -16 7.36 -16 6 C-10.06997733 5.62148791 -5.52760359 6.89424625 0 9 C-0.495 8.05125 -0.99 7.1025 -1.5 6.125 C-3 3 -3 3 -3 1 C-2.01 0.67 -1.02 0.34 0 0 Z " fill="#303030" transform="translate(154,264)"/>
<path d="M0 0 C4.26573711 3.80895697 6.52466397 7.48052661 8.8125 12.6875 C9.12380859 13.36361328 9.43511719 14.03972656 9.75585938 14.73632812 C12 19.69316621 12 19.69316621 12 22 C12.66 22 13.32 22 14 22 C15.75457396 24.21692791 17.39006763 26.43169739 19 28.75 C19.45117188 29.38421875 19.90234375 30.0184375 20.3671875 30.671875 C23.7840359 35.52420408 23.7840359 35.52420408 25 38.203125 C25.97394067 40.24086943 25.97394067 40.24086943 28.453125 41.8359375 C31.59711164 44.50736173 32.40472914 46.75516239 33.75 50.625 C34.15734375 51.77226562 34.5646875 52.91953125 34.984375 54.1015625 C35.31953125 55.05804688 35.6546875 56.01453125 36 57 C36.33 57.66 36.66 58.32 37 59 C35.02 59.495 35.02 59.495 33 60 C32.70343506 59.50709473 32.40687012 59.01418945 32.10131836 58.50634766 C25.59652521 47.56112612 25.59652521 47.56112612 18.5 37 C0 11.19854722 0 11.19854722 0 0 Z " fill="#444444" transform="translate(110,268)"/>
<path d="M0 0 C0.6084375 0.06058594 1.216875 0.12117188 1.84375 0.18359375 C13.11882584 1.26135835 24.43210381 2.21907817 35.765625 1.9375 C38 2 38 2 39.82543945 2.50219727 C42.30557428 3.06995239 44.48451568 3.07992147 47.02734375 3.02734375 C47.98447266 3.01509766 48.94160156 3.00285156 49.92773438 2.99023438 C51.9304121 2.95514528 53.93302448 2.91609785 55.93554688 2.87304688 C57.37317383 2.85661133 57.37317383 2.85661133 58.83984375 2.83984375 C59.70988037 2.82300537 60.57991699 2.80616699 61.47631836 2.78881836 C64.30100833 3.02518837 66.43129452 3.83214478 69 5 C55.26366475 14.15755684 27.11952284 7.11779608 12 5 C11.1862793 4.88833496 10.37255859 4.77666992 9.53417969 4.66162109 C5.68549349 4.13312214 1.84065925 3.58400007 -2 3 C-1.34 2.01 -0.68 1.02 0 0 Z " fill="#3E3E3E" transform="translate(254,392)"/>
<path d="M0 0 C4.49419161 4.00833306 7.64749905 8.05055058 8.19140625 14.14453125 C8.23136719 14.92183594 8.27132812 15.69914063 8.3125 16.5 C8.91696631 25.04137171 13.09297667 33.48794548 17 41 C12.27009462 39.24818319 9.23945587 35.433918 7.00463867 31.04541016 C6.09771159 28.92181245 5.25417605 26.78486795 4.4375 24.625 C3.87683816 23.17846645 3.31303941 21.73314478 2.74609375 20.2890625 C2.46878418 19.58040039 2.19147461 18.87173828 1.90576172 18.14160156 C0.69467186 15.27807589 -0.74759439 12.5600191 -2.24584961 9.83740234 C-3 8 -3 8 -3 4 C-2.01 4 -1.02 4 0 4 C0 2.68 0 1.36 0 0 Z " fill="#373737" transform="translate(103,234)"/>
<path d="M0 0 C7.61567515 -0.50771168 14.01324837 0.8633052 21 4 C22.8515625 5.63671875 22.8515625 5.63671875 24 7 C21.2758438 9.7241562 19.6781266 9.3308802 15.875 9.375 C9.77318103 9.27352851 5.98558179 8.5474332 1 5 C0 2.25 0 2.25 0 0 Z " fill="#2D2D2D" transform="translate(169,328)"/>
<path d="M0 0 C-0.99 1.485 -0.99 1.485 -2 3 C-4.765625 3.35644531 -4.765625 3.35644531 -8.25 3.328125 C-10.12171875 3.32039063 -10.12171875 3.32039063 -12.03125 3.3125 C-13.3409375 3.291875 -14.650625 3.27125 -16 3.25 C-17.96453125 3.24226563 -17.96453125 3.24226563 -19.96875 3.234375 C-29.69196429 3.15401786 -29.69196429 3.15401786 -32 2 C-32 1.01 -32 0.02 -32 -1 C-21.90963112 -4.96298476 -10.3625998 -1.95484941 0 0 Z " fill="#343434" transform="translate(368,378)"/>
<path d="M0 0 C6.23021458 0.93576346 11.11211886 1.88388957 16 6 C16 6.66 16 7.32 16 8 C15.01 8.33 14.02 8.66 13 9 C12.67 10.65 12.34 12.3 12 14 C7.84915365 13.80693738 6.275023 13.25668813 3.1875 10.375 C0.72427732 7.12228287 0.24399083 4.06651382 0 0 Z " fill="#313131" transform="translate(138,131)"/>
<path d="M0 0 C0.66 0 1.32 0 2 0 C2 1.32 2 2.64 2 4 C2.70125 4.268125 3.4025 4.53625 4.125 4.8125 C7.1649824 6.0681449 10.0727774 7.50235123 13 9 C12.01 9.99 11.02 10.98 10 12 C12.475 12.495 12.475 12.495 15 13 C15 14.32 15 15.64 15 17 C9.71460187 15.44051251 5.03870094 13.12251141 0.1875 10.5625 C-0.58787109 10.16740234 -1.36324219 9.77230469 -2.16210938 9.36523438 C-2.89880859 8.97787109 -3.63550781 8.59050781 -4.39453125 8.19140625 C-5.39770386 7.66848999 -5.39770386 7.66848999 -6.42114258 7.13500977 C-8 6 -8 6 -9 3 C-7.68 3.33 -6.36 3.66 -5 4 C-5 3.34 -5 2.68 -5 2 C-4.360625 1.855625 -3.72125 1.71125 -3.0625 1.5625 C-1.02454854 1.18992819 -1.02454854 1.18992819 0 0 Z " fill="#7F7F7F" transform="translate(200,367)"/>
<path d="M0 0 C4.26573711 3.80895697 6.52466397 7.48052661 8.8125 12.6875 C9.12380859 13.36361328 9.43511719 14.03972656 9.75585938 14.73632812 C12 19.69316621 12 19.69316621 12 22 C12.66 22 13.32 22 14 22 C15.38938077 23.96147874 16.7260411 25.96166576 18 28 C17.01 28 16.02 28 15 28 C14.67 28.66 14.34 29.32 14 30 C0 8.46564885 0 8.46564885 0 0 Z " fill="#6D6D6D" transform="translate(110,268)"/>
<path d="M0 0 C3.375 0.9375 3.375 0.9375 5.375 3.9375 C5.375 5.2575 5.375 6.5775 5.375 7.9375 C1.745 7.9375 -1.885 7.9375 -5.625 7.9375 C-5.295 9.2575 -4.965 10.5775 -4.625 11.9375 C-5.615 11.6075 -6.605 11.2775 -7.625 10.9375 C-8.10445205 4.70462329 -8.10445205 4.70462329 -6.0625 1.4375 C-3.625 -0.0625 -3.625 -0.0625 0 0 Z " fill="#474747" transform="translate(124.625,99.0625)"/>
<path d="M0 0 C0.33 0 0.66 0 1 0 C1.00386719 0.82177734 1.00386719 0.82177734 1.0078125 1.66015625 C1.48325074 11.40664008 5.53863662 20.42211292 10 29 C4.53685445 26.97661276 1.74657449 22.44166108 -0.8125 17.5 C-1.98557562 14.04251398 -2.25201069 11.61215322 -2 8 C-2 7.34 -2 6.68 -2 6 C-1.35747635 3.9921136 -0.69258229 1.99117408 0 0 Z " fill="#585858" transform="translate(110,246)"/>
<path d="M0 0 C1.258125 0.12375 2.51625 0.2475 3.8125 0.375 C4.87404297 0.47941406 4.87404297 0.47941406 5.95703125 0.5859375 C8 1 8 1 11 3 C10.34 3.66 9.68 4.32 9 5 C12.53411321 7.12046792 15.94393835 7.53199289 20 8 C20 8.33 20 8.66 20 9 C13.113402 10.03361236 8.10907539 10.63944917 2 7 C0 4 0 4 0 0 Z " fill="#4B4B4B" transform="translate(220,345)"/>
<path d="M0 0 C0.1953125 6.0546875 0.1953125 6.0546875 0 8 C-0.66 8.66 -1.32 9.32 -2 10 C-2.99 10 -3.98 10 -5 10 C-5.66 9.34 -6.32 8.68 -7 8 C-9.10820797 8.3185177 -9.10820797 8.3185177 -11 9 C-10.875 6.75 -10.875 6.75 -10 4 C-6.35345986 1.00173367 -4.78447394 0 0 0 Z " fill="#2B2B2B" transform="translate(288,373)"/>
<path d="M0 0 C1.093125 0.185625 2.18625 0.37125 3.3125 0.5625 C6.93624133 1.2578068 6.93624133 1.2578068 10 0 C10.33 0.99 10.66 1.98 11 3 C11.99 3 12.98 3 14 3 C14.99 3.33 15.98 3.66 17 4 C17 4.66 17 5.32 17 6 C19.475 6.495 19.475 6.495 22 7 C22 7.33 22 7.66 22 8 C20.35 8 18.7 8 17 8 C17 8.66 17 9.32 17 10 C3.37931034 5.9137931 3.37931034 5.9137931 0 0 Z " fill="#5A5A5A" transform="translate(184,315)"/>
<path d="M0 0 C6.3533813 0.30545102 12.40063265 1.43144931 18.5625 2.9375 C19.27728516 3.10733398 19.99207031 3.27716797 20.72851562 3.45214844 C22.5038635 3.90154942 24.2552238 4.44360326 26 5 C26.33 5.66 26.66 6.32 27 7 C17.30541566 7.68701779 7.71038627 6.36152437 0 0 Z " fill="#5C5C5C" transform="translate(233,383)"/>
<path d="M0 0 C0 0.66 0 1.32 0 2 C0.66 2.66 1.32 3.32 2 4 C0 6 0 6 -2 7 C-2 7.66 -2 8.32 -2 9 C-3.32 9 -4.64 9 -6 9 C-6.2475 8.38125 -6.495 7.7625 -6.75 7.125 C-8.23672969 4.59755953 -9.34609695 4.12589826 -12 3 C-12.99 2.34 -13.98 1.68 -15 1 C-9.91913204 0.15318867 -5.15171623 -0.09038099 0 0 Z " fill="#535353" transform="translate(190,154)"/>
<path d="M0 0 C1.60379341 -0.05416188 3.20811406 -0.09286638 4.8125 -0.125 C5.70582031 -0.14820313 6.59914063 -0.17140625 7.51953125 -0.1953125 C10 0 10 0 13 2 C12.75 3.875 12.75 3.875 12 6 C9.50159405 7.87380446 8.36680834 8.05001932 5.25 7.625 C4.5075 7.41875 3.765 7.2125 3 7 C3 5.68 3 4.36 3 3 C2.01 2.67 1.02 2.34 0 2 C0 1.34 0 0.68 0 0 Z " fill="#484848" transform="translate(120,200)"/>
<path d="M0 0 C5.99932374 1.8331267 11.44920563 4.07321751 17 7 C17 7.66 17 8.32 17 9 C9.05570689 8.49807298 4.55096009 6.96214232 -1 1 C-0.67 0.67 -0.34 0.34 0 0 Z " fill="#585858" transform="translate(192,329)"/>
<path d="M0 0 C0.66 0 1.32 0 2 0 C2 1.32 2 2.64 2 4 C2.70125 4.268125 3.4025 4.53625 4.125 4.8125 C7.1649824 6.0681449 10.0727774 7.50235123 13 9 C11.453125 10.2109375 11.453125 10.2109375 9 11 C6.39484836 9.99212459 4.17152464 8.96372907 1.75 7.625 C1.1003125 7.28210938 0.450625 6.93921875 -0.21875 6.5859375 C-1.82010131 5.73816328 -3.41111444 4.87091321 -5 4 C-5 3.34 -5 2.68 -5 2 C-4.360625 1.855625 -3.72125 1.71125 -3.0625 1.5625 C-1.02454854 1.18992819 -1.02454854 1.18992819 0 0 Z " fill="#454545" transform="translate(200,367)"/>
<path d="M0 0 C1.65 0 3.3 0 5 0 C6.32 3.63 7.64 7.26 9 11 C7.68 11.33 6.36 11.66 5 12 C3.96951963 10.3811004 2.95085322 8.75467511 1.9375 7.125 C1.36902344 6.22007812 0.80054688 5.31515625 0.21484375 4.3828125 C-0.18605469 3.59648437 -0.58695313 2.81015625 -1 2 C-0.67 1.34 -0.34 0.68 0 0 Z " fill="#4B4B4B" transform="translate(138,316)"/>
<path d="M0 0 C0 0.99 0 1.98 0 3 C-0.78503906 2.98839844 -1.57007813 2.97679687 -2.37890625 2.96484375 C-8.03719775 2.91624493 -13.42878878 2.98705251 -19 4 C-16.62966136 1.23330965 -14.53454415 0.27333933 -11.0625 -0.75 C-10.20785156 -1.01296875 -9.35320312 -1.2759375 -8.47265625 -1.546875 C-5.08441772 -2.16778443 -3.0290929 -1.51454645 0 0 Z " fill="#5D5D5D" transform="translate(140,140)"/>
<path d="M0 0 C-0.33 0.5775 -0.66 1.155 -1 1.75 C-2.27075898 4.19883862 -2.27075898 4.19883862 -2 8 C-3.98 8.99 -3.98 8.99 -6 10 C-7.57035335 7.50590939 -8.0274945 6.29556584 -7.75 3.3125 C-7.5025 2.549375 -7.255 1.78625 -7 1 C-4.53721199 -0.231394 -2.7204945 -0.07159196 0 0 Z " fill="#676767" transform="translate(297,376)"/>
<path d="M0 0 C3.94216678 0.2687841 5.56489814 0.55344809 8.375 3.4375 C10 6 10 6 10 8 C8.35 8.33 6.7 8.66 5 9 C4.16094435 7.87926138 3.32892169 6.75325453 2.5 5.625 C2.0359375 4.99851562 1.571875 4.37203125 1.09375 3.7265625 C0 2 0 2 0 0 Z " fill="#393939" transform="translate(132,308)"/>
<path d="M0 0 C5.57142857 5.14285714 5.57142857 5.14285714 6 9 C5.01 8.67 4.02 8.34 3 8 C3.33 9.98 3.66 11.96 4 14 C2.35 12.35 0.7 10.7 -1 9 C-1.33 9.66 -1.66 10.32 -2 11 C-2.33 8.69 -2.66 6.38 -3 4 C-2.01 4 -1.02 4 0 4 C0 2.68 0 1.36 0 0 Z " fill="#7B7B7B" transform="translate(103,234)"/>
<path d="M0 0 C5.22113967 -0.20475058 9.15915997 -0.15148446 14 2 C16.70886941 2.16798262 16.70886941 2.16798262 19 2 C18.67 2.99 18.34 3.98 18 5 C10.88658735 5.45164525 6.28453206 4.32797915 0 1 C0 0.67 0 0.34 0 0 Z " fill="#5B5B5B" transform="translate(200,330)"/>
<path d="M0 0 C0 3 0 3 -2.01171875 5.0859375 C-3.33623047 6.21902344 -3.33623047 6.21902344 -4.6875 7.375 C-8.89573634 11.03640337 -12.88639408 14.72983067 -16.6875 18.8125 C-18 20 -18 20 -20 20 C-18.48947977 16.32329416 -16.3511385 14.28125538 -13.375 11.6875 C-12.488125 10.90890625 -11.60125 10.1303125 -10.6875 9.328125 C-9.3571875 8.17570312 -9.3571875 8.17570312 -8 7 C-6.4582009 5.64598412 -4.9165191 4.29183464 -3.375 2.9375 C-2.25065233 1.95758435 -1.12592245 0.97810582 0 0 Z " fill="#757575" transform="translate(90,57)"/>
<path d="M0 0 C7.00435592 0.6258645 14.00399099 1.28674095 21 2 C21 2.33 21 2.66 21 3 C18.47958689 3.19667089 15.95911728 3.38254317 13.4375 3.5625 C12.73302734 3.61857422 12.02855469 3.67464844 11.30273438 3.73242188 C6.68561569 4.05157754 2.5591248 3.80878035 -2 3 C-1.34 2.01 -0.68 1.02 0 0 Z " fill="#737373" transform="translate(254,392)"/>
<path d="M0 0 C5.94 0 11.88 0 18 0 C14.63881312 3.36118688 10.30745066 3.05870981 5.75 3.125 C2 3 2 3 0 2 C0 1.34 0 0.68 0 0 Z " fill="#575757" transform="translate(396,378)"/>
<path d="M0 0 C0.47050781 0.33773437 0.94101563 0.67546875 1.42578125 1.0234375 C2.04839844 1.46945313 2.67101562 1.91546875 3.3125 2.375 C3.92738281 2.81585938 4.54226562 3.25671875 5.17578125 3.7109375 C6.7652392 4.83410907 8.38062171 5.92041447 10 7 C8.68 7 7.36 7 6 7 C5.67 7.66 5.34 8.32 5 9 C4.34 8.01 3.68 7.02 3 6 C2.34 6 1.68 6 1 6 C1 6.66 1 7.32 1 8 C-0.32 7.34 -1.64 6.68 -3 6 C-2.34 6 -1.68 6 -1 6 C-1.66 4.35 -2.32 2.7 -3 1 C-2.01 1.33 -1.02 1.66 0 2 C0 1.34 0 0.68 0 0 Z " fill="#808080" transform="translate(139,223)"/>
<path d="M0 0 C2.66106407 0.39118157 5.32802262 0.68826931 8 1 C8 1.33 8 1.66 8 2 C6.39125 2.2165625 6.39125 2.2165625 4.75 2.4375 C1.23980078 2.89844989 1.23980078 2.89844989 -1.1875 3.5625 C-3 4 -3 4 -7 4 C-7 3.34 -7 2.68 -7 2 C-8.32 1.67 -9.64 1.34 -11 1 C-3.93203883 -1.31067961 -3.93203883 -1.31067961 0 0 Z " fill="#656565" transform="translate(154,162)"/>
<path d="M0 0 C2.64 0.33 5.28 0.66 8 1 C9 4 9 4 9 7 C5.56072421 5.7580393 2.74792181 4.44259716 0 2 C0 1.34 0 0.68 0 0 Z " fill="#717171" transform="translate(223,164)"/>
<path d="M0 0 C0 0.33 0 0.66 0 1 C-5.61 2.32 -11.22 3.64 -17 5 C-16.67 4.01 -16.34 3.02 -16 2 C-10.78658907 -0.47416112 -5.6259477 -1.62856381 0 0 Z " fill="#8D8D8D" transform="translate(133,152)"/>
<path d="M0 0 C0.99 0.33 1.98 0.66 3 1 C3 1.66 3 2.32 3 3 C3.66 3 4.32 3 5 3 C6.38938077 4.96147874 7.7260411 6.96166576 9 9 C8.01 9 7.02 9 6 9 C5.67 9.66 5.34 10.32 5 11 C4.15841464 9.73461631 3.32700252 8.46246221 2.5 7.1875 C1.80390625 6.12595703 1.80390625 6.12595703 1.09375 5.04296875 C0 3 0 3 0 0 Z " fill="#5C5C5C" transform="translate(119,287)"/>
<path d="M0 0 C0 0.66 0 1.32 0 2 C-10.37357631 6.77676538 -10.37357631 6.77676538 -16 5 C-15.67 4.34 -15.34 3.68 -15 3 C-12.67145135 2.63473747 -10.33701038 2.30649316 -8 2 C-1.76470588 0 -1.76470588 0 0 0 Z " fill="#898989" transform="translate(110,157)"/>
<path d="M0 0 C0.66 0.66 1.32 1.32 2 2 C4.10820797 1.6814823 4.10820797 1.6814823 6 1 C6 1.99 6 2.98 6 4 C2.66666667 7 2.66666667 7 0 7 C0 6.01 0 5.02 0 4 C-1.32 3.67 -2.64 3.34 -4 3 C-2.68 2.01 -1.36 1.02 0 0 Z " fill="#838383" transform="translate(310,382)"/>
<path d="M0 0 C1.4589426 0.47730838 2.91713496 0.95691042 4.375 1.4375 C5.18710938 1.70433594 5.99921875 1.97117187 6.8359375 2.24609375 C9 3 9 3 11 4 C11 4.66 11 5.32 11 6 C6.94393835 5.53199289 3.53411321 5.12046792 0 3 C0 2.01 0 1.02 0 0 Z " fill="#747474" transform="translate(202,347)"/>
<path d="M0 0 C3.39641834 2.26427889 4.84438646 4.58075094 7 8 C6.34 8 5.68 8 5 8 C4.67 8.66 4.34 9.32 4 10 C1.66666667 7.66666667 -0.66666667 5.33333333 -3 3 C-2.01 3 -1.02 3 0 3 C0 2.01 0 1.02 0 0 Z " fill="#808080" transform="translate(133,227)"/>
<path d="M0 0 C8.57142857 -0.28571429 8.57142857 -0.28571429 12 2 C12 2.33 12 2.66 12 3 C8.37 3 4.74 3 1 3 C0.67 2.01 0.34 1.02 0 0 Z " fill="#363636" transform="translate(248,387)"/>
<path d="M0 0 C0.9075 0.309375 1.815 0.61875 2.75 0.9375 C5.8128897 2.01595279 5.8128897 2.01595279 8.3125 2.4375 C8.869375 2.623125 9.42625 2.80875 10 3 C10.33 3.99 10.66 4.98 11 6 C7.36029133 6.42820102 5.95430537 5.97413512 2.6875 4.125 C1.800625 3.42375 0.91375 2.7225 0 2 C0 1.34 0 0.68 0 0 Z " fill="#909090" transform="translate(191,370)"/>
<path d="M0 0 C2.50298434 2.93828597 3.46930939 5.17902761 4 9 C2.125 8.875 2.125 8.875 0 8 C-1.25 4.9375 -1.25 4.9375 -2 2 C-1.34 2 -0.68 2 0 2 C0 1.34 0 0.68 0 0 Z " fill="#5D5D5D" transform="translate(183,283)"/>
<path d="M0 0 C2 1 2 1 3.125 3.75 C3.91973395 6.70186896 4.17810598 8.97219837 4 12 C0.90566277 9.46826954 -0.04150794 6.83396824 -1 3 C-0.67 2.01 -0.34 1.02 0 0 Z " fill="#838383" transform="translate(160,238)"/>
<path d="M0 0 C1.2065625 0.0309375 1.2065625 0.0309375 2.4375 0.0625 C2.4375 1.3825 2.4375 2.7025 2.4375 4.0625 C1.1175 4.3925 -0.2025 4.7225 -1.5625 5.0625 C-2.2225 3.7425 -2.8825 2.4225 -3.5625 1.0625 C-2.5625 0.0625 -2.5625 0.0625 0 0 Z " fill="#676767" transform="translate(112.5625,203.9375)"/>
<path d="M0 0 C0.33 0.99 0.66 1.98 1 3 C-1.70879335 4.35439668 -4.00933268 4.06501451 -7 4 C-7 3.01 -7 2.02 -7 1 C-4.53721199 -0.231394 -2.7204945 -0.07159196 0 0 Z " fill="#727272" transform="translate(142,122)"/>
<path d="M0 0 C0.66 0 1.32 0 2 0 C3 6.625 3 6.625 3 10 C2.34 10 1.68 10 1 10 C-0.80411967 7.24075815 -1.0127245 6.11027897 -0.625 2.75 C-0.41875 1.8425 -0.2125 0.935 0 0 Z M0 2 C1 4 1 4 1 4 Z " fill="#787878" transform="translate(195,193)"/>
<path d="M0 0 C3.34373475 0.55728913 6.03312999 1.35173889 9 3 C9 3.66 9 4.32 9 5 C5.625 4.75 5.625 4.75 2 4 C0.5625 1.9375 0.5625 1.9375 0 0 Z " fill="#7D7D7D" transform="translate(185,323)"/>
<path d="M0 0 C5.57142857 5.14285714 5.57142857 5.14285714 6 9 C3.525 8.01 3.525 8.01 1 7 C0.67 4.69 0.34 2.38 0 0 Z " fill="#6C6C6C" transform="translate(103,234)"/>
<path d="M0 0 C3.73487777 0.4979837 5.81237635 0.87491756 9 3 C9 3.66 9 4.32 9 5 C5.26512223 4.5020163 3.18762365 4.12508244 0 2 C0 1.34 0 0.68 0 0 Z " fill="#797979" transform="translate(202,339)"/>
<path d="M0 0 C1.32 0 2.64 0 4 0 C4.66 1.98 5.32 3.96 6 6 C5.01 6.33 4.02 6.66 3 7 C0 2.25 0 2.25 0 0 Z " fill="#717171" transform="translate(115,282)"/>
<path d="M0 0 C1.98 0.99 1.98 0.99 4 2 C4 4.31 4 6.62 4 9 C1.47740939 7.02579865 1.0070192 6.03254358 0.3125 2.8125 C0.209375 1.884375 0.10625 0.95625 0 0 Z " fill="#181818" transform="translate(106,242)"/>
<path d="M0 0 C0.66 0 1.32 0 2 0 C2.33 2.97 2.66 5.94 3 9 C1.35 9 -0.3 9 -2 9 C-1.34 6.03 -0.68 3.06 0 0 Z " fill="#060606" transform="translate(139,243)"/>
<path d="M0 0 C0.66 0 1.32 0 2 0 C2 0.66 2 1.32 2 2 C2.66 2.33 3.32 2.66 4 3 C3.67 3.66 3.34 4.32 3 5 C0.4375 5.625 0.4375 5.625 -2 6 C-1.125 1.125 -1.125 1.125 0 0 Z " fill="#626262" transform="translate(279,376)"/>
<path d="M0 0 C0.66 0.99 1.32 1.98 2 3 C1.67 3.99 1.34 4.98 1 6 C1 5.34 1 4.68 1 4 C-0.98 4.33 -2.96 4.66 -5 5 C-5 4.01 -5 3.02 -5 2 C-3.35 2 -1.7 2 0 2 C0 1.34 0 0.68 0 0 Z " fill="#9A9A9A" transform="translate(242,360)"/>
<path d="M0 0 C0 1.32 0 2.64 0 4 C-1.65 3.67 -3.3 3.34 -5 3 C-5.33 2.01 -5.66 1.02 -6 0 C-3 -1 -3 -1 0 0 Z " fill="#7C7C7C" transform="translate(128,204)"/>
<path d="M0 0 C2.3431213 0.25561323 4.67843403 0.59270772 7 1 C7.33 1.66 7.66 2.32 8 3 C7.67 3.66 7.34 4.32 7 5 C2.25 3.125 2.25 3.125 0 2 C0 1.34 0 0.68 0 0 Z " fill="#808080" transform="translate(157,308)"/>
<path d="M0 0 C2.31 0.33 4.62 0.66 7 1 C7 1.99 7 2.98 7 4 C4.03 3.505 4.03 3.505 1 3 C0.67 2.01 0.34 1.02 0 0 Z " fill="#686868" transform="translate(109,218)"/>
<path d="M0 0 C1.65 0.33 3.3 0.66 5 1 C4.67 2.32 4.34 3.64 4 5 C2.02 4.34 0.04 3.68 -2 3 C-2.33 3.66 -2.66 4.32 -3 5 C-3 4.01 -3 3.02 -3 2 C-2.01 2 -1.02 2 0 2 C0 1.34 0 0.68 0 0 Z " fill="#888888" transform="translate(146,215)"/>
<path d="M0 0 C0.66 0 1.32 0 2 0 C2 1.32 2 2.64 2 4 C-2.75 5.125 -2.75 5.125 -5 4 C-5 3.34 -5 2.68 -5 2 C-4.360625 1.855625 -3.72125 1.71125 -3.0625 1.5625 C-1.02454854 1.18992819 -1.02454854 1.18992819 0 0 Z " fill="#9C9C9C" transform="translate(200,367)"/>
<path d="M0 0 C0.99 0.33 1.98 0.66 3 1 C3 1.66 3 2.32 3 3 C4.65 3.33 6.3 3.66 8 4 C8 4.33 8 4.66 8 5 C6.35 5 4.7 5 3 5 C3 5.66 3 6.32 3 7 C2.34 7 1.68 7 1 7 C0.67 4.69 0.34 2.38 0 0 Z " fill="#898989" transform="translate(198,318)"/>
<path d="M0 0 C0.66 0.99 1.32 1.98 2 3 C1 5 1 5 -2 7 C-1.34 7.33 -0.68 7.66 0 8 C-0.99 8.33 -1.98 8.66 -3 9 C-3.66 8.34 -4.32 7.68 -5 7 C-4.34 7 -3.68 7 -3 7 C-3 5.68 -3 4.36 -3 3 C-2.01 3 -1.02 3 0 3 C0 2.01 0 1.02 0 0 Z " fill="#959595" transform="translate(157,241)"/>
<path d="M0 0 C0.99 0.33 1.98 0.66 3 1 C2.34 2.32 1.68 3.64 1 5 C-0.32 5 -1.64 5 -3 5 C-3 3 -3 3 -1.5 1.375 C-1.005 0.92125 -0.51 0.4675 0 0 Z " fill="#757575" transform="translate(293,380)"/>
<path d="M0 0 C1.32 0 2.64 0 4 0 C3.25 1.9375 3.25 1.9375 2 4 C-0.125 4.75 -0.125 4.75 -2 5 C-1.34 3.35 -0.68 1.7 0 0 Z " fill="#919191" transform="translate(300,380)"/>
<path d="M0 0 C0.99 0.33 1.98 0.66 3 1 C3.33 2.65 3.66 4.3 4 6 C2.68 6 1.36 6 0 6 C0 4.02 0 2.04 0 0 Z " fill="#454545" transform="translate(114,276)"/>
<path d="M0 0 C1.65 0.33 3.3 0.66 5 1 C5 1.99 5 2.98 5 4 C3.35 3.67 1.7 3.34 0 3 C0 2.01 0 1.02 0 0 Z " fill="#4C4C4C" transform="translate(110,224)"/>
<path d="M0 0 C3.29714793 0.32971479 4.6226839 0.6226839 7 3 C4.21176345 4.0326802 3.1322726 4.04509293 0.25 3.0625 C-0.4925 2.711875 -1.235 2.36125 -2 2 C-1.34 1.34 -0.68 0.68 0 0 Z " fill="#5A5A5A" transform="translate(206,374)"/>
<path d="M0 0 C0.99 0 1.98 0 3 0 C3.33 1.65 3.66 3.3 4 5 C2.68 4.67 1.36 4.34 0 4 C0 2.68 0 1.36 0 0 Z " fill="#5B5B5B" transform="translate(99,224)"/>
<path d="M0 0 C0 0.33 0 0.66 0 1 C-3.3 1.33 -6.6 1.66 -10 2 C-7.85732894 -2.28534211 -3.95706306 -0.79141261 0 0 Z " fill="#7C7C7C" transform="translate(133,152)"/>
<path d="M0 0 C1.65 0 3.3 0 5 0 C5.33 0.99 5.66 1.98 6 3 C4.35 3 2.7 3 1 3 C0.67 2.01 0.34 1.02 0 0 Z " fill="#767676" transform="translate(217,360)"/>
<path d="M0 0 C2.375 0.3125 2.375 0.3125 5 1 C5.66 1.99 6.32 2.98 7 4 C4.625 3.6875 4.625 3.6875 2 3 C1.34 2.01 0.68 1.02 0 0 Z " fill="#939393" transform="translate(145,296)"/>
<path d="M0 0 C0.99 0 1.98 0 3 0 C2.34 1.32 1.68 2.64 1 4 C0.01 4 -0.98 4 -2 4 C-1.34 2.68 -0.68 1.36 0 0 Z " fill="#878787" transform="translate(303,383)"/>
<path d="M0 0 C2.475 0.495 2.475 0.495 5 1 C4.67 1.99 4.34 2.98 4 4 C2.68 3.34 1.36 2.68 0 2 C0 1.34 0 0.68 0 0 Z " fill="#6C6C6C" transform="translate(177,290)"/>
<path d="M0 0 C1.65 0 3.3 0 5 0 C5 0.99 5 1.98 5 3 C3.35 2.67 1.7 2.34 0 2 C0 1.34 0 0.68 0 0 Z " fill="#7F7F7F" transform="translate(125,255)"/>
<path d="M0 0 C2.64 0 5.28 0 8 0 C7.67 0.66 7.34 1.32 7 2 C4.69 1.67 2.38 1.34 0 1 C0 0.67 0 0.34 0 0 Z " fill="#C1C1C1" transform="translate(233,367)"/>
<path d="M0 0 C2.97 0.495 2.97 0.495 6 1 C5.67 1.66 5.34 2.32 5 3 C3.35 2.67 1.7 2.34 0 2 C0 1.34 0 0.68 0 0 Z " fill="#9F9F9F" transform="translate(168,322)"/>
<path d="M0 0 C-0.33 0.99 -0.66 1.98 -1 3 C-3.0625 3.6875 -3.0625 3.6875 -5 4 C-4.67 3.01 -4.34 2.02 -4 1 C-2 0 -2 0 0 0 Z " fill="#BABABA" transform="translate(279,374)"/>
<path d="M0 0 C1.65 0 3.3 0 5 0 C5 0.99 5 1.98 5 3 C2.525 2.01 2.525 2.01 0 1 C0 0.67 0 0.34 0 0 Z " fill="#999999" transform="translate(175,325)"/>
<path d="M0 0 C2.5 1.375 2.5 1.375 5 3 C5 3.66 5 4.32 5 5 C3.0625 4.1875 3.0625 4.1875 1 3 C0.67 2.01 0.34 1.02 0 0 Z " fill="#B3B3B3" transform="translate(137,300)"/>
<path d="M0 0 C1.9375 0.3125 1.9375 0.3125 4 1 C4.33 1.99 4.66 2.98 5 4 C2.525 3.01 2.525 3.01 0 2 C0 1.34 0 0.68 0 0 Z " fill="#818181" transform="translate(138,290)"/>
<path d="M0 0 C1.65 0 3.3 0 5 0 C5 0.66 5 1.32 5 2 C3.35 2 1.7 2 0 2 C0 1.34 0 0.68 0 0 Z " fill="#898989" transform="translate(209,358)"/>
<path d="M0 0 C1.32 0.33 2.64 0.66 4 1 C4 1.66 4 2.32 4 3 C2.68 2.67 1.36 2.34 0 2 C0 1.34 0 0.68 0 0 Z " fill="#AEAEAE" transform="translate(259,342)"/>
<path d="M0 0 C0.66 0.33 1.32 0.66 2 1 C2 1.99 2 2.98 2 4 C1.01 4 0.02 4 -1 4 C-0.67 2.68 -0.34 1.36 0 0 Z " fill="#919191" transform="translate(254,335)"/>
<path d="M0 0 C0.99 0.33 1.98 0.66 3 1 C3 1.66 3 2.32 3 3 C1.68 3 0.36 3 -1 3 C-0.67 2.01 -0.34 1.02 0 0 Z " fill="#939393" transform="translate(114,210)"/>
<path d="M0 0 C0 0.99 0 1.98 0 3 C-1.32 3 -2.64 3 -4 3 C-4 2.34 -4 1.68 -4 1 C-2 0 -2 0 0 0 Z " fill="#7B7B7B" transform="translate(100,192)"/>
<path d="M0 0 C0.66 0 1.32 0 2 0 C2 1.32 2 2.64 2 4 C1.01 3.67 0.02 3.34 -1 3 C-0.67 2.01 -0.34 1.02 0 0 Z " fill="#9D9D9D" transform="translate(373,377)"/>
<path d="M0 0 C0.99 0.33 1.98 0.66 3 1 C3 1.66 3 2.32 3 3 C1.68 2.67 0.36 2.34 -1 2 C-0.67 1.34 -0.34 0.68 0 0 Z " fill="#9E9E9E" transform="translate(118,208)"/>
<path d="M0 0 C0.99 0 1.98 0 3 0 C2.67 0.99 2.34 1.98 2 3 C1.01 2.34 0.02 1.68 -1 1 C-0.67 0.67 -0.34 0.34 0 0 Z " fill="#777777" transform="translate(327,396)"/>
<path d="M0 0 C0.66 0 1.32 0 2 0 C2 0.99 2 1.98 2 3 C1.01 3 0.02 3 -1 3 C-0.67 2.01 -0.34 1.02 0 0 Z " fill="#949494" transform="translate(260,381)"/>
<path d="M0 0 C1.32 0 2.64 0 4 0 C3.67 0.99 3.34 1.98 3 3 C2.01 2.01 1.02 1.02 0 0 Z " fill="#737373" transform="translate(208,370)"/>
<path d="M0 0 C1.32 0 2.64 0 4 0 C4 0.66 4 1.32 4 2 C2.68 2 1.36 2 0 2 C0 1.34 0 0.68 0 0 Z " fill="#5A5A5A" transform="translate(194,358)"/>
<path d="M0 0 C1.32 0 2.64 0 4 0 C4 0.66 4 1.32 4 2 C2.68 2 1.36 2 0 2 C0 1.34 0 0.68 0 0 Z " fill="#888888" transform="translate(211,348)"/>
<path d="M0 0 C2.475 0.495 2.475 0.495 5 1 C3.68 1.33 2.36 1.66 1 2 C0.67 1.34 0.34 0.68 0 0 Z " fill="#BABABA" transform="translate(178,340)"/>
<path d="M0 0 C0.99 0.33 1.98 0.66 3 1 C3 1.66 3 2.32 3 3 C2.01 3 1.02 3 0 3 C0 2.01 0 1.02 0 0 Z " fill="#949494" transform="translate(144,256)"/>
<path d="M0 0 C1.98 0.99 1.98 0.99 4 2 C3.01 2.495 3.01 2.495 2 3 C1.34 2.67 0.68 2.34 0 2 C0 1.34 0 0.68 0 0 Z " fill="#8C8C8C" transform="translate(196,349)"/>
<path d="M0 0 C0.66 0 1.32 0 2 0 C2 0.99 2 1.98 2 3 C1.01 2.67 0.02 2.34 -1 2 C-0.67 1.34 -0.34 0.68 0 0 Z " fill="#979797" transform="translate(138,280)"/>
<path d="M0 0 C1.32 0.33 2.64 0.66 4 1 C2.68 1.33 1.36 1.66 0 2 C0 1.34 0 0.68 0 0 Z " fill="#B0B0B0" transform="translate(123,248)"/>
<path d="M0 0 C1.32 0.33 2.64 0.66 4 1 C3.67 1.66 3.34 2.32 3 3 C2.01 2.01 1.02 1.02 0 0 Z " fill="#979797" transform="translate(109,229)"/>
<path d="M0 0 C0.99 0 1.98 0 3 0 C3 0.66 3 1.32 3 2 C2.01 2 1.02 2 0 2 C0 1.34 0 0.68 0 0 Z " fill="#AFAFAF" transform="translate(137,190)"/>
<path d="M0 0 C0.33 0.99 0.66 1.98 1 3 C0.34 3 -0.32 3 -1 3 C-0.67 2.01 -0.34 1.02 0 0 Z " fill="#9B9B9B" transform="translate(390,376)"/>
<path d="M0 0 C0.66 0 1.32 0 2 0 C1.67 0.99 1.34 1.98 1 3 C0.67 2.01 0.34 1.02 0 0 Z " fill="#C6C6C6" transform="translate(270,375)"/>
<path d="M0 0 C0.66 0 1.32 0 2 0 C2 0.66 2 1.32 2 2 C1.34 2 0.68 2 0 2 C0 1.34 0 0.68 0 0 Z " fill="#C8C8C8" transform="translate(291,387)"/>
<path d="M0 0 C0.66 0 1.32 0 2 0 C2 0.66 2 1.32 2 2 C1.34 2 0.68 2 0 2 C0 1.34 0 0.68 0 0 Z " fill="#DCDCDC" transform="translate(265,346)"/>
<path d="M0 0 C0.66 0 1.32 0 2 0 C2 0.66 2 1.32 2 2 C1.34 2 0.68 2 0 2 C0 1.34 0 0.68 0 0 Z " fill="#A6A6A6" transform="translate(95,210)"/>
<path d="M0 0 C3 1 3 1 3 1 Z " fill="#8B8B8B" transform="translate(192,365)"/>
<path d="M0 0 C0.66 0 1.32 0 2 0 C1.67 0.66 1.34 1.32 1 2 C0.67 1.34 0.34 0.68 0 0 Z " fill="#8E8E8E" transform="translate(168,325)"/>
<path d="M0 0 C3 1 3 1 3 1 Z " fill="#A9A9A9" transform="translate(154,257)"/>
<path d="" fill="#ABABAB" transform="translate(0,0)"/>
<path d="M0 0 C0.33 0.66 0.66 1.32 1 2 C0.34 1.67 -0.32 1.34 -1 1 C-0.67 0.67 -0.34 0.34 0 0 Z " fill="#B9B9B9" transform="translate(131,208)"/>
<path d="M0 0 C2 1 2 1 2 1 Z " fill="#F5F5F5" transform="translate(194,340)"/>
<path d="" fill="#BFBFBF" transform="translate(0,0)"/>
<path d="" fill="#FFFFFF" transform="translate(0,0)"/>
<path d="" fill="#BFBFBF" transform="translate(0,0)"/>
<path d="" fill="#7A7A7A" transform="translate(0,0)"/>
<path d="" fill="#F5F5F5" transform="translate(0,0)"/>
<path d="" fill="#AAAAAA" transform="translate(0,0)"/>
<path d="" fill="#FFFFFF" transform="translate(0,0)"/>
</svg>
