<?xml version="1.0" encoding="UTF-8"?>
<svg version="1.1" xmlns="http://www.w3.org/2000/svg" width="400" height="400">
<path d="M0 0 C1.83456154 0.92001225 3.66809646 1.84202338 5.50097656 2.76538086 C12.42724364 6.24446193 19.39793506 9.63208435 26.375 13.0078125 C27.31732483 13.46388382 27.31732483 13.46388382 28.27868652 13.9291687 C36.42520589 17.86649637 44.614284 21.68990895 52.875 25.3828125 C59.96216276 28.56078369 66.92843577 31.90953593 73.8125 35.5078125 C74.59254395 35.91290039 75.37258789 36.31798828 76.17626953 36.73535156 C83.88159347 40.83142046 89.31490646 45.00481463 92.5 53.4453125 C94.34669743 62.52490821 93.30695163 69.50106761 88.1875 77.2578125 C80.73710393 85.29128304 69.73039481 88.43680379 59.73046875 92.09765625 C56.19826617 93.39120023 52.70864149 94.74800229 49.23828125 96.19921875 C33.24611298 102.85769243 33.24611298 102.85769243 26.25 101.1328125 C22.41621364 99.32047713 20.71648982 97.83254723 18.375 94.3203125 C16.64309447 89.41324682 16.61852001 85.82783774 18.4375 80.9453125 C22.10524994 75.25397638 27.06783785 73.1421281 33.17578125 70.8984375 C33.92337204 70.61554871 34.67096283 70.33265991 35.44120789 70.04119873 C37.81181937 69.14640614 40.18697147 68.26445692 42.5625 67.3828125 C44.17805197 66.77558389 45.79329008 66.16751953 47.40820312 65.55859375 C51.3519027 64.07363815 55.29972287 62.60017606 59.25 61.1328125 C49.80443585 55.98885388 40.29030371 51.16041908 30.5 46.6953125 C28.662326 45.85032658 26.82545963 45.00360067 24.98858643 44.15687561 C23.18816773 43.3272083 21.38705862 42.49903974 19.5859375 41.67089844 C15.04601983 39.57769869 10.51876159 37.45876069 6 35.3203125 C5.24436768 34.96275879 4.48873535 34.60520508 3.71020508 34.23681641 C-0.41385292 32.27470552 -4.51047857 30.26664063 -8.58129883 28.19628906 C-9.31759521 27.8247168 -10.0538916 27.45314453 -10.8125 27.0703125 C-11.97234909 26.48497742 -13.13219818 25.89964233 -14.32719421 25.29656982 C-18.90846133 23.02509615 -23.56653707 20.9462378 -28.24609375 18.88671875 C-29.06879761 18.52292114 -29.89150146 18.15912354 -30.73913574 17.78430176 C-32.74205608 16.89888438 -34.74592819 16.01562051 -36.75 15.1328125 C-36.74333817 16.3973526 -36.73667633 17.6618927 -36.72981262 18.9647522 C-36.6689926 30.88293368 -36.62402298 42.80108367 -36.59456348 54.71938515 C-36.57890892 60.84668064 -36.55767413 66.97385084 -36.52368164 73.10107422 C-36.49108123 79.01439012 -36.47314541 84.92758551 -36.46536827 90.84098434 C-36.45982603 93.09682487 -36.44900344 95.35265882 -36.43280983 97.60844803 C-36.41102691 100.7685699 -36.40803349 103.92819401 -36.40942383 107.08837891 C-36.398638 108.02058258 -36.38785217 108.95278625 -36.3767395 109.91323853 C-36.40133633 115.08127477 -36.86356176 118.65928775 -39.75 123.1328125 C-43.73739815 126.74639207 -47.40151824 127.43594681 -52.7578125 127.34765625 C-56.94728253 126.89585066 -59.19678662 124.71675996 -62 121.7578125 C-64.97503646 117.2952578 -64.87765347 112.90194787 -64.8828125 107.64453125 C-64.88431305 106.98146469 -64.8858136 106.31839813 -64.88735962 105.63523865 C-64.889771 103.36354103 -64.88328039 101.09199544 -64.875 98.8203125 C-64.87278442 98.02244324 -64.87056885 97.22457397 -64.86828613 96.40252686 C-64.84988439 90.55317991 -64.81256852 84.70403283 -64.77282715 78.85479736 C-64.7520238 75.46279431 -64.73597882 72.07081643 -64.72165108 68.67878246 C-64.68760398 60.66249085 -64.63645716 52.64654285 -64.56288338 44.63051128 C-64.52562938 40.54161354 -64.49475154 36.45290542 -64.47955322 32.36386108 C-64.46447338 28.44554362 -64.43002314 24.52783414 -64.38181686 20.60978889 C-64.36705568 19.15012911 -64.35895576 17.69038411 -64.35808182 16.23064995 C-64.34653459 6.38812375 -63.17681447 -0.3598071 -58 -8.6796875 C-41.03579232 -25.17266719 -16.9749133 -8.47829093 0 0 Z " fill="#623FF3" transform="translate(229.75,103.8671875)"/>
<path d="M0 0 C0 0.66 0 1.32 0 2 C0.66 2 1.32 2 2 2 C3.75621932 5.04284053 4.25318971 7.24178446 4.26742554 10.74160767 C4.28022049 12.1669986 4.28022049 12.1669986 4.29327393 13.6211853 C4.29191437 15.17502426 4.29191437 15.17502426 4.29052734 16.76025391 C4.29724457 17.85668213 4.30396179 18.95311035 4.31088257 20.08276367 C4.32990712 23.71407586 4.33378954 27.34520354 4.3359375 30.9765625 C4.34236408 33.50279822 4.34909234 36.02903319 4.35610962 38.55526733 C4.3680948 43.85636418 4.37187498 49.15739233 4.37060547 54.45849609 C4.36940676 60.56606511 4.39045476 66.67327919 4.4220928 72.7807585 C4.45151887 78.67327428 4.45857813 84.56565108 4.45738602 90.45823288 C4.45974041 92.95637838 4.46855472 95.45452673 4.48405075 97.95262527 C4.50374404 101.45650472 4.49785783 104.95948357 4.48583984 108.46337891 C4.49707886 109.48712616 4.50831787 110.51087341 4.51989746 111.56564331 C4.45299699 119.27871306 2.91513064 126.16101639 -1.82421875 132.40234375 C-7.60087536 137.1617275 -13.38352343 140.38777867 -21.0625 140.125 C-28.4371782 138.92772927 -35.29680189 135.16102515 -42 132 C-42.73009277 131.65904297 -43.46018555 131.31808594 -44.21240234 130.96679688 C-49.82457007 128.34509006 -55.41403148 125.67697839 -61 123 C-63.88841073 121.61771422 -66.77696777 120.23573447 -69.66552734 118.85375977 C-71.63613676 117.91072188 -73.60651504 116.96720086 -75.57666016 116.02319336 C-81.35085766 113.25843341 -87.13774361 110.52315286 -92.9375 107.8125 C-98.9004181 105.02216913 -104.79814365 102.12073007 -110.67456055 99.15307617 C-119.00370219 94.96336503 -127.44208379 90.99979056 -135.87207031 87.01806641 C-137.9268323 86.03500566 -139.96593408 85.02510008 -142 84 C-142 83.34 -142 82.68 -142 82 C-142.928125 81.62875 -142.928125 81.62875 -143.875 81.25 C-146.35068687 79.79371361 -146.95125002 78.62187494 -148 76 C-148.66 76 -149.32 76 -150 76 C-153.04955205 69.23576727 -154.31727118 60.70993768 -151.875 53.5625 C-146.02493246 41.13110648 -133.18462131 37.69296293 -121.28466797 32.92480469 C-119.00576986 32.00233556 -116.73814979 31.05643589 -114.47265625 30.1015625 C-92.45331604 20.82606056 -92.45331604 20.82606056 -83 24 C-83 24.66 -83 25.32 -83 26 C-81.515 26.495 -81.515 26.495 -80 27 C-77.21947592 31.76661271 -76.70775596 35.24431252 -77.1875 40.69140625 C-78.95246303 45.70627716 -81.79530671 48.4065821 -86.42578125 50.6875 C-87.71498912 51.14341502 -89.01108146 51.58020812 -90.3125 52 C-91.73063067 52.4943274 -93.14859441 52.9891339 -94.56640625 53.484375 C-95.65719482 53.8546582 -95.65719482 53.8546582 -96.77001953 54.23242188 C-100.45628586 55.5012659 -104.101221 56.87785294 -107.75 58.25 C-108.41684814 58.49621094 -109.08369629 58.74242187 -109.77075195 58.99609375 C-112.94135404 60.17524665 -116.01559162 61.40228642 -119 63 C-116.48043257 64.27339482 -113.95941351 65.54376642 -111.4375 66.8125 C-110.73302734 67.16892578 -110.02855469 67.52535156 -109.30273438 67.89257812 C-104.92621075 70.09092409 -100.52125402 72.11663926 -96 74 C-96 74.66 -96 75.32 -96 76 C-95.16726562 76.0825 -94.33453125 76.165 -93.4765625 76.25 C-89.26472136 77.15862191 -86.09036792 78.88327644 -82.375 81 C-76.93087456 84.09161876 -76.93087456 84.09161876 -71 86 C-71 86.66 -71 87.32 -71 88 C-70.17886719 88.0825 -69.35773438 88.165 -68.51171875 88.25 C-64.17289036 89.17664633 -60.71449679 90.94291045 -56.8125 93 C-55.40320923 93.73083801 -53.99308457 94.46007082 -52.58203125 95.1875 C-51.96561768 95.51105469 -51.3492041 95.83460938 -50.71411133 96.16796875 C-48.82712543 97.12972631 -48.82712543 97.12972631 -46 98 C-46 98.66 -46 99.32 -46 100 C-44.68 100 -43.36 100 -42 100 C-42 100.66 -42 101.32 -42 102 C-40.824375 102.0928125 -40.824375 102.0928125 -39.625 102.1875 C-35.40931611 103.13239466 -32.07081612 104.83508334 -28.26953125 106.84375 C-25.93311799 108.10500838 -25.93311799 108.10500838 -23 109 C-23.00999275 107.144105 -23.00999275 107.144105 -23.02018738 105.25071716 C-23.08103797 93.5830224 -23.1259917 81.9153599 -23.15543652 70.24754238 C-23.17108334 64.24918942 -23.19230397 58.25096471 -23.22631836 52.25268555 C-23.25894641 46.46255802 -23.27686041 40.67255376 -23.28463173 34.88234138 C-23.29016901 32.67477542 -23.30098196 30.46721609 -23.31719017 28.25970268 C-23.33900987 25.16444262 -23.34196498 22.06969 -23.34057617 18.97436523 C-23.351362 18.06445831 -23.36214783 17.15455139 -23.3732605 16.21707153 C-23.34663554 10.72267421 -22.64300886 6.85340099 -20 2 C-17.8125 0.5625 -17.8125 0.5625 -16 0 C-16 -0.66 -16 -1.32 -16 -2 C-10.38362811 -3.57960459 -4.91201114 -3.27467409 0 0 Z " fill="#0B0B0B" transform="translate(230,172)"/>
<path d="M0 0 C-0.99 0.66 -1.98 1.32 -3 2 C-3 1.34 -3 0.68 -3 0 C-5.87506421 -0.02712325 -8.74986908 -0.04689851 -11.625 -0.0625 C-12.43324219 -0.07087891 -13.24148437 -0.07925781 -14.07421875 -0.08789062 C-18.46643449 -0.10574516 -22.72217358 -0.12292944 -27 1 C-28.45291273 3.46255685 -28.45291273 3.46255685 -29 6 C-29.66 6 -30.32 6 -31 6 C-31 6.66 -31 7.32 -31 8 C-31.66 8 -32.32 8 -33 8 C-33.96385798 22.24345075 -34.20874186 36.45378977 -34.31640625 50.7265625 C-34.33703213 53.05496542 -34.35802982 55.38336508 -34.37937927 57.71176147 C-34.43401926 63.77780475 -34.48367935 69.84387846 -34.53222656 75.90997314 C-34.58287151 82.12490479 -34.63833087 88.33979339 -34.69335938 94.5546875 C-34.80022825 106.70308804 -34.90182499 118.8515263 -35 131 C-34.34 131 -33.68 131 -33 131 C-33 131.66 -33 132.32 -33 133 C-29.77484237 134.73662334 -26.48670834 135.8905928 -23 137 C-23 136.01 -23 135.02 -23 134 C-20.36 134.33 -17.72 134.66 -15 135 C-18.08711033 138.38112083 -20.23058589 138.95036038 -24.875 139.25 C-28.71742642 139.1866633 -30.94499461 138.46097657 -34 136 C-38.88850016 130.8399165 -39.12604107 126.4122923 -39.1328125 119.51171875 C-39.13431305 118.84865219 -39.1358136 118.18558563 -39.13735962 117.50242615 C-39.139771 115.23072853 -39.13328039 112.95918294 -39.125 110.6875 C-39.12278442 109.88963074 -39.12056885 109.09176147 -39.11828613 108.26971436 C-39.09988439 102.42036741 -39.06256852 96.57122033 -39.02282715 90.72198486 C-39.0020238 87.32998181 -38.98597882 83.93800393 -38.97165108 80.54596996 C-38.93760398 72.52967835 -38.88645716 64.51373035 -38.81288338 56.49769878 C-38.77562938 52.40880104 -38.74475154 48.32009292 -38.72955322 44.23104858 C-38.71447338 40.31273112 -38.68002314 36.39502164 -38.63181686 32.47697639 C-38.61705568 31.01731661 -38.60895576 29.55757161 -38.60808182 28.09783745 C-38.59653459 18.25531125 -37.42681447 11.5073804 -32.25 3.1875 C-22.52115352 -6.27110075 -11.55699132 -4.75876113 0 0 Z " fill="#8A74E2" transform="translate(204,92)"/>
<path d="M0 0 C0.99 0.33 1.98 0.66 3 1 C2.34 1 1.68 1 1 1 C1 34 1 67 1 101 C0.67 101 0.34 101 0 101 C-0.33 98.36 -0.66 95.72 -1 93 C-1.33 93 -1.66 93 -2 93 C-2.04636574 81.76025073 -2.0818908 70.52052425 -2.10362434 59.28069878 C-2.11405599 54.06144708 -2.12820399 48.84226088 -2.15087891 43.62304688 C-2.17262921 38.58505739 -2.18457329 33.54713087 -2.18975449 28.50909805 C-2.1934463 26.58819717 -2.20065548 24.66729968 -2.21146011 22.74642563 C-2.22600402 20.0533685 -2.22797672 17.36057063 -2.22705078 14.66748047 C-2.23424133 13.87553787 -2.24143188 13.08359528 -2.24884033 12.26765442 C-2.23219974 7.78703776 -1.69361974 4.2233276 0 0 Z " fill="#6144D7" transform="translate(191,116)"/>
<path d="M0 0 C4.29196046 0.95784212 7.90246898 2.78595856 11.8125 4.75 C12.49892578 5.08515625 13.18535156 5.4203125 13.89257812 5.765625 C22.25852485 9.94464096 28.80973976 14.19581036 32.25 23.3125 C33.75732228 30.72350121 33.63370673 37.22938239 30 44 C28.44862655 46.16545878 26.81511429 48.03771428 25 50 C24.34 49.67 23.68 49.34 23 49 C23 48.34 23 47.68 23 47 C23.99 47 24.98 47 26 47 C26 45.02 26 43.04 26 41 C26.99 41 27.98 41 29 41 C29.79554249 31.59022548 29.79554249 31.59022548 26.5 23.4375 C26.005 22.963125 25.51 22.48875 25 22 C24.3125 19.3125 24.3125 19.3125 24 17 C22.02 16.34 20.04 15.68 18 15 C18 13.68 18 12.36 18 11 C15.69 10.67 13.38 10.34 11 10 C11 9.01 11 8.02 11 7 C9.68 6.67 8.36 6.34 7 6 C7 5.34 7 4.68 7 4 C5.68 4 4.36 4 3 4 C1.25 2 1.25 2 0 0 Z " fill="#6143DB" transform="translate(290,134)"/>
<path d="M0 0 C13.34816248 -0.38878143 13.34816248 -0.38878143 18 2 C18.33 2.99 18.66 3.98 19 5 C18.67 5.66 18.34 6.32 18 7 C19.0725 7.12375 20.145 7.2475 21.25 7.375 C24.37863615 7.89643936 26.33480424 8.40088254 29 10 C29 10.66 29 11.32 29 12 C29.5775 12.12375 30.155 12.2475 30.75 12.375 C33 13 33 13 34.75 14 C38.09613831 15.48717258 41.36310804 15.6363108 45 16 C44.505 17.485 44.505 17.485 44 19 C47.3 19 50.6 19 54 19 C54.66 21.31 55.32 23.62 56 26 C55.01 26.495 55.01 26.495 54 27 C51.53697276 25.97646896 49.19649644 24.88868541 46.81640625 23.6953125 C46.09273865 23.34040237 45.36907104 22.98549225 44.62347412 22.61982727 C42.26623404 21.46200715 39.91446673 20.29348942 37.5625 19.125 C35.96097033 18.33642728 34.35900077 17.5487473 32.7565918 16.76196289 C30.37514259 15.5925732 27.99395519 14.42269036 25.61421204 13.24983215 C19.53973102 10.25660091 13.43994118 7.32092946 7.3125 4.4375 C6.54301025 4.07479004 5.77352051 3.71208008 4.98071289 3.33837891 C3.32125955 2.55725093 1.66078792 1.77828646 0 1 C0 0.67 0 0.34 0 0 Z " fill="#7B63DC" transform="translate(234,137)"/>
<path d="M0 0 C5.31379521 1.60954397 10.19627902 3.86592312 15.1953125 6.24609375 C16.06517792 6.65787369 16.93504333 7.06965363 17.83126831 7.49391174 C19.66258944 8.36212109 21.49306988 9.23210565 23.32275391 10.10375977 C26.11996368 11.43510294 28.92110444 12.7579009 31.72265625 14.08007812 C33.50545242 14.92656945 35.28801269 15.77355782 37.0703125 16.62109375 C37.9057962 17.01493759 38.74127991 17.40878143 39.6020813 17.81455994 C43.33782518 19.60176135 46.82046364 21.29583286 50 24 C43.97314783 24.25111884 38.74357537 23.94871307 33 22 C32.505 20.515 32.505 20.515 32 19 C29.05594509 17.55746695 29.05594509 17.55746695 25.5625 16.375 C24.38816406 15.94960937 23.21382813 15.52421875 22.00390625 15.0859375 C21.01261719 14.72757813 20.02132813 14.36921875 19 14 C16.48916886 12.74458443 16.12874554 11.49936512 15 9 C14.2575 9.020625 13.515 9.04125 12.75 9.0625 C10.29537721 9.00671312 8.33890739 8.6930096 6 8 C6 7.34 6 6.68 6 6 C4.35 6.33 2.7 6.66 1 7 C0.67 4.69 0.34 2.38 0 0 Z " fill="#6144D8" transform="translate(240,110)"/>
<path d="M0 0 C-2.64738916 1.4606285 -3.89448334 2 -7 2 C-7 2.99 -7 3.98 -7 5 C-8.56159059 5.48212214 -10.12431928 5.96055873 -11.6875 6.4375 C-12.55761719 6.70433594 -13.42773438 6.97117188 -14.32421875 7.24609375 C-16.87025921 7.96344529 -19.4003423 8.517541 -22 9 C-22 9.66 -22 10.32 -22 11 C-22.598125 11.268125 -23.19625 11.53625 -23.8125 11.8125 C-25.97224808 12.98493467 -27.35790256 14.19369282 -29 16 C-29.66 15.34 -30.32 14.68 -31 14 C-31.45375 14.825 -31.9075 15.65 -32.375 16.5 C-33.179375 17.7375 -33.179375 17.7375 -34 19 C-34.66 19 -35.32 19 -36 19 C-36.33 22.63 -36.66 26.26 -37 30 C-39.49455917 26.25816125 -39.37606522 24.43756964 -39 20 C-36.80955418 14.12038227 -33.52266566 11.20792199 -27.90966797 8.52026367 C-26.78189941 8.07400635 -25.65413086 7.62774902 -24.4921875 7.16796875 C-23.884888 6.92710037 -23.2775885 6.68623199 -22.65188599 6.43806458 C-21.37786747 5.93555929 -20.10210341 5.43745899 -18.82470703 4.94360352 C-16.86839326 4.18493788 -14.92055115 3.40694373 -12.97265625 2.62695312 C-11.72962645 2.13945103 -10.48615146 1.6530822 -9.2421875 1.16796875 C-7.55391846 0.50704224 -7.55391846 0.50704224 -5.83154297 -0.16723633 C-3 -1 -3 -1 0 0 Z " fill="#6147CD" transform="translate(286,168)"/>
<path d="M0 0 C0.99 0.33 1.98 0.66 3 1 C2.01 1.495 2.01 1.495 1 2 C1.00666183 3.2645401 1.01332367 4.5290802 1.02018738 5.8319397 C1.0810074 17.75012118 1.12597702 29.66827117 1.15543652 41.58657265 C1.17109108 47.71386814 1.19232587 53.84103834 1.22631836 59.96826172 C1.25891877 65.88157762 1.27685459 71.79477301 1.28463173 77.70817184 C1.29017397 79.96401237 1.30099656 82.21984632 1.31719017 84.47563553 C1.33897309 87.6357574 1.34196651 90.79538151 1.34057617 93.95556641 C1.35675491 95.35387192 1.35675491 95.35387192 1.3732605 96.78042603 C1.34858014 101.96601257 0.82399239 105.46961788 -2 110 C-3.54578627 106.90842747 -2.60277633 104.31526981 -2 101 C-1.505 100.505 -1.505 100.505 -1 100 C-0.874595 96.89564263 -0.8138673 93.81247504 -0.79467773 90.70678711 C-0.78477814 89.73128403 -0.77487854 88.75578094 -0.76467896 87.75071716 C-0.73296052 84.50961782 -0.70826581 81.26850378 -0.68359375 78.02734375 C-0.66303314 75.78674426 -0.64203692 73.54614873 -0.62062073 71.30555725 C-0.56530775 65.39544877 -0.5159393 59.48530475 -0.46777344 53.57513428 C-0.4176256 47.54940614 -0.36190455 41.52372988 -0.30664062 35.49804688 C-0.19894628 23.66540886 -0.09752652 11.83272588 0 0 Z " fill="#CCBCFC" transform="translate(192,117)"/>
<path d="M0 0 C0.33 0 0.66 0 1 0 C1.1429338 5.21442281 1.28533657 10.42885976 1.42724609 15.64331055 C1.47560241 17.41740308 1.52410412 19.19149166 1.57275391 20.96557617 C1.64263475 23.51480094 1.71199361 26.06403945 1.78125 28.61328125 C1.80312378 29.40712723 1.82499756 30.20097321 1.84753418 31.01887512 C1.92849896 34.01365561 2 37.00396466 2 40 C2.66 40 3.32 40 4 40 C4 40.66 4 41.32 4 42 C7.22515763 43.73662334 10.51329166 44.8905928 14 46 C14 45.01 14 44.02 14 43 C16.64 43.33 19.28 43.66 22 44 C18.91288967 47.38112083 16.76941411 47.95036038 12.125 48.25 C8.28700128 48.17957801 5.98978128 47.56266967 3 45 C-0.25113742 39.88273225 -0.4032424 35.73775168 -0.29296875 29.8828125 C-0.28872391 29.02565643 -0.28447906 28.16850037 -0.28010559 27.28536987 C-0.26339886 24.56491836 -0.22576219 21.84522518 -0.1875 19.125 C-0.17244278 17.27344825 -0.1587562 15.42188481 -0.14648438 13.5703125 C-0.11352165 9.04658567 -0.06179537 4.52342113 0 0 Z " fill="#6148D0" transform="translate(167,183)"/>
<path d="M0 0 C-0.99 0.66 -1.98 1.32 -3 2 C-3 1.34 -3 0.68 -3 0 C-5.87506421 -0.02712325 -8.74986908 -0.04689851 -11.625 -0.0625 C-12.43324219 -0.07087891 -13.24148437 -0.07925781 -14.07421875 -0.08789062 C-18.46643449 -0.10574516 -22.72217358 -0.12292944 -27 1 C-28.45291273 3.46255685 -28.45291273 3.46255685 -29 6 C-29.66 6 -30.32 6 -31 6 C-31 6.66 -31 7.32 -31 8 C-31.66 8 -32.32 8 -33 8 C-33 9.32 -33 10.64 -33 12 C-33.99 12 -34.98 12 -36 12 C-35.58116209 7.2531704 -33.4934677 4.10910083 -30 1 C-19.32823341 -5.5736418 -11.25426522 -4.63410921 0 0 Z " fill="#9C8BDA" transform="translate(204,92)"/>
<path d="M0 0 C6.875 0.875 6.875 0.875 8 2 C9.155 2.144375 10.31 2.28875 11.5 2.4375 C12.655 2.623125 13.81 2.80875 15 3 C15.33 3.66 15.66 4.32 16 5 C16.763125 5.12375 17.52625 5.2475 18.3125 5.375 C21.6319741 6.14697072 22.78171245 7.47574176 25 10 C25.66 10.66 26.32 11.32 27 12 C27 12.66 27 13.32 27 14 C21.50901956 12.3401448 16.42651936 10.00105821 11.25 7.5625 C10.38761719 7.16740234 9.52523437 6.77230469 8.63671875 6.36523438 C7.81300781 5.97787109 6.98929688 5.59050781 6.140625 5.19140625 C5.39329102 4.84279541 4.64595703 4.49418457 3.87597656 4.13500977 C2 3 2 3 0 0 Z " fill="#826ADB" transform="translate(194,117)"/>
<path d="M0 0 C4.29196046 0.95784212 7.90246898 2.78595856 11.8125 4.75 C12.49892578 5.08515625 13.18535156 5.4203125 13.89257812 5.765625 C18.61131331 8.12276046 22.77516897 10.84104137 27 14 C26.67 14.66 26.34 15.32 26 16 C23.2716232 16 20.68345937 15.46668859 18 15 C18 13.68 18 12.36 18 11 C15.69 10.67 13.38 10.34 11 10 C11 9.01 11 8.02 11 7 C9.68 6.67 8.36 6.34 7 6 C7 5.34 7 4.68 7 4 C5.68 4 4.36 4 3 4 C1.25 2 1.25 2 0 0 Z " fill="#927FDF" transform="translate(290,134)"/>
<path d="M0 0 C2.875 -0.125 2.875 -0.125 6 0 C6.66 0.66 7.32 1.32 8 2 C9.96690374 2.67292501 9.96690374 2.67292501 12.125 3.125 C13.40375 3.41375 14.6825 3.7025 16 4 C16.33 3.01 16.66 2.02 17 1 C17.33 1.66 17.66 2.32 18 3 C20.31 2.34 22.62 1.68 25 1 C25.66 1.66 26.32 2.32 27 3 C20.38774945 6.15137047 14.38001162 8.28292801 7 7 C1.38028169 4.14084507 1.38028169 4.14084507 0 0 Z " fill="#7359D8" transform="translate(249,198)"/>
<path d="M0 0 C5.01670207 0.65217127 9.23440787 2.78631151 13.75 4.9375 C14.52988281 5.29779297 15.30976563 5.65808594 16.11328125 6.02929688 C16.85449219 6.37927734 17.59570312 6.72925781 18.359375 7.08984375 C19.03452148 7.40816162 19.70966797 7.72647949 20.40527344 8.05444336 C22 9 22 9 23 11 C20.29120665 12.35439668 17.99066732 12.06501451 15 12 C14.67 11.01 14.34 10.02 14 9 C12.741875 8.938125 11.48375 8.87625 10.1875 8.8125 C7.96875 8.55078125 7.96875 8.55078125 6 8 C4.1875 5.5 4.1875 5.5 3 3 C2.01 2.67 1.02 2.34 0 2 C0 1.34 0 0.68 0 0 Z " fill="#856EDC" transform="translate(204,93)"/>
<path d="M0 0 C5.56664924 1.66086912 10.65786353 4.11071736 15.875 6.625 C16.75414062 7.04523438 17.63328125 7.46546875 18.5390625 7.8984375 C20.69422878 8.9291692 22.84779922 9.96309426 25 11 C24.01 11.66 23.02 12.32 22 13 C22 12.34 22 11.68 22 11 C21.21625 11.04125 20.4325 11.0825 19.625 11.125 C17 11 17 11 15 9 C13.33391013 8.95615553 11.66619446 8.9603287 10 9 C8.65667272 8.70955086 7.31774196 8.39044206 6 8 C6 7.34 6 6.68 6 6 C4.35 6.33 2.7 6.66 1 7 C0.67 4.69 0.34 2.38 0 0 Z " fill="#6C52DB" transform="translate(240,110)"/>
<path d="M0 0 C13.34816248 -0.38878143 13.34816248 -0.38878143 18 2 C18.33 2.99 18.66 3.98 19 5 C18.67 5.66 18.34 6.32 18 7 C13.00216563 7.36020428 10.01981128 6.34389935 5.625 4 C4.56539062 3.443125 3.50578125 2.88625 2.4140625 2.3125 C1.61742187 1.879375 0.82078125 1.44625 0 1 C0 0.67 0 0.34 0 0 Z " fill="#6243E2" transform="translate(234,137)"/>
<path d="M0 0 C0.99 0.33 1.98 0.66 3 1 C2.34 1 1.68 1 1 1 C0.855625 1.804375 0.71125 2.60875 0.5625 3.4375 C0 6 0 6 -1 7 C-1.07244053 9.01964199 -1.08377188 11.04167124 -1.0625 13.0625 C-1.05347656 14.16722656 -1.04445312 15.27195313 -1.03515625 16.41015625 C-1.02355469 17.26480469 -1.01195312 18.11945313 -1 19 C-1.33 18.34 -1.66 17.68 -2 17 C-3.32 17 -4.64 17 -6 17 C-6.0270043 15.54176788 -6.04639787 14.08339325 -6.0625 12.625 C-6.07410156 11.81289062 -6.08570313 11.00078125 -6.09765625 10.1640625 C-6 8 -6 8 -5 6 C-4.34 6 -3.68 6 -3 6 C-2.690625 5.195625 -2.38125 4.39125 -2.0625 3.5625 C-1 1 -1 1 0 0 Z " fill="#6242E4" transform="translate(255,181)"/>
<path d="M0 0 C9.61181435 -0.56540084 9.61181435 -0.56540084 14 3 C14.33 3.66 14.66 4.32 15 5 C16.94603274 5.59070014 16.94603274 5.59070014 19 6 C19.66 6.33 20.32 6.66 21 7 C21 7.99 21 8.98 21 10 C16.15713185 8.50640515 11.68649104 6.54966433 7.125 4.375 C6.43664062 4.05015625 5.74828125 3.7253125 5.0390625 3.390625 C3.35794781 2.59676528 1.67877079 1.79880442 0 1 C0 0.67 0 0.34 0 0 Z " fill="#846CD9" transform="translate(248,144)"/>
<path d="M0 0 C4.9723422 1.49170266 9.41845739 3.60457417 14 6 C14 6.33 14 6.66 14 7 C7.93107371 7.25287193 2.83799592 6.69832609 -3 5 C-3.33 3.68 -3.66 2.36 -4 1 C-2.68 1.33 -1.36 1.66 0 2 C0 1.34 0 0.68 0 0 Z " fill="#8269E2" transform="translate(276,127)"/>
<path d="M0 0 C7.01937497 -0.893375 12.55975131 1.34813289 19 4 C18.01 4.66 17.02 5.32 16 6 C16 5.34 16 4.68 16 4 C10.06 3.67 4.12 3.34 -2 3 C-1.34 2.01 -0.68 1.02 0 0 Z " fill="#907ED5" transform="translate(185,88)"/>
<path d="M0 0 C5.94 1.485 5.94 1.485 12 3 C12 2.01 12 1.02 12 0 C14.64 0.33 17.28 0.66 20 1 C16.91288967 4.38112083 14.76941411 4.95036038 10.125 5.25 C6.33450271 5.20811605 4.03255083 4.38928247 1 2 C0.67 1.34 0.34 0.68 0 0 Z " fill="#B19EE2" transform="translate(169,226)"/>
<path d="M0 0 C0.33 0 0.66 0 1 0 C1.07449251 4.44739413 1.12876257 8.8944519 1.16479492 13.34228516 C1.17982543 14.85341727 1.20025564 16.36450618 1.22631836 17.87548828 C1.26295689 20.05512187 1.27978338 22.23417575 1.29296875 24.4140625 C1.3086792 25.7232666 1.32438965 27.0324707 1.34057617 28.38134766 C0.9765967 32.24866211 -0.04858416 34.67336493 -2 38 C-3.54578627 34.90842747 -2.60277633 32.31526981 -2 29 C-1.67 28.67 -1.34 28.34 -1 28 C-0.8415735 25.9291528 -0.74875578 23.85321971 -0.68359375 21.77734375 C-0.64169922 20.51728516 -0.59980469 19.25722656 -0.55664062 17.95898438 C-0.51682404 16.61849264 -0.47711186 15.2779978 -0.4375 13.9375 C-0.39431958 12.59308477 -0.35070544 11.2486834 -0.30664062 9.90429688 C-0.20014642 6.6029766 -0.0981354 3.30157764 0 0 Z " fill="#BCADED" transform="translate(192,189)"/>
<path d="M0 0 C1.63001953 0.01353516 1.63001953 0.01353516 3.29296875 0.02734375 C4.12441406 0.03894531 4.95585937 0.05054688 5.8125 0.0625 C3.2749958 2.66887175 1.24031126 4.73560532 -2.1875 6.0625 C-3.1775 6.0625 -4.1675 6.0625 -5.1875 6.0625 C-5.1875 5.4025 -5.1875 4.7425 -5.1875 4.0625 C-5.8475 4.0625 -6.5075 4.0625 -7.1875 4.0625 C-7.1875 3.4025 -7.1875 2.7425 -7.1875 2.0625 C-7.8475 1.7325 -8.5075 1.4025 -9.1875 1.0625 C-5.90230525 -0.03256492 -3.45086585 -0.03710608 0 0 Z " fill="#836BDF" transform="translate(307.1875,183.9375)"/>
<path d="M0 0 C-2.64738916 1.4606285 -3.89448334 2 -7 2 C-7 2.99 -7 3.98 -7 5 C-8.91345327 5.53251766 -10.8309295 6.05059483 -12.75 6.5625 C-13.81734375 6.85253906 -14.8846875 7.14257812 -15.984375 7.44140625 C-18.93209929 7.98742254 -20.21769433 7.82156762 -23 7 C-19.73540494 5.63042995 -16.46246823 4.28205515 -13.1875 2.9375 C-11.7943457 2.35258789 -11.7943457 2.35258789 -10.37304688 1.75585938 C-9.0340332 1.20961914 -9.0340332 1.20961914 -7.66796875 0.65234375 C-6.84578857 0.31195068 -6.0236084 -0.02844238 -5.17651367 -0.37915039 C-3 -1 -3 -1 0 0 Z " fill="#AC98E4" transform="translate(286,168)"/>
<path d="M0 0 C3.67333781 3.67333781 4.13158138 8.55508412 4.25 13.5625 C4.17230786 17.34351747 3.44502406 20.47775384 2 24 C1.67 24 1.34 24 1 24 C1.01160156 22.9378125 1.02320313 21.875625 1.03515625 20.78125 C1.1218771 10.35389085 1.1218771 10.35389085 0 0 Z " fill="#A698DB" transform="translate(319,152)"/>
<path d="M0 0 C1.98 0 3.96 0 6 0 C2.64309635 2.23793576 -0.8339284 3.65050338 -4.5625 5.125 C-5.24763672 5.40214844 -5.93277344 5.67929688 -6.63867188 5.96484375 C-11.7466133 8 -11.7466133 8 -14 8 C-14 7.01 -14 6.02 -14 5 C-9.07015675 2.96006486 -5.42039575 1.59347032 0 2 C0 1.34 0 0.68 0 0 Z " fill="#9B8ADC" transform="translate(296,190)"/>
<path d="M0 0 C2.49770493 1.1893833 4.48680657 2.50776832 6.625 4.25 C6.295 4.91 5.965 5.57 5.625 6.25 C2.8966232 6.25 0.30845937 5.71668859 -2.375 5.25 C-2.375 3.93 -2.375 2.61 -2.375 1.25 C-3.035 0.92 -3.695 0.59 -4.375 0.25 C-2.375 -0.75 -2.375 -0.75 0 0 Z " fill="#846EDD" transform="translate(310.375,143.75)"/>
<path d="M0 0 C1.32 0.66 2.64 1.32 4 2 C3.01 3.485 3.01 3.485 2 5 C1.34 5 0.68 5 0 5 C-0.33 8.63 -0.66 12.26 -1 16 C-3.49455917 12.25816125 -3.37606522 10.43756964 -3 6 C-1.5 2.5625 -1.5 2.5625 0 0 Z " fill="#A18FE1" transform="translate(250,182)"/>
<path d="M0 0 C1.093125 0.0825 2.18625 0.165 3.3125 0.25 C2.9825 0.91 2.6525 1.57 2.3125 2.25 C-0.00906597 2.65729228 -2.3443787 2.99438677 -4.6875 3.25 C-4.6875 4.57 -4.6875 5.89 -4.6875 7.25 C-6.6675 7.58 -8.6475 7.91 -10.6875 8.25 C-10.3575 7.26 -10.0275 6.27 -9.6875 5.25 C-8.6975 4.92 -7.7075 4.59 -6.6875 4.25 C-6.275 3.569375 -5.8625 2.88875 -5.4375 2.1875 C-3.6875 0.25 -3.6875 0.25 0 0 Z " fill="#765CDD" transform="translate(286.6875,191.75)"/>
<path d="M0 0 C4.35065901 -0.2636763 7.94324817 0.39260777 12 2 C13.4375 4.625 13.4375 4.625 14 7 C9.0276578 5.50829734 4.58154261 3.39542583 0 1 C0 0.67 0 0.34 0 0 Z " fill="#9580DD" transform="translate(234,137)"/>
<path d="M0 0 C0.33 0.66 0.66 1.32 1 2 C3.31 1.34 5.62 0.68 8 0 C8.66 0.66 9.32 1.32 10 2 C2.71428571 5.57142857 2.71428571 5.57142857 -2 4 C-1.34 2.68 -0.68 1.36 0 0 Z " fill="#896FDA" transform="translate(266,199)"/>
<path d="M0 0 C4.97306516 0.49730652 8.63799813 1.55302334 13 4 C11.26171875 5.109375 11.26171875 5.109375 9 6 C6.89453125 5.390625 6.89453125 5.390625 4.8125 4.25 C3.77029297 3.70085937 3.77029297 3.70085937 2.70703125 3.140625 C1 2 1 2 0 0 Z " fill="#8874D3" transform="translate(194,117)"/>
<path d="M0 0 C4.875 1.875 4.875 1.875 6 3 C6.04063832 4.66617115 6.042721 6.33388095 6 8 C4.68 8 3.36 8 2 8 C1.34 5.36 0.68 2.72 0 0 Z " fill="#6C52D0" transform="translate(313,148)"/>
<path d="M0 0 C4.85963179 0.60745397 8.7405518 2.72758967 13 5 C11.02 5.99 11.02 5.99 9 7 C8.01 6.34 7.02 5.68 6 5 C6 4.34 6 3.68 6 3 C4.68 3 3.36 3 2 3 C2 2.34 2 1.68 2 1 C1.34 0.67 0.68 0.34 0 0 Z " fill="#A392DD" transform="translate(227,104)"/>
<path d="M0 0 C1.32 0.33 2.64 0.66 4 1 C2.8141763 4.37503669 1.72426311 6.64722731 -1 9 C-1.66 8.67 -2.32 8.34 -3 8 C-3 7.34 -3 6.68 -3 6 C-2.01 6 -1.02 6 0 6 C0 4.02 0 2.04 0 0 Z " fill="#9582DC" transform="translate(316,175)"/>
<path d="M0 0 C0 0.33 0 0.66 0 1 C-0.69867188 1.12117187 -1.39734375 1.24234375 -2.1171875 1.3671875 C-3.48230469 1.61855469 -3.48230469 1.61855469 -4.875 1.875 C-5.77992188 2.03742188 -6.68484375 2.19984375 -7.6171875 2.3671875 C-10.16505988 2.83044703 -10.16505988 2.83044703 -12 5 C-12 4.34 -12 3.68 -12 3 C-12.66 2.67 -13.32 2.34 -14 2 C-9.1289726 -1.2473516 -5.65616983 -1.1838495 0 0 Z " fill="#6F6F6F" transform="translate(144,195)"/>
<path d="M0 0 C0.66 0.33 1.32 0.66 2 1 C-0.97 3.97 -3.94 6.94 -7 10 C-7 6.04435836 -5.59478606 4.89133304 -3 2 C-2.01 1.34 -1.02 0.68 0 0 Z " fill="#757575" transform="translate(88,214)"/>
<path d="M0 0 C-3.64116773 3.33773709 -7.28607242 3.97864902 -12 5 C-8.44416617 1.04907352 -5.38741645 -1.79580548 0 0 Z " fill="#BBAAE7" transform="translate(263,177)"/>
<path d="M0 0 C1.32 0 2.64 0 4 0 C4 0.66 4 1.32 4 2 C5.32 2.66 6.64 3.32 8 4 C4.7 4 1.4 4 -2 4 C-1.34 2.68 -0.68 1.36 0 0 Z " fill="#6041E3" transform="translate(293,138)"/>
<path d="M0 0 C1.46067199 0.45082469 2.91848032 0.91093537 4.375 1.375 C5.18710937 1.63023438 5.99921875 1.88546875 6.8359375 2.1484375 C9 3 9 3 11 5 C3.375 4.125 3.375 4.125 0 3 C0 2.01 0 1.02 0 0 Z " fill="#9E8CE0" transform="translate(265,122)"/>
<path d="M0 0 C4.12751449 0.60698743 7.3321148 2.03810791 11 4 C10.01 4.66 9.02 5.32 8 6 C8 5.34 8 4.68 8 4 C7.236875 4.04125 6.47375 4.0825 5.6875 4.125 C3 4 3 4 0 2 C0 1.34 0 0.68 0 0 Z " fill="#A28DE3" transform="translate(254,117)"/>
<path d="M0 0 C0.99 0.495 0.99 0.495 2 1 C2 1.99 2 2.98 2 4 C2.66 4 3.32 4 4 4 C4 4.66 4 5.32 4 6 C5.32 6.66 6.64 7.32 8 8 C7.01 8.33 6.02 8.66 5 9 C1.7457985 6.16569547 0.4793247 4.31392226 0 0 Z " fill="#634AC3" transform="translate(167,219)"/>
<path d="M0 0 C6.75 1.875 6.75 1.875 9 3 C9 3.66 9 4.32 9 5 C5.625 4.75 5.625 4.75 2 4 C0.5625 1.9375 0.5625 1.9375 0 0 Z " fill="#5F43D4" transform="translate(199,92)"/>
<path d="M0 0 C2.64 0.33 5.28 0.66 8 1 C6.8125 2.5625 6.8125 2.5625 5 4 C2.3125 3.6875 2.3125 3.6875 0 3 C0 2.01 0 1.02 0 0 Z " fill="#8E75E0" transform="translate(181,226)"/>
<path d="M0 0 C-0.66 1.32 -1.32 2.64 -2 4 C-4.66666667 3.33333333 -7.33333333 2.66666667 -10 2 C-3.375 -1.125 -3.375 -1.125 0 0 Z " fill="#686868" transform="translate(118,203)"/>
<path d="M0 0 C1.32 0 2.64 0 4 0 C7 3.21428571 7 3.21428571 7 6 C2.32307692 4.52307692 2.32307692 4.52307692 0.6875 1.875 C0.460625 1.25625 0.23375 0.6375 0 0 Z " fill="#8673D3" transform="translate(249,198)"/>
<path d="M0 0 C1.65 0.33 3.3 0.66 5 1 C5 1.99 5 2.98 5 4 C2.69 3.67 0.38 3.34 -2 3 C-1.34 2.67 -0.68 2.34 0 2 C0 1.34 0 0.68 0 0 Z " fill="#6040E0" transform="translate(196,114)"/>
<path d="M0 0 C2.0625 0.4375 2.0625 0.4375 4 1 C4 1.66 4 2.32 4 3 C5.32 3 6.64 3 8 3 C8 3.66 8 4.32 8 5 C4.17902761 4.46930939 1.93828597 3.50298434 -1 1 C-0.67 0.67 -0.34 0.34 0 0 Z " fill="#6246D2" transform="translate(225,104)"/>
<path d="M0 0 C5.41538462 -0.36923077 5.41538462 -0.36923077 8.375 1.5 C8.91125 1.995 9.4475 2.49 10 3 C8.375 3.6875 8.375 3.6875 6 4 C2.75 2.5625 2.75 2.5625 0 1 C0 0.67 0 0.34 0 0 Z " fill="#917DE0" transform="translate(226,133)"/>
<path d="M0 0 C2.31 0.33 4.62 0.66 7 1 C6.01 1.66 5.02 2.32 4 3 C3.01 2.67 2.02 2.34 1 2 C0.67 2.66 0.34 3.32 0 4 C-0.99 3.67 -1.98 3.34 -3 3 C-2.34 3 -1.68 3 -1 3 C-0.67 2.01 -0.34 1.02 0 0 Z " fill="#643FE4" transform="translate(265,198)"/>
<path d="M0 0 C2.97 0 5.94 0 9 0 C8.01 1.485 8.01 1.485 7 3 C4.69 2.34 2.38 1.68 0 1 C0 0.67 0 0.34 0 0 Z " fill="#8E7CDE" transform="translate(248,144)"/>
<path d="M0 0 C5.75 1.75 5.75 1.75 8 4 C5.36 3.67 2.72 3.34 0 3 C0 2.01 0 1.02 0 0 Z " fill="#9682D6" transform="translate(240,110)"/>
</svg>
