<?xml version="1.0" encoding="UTF-8"?>
<svg version="1.1" xmlns="http://www.w3.org/2000/svg" width="1200" height="800">
<path d="M0 0 C3.04015864 0.01077116 6.0797315 0.00000145 9.11987305 -0.01269531 C28.97774126 -0.02697887 47.68225376 2.58602813 66.96948242 7.32324219 C67.63278564 7.48550293 68.29608887 7.64776367 68.97949219 7.81494141 C71.66053123 8.49216245 74.24029294 9.21857026 76.80541992 10.25683594 C79.48042537 11.38322814 79.48042537 11.38322814 82.97338867 12.13183594 C88.24821009 13.40455789 93.23635334 15.34644298 98.28198242 17.32324219 C99.28817627 17.71664795 100.29437012 18.11005371 101.33105469 18.51538086 C109.72194035 21.87000354 117.62821101 25.83530914 125.49951172 30.25439453 C127.37769508 31.27885818 129.28098302 32.22550782 131.20385742 33.16308594 C135.99928705 35.53725099 140.57394427 38.2532145 145.15698242 41.01074219 C146.03845947 41.54078857 146.91993652 42.07083496 147.828125 42.61694336 C154.26753629 46.52711579 160.38666149 50.64343097 166.34448242 55.26074219 C167.22104492 55.91171875 168.09760742 56.56269531 169.00073242 57.23339844 C173.74150623 60.7962948 173.74150623 60.7962948 175.34448242 62.26074219 C175.34448242 62.92074219 175.34448242 63.58074219 175.34448242 64.26074219 C175.86010742 64.48761719 176.37573242 64.71449219 176.90698242 64.94824219 C182.93475953 68.19396832 187.00298452 71.94240726 191.34448242 77.26074219 C193.18579196 78.88588121 195.0650342 80.43781098 196.98901367 81.96386719 C197.43631836 82.39183594 197.88362305 82.81980469 198.34448242 83.26074219 C198.34448242 83.92074219 198.34448242 84.58074219 198.34448242 85.26074219 C198.92198242 85.48761719 199.49948242 85.71449219 200.09448242 85.94824219 C202.94039623 87.60835858 204.34290163 89.65262176 206.34448242 92.26074219 C207.21073242 93.08574219 208.07698242 93.91074219 208.96948242 94.76074219 C211.31934229 97.23427889 212.33277104 99.04166051 213.34448242 102.26074219 C214.33448242 102.26074219 215.32448242 102.26074219 216.34448242 102.26074219 C216.67448242 103.91074219 217.00448242 105.56074219 217.34448242 107.26074219 C218.33448242 107.59074219 219.32448242 107.92074219 220.34448242 108.26074219 C220.67781576 109.59407552 221.01114909 110.92740885 221.34448242 112.26074219 C222.33448242 112.59074219 223.32448242 112.92074219 224.34448242 113.26074219 C225.89937607 115.56198479 227.16276472 117.87459206 228.34448242 120.38574219 C229.23170785 122.28779158 229.23170785 122.28779158 230.68041992 123.52636719 C238.31096528 131.47932996 243.21469034 143.36066288 248.22436523 153.08789062 C248.96953867 154.53341015 249.71887632 155.97679077 250.47241211 157.41796875 C254.5402328 165.20066162 258.12534724 172.72300071 260.34448242 181.26074219 C261.00445033 182.93007277 261.67007111 184.59719429 262.34448242 186.26074219 C263.36122924 189.58211514 264.2566223 192.8945792 265.06713867 196.27246094 C265.32366211 197.34109375 265.58018555 198.40972656 265.84448242 199.51074219 C266.08166992 200.52652344 266.31885742 201.54230469 266.56323242 202.58886719 C267.25577217 205.45148017 267.25577217 205.45148017 269.34448242 208.26074219 C269.76513133 210.28975458 270.11289718 212.33455944 270.40698242 214.38574219 C270.66221967 218.13991054 270.66221967 218.13991054 272.34448242 221.26074219 C272.63245945 223.36666845 272.86049719 225.48084543 273.06323242 227.59667969 C273.19084961 228.88832031 273.3184668 230.17996094 273.44995117 231.51074219 C273.58188183 232.88570193 273.71338754 234.26070251 273.84448242 235.63574219 C274.10083385 238.31065853 274.36203966 240.98496219 274.62573242 243.65917969 C274.73981445 244.8520459 274.85389648 246.04491211 274.97143555 247.27392578 C275.25115973 250.30779876 275.25115973 250.30779876 276.34448242 253.26074219 C276.38783972 254.78095736 276.38455637 256.30293692 276.34448242 257.82324219 C276.21492598 261.173562 276.21492598 261.173562 277.34448242 264.26074219 C277.58808875 267.94267783 277.52969533 271.63415794 277.53198242 275.32324219 C277.54422852 276.33580078 277.55647461 277.34835937 277.5690918 278.39160156 C277.57944641 283.74493722 277.18930927 288.48238725 275.87695312 293.65893555 C275.17841798 297.0721813 274.86432633 300.49802249 274.56323242 303.96386719 C274.4729351 305.00056801 274.4729351 305.00056801 274.3808136 306.05821228 C274.13545144 308.94022921 273.90000996 311.82299612 273.66723633 314.70605469 C273.49322304 316.83426108 273.30985616 318.96151529 273.12573242 321.08886719 C273.02325195 322.34602539 272.92077148 323.60318359 272.81518555 324.8984375 C272.37610872 328.03483066 271.60424143 330.38120374 270.34448242 333.26074219 C269.97781767 335.46073067 269.66946293 337.67090668 269.40698242 339.88574219 C268.57367941 346.11254975 267.63005419 352.37539489 265.34448242 358.26074219 C264.35448242 358.75574219 264.35448242 358.75574219 263.34448242 359.26074219 C262.76286611 361.37559071 262.76286611 361.37559071 262.40698242 363.88574219 C261.58785325 368.37507806 260.24562677 372.09284882 258.34448242 376.26074219 C257.34137287 379.06944895 256.36568031 381.88579675 255.40698242 384.70996094 C254.34086455 387.26942775 253.05782825 389.0992187 251.34448242 391.26074219 C250.65407668 392.91771597 249.99141893 394.58631829 249.34448242 396.26074219 C248.04898909 398.94676504 246.70176232 401.60548102 245.34448242 404.26074219 C244.68448242 404.26074219 244.02448242 404.26074219 243.34448242 404.26074219 C243.2284668 404.99292969 243.11245117 405.72511719 242.99291992 406.47949219 C242.33639146 409.29544557 241.41567799 411.27153284 239.96948242 413.76074219 C239.52217773 414.53289062 239.07487305 415.30503906 238.61401367 416.10058594 C238.19506836 416.8134375 237.77612305 417.52628906 237.34448242 418.26074219 C236.78760742 419.27136719 236.23073242 420.28199219 235.65698242 421.32324219 C235.22385742 421.96261719 234.79073242 422.60199219 234.34448242 423.26074219 C233.68448242 423.26074219 233.02448242 423.26074219 232.34448242 423.26074219 C231.68448242 425.24074219 231.02448242 427.22074219 230.34448242 429.26074219 C229.68448242 429.26074219 229.02448242 429.26074219 228.34448242 429.26074219 C228.07635742 429.98261719 227.80823242 430.70449219 227.53198242 431.44824219 C224.47124299 438.69736191 224.47124299 438.69736191 221.34448242 440.26074219 C220.21097709 442.27744046 220.21097709 442.27744046 219.34448242 444.26074219 C218.68448242 444.26074219 218.02448242 444.26074219 217.34448242 444.26074219 C217.09698242 444.81246094 216.84948242 445.36417969 216.59448242 445.93261719 C215.10213768 448.71210926 213.30775719 451.04221288 211.34448242 453.51074219 C210.64323242 454.40277344 209.94198242 455.29480469 209.21948242 456.21386719 C208.60073242 456.88933594 207.98198242 457.56480469 207.34448242 458.26074219 C206.68448242 458.26074219 206.02448242 458.26074219 205.34448242 458.26074219 C205.00416992 459.09605469 205.00416992 459.09605469 204.65698242 459.94824219 C202.97731524 462.90765579 200.7769639 464.88483005 198.34448242 467.26074219 C197.62260742 468.18886719 196.90073242 469.11699219 196.15698242 470.07324219 C193.16767714 473.75530711 189.44597754 476.46888787 185.71557617 479.36230469 C183.79874112 480.89703588 182.09399114 482.4240628 180.40698242 484.19824219 C178.34448242 486.26074219 178.34448242 486.26074219 175.34448242 487.26074219 C175.34448242 487.92074219 175.34448242 488.58074219 175.34448242 489.26074219 C173.80664062 490.64599609 173.80664062 490.64599609 171.64526367 492.23730469 C170.45924561 493.11394775 170.45924561 493.11394775 169.24926758 494.00830078 C167.96608643 494.93763428 167.96608643 494.93763428 166.65698242 495.88574219 C165.7886377 496.51947754 164.92029297 497.15321289 164.02563477 497.80615234 C157.31759743 502.65684675 150.4688199 507.04504895 143.34448242 511.26074219 C141.81694336 512.23914063 141.81694336 512.23914063 140.25854492 513.23730469 C116.7724577 528.25680244 91.45964355 539.84389475 63.34448242 534.26074219 C63.34448242 535.25074219 63.34448242 536.24074219 63.34448242 537.26074219 C62.54010742 537.40511719 61.73573242 537.54949219 60.90698242 537.69824219 C58.42344537 538.00209468 58.42344537 538.00209468 57.34448242 539.26074219 C53.98239177 539.54543535 50.62034241 539.70969282 47.25073242 539.88183594 C46.29166992 540.006875 45.33260742 540.13191406 44.34448242 540.26074219 C44.01448242 540.92074219 43.68448242 541.58074219 43.34448242 542.26074219 C36.41448242 542.26074219 29.48448242 542.26074219 22.34448242 542.26074219 C22.01448242 542.92074219 21.68448242 543.58074219 21.34448242 544.26074219 C13.05174525 544.30706123 4.75906204 544.34260913 -3.53377247 544.36436653 C-7.38437783 544.37480843 -11.23489476 544.38897497 -15.08544922 544.41162109 C-18.80072081 544.4333351 -22.51590727 544.44530775 -26.23123741 544.45049667 C-27.64943469 544.45419504 -29.06762726 544.46141693 -30.48578835 544.4722023 C-32.47045991 544.48669721 -34.45521693 544.48755894 -36.43994141 544.48779297 C-38.13537834 544.4944548 -38.13537834 544.4944548 -39.86506653 544.50125122 C-42.65551758 544.26074219 -42.65551758 544.26074219 -45.65551758 542.26074219 C-48.09893532 542.13160703 -48.09893532 542.13160703 -50.78051758 542.32324219 C-57.56273728 542.45816698 -63.00744888 541.02612132 -68.65551758 537.26074219 C-71.13322512 537.05765141 -73.55002368 536.94299553 -76.03051758 536.88574219 C-83.74205952 536.54094186 -90.40227438 534.98286196 -97.65551758 532.26074219 C-98.26814453 532.03193359 -98.88077148 531.803125 -99.51196289 531.56738281 C-107.45477992 528.57327392 -115.13071572 525.19782601 -122.65551758 521.26074219 C-123.96693665 520.61271675 -125.27940376 519.96680702 -126.59301758 519.32324219 C-134.96350746 515.11283545 -142.91147196 510.55585585 -150.65942383 505.27636719 C-153.59609161 503.30072107 -156.58174162 501.43255352 -159.59301758 499.57324219 C-163.49859 497.11188863 -166.55191112 494.65531175 -169.65551758 491.26074219 C-170.64551758 490.60074219 -171.63551758 489.94074219 -172.65551758 489.26074219 C-172.65551758 488.60074219 -172.65551758 487.94074219 -172.65551758 487.26074219 C-173.42895508 486.92042969 -173.42895508 486.92042969 -174.21801758 486.57324219 C-179.19738734 483.89204309 -183.94856886 480.56080271 -187.65551758 476.26074219 C-187.65551758 475.60074219 -187.65551758 474.94074219 -187.65551758 474.26074219 C-188.97551758 473.60074219 -190.29551758 472.94074219 -191.65551758 472.26074219 C-191.65551758 471.60074219 -191.65551758 470.94074219 -191.65551758 470.26074219 C-192.64551758 469.93074219 -193.63551758 469.60074219 -194.65551758 469.26074219 C-195.87198343 467.81413415 -197.08417664 466.36316016 -198.25317383 464.87792969 C-199.68629866 463.22524534 -201.17708435 461.97040765 -202.90551758 460.63574219 C-205.75582121 458.17411632 -205.94896267 457.67575757 -206.65551758 454.26074219 C-208.53867917 453.15237796 -208.53867917 453.15237796 -210.65551758 452.26074219 C-213.37335824 449.97775603 -214.86074879 447.29804322 -216.65551758 444.26074219 C-217.97308115 442.42881445 -219.31140625 440.61529737 -220.66723633 438.81152344 C-221.65551758 437.26074219 -221.65551758 437.26074219 -221.65551758 435.26074219 C-222.64551758 434.93074219 -223.63551758 434.60074219 -224.65551758 434.26074219 C-225.3548929 432.944271 -226.02280891 431.61052068 -226.65551758 430.26074219 C-227.31551758 429.93074219 -227.97551758 429.60074219 -228.65551758 429.26074219 C-228.79989258 428.62136719 -228.94426758 427.98199219 -229.09301758 427.32324219 C-229.51716793 424.87863364 -229.51716793 424.87863364 -232.65551758 423.26074219 C-233.32218424 421.59407552 -233.98885091 419.92740885 -234.65551758 418.26074219 C-235.46509059 417.09799974 -236.30063395 415.95308839 -237.15551758 414.82324219 C-239.42743649 411.7784711 -240.52875679 408.90104628 -241.65551758 405.26074219 C-242.31551758 404.93074219 -242.97551758 404.60074219 -243.65551758 404.26074219 C-246.34866264 399.85282116 -248.02938451 395.13914139 -249.65551758 390.26074219 C-250.26294483 389.00210915 -250.88967116 387.75269262 -251.53051758 386.51074219 C-253.46282456 382.7459522 -255.04909049 378.91033324 -256.58129883 374.96777344 C-257.75265804 372.01594821 -259.01796043 369.11212041 -260.28051758 366.19824219 C-262.00915903 362.06316369 -263.28165138 358.15988139 -264.12426758 353.76855469 C-264.83988774 350.39040657 -265.77280083 347.08009882 -266.71801758 343.76074219 C-267.05961914 342.55417969 -267.4012207 341.34761719 -267.75317383 340.10449219 C-268.37519881 337.38768496 -268.37519881 337.38768496 -269.65551758 336.26074219 C-270.10725329 332.40011008 -270.4738411 328.54027301 -270.81762695 324.66894531 C-270.8969043 323.84201172 -270.97618164 323.01507813 -271.05786133 322.16308594 C-271.12481201 321.41534912 -271.1917627 320.6676123 -271.26074219 319.8972168 C-271.61433042 317.10380055 -271.61433042 317.10380055 -272.67626953 313.87866211 C-274.30279122 307.5311669 -273.94284074 300.97859714 -273.92114258 294.47167969 C-273.92249228 293.04017064 -273.92443534 291.60866204 -273.92694092 290.17715454 C-273.92987595 287.18999835 -273.9256458 284.20296244 -273.91625977 281.21582031 C-273.90484534 277.39840857 -273.91144743 273.58127751 -273.92340469 269.76387596 C-273.93064959 266.81267196 -273.92832368 263.86153396 -273.92314911 260.91032791 C-273.92182095 259.50299674 -273.92343091 258.09565945 -273.92810822 256.68833542 C-273.93321889 254.71947096 -273.92404117 252.7505853 -273.91430664 250.78173828 C-273.91271545 249.66447357 -273.91112427 248.54720886 -273.90948486 247.39608765 C-273.63975741 244.06617548 -272.77381974 241.39583273 -271.65551758 238.26074219 C-271.44381607 235.84895289 -271.30154008 233.43036388 -271.21801758 231.01074219 C-270.95707048 225.57998823 -270.18614774 220.75863944 -268.41333008 215.61230469 C-267.33376788 212.26232302 -266.76699076 208.85548305 -266.18286133 205.38964844 C-265.65551758 203.26074219 -265.65551758 203.26074219 -263.65551758 200.26074219 C-263.05563386 197.95784365 -263.05563386 197.95784365 -262.65551758 195.44824219 C-260.9924453 186.50922872 -257.34928262 178.5110495 -253.65551758 170.26074219 C-252.9883711 168.76095553 -252.32169751 167.26095842 -251.65551758 165.76074219 C-251.32680664 165.02210938 -250.9980957 164.28347656 -250.65942383 163.52246094 C-249.97684943 161.9846766 -249.29727007 160.44556011 -248.62036133 158.90527344 C-243.79461884 147.95102148 -243.79461884 147.95102148 -240.71801758 143.38574219 C-238.73787381 140.38552436 -237.17263608 137.38248235 -235.59692383 134.16308594 C-234.40865449 131.76189437 -233.17433925 129.46993735 -231.65551758 127.26074219 C-230.99551758 127.26074219 -230.33551758 127.26074219 -229.65551758 127.26074219 C-229.58977539 126.56980469 -229.5240332 125.87886719 -229.45629883 125.16699219 C-228.40915447 121.36662435 -226.28162596 118.76801032 -223.84301758 115.76074219 C-223.18462891 114.92736328 -223.18462891 114.92736328 -222.51293945 114.07714844 C-221.23598821 112.46435712 -219.94753472 110.8614759 -218.65551758 109.26074219 C-216.67560973 106.78678605 -214.69651641 104.3123642 -212.72583008 101.83105469 C-204.37892183 91.33875637 -204.37892183 91.33875637 -200.65551758 87.26074219 C-199.99551758 87.26074219 -199.33551758 87.26074219 -198.65551758 87.26074219 C-198.65551758 86.60074219 -198.65551758 85.94074219 -198.65551758 85.26074219 C-196.28051758 82.63574219 -196.28051758 82.63574219 -193.65551758 80.26074219 C-192.99551758 80.26074219 -192.33551758 80.26074219 -191.65551758 80.26074219 C-191.28426758 79.39449219 -191.28426758 79.39449219 -190.90551758 78.51074219 C-189.47251769 75.93134239 -187.87127081 74.19952627 -185.65551758 72.26074219 C-184.99551758 72.26074219 -184.33551758 72.26074219 -183.65551758 72.26074219 C-183.65551758 71.60074219 -183.65551758 70.94074219 -183.65551758 70.26074219 C-182.15161133 68.74511719 -182.15161133 68.74511719 -180.09301758 67.01074219 C-179.36598633 66.39585937 -178.63895508 65.78097656 -177.88989258 65.14746094 C-177.15254883 64.52484375 -176.41520508 63.90222656 -175.65551758 63.26074219 C-174.67325195 62.37322266 -174.67325195 62.37322266 -173.67114258 61.46777344 C-173.06786133 60.92507812 -172.46458008 60.38238281 -171.84301758 59.82324219 C-171.30032227 59.32953125 -170.75762695 58.83582031 -170.19848633 58.32714844 C-168.65551758 57.26074219 -168.65551758 57.26074219 -165.65551758 57.26074219 C-165.32551758 56.27074219 -164.99551758 55.28074219 -164.65551758 54.26074219 C-162.39363186 52.57171003 -160.15359547 51.02716314 -157.78051758 49.51074219 C-157.10085938 49.06827148 -156.42120117 48.62580078 -155.72094727 48.16992188 C-154.34449009 47.27584065 -152.96559368 46.38550293 -151.58422852 45.49902344 C-149.91718865 44.42874164 -148.25822915 43.3458935 -146.60083008 42.26074219 C-136.07027831 35.42351437 -124.95222358 29.71495202 -113.65551758 24.26074219 C-112.54692383 23.71675781 -111.43833008 23.17277344 -110.29614258 22.61230469 C-75.61278371 6.48227098 -38.04969937 -0.15991145 0 0 Z " fill="#FDFDFD" transform="translate(598.655517578125,131.7392578125)"/>
<path d="M0 0 C25.04404029 -1.5438107 52.56266039 11.19683713 72.07421875 26.39453125 C76.02922397 28.56476776 78.04994978 27.93619789 82.375 26.875 C83.62023437 26.58367187 84.86546875 26.29234375 86.1484375 25.9921875 C88.72048397 25.32961164 91.29080795 24.6603137 93.859375 23.984375 C124.87855795 16.2949654 165.36448289 16.20046273 196.19140625 24.62890625 C206.42493951 27.80561389 206.42493951 27.80561389 216.734375 26.73828125 C219.65004412 24.79566438 222.27978677 22.73631222 224.97314453 20.51025391 C229.14426469 17.40226194 233.82559321 15.12865194 238.4375 12.75 C239.92854248 11.97595825 239.92854248 11.97595825 241.44970703 11.1862793 C249.13185857 7.27678258 256.67267293 4.23261247 265 2 C265.79792969 1.75894531 266.59585937 1.51789063 267.41796875 1.26953125 C274.16159164 -0.5607052 281.0667622 -0.17752245 288 0 C295.13855113 20.65241207 298.74693979 40.88764226 293.75390625 62.5 C293.38072266 64.2325 293.38072266 64.2325 293 66 C292.83540283 66.64606201 292.67080566 67.29212402 292.5012207 67.95776367 C291.89109695 70.92947166 291.56366964 73.05335554 292.8581543 75.86181641 C294.16611475 77.77596771 295.5704345 79.53835599 297.0625 81.3125 C298.09067562 82.62259737 299.11412022 83.93642142 300.1328125 85.25390625 C300.62942383 85.89086426 301.12603516 86.52782227 301.63769531 87.18408203 C306.50274621 93.66907281 309.57626173 100.95298997 312.140625 108.58984375 C312.93643686 110.98185473 312.93643686 110.98185473 314.04296875 113.05859375 C319.28031164 123.68291791 318.23860887 137.91954292 318.25 149.375 C318.25100708 150.08076172 318.25201416 150.78652344 318.25305176 151.51367188 C318.2417847 163.23140987 317.4548069 174.52240231 315 186 C314.7831958 187.05695068 314.7831958 187.05695068 314.56201172 188.13525391 C308.78291179 215.69957658 294.43421192 241.7603068 270.48046875 257.48828125 C247.02944639 271.78047913 221.90908488 278.26808312 195 282 C195.51949219 282.59425781 196.03898438 283.18851563 196.57421875 283.80078125 C209.87314299 299.60708123 212.60234485 317.53259476 212.51642036 337.54631424 C212.50359778 340.54879272 212.51524922 343.55037778 212.53245544 346.55282593 C212.55891846 351.83414179 212.56475927 357.11523146 212.56335449 362.39660645 C212.56110852 370.882202 212.57528676 379.36752145 212.61894035 387.85300827 C212.62874622 390.80341116 212.62008598 393.75337241 212.61024475 396.70376587 C212.61638777 398.51166065 212.62329911 400.31955304 212.63110352 402.12744141 C212.61952461 403.34778076 212.61952461 403.34778076 212.60771179 404.59277344 C212.65093326 409.44884441 213.28497992 412.80708967 216 417 C220.95246543 420.30164362 226.21759416 419.60530783 232 419 C236.62985237 417.73626522 240.92817508 415.93881286 245.3125 414 C247.08234253 413.24614014 247.08234253 413.24614014 248.88793945 412.47705078 C257.7734439 408.6511188 266.48431252 404.5867808 275 400 C275.63341309 399.6685498 276.26682617 399.33709961 276.91943359 398.99560547 C303.82893124 384.89633778 329.36117744 364.17308191 349 341 C350.21236328 339.58460938 350.21236328 339.58460938 351.44921875 338.140625 C388.72874629 294.06743165 407.96766259 242.65231918 416 186 C416.33 186 416.66 186 417 186 C416.88822884 189.29225138 416.75807764 192.58354647 416.625 195.875 C416.5940625 196.7928125 416.563125 197.710625 416.53125 198.65625 C415.91826923 213.16346154 415.91826923 213.16346154 413 219 C412.67947162 221.14171233 412.39331555 223.28862194 412.125 225.4375 C411.25728087 231.71875038 410.30685479 238.05984892 408 244 C407.34 244.33 406.68 244.66 406 245 C405.41838369 247.11484852 405.41838369 247.11484852 405.0625 249.625 C404.24337082 254.11433587 402.90114435 257.83210663 401 262 C399.99689044 264.80870676 399.02119789 267.62505456 398.0625 270.44921875 C396.99638213 273.00868556 395.71334583 274.83847651 394 277 C393.30959426 278.65697379 392.6469365 280.3255761 392 282 C390.70450667 284.68602285 389.3572799 287.34473884 388 290 C387.34 290 386.68 290 386 290 C385.88398437 290.7321875 385.76796875 291.464375 385.6484375 292.21875 C384.99190904 295.03470338 384.07119557 297.01079065 382.625 299.5 C382.17769531 300.27214844 381.73039062 301.04429687 381.26953125 301.83984375 C380.85058594 302.55269531 380.43164062 303.26554687 380 304 C379.443125 305.010625 378.88625 306.02125 378.3125 307.0625 C377.879375 307.701875 377.44625 308.34125 377 309 C376.34 309 375.68 309 375 309 C374.34 310.98 373.68 312.96 373 315 C372.34 315 371.68 315 371 315 C370.731875 315.721875 370.46375 316.44375 370.1875 317.1875 C367.12676056 324.43661972 367.12676056 324.43661972 364 326 C362.86649466 328.01669827 362.86649466 328.01669827 362 330 C361.34 330 360.68 330 360 330 C359.7525 330.55171875 359.505 331.1034375 359.25 331.671875 C357.75765526 334.45136707 355.96327477 336.7814707 354 339.25 C353.29875 340.14203125 352.5975 341.0340625 351.875 341.953125 C351.25625 342.62859375 350.6375 343.3040625 350 344 C349.34 344 348.68 344 348 344 C347.6596875 344.8353125 347.6596875 344.8353125 347.3125 345.6875 C345.63283282 348.64691361 343.43248148 350.62408786 341 353 C340.278125 353.928125 339.55625 354.85625 338.8125 355.8125 C335.82319471 359.49456492 332.10149512 362.20814569 328.37109375 365.1015625 C326.4542587 366.63629369 324.74950872 368.16332062 323.0625 369.9375 C321 372 321 372 318 373 C318 373.66 318 374.32 318 375 C316.4621582 376.38525391 316.4621582 376.38525391 314.30078125 377.9765625 C313.11476318 378.85320557 313.11476318 378.85320557 311.90478516 379.74755859 C310.621604 380.67689209 310.621604 380.67689209 309.3125 381.625 C308.44415527 382.25873535 307.57581055 382.8924707 306.68115234 383.54541016 C299.97311501 388.39610456 293.12433747 392.78430677 286 397 C284.98164062 397.65226562 283.96328125 398.30453125 282.9140625 398.9765625 C259.42797528 413.99606025 234.11516112 425.58315256 206 420 C206 420.99 206 421.98 206 423 C205.195625 423.144375 204.39125 423.28875 203.5625 423.4375 C201.07896294 423.74135249 201.07896294 423.74135249 200 425 C196.63790935 425.28469316 193.27585999 425.44895063 189.90625 425.62109375 C188.9471875 425.74613281 187.988125 425.87117188 187 426 C186.67 426.66 186.34 427.32 186 428 C179.07 428 172.14 428 165 428 C164.67 428.66 164.34 429.32 164 430 C155.70726283 430.04631905 147.41457962 430.08186694 139.12174511 430.10362434 C135.27113975 430.11406625 131.42062282 430.12823279 127.57006836 430.15087891 C123.85479677 430.17259291 120.13961031 430.18456556 116.42428017 430.18975449 C115.00608289 430.19345285 113.58789032 430.20067475 112.16972923 430.21146011 C110.18505767 430.22595502 108.20030065 430.22681675 106.21557617 430.22705078 C105.08528488 430.231492 103.95499359 430.23593323 102.79045105 430.24050903 C100 430 100 430 97 428 C94.55658225 427.87086484 94.55658225 427.87086484 91.875 428.0625 C85.0927803 428.1974248 79.6480687 426.76537913 74 423 C71.31165311 422.74939139 68.69297822 422.5814602 66 422.5 C58.40540541 422.27027027 58.40540541 422.27027027 55 420 C55.71285156 420.04640625 56.42570313 420.0928125 57.16015625 420.140625 C63.72811861 420.38813906 67.76642708 420.12004677 73 416 C74.82749651 412.39813384 75.26353434 409.39376034 75.31884766 405.38354492 C75.34865219 403.73239937 75.34865219 403.73239937 75.37905884 402.04789734 C75.39061005 400.8706459 75.40216125 399.69339447 75.4140625 398.48046875 C75.43342865 397.26676102 75.4527948 396.05305328 75.4727478 394.80256653 C75.53246571 390.93094889 75.57889855 387.05930139 75.625 383.1875 C75.66318688 380.560534 75.70223902 377.93358043 75.7421875 375.30664062 C75.83816102 368.87120415 75.92323153 362.43569268 76 356 C74.71123711 356.31791 74.71123711 356.31791 73.3964386 356.64224243 C61.99682469 359.37877547 61.99682469 359.37877547 56.16796875 359.3984375 C55.02755127 359.40456055 53.88713379 359.41068359 52.7121582 359.41699219 C51.549021 359.40313477 50.38588379 359.38927734 49.1875 359.375 C47.96571045 359.36629883 46.7439209 359.35759766 45.48510742 359.34863281 C33.17230686 359.14934105 20.92502209 358.21148422 10 352 C9.11957031 351.50628906 8.23914063 351.01257813 7.33203125 350.50390625 C-6.06003439 342.5056105 -13.40031654 332.3132762 -19.3125 318.1875 C-25.82858585 302.73994531 -35.88536647 291.50319565 -49.53125 281.84375 C-52.73730217 279.44935661 -54.88304314 277.4022521 -57 274 C-56.8125 271.125 -56.8125 271.125 -56 269 C-45.11772173 265.37257391 -36.62684396 267.34094443 -26.39453125 272.25 C-14.58489626 278.85888953 -6.93221441 287.81962718 0.23364258 299.04760742 C7.89536345 310.91293103 18.54913748 320.29672029 32.6328125 323.5625 C45.84980075 325.2797885 58.48090147 324.76421249 71 320 C71.91007813 319.77699219 72.82015625 319.55398438 73.7578125 319.32421875 C76.35005398 318.1199421 76.35005398 318.1199421 77.1171875 314.76171875 C77.38463355 313.40649053 77.63633294 312.0480914 77.875 310.6875 C80.27786593 299.37155914 85.27905799 290.61646949 93 282 C92.41323486 281.90501221 91.82646973 281.81002441 91.22192383 281.7121582 C60.8779636 276.74860389 31.81294855 270.75005119 8 250 C7.3296875 249.47277344 6.659375 248.94554687 5.96875 248.40234375 C-15.8831809 230.75604241 -25.13385359 201.68820523 -29 175 C-29.15795044 173.95706787 -29.15795044 173.95706787 -29.3190918 172.89306641 C-30.2237762 166.07858137 -30.1860985 159.22596055 -30.18530273 152.36328125 C-30.18748126 150.26801983 -30.20567417 148.17329327 -30.22460938 146.078125 C-30.26972582 135.1445564 -29.42150069 124.45458544 -26 114 C-25.71125 113.07445312 -25.4225 112.14890625 -25.125 111.1953125 C-21.22955389 98.99161024 -15.60207272 87.49843536 -6.4375 78.3125 C-4.84036813 76.49402648 -4.06786743 75.51430785 -3.75 73.10546875 C-3.96761619 70.66182029 -4.43814201 68.38963058 -5 66 C-10.0332646 43.76542389 -9.00179085 21.17021958 0 0 Z " fill="#0F0E0F" transform="translate(456,246)"/>
<path d="M0 0 C1.22543946 3.67631838 0.63562841 4.67281815 -0.6953125 8.2421875 C-1.07921143 9.29736572 -1.46311035 10.35254395 -1.85864258 11.43969727 C-2.27654053 12.57334717 -2.69443848 13.70699707 -3.125 14.875 C-10.14009338 34.57388067 -14.10667208 54.31200143 -17 75 C-17.176521 76.22887939 -17.35304199 77.45775879 -17.53491211 78.72387695 C-18.11613142 83.45709517 -18.19744611 88.16521577 -18.23828125 92.9296875 C-18.24793915 93.86961044 -18.25759705 94.80953339 -18.26754761 95.77793884 C-18.29231051 98.81033296 -18.30493635 101.84251574 -18.3125 104.875 C-18.31545074 105.90789154 -18.31840149 106.94078308 -18.32144165 108.00497437 C-18.33130025 123.1555829 -17.58907253 137.59829472 -14.50830078 152.4765625 C-14.03146103 154.84381307 -13.63580951 157.20606543 -13.27734375 159.59375 C-10.89622088 175.2660621 -6.49291723 190.54243763 0 205 C0.66908807 206.59610046 1.33406947 208.19392548 1.99609375 209.79296875 C16.88647699 245.58323311 38.97134533 281.26946109 69.05078125 306.3671875 C71.38820632 308.32519087 73.62518889 310.37953324 75.875 312.4375 C101.76922235 335.64495341 132.56300419 351.93635324 165 364 C165 364.33 165 364.66 165 365 C160.49825282 365.5808706 157.4778189 364.00755122 153.51953125 362.13671875 C150.90479735 360.9570481 148.2722962 360.00153829 145.5625 359.0625 C140.13036705 357.12787165 135.10522243 354.66396674 130 352 C128.68860459 351.35192669 127.37615635 350.70597801 126.0625 350.0625 C117.69201012 345.85209327 109.74404562 341.29511366 101.99609375 336.015625 C99.05942597 334.03997888 96.07377596 332.17181133 93.0625 330.3125 C89.15692758 327.85114644 86.10360646 325.39456956 83 322 C82.01 321.34 81.02 320.68 80 320 C80 319.34 80 318.68 80 318 C79.2265625 317.6596875 79.2265625 317.6596875 78.4375 317.3125 C73.45813024 314.6313009 68.70694872 311.30006052 65 307 C65 306.34 65 305.68 65 305 C63.68 304.34 62.36 303.68 61 303 C61 302.34 61 301.68 61 301 C60.01 300.67 59.02 300.34 58 300 C56.78353415 298.55339196 55.57134094 297.10241797 54.40234375 295.6171875 C52.96921892 293.96450315 51.47843322 292.70966546 49.75 291.375 C46.89969637 288.91337414 46.70655491 288.41501539 46 285 C44.11683841 283.89163577 44.11683841 283.89163577 42 283 C39.28215934 280.71701385 37.79476879 278.03730103 36 275 C34.68243643 273.16807227 33.34411132 271.35455518 31.98828125 269.55078125 C31 268 31 268 31 266 C30.01 265.67 29.02 265.34 28 265 C27.30062468 263.68352881 26.63270867 262.34977849 26 261 C25.34 260.67 24.68 260.34 24 260 C23.855625 259.360625 23.71125 258.72125 23.5625 258.0625 C23.13834965 255.61789145 23.13834965 255.61789145 20 254 C19.33333333 252.33333333 18.66666667 250.66666667 18 249 C17.19042699 247.83725755 16.35488363 246.6923462 15.5 245.5625 C13.22808109 242.51772891 12.12676079 239.6403041 11 236 C10.34 235.67 9.68 235.34 9 235 C6.30685493 230.59207897 4.62613307 225.8783992 3 221 C2.39257275 219.74136696 1.76584642 218.49195043 1.125 217.25 C-0.80730698 213.48521001 -2.39357291 209.64959105 -3.92578125 205.70703125 C-5.09714047 202.75520603 -6.36244286 199.85137822 -7.625 196.9375 C-9.35364145 192.80242151 -10.62613381 188.8991392 -11.46875 184.5078125 C-12.18437016 181.12966439 -13.11728326 177.81935663 -14.0625 174.5 C-14.40410156 173.2934375 -14.74570312 172.086875 -15.09765625 170.84375 C-15.71968123 168.12694277 -15.71968123 168.12694277 -17 167 C-17.45173571 163.13936789 -17.81832352 159.27953082 -18.16210938 155.40820312 C-18.28102539 154.16780273 -18.28102539 154.16780273 -18.40234375 152.90234375 C-18.46929443 152.15460693 -18.53624512 151.40687012 -18.60522461 150.63647461 C-18.95881284 147.84305836 -18.95881284 147.84305836 -20.02075195 144.61791992 C-21.64727364 138.27042471 -21.28732316 131.71785495 -21.265625 125.2109375 C-21.2669747 123.77942845 -21.26891777 122.34791985 -21.27142334 120.91641235 C-21.27435837 117.92925616 -21.27012822 114.94222025 -21.26074219 111.95507812 C-21.24932776 108.13766639 -21.25592986 104.32053533 -21.26788712 100.50313377 C-21.27513201 97.55192977 -21.2728061 94.60079177 -21.26763153 91.64958572 C-21.26630338 90.24225455 -21.26791333 88.83491726 -21.27259064 87.42759323 C-21.27770131 85.45872878 -21.26852359 83.48984312 -21.25878906 81.52099609 C-21.25719788 80.40373138 -21.25560669 79.28646667 -21.25396729 78.13534546 C-20.98423983 74.80543329 -20.11830216 72.13509054 -19 69 C-18.7882985 66.5882107 -18.64602251 64.16962169 -18.5625 61.75 C-18.3015529 56.31924604 -17.53063016 51.49789726 -15.7578125 46.3515625 C-14.6782503 43.00158083 -14.11147318 39.59474086 -13.52734375 36.12890625 C-13 34 -13 34 -11 31 C-10.40011628 28.69710146 -10.40011628 28.69710146 -10 26.1875 C-8.57510283 18.52867773 -5.70870752 5.70870752 0 0 Z " fill="#1D1C1D" transform="translate(346,301)"/>
<path d="M0 0 C3.04015864 0.01077116 6.0797315 0.00000145 9.11987305 -0.01269531 C28.97774126 -0.02697887 47.68225376 2.58602813 66.96948242 7.32324219 C67.63278564 7.48550293 68.29608887 7.64776367 68.97949219 7.81494141 C72.56076139 8.71955742 75.95195185 9.79844453 79.34448242 11.26074219 C79.34448242 11.59074219 79.34448242 11.92074219 79.34448242 12.26074219 C74.44634132 11.85925521 69.95399523 11.23335661 65.23510742 9.85058594 C59.50631491 8.2512159 53.76767477 7.12907987 47.90698242 6.13574219 C46.96016602 5.966875 46.01334961 5.79800781 45.0378418 5.62402344 C31.33955977 3.26193 17.78551039 3.07437697 3.92016602 3.07543945 C0.7476644 3.07326153 -2.42448381 3.05507789 -5.59692383 3.03613281 C-64.13706012 2.8689251 -119.44451063 23.85749311 -165.65551758 59.26074219 C-166.54368164 59.93492187 -167.4318457 60.60910156 -168.34692383 61.30371094 C-175.49750551 66.87037565 -182.10515578 73.0116477 -188.65551758 79.26074219 C-189.29328125 79.86450684 -189.93104492 80.46827148 -190.58813477 81.09033203 C-200.73565306 90.74908233 -209.45892489 100.91245931 -217.65551758 112.26074219 C-218.57015107 113.5034681 -219.48548774 114.74567685 -220.40161133 115.98730469 C-225.90324523 123.5052442 -230.89379104 131.25359308 -235.65551758 139.26074219 C-236.59906167 136.7217508 -236.82457783 135.65164944 -235.72973633 133.12011719 C-235.27211914 132.42402344 -234.81450195 131.72792969 -234.34301758 131.01074219 C-233.89313477 130.30433594 -233.44325195 129.59792969 -232.97973633 128.87011719 C-232.32424805 128.07347656 -232.32424805 128.07347656 -231.65551758 127.26074219 C-230.99551758 127.26074219 -230.33551758 127.26074219 -229.65551758 127.26074219 C-229.58977539 126.56980469 -229.5240332 125.87886719 -229.45629883 125.16699219 C-228.40915447 121.36662435 -226.28162596 118.76801032 -223.84301758 115.76074219 C-223.18462891 114.92736328 -223.18462891 114.92736328 -222.51293945 114.07714844 C-221.23598821 112.46435712 -219.94753472 110.8614759 -218.65551758 109.26074219 C-216.67560973 106.78678605 -214.69651641 104.3123642 -212.72583008 101.83105469 C-204.37892183 91.33875637 -204.37892183 91.33875637 -200.65551758 87.26074219 C-199.99551758 87.26074219 -199.33551758 87.26074219 -198.65551758 87.26074219 C-198.65551758 86.60074219 -198.65551758 85.94074219 -198.65551758 85.26074219 C-196.28051758 82.63574219 -196.28051758 82.63574219 -193.65551758 80.26074219 C-192.99551758 80.26074219 -192.33551758 80.26074219 -191.65551758 80.26074219 C-191.40801758 79.68324219 -191.16051758 79.10574219 -190.90551758 78.51074219 C-189.47251769 75.93134239 -187.87127081 74.19952627 -185.65551758 72.26074219 C-184.99551758 72.26074219 -184.33551758 72.26074219 -183.65551758 72.26074219 C-183.65551758 71.60074219 -183.65551758 70.94074219 -183.65551758 70.26074219 C-182.15161133 68.74511719 -182.15161133 68.74511719 -180.09301758 67.01074219 C-179.36598633 66.39585937 -178.63895508 65.78097656 -177.88989258 65.14746094 C-177.15254883 64.52484375 -176.41520508 63.90222656 -175.65551758 63.26074219 C-175.00067383 62.6690625 -174.34583008 62.07738281 -173.67114258 61.46777344 C-173.06786133 60.92507812 -172.46458008 60.38238281 -171.84301758 59.82324219 C-171.30032227 59.32953125 -170.75762695 58.83582031 -170.19848633 58.32714844 C-168.65551758 57.26074219 -168.65551758 57.26074219 -165.65551758 57.26074219 C-165.32551758 56.27074219 -164.99551758 55.28074219 -164.65551758 54.26074219 C-162.39363186 52.57171003 -160.15359547 51.02716314 -157.78051758 49.51074219 C-157.10085938 49.06827148 -156.42120117 48.62580078 -155.72094727 48.16992188 C-154.34449009 47.27584065 -152.96559368 46.38550293 -151.58422852 45.49902344 C-149.91718865 44.42874164 -148.25822915 43.3458935 -146.60083008 42.26074219 C-136.07027831 35.42351437 -124.95222358 29.71495202 -113.65551758 24.26074219 C-112.54692383 23.71675781 -111.43833008 23.17277344 -110.29614258 22.61230469 C-75.61278371 6.48227098 -38.04969937 -0.15991145 0 0 Z " fill="#1D1B1D" transform="translate(598.655517578125,131.7392578125)"/>
<path d="M0 0 C0.33 0 0.66 0 1 0 C0.88822884 3.29225138 0.75807764 6.58354647 0.625 9.875 C0.5940625 10.7928125 0.563125 11.710625 0.53125 12.65625 C-0.08173077 27.16346154 -0.08173077 27.16346154 -3 33 C-3.32052838 35.14171233 -3.60668445 37.28862194 -3.875 39.4375 C-4.74271913 45.71875038 -5.69314521 52.05984892 -8 58 C-8.99 58.495 -8.99 58.495 -10 59 C-10.58161631 61.11484852 -10.58161631 61.11484852 -10.9375 63.625 C-11.75662918 68.11433587 -13.09885565 71.83210663 -15 76 C-16.00310956 78.80870676 -16.97880211 81.62505456 -17.9375 84.44921875 C-19.00361787 87.00868556 -20.28665417 88.83847651 -22 91 C-22.69040574 92.65697379 -23.3530635 94.3255761 -24 96 C-25.29549333 98.68602285 -26.6427201 101.34473884 -28 104 C-28.66 104 -29.32 104 -30 104 C-30.11601563 104.7321875 -30.23203125 105.464375 -30.3515625 106.21875 C-31.00809096 109.03470338 -31.92880443 111.01079065 -33.375 113.5 C-33.82230469 114.27214844 -34.26960937 115.04429687 -34.73046875 115.83984375 C-35.14941406 116.55269531 -35.56835938 117.26554688 -36 118 C-36.556875 119.010625 -37.11375 120.02125 -37.6875 121.0625 C-38.120625 121.701875 -38.55375 122.34125 -39 123 C-39.66 123 -40.32 123 -41 123 C-41.66 124.98 -42.32 126.96 -43 129 C-43.66 129 -44.32 129 -45 129 C-45.268125 129.721875 -45.53625 130.44375 -45.8125 131.1875 C-48.87323944 138.43661972 -48.87323944 138.43661972 -52 140 C-53.13350534 142.01669827 -53.13350534 142.01669827 -54 144 C-54.66 144 -55.32 144 -56 144 C-56.2475 144.55171875 -56.495 145.1034375 -56.75 145.671875 C-58.24234474 148.45136707 -60.03672523 150.7814707 -62 153.25 C-62.70125 154.14203125 -63.4025 155.0340625 -64.125 155.953125 C-65.053125 156.96632813 -65.053125 156.96632813 -66 158 C-66.66 158 -67.32 158 -68 158 C-68.226875 158.556875 -68.45375 159.11375 -68.6875 159.6875 C-70.36716718 162.64691361 -72.56751852 164.62408786 -75 167 C-76.0828125 168.3921875 -76.0828125 168.3921875 -77.1875 169.8125 C-80.17680529 173.49456492 -83.89850488 176.20814569 -87.62890625 179.1015625 C-89.5457413 180.63629369 -91.25049128 182.16332062 -92.9375 183.9375 C-95 186 -95 186 -98 187 C-98 187.66 -98 188.32 -98 189 C-99.5378418 190.38525391 -99.5378418 190.38525391 -101.69921875 191.9765625 C-102.48989746 192.56099121 -103.28057617 193.14541992 -104.09521484 193.74755859 C-104.95066895 194.36711426 -105.80612305 194.98666992 -106.6875 195.625 C-107.55584473 196.25873535 -108.42418945 196.8924707 -109.31884766 197.54541016 C-116.02688499 202.39610456 -122.87566253 206.78430677 -130 211 C-131.01835938 211.65226563 -132.03671875 212.30453125 -133.0859375 212.9765625 C-144.52587985 220.29247625 -156.74126542 225.71737293 -169.25 230.9375 C-169.95286133 231.23213135 -170.65572266 231.5267627 -171.37988281 231.83032227 C-177.25332448 234.23147308 -181.99059764 235.13197145 -188.3125 235.0625 C-189.38113281 235.05347656 -190.44976563 235.04445313 -191.55078125 235.03515625 C-192.76314453 235.01775391 -192.76314453 235.01775391 -194 235 C-194 234.67 -194 234.34 -194 234 C-193.21020752 233.91508301 -192.42041504 233.83016602 -191.60668945 233.74267578 C-183.1185799 232.65823375 -175.97747555 230.35111503 -168.1875 226.875 C-166.49028809 226.13576294 -166.49028809 226.13576294 -164.75878906 225.3815918 C-156.01787043 221.53980701 -147.42000443 217.50067052 -139 213 C-137.86304688 212.401875 -136.72609375 211.80375 -135.5546875 211.1875 C-110.10000984 197.2715031 -85.74546419 177.11895217 -67 155 C-66.19175781 154.05640625 -65.38351562 153.1128125 -64.55078125 152.140625 C-27.27125371 108.06743165 -8.03233741 56.65231918 0 0 Z " fill="#1F1E1F" transform="translate(872,432)"/>
<path d="M0 0 C-1.49866378 3.84884106 -3.63740609 5.43821669 -7 7.75 C-17.38477618 15.08677694 -26.81186734 23.23445224 -36 32 C-36.63776367 32.60376465 -37.27552734 33.2075293 -37.93261719 33.82958984 C-48.08013548 43.48834014 -56.80340731 53.65171713 -65 65 C-65.91463349 66.24272591 -66.82997017 67.48493466 -67.74609375 68.7265625 C-73.24772765 76.24450202 -78.23827346 83.9928509 -83 92 C-83.9435441 89.46100862 -84.16906025 88.39090725 -83.07421875 85.859375 C-82.61660156 85.16328125 -82.15898437 84.4671875 -81.6875 83.75 C-81.23761719 83.04359375 -80.78773438 82.3371875 -80.32421875 81.609375 C-79.66873047 80.81273437 -79.66873047 80.81273437 -79 80 C-78.34 80 -77.68 80 -77 80 C-76.93425781 79.3090625 -76.86851562 78.618125 -76.80078125 77.90625 C-75.75363689 74.10588217 -73.62610839 71.50726814 -71.1875 68.5 C-70.52911133 67.66662109 -70.52911133 67.66662109 -69.85742188 66.81640625 C-68.58047064 65.20361494 -67.29201714 63.60073371 -66 62 C-64.02009216 59.52604386 -62.04099883 57.05162201 -60.0703125 54.5703125 C-51.72340426 44.07801418 -51.72340426 44.07801418 -48 40 C-47.34 40 -46.68 40 -46 40 C-46 39.34 -46 38.68 -46 38 C-43.625 35.375 -43.625 35.375 -41 33 C-40.34 33 -39.68 33 -39 33 C-38.7525 32.4225 -38.505 31.845 -38.25 31.25 C-36.81700012 28.67060021 -35.21575324 26.93878408 -33 25 C-32.34 25 -31.68 25 -31 25 C-31 24.34 -31 23.68 -31 23 C-29.49609375 21.484375 -29.49609375 21.484375 -27.4375 19.75 C-26.71046875 19.13511719 -25.9834375 18.52023438 -25.234375 17.88671875 C-24.49703125 17.26410156 -23.7596875 16.64148438 -23 16 C-22.34515625 15.40832031 -21.6903125 14.81664062 -21.015625 14.20703125 C-20.41234375 13.66433594 -19.8090625 13.12164062 -19.1875 12.5625 C-18.64480469 12.06878906 -18.10210937 11.57507813 -17.54296875 11.06640625 C-16 10 -16 10 -13 10 C-12.67 9.01 -12.34 8.02 -12 7 C-9.78515625 5.17578125 -9.78515625 5.17578125 -7.0625 3.3125 C-6.16660156 2.68988281 -5.27070313 2.06726563 -4.34765625 1.42578125 C-2 0 -2 0 0 0 Z " fill="#1C1C1C" transform="translate(446,179)"/>
<path d="M0 0 C0.99157608 -0.0033284 1.98315216 -0.0066568 3.004776 -0.01008606 C5.09831279 -0.0151287 7.19185754 -0.01749521 9.28540039 -0.01733398 C12.43194463 -0.01950318 15.5781278 -0.03763983 18.72460938 -0.05664062 C38.81400605 -0.11298207 57.64470807 2.43720078 77.16015625 7.23046875 C77.82345947 7.39272949 78.4867627 7.55499023 79.17016602 7.72216797 C82.75143522 8.62678399 86.14262568 9.70567109 89.53515625 11.16796875 C89.53515625 11.49796875 89.53515625 11.82796875 89.53515625 12.16796875 C84.63701515 11.76648177 80.14466905 11.14058317 75.42578125 9.7578125 C69.69698873 8.15844247 63.9583486 7.03630644 58.09765625 6.04296875 C57.15083984 5.87410156 56.20402344 5.70523438 55.22851562 5.53125 C44.11348953 3.61460599 33.0338807 3.02311315 21.76953125 2.8515625 C20.61012024 2.8307814 19.45070923 2.81000031 18.25616455 2.78858948 C14.59921452 2.72387658 10.9422007 2.66457786 7.28515625 2.60546875 C4.78645208 2.56220886 2.28775405 2.51859236 -0.2109375 2.47460938 C-6.29550801 2.36827702 -12.38014015 2.26637431 -18.46484375 2.16796875 C-18.46484375 1.83796875 -18.46484375 1.50796875 -18.46484375 1.16796875 C-12.27472929 0.26237375 -6.25151973 0.00745284 0 0 Z " fill="#2E2D2E" transform="translate(588.46484375,131.83203125)"/>
<path d="M0 0 C3.32127975 2.59531696 3.58536939 5.05324174 4.125 9.125 C4.34096333 12.87922063 4.34096333 12.87922063 6 16 C6.28797703 18.10592626 6.51601476 20.22010324 6.71875 22.3359375 C6.84636719 23.62757813 6.97398437 24.91921875 7.10546875 26.25 C7.23739941 27.62495974 7.36890512 28.99996032 7.5 30.375 C7.75635142 33.04991634 8.01755724 35.72422 8.28125 38.3984375 C8.39533203 39.59130371 8.50941406 40.78416992 8.62695312 42.01318359 C8.90667731 45.04705657 8.90667731 45.04705657 10 48 C10.0433573 49.52021517 10.04007394 51.04219473 10 52.5625 C9.87044355 55.91281982 9.87044355 55.91281982 11 59 C11.24360633 62.68193565 11.1852129 66.37341575 11.1875 70.0625 C11.19974609 71.07505859 11.21199219 72.08761719 11.22460938 73.13085938 C11.23674996 79.40754126 10.59866046 84.92761779 9 91 C8.67 91 8.34 91 8 91 C7.9906543 89.77821045 7.98130859 88.5564209 7.97167969 87.29760742 C7.76575585 64.25592627 7.49280352 41.67977369 3 19 C2.84176758 18.17870605 2.68353516 17.35741211 2.52050781 16.51123047 C1.88758838 13.23885854 1.23145249 9.97814827 0.515625 6.72265625 C0 4 0 4 0 0 Z " fill="#313031" transform="translate(865,337)"/>
<path d="M0 0 C0.99 0.495 0.99 0.495 2 1 C-2.49837845 5.93405675 -8.19174253 8.72301769 -13.97314453 11.88818359 C-15.31593551 12.62476154 -16.65552183 13.36721436 -17.99169922 14.11572266 C-48.56025214 31.23560162 -48.56025214 31.23560162 -64.3125 31.0625 C-65.38113281 31.05347656 -66.44976563 31.04445313 -67.55078125 31.03515625 C-68.35902344 31.02355469 -69.16726563 31.01195312 -70 31 C-70 30.67 -70 30.34 -70 30 C-69.21020752 29.91508301 -68.42041504 29.83016602 -67.60668945 29.74267578 C-59.1185799 28.65823375 -51.97747555 26.35111503 -44.1875 22.875 C-43.05602539 22.38217529 -41.92455078 21.88935059 -40.75878906 21.3815918 C-19.05489254 12.8323283 -19.05489254 12.8323283 0 0 Z " fill="#222122" transform="translate(748,636)"/>
<path d="M0 0 C0 0.33 0 0.66 0 1 C-0.97453125 1.07476562 -1.9490625 1.14953125 -2.953125 1.2265625 C-23.34091468 3.02946392 -43.54122063 7.71759409 -63 14 C-63 13.34 -63 12.68 -63 12 C-61.35477193 11.39418705 -59.70877676 10.79045733 -58.0625 10.1875 C-57.14597656 9.85105469 -56.22945312 9.51460937 -55.28515625 9.16796875 C-53.65900391 8.58982422 -53.65900391 8.58982422 -52 8 C-51.35724121 7.76514893 -50.71448242 7.53029785 -50.05224609 7.28833008 C-43.64925325 5.03354007 -37.15756677 3.60498927 -30.5 2.3125 C-29.36320801 2.09118408 -28.22641602 1.86986816 -27.05517578 1.6418457 C-17.93588928 -0.03232276 -9.23832498 -0.57900365 0 0 Z " fill="#1F1E1F" transform="translate(575,134)"/>
<path d="M0 0 C0.33 0 0.66 0 1 0 C1.05534912 1.02883301 1.11069824 2.05766602 1.16772461 3.11767578 C1.3749637 6.95331389 1.58661301 10.78869837 1.79956055 14.62402344 C1.8909241 16.28053352 1.9811091 17.93710906 2.07006836 19.59375 C2.19852049 21.981955 2.33128063 24.36988853 2.46484375 26.7578125 C2.50343002 27.49242706 2.5420163 28.22704163 2.58177185 28.98391724 C2.81408183 33.0543908 3.29726947 36.98688597 4 41 C4.06522873 43.29083289 4.0858841 45.58335794 4.0625 47.875 C4.05347656 49.02742188 4.04445313 50.17984375 4.03515625 51.3671875 C4.02355469 52.23601562 4.01195312 53.10484375 4 54 C3.34 54 2.68 54 2 54 C0.09344816 47.58765263 -0.26663902 41.8235055 -0.1953125 35.15625 C-0.1924826 34.14655151 -0.18965271 33.13685303 -0.18673706 32.09655762 C-0.1756153 28.89758033 -0.15052563 25.6988915 -0.125 22.5 C-0.11495985 20.32031657 -0.10583582 18.14062871 -0.09765625 15.9609375 C-0.07570225 10.64052795 -0.04230518 5.32028459 0 0 Z " fill="#141314" transform="translate(325,395)"/>
<path d="M0 0 C0.66 0 1.32 0 2 0 C1.87153687 0.94576904 1.87153687 0.94576904 1.74047852 1.91064453 C-0.65784526 19.96689715 -1.65672025 37.8118631 -2 56 C-2.33 56 -2.66 56 -3 56 C-3.61246836 46.23331708 -4.11022949 36.47477617 -4.1875 26.6875 C-4.20039063 25.90656982 -4.21328125 25.12563965 -4.2265625 24.32104492 C-4.23447404 19.77042353 -3.56738167 16.31927314 -2 12 C-1.7525968 10.06923483 -1.56239658 8.13004044 -1.4375 6.1875 C-1.10115607 1.10115607 -1.10115607 1.10115607 0 0 Z " fill="#2C2C2C" transform="translate(329,358)"/>
<path d="M0 0 C11.844636 -0.34424669 22.45027714 0.1216779 34 3 C35.43595853 3.34085382 36.87216526 3.6806634 38.30859375 4.01953125 C49.91333858 6.80747353 49.91333858 6.80747353 55 9 C55 9.33 55 9.66 55 10 C50.1018589 9.59851302 45.6095128 8.97261442 40.890625 7.58984375 C35.16231688 5.99060895 29.42356432 4.86426749 23.5625 3.875 C22.56275146 3.70323242 21.56300293 3.53146484 20.53295898 3.35449219 C13.6992584 2.2095208 6.92939759 1.29803861 0 1 C0 0.67 0 0.34 0 0 Z " fill="#282728" transform="translate(623,134)"/>
<path d="M0 0 C0.66 0.66 1.32 1.32 2 2 C1.625 4.625 1.625 4.625 1 7 C-5.0546875 7.1953125 -5.0546875 7.1953125 -7 7 C-9 5 -9 5 -9.125 2.375 C-9.08375 1.59125 -9.0425 0.8075 -9 0 C-5.88135455 -1.55932272 -3.33704665 -0.65549131 0 0 Z " fill="#F4F4F4" transform="translate(485,573)"/>
<path d="M0 0 C0.33 0 0.66 0 1 0 C1.54139814 7.17352537 -0.33291627 12.39622761 -3 19 C-3.50273438 20.41345703 -3.50273438 20.41345703 -4.015625 21.85546875 C-4.34046875 22.74878906 -4.6653125 23.64210938 -5 24.5625 C-5.28875 25.36816406 -5.5775 26.17382812 -5.875 27.00390625 C-7.24770818 29.43951001 -8.50621721 29.86890039 -11 31 C-8.73636641 24.09484644 -6.30988349 17.26127297 -3.8125 10.4375 C-3.44447266 9.42880859 -3.07644531 8.42011719 -2.69726562 7.38085938 C-1.79928712 4.92016504 -0.90017838 2.45989023 0 0 Z " fill="#282728" transform="translate(860,489)"/>
<path d="M0 0 C3.5625 0.1875 3.5625 0.1875 5.5625 2.1875 C5.1875 4.8125 5.1875 4.8125 4.5625 7.1875 C-2.0625 8.4375 -2.0625 8.4375 -5.4375 6.1875 C-4.36970339 0.23834746 -4.36970339 0.23834746 0 0 Z " fill="#F5F5F5" transform="translate(503.4375,575.8125)"/>
<path d="M0 0 C0.66 0.66 1.32 1.32 2 2 C1.75 4.5625 1.75 4.5625 1 7 C-1.95664519 8.4783226 -4.74229737 8.06032783 -8 8 C-8.6875 5.6875 -8.6875 5.6875 -9 3 C-6.83087664 -0.70026925 -3.97666252 -0.4230492 0 0 Z " fill="#F4F4F4" transform="translate(528,573)"/>
<path d="M0 0 C2.71000247 0.28526342 4.55647772 0.69412256 6.8125 2.25 C8.40975379 4.6038477 8.29313806 6.21518844 8 9 C7 10 7 10 4.625 10.25 C2 10 2 10 0.1875 8.875 C-1.50813053 6.19768863 -1.2694875 4.09910627 -1 1 C-0.67 0.67 -0.34 0.34 0 0 Z " fill="#F2F2F2" transform="translate(459,560)"/>
<path d="M0 0 C-1.25325185 2.50650369 -2.0905219 2.64732466 -4.640625 3.69140625 C-5.38183594 3.99626953 -6.12304688 4.30113281 -6.88671875 4.61523438 C-7.66660156 4.92783203 -8.44648437 5.24042969 -9.25 5.5625 C-10.01441406 5.87896484 -10.77882813 6.19542969 -11.56640625 6.52148438 C-17.6540431 8.99754392 -22.6918285 10.13525463 -29.3125 10.0625 C-30.38113281 10.05347656 -31.44976563 10.04445313 -32.55078125 10.03515625 C-33.35902344 10.02355469 -34.16726563 10.01195312 -35 10 C-35 9.67 -35 9.34 -35 9 C-34.28199219 8.9484375 -33.56398438 8.896875 -32.82421875 8.84375 C-24.2153776 7.90031535 -17.19451089 5.26010552 -9.36206055 1.65625 C-8.58000244 1.30175781 -7.79794434 0.94726562 -6.9921875 0.58203125 C-6.29464355 0.25436768 -5.59709961 -0.0732959 -4.87841797 -0.41088867 C-3 -1 -3 -1 0 0 Z " fill="#2A292A" transform="translate(713,657)"/>
<path d="M0 0 C3.25696479 0.41755959 4.63443291 0.63443291 7 3 C7.125 5.625 7.125 5.625 7 8 C4.6875 8.6875 4.6875 8.6875 2 9 C0.1875 7.875 0.1875 7.875 -1 6 C-1.25 3.375 -1.25 3.375 -1 1 C-0.67 0.67 -0.34 0.34 0 0 Z " fill="#F7F7F7" transform="translate(446,545)"/>
<path d="M0 0 C0.66 0.33 1.32 0.66 2 1 C1.34 2.32 0.68 3.64 0 5 C-0.66 5 -1.32 5 -2 5 C-2.2475 5.55171875 -2.495 6.1034375 -2.75 6.671875 C-4.24234474 9.45136707 -6.03672523 11.7814707 -8 14.25 C-8.70125 15.14203125 -9.4025 16.0340625 -10.125 16.953125 C-11.053125 17.96632813 -11.053125 17.96632813 -12 19 C-12.66 19 -13.32 19 -14 19 C-14.66 20.32 -15.32 21.64 -16 23 C-16.99 22.67 -17.98 22.34 -19 22 C-18.55011719 21.58492187 -18.10023438 21.16984375 -17.63671875 20.7421875 C-11.01628152 14.40036586 -5.55152696 7.2659691 0 0 Z " fill="#232223" transform="translate(818,571)"/>
<path d="M0 0 C0.33 0 0.66 0 1 0 C1.05878077 3.64576392 1.0938558 7.29140352 1.125 10.9375 C1.14175781 11.95908203 1.15851562 12.98066406 1.17578125 14.03320312 C1.21618815 20.35688352 0.62010013 25.88316527 -1 32 C-1.33 32 -1.66 32 -2 32 C-2.28435784 21.14700916 -1.47317858 10.74631163 0 0 Z " fill="#0A0A0A" transform="translate(875,396)"/>
<path d="M0 0 C0.33 0.66 0.66 1.32 1 2 C0.15136719 4.04370117 0.15136719 4.04370117 -1.203125 6.54296875 C-1.68910156 7.45240234 -2.17507813 8.36183594 -2.67578125 9.29882812 C-3.19527344 10.25208984 -3.71476562 11.20535156 -4.25 12.1875 C-7.41102061 18.04468524 -10.50576279 23.82420033 -13 30 C-13.33 30 -13.66 30 -14 30 C-13.67334748 22.81364447 -10.36208596 17.23925568 -7 11 C-6.2884375 9.66195313 -6.2884375 9.66195313 -5.5625 8.296875 C-2.32746479 2.32746479 -2.32746479 2.32746479 0 0 Z " fill="#171717" transform="translate(361,271)"/>
<path d="M0 0 C3.32127975 2.59531696 3.58536939 5.05324174 4.125 9.125 C4.34096333 12.87922063 4.34096333 12.87922063 6 16 C7.33121019 23.50318471 7.33121019 23.50318471 5 27 C4.15984843 23.25149397 3.32906781 19.50097168 2.5 15.75 C2.26152344 14.68652344 2.02304687 13.62304688 1.77734375 12.52734375 C1.55175781 11.50253906 1.32617188 10.47773438 1.09375 9.421875 C0.88427734 8.47924805 0.67480469 7.53662109 0.45898438 6.56542969 C0 4 0 4 0 0 Z " fill="#1B1A1B" transform="translate(865,337)"/>
<path d="M0 0 C0.66 0 1.32 0 2 0 C1.394627 6.41695383 0.46442671 13.00744105 -2 19 C-2.99 19.33 -3.98 19.66 -5 20 C-4.52432875 12.74601342 -2.70533406 6.73187777 0 0 Z " fill="#1C1B1C" transform="translate(866,471)"/>
<path d="M0 0 C1.17791932 3.53375797 0.75415072 4.44851107 -0.43359375 7.88671875 C-0.9121582 9.2934082 -0.9121582 9.2934082 -1.40039062 10.72851562 C-1.74263672 11.70498047 -2.08488281 12.68144531 -2.4375 13.6875 C-2.77587891 14.67556641 -3.11425781 15.66363281 -3.46289062 16.68164062 C-4.30059974 19.12397565 -5.14657083 21.56312271 -6 24 C-6.33 24 -6.66 24 -7 24 C-7.20152324 18.8611573 -7.34516518 14.69033036 -5 10 C-4.30984341 8.41782284 -3.62257225 6.83438528 -2.9375 5.25 C-1.12979351 1.12979351 -1.12979351 1.12979351 0 0 Z " fill="#363636" transform="translate(346,301)"/>
<path d="M0 0 C4.17005188 4.46791273 5.92855827 9.36727191 8 15 C8.37640625 15.96292969 8.7528125 16.92585938 9.140625 17.91796875 C9.68976562 19.35076172 9.68976562 19.35076172 10.25 20.8125 C10.58515625 21.68519531 10.9203125 22.55789063 11.265625 23.45703125 C12.02849305 26.09866475 12.13744141 28.26589774 12 31 C10.23167908 28.34751862 9.22390672 26.20806948 8.125 23.25390625 C7.77953125 22.33416016 7.4340625 21.41441406 7.078125 20.46679688 C6.72234375 19.50837891 6.3665625 18.54996094 6 17.5625 C5.29359927 15.66724731 4.58533393 13.77268831 3.875 11.87890625 C3.56304688 11.0391626 3.25109375 10.19941895 2.9296875 9.33422852 C2.04777068 6.99967584 2.04777068 6.99967584 0.8828125 4.88256836 C0 3 0 3 0 0 Z " fill="#1A191A" transform="translate(849,292)"/>
<path d="M0 0 C4.75 0.75 4.75 0.75 7 3 C6.625 5.625 6.625 5.625 6 8 C3.625 7.6875 3.625 7.6875 1 7 C-1 4 -1 4 -0.625 1.8125 C-0.41875 1.214375 -0.2125 0.61625 0 0 Z " fill="#EEEEEE" transform="translate(435,531)"/>
<path d="M0 0 C0.66 0 1.32 0 2 0 C0.70396588 2.82868857 -0.69189598 4.9701021 -2.8203125 7.234375 C-3.35527344 7.80800781 -3.89023437 8.38164062 -4.44140625 8.97265625 C-4.99699219 9.55917969 -5.55257813 10.14570313 -6.125 10.75 C-6.68832031 11.35199219 -7.25164062 11.95398438 -7.83203125 12.57421875 C-9.21724146 14.05334151 -10.6080729 15.52719641 -12 17 C-12.66 16.67 -13.32 16.34 -14 16 C-13.38511719 15.32453125 -12.77023437 14.6490625 -12.13671875 13.953125 C-11.32847656 13.06109375 -10.52023437 12.1690625 -9.6875 11.25 C-8.88699219 10.36828125 -8.08648437 9.4865625 -7.26171875 8.578125 C-5.01811457 6.10583348 -5.01811457 6.10583348 -3.33203125 3.671875 C-2.89246094 3.12015625 -2.45289063 2.5684375 -2 2 C-1.34 2 -0.68 2 0 2 C0 1.34 0 0.68 0 0 Z " fill="#151515" transform="translate(400,217)"/>
<path d="M0 0 C0.33 0.66 0.66 1.32 1 2 C-1.95619219 3.1721449 -4.91528789 4.33677476 -7.875 5.5 C-8.71675781 5.83386719 -9.55851562 6.16773438 -10.42578125 6.51171875 C-11.23144531 6.82753906 -12.03710938 7.14335937 -12.8671875 7.46875 C-13.61081543 7.76201172 -14.35444336 8.05527344 -15.12060547 8.35742188 C-17 9 -17 9 -19 9 C-19 8.34 -19 7.68 -19 7 C-16.95900065 6.2066145 -14.9171691 5.4153697 -12.875 4.625 C-11.73804688 4.18414062 -10.60109375 3.74328125 -9.4296875 3.2890625 C-6.30717487 2.11545297 -3.17184369 1.03157226 0 0 Z " fill="#171617" transform="translate(511,146)"/>
<path d="M0 0 C0.99 0.33 1.98 0.66 3 1 C2.2575 1.721875 1.515 2.44375 0.75 3.1875 C-1.97893134 5.85989327 -1.97893134 5.85989327 -3.9375 8.5625 C-6.31430291 11.37144889 -8.8773482 13.08382731 -12 15 C-10.4744094 11.34858644 -8.27519091 9.09881888 -5.4375 6.375 C-2.30957946 3.48929319 -2.30957946 3.48929319 0 0 Z " fill="#111011" transform="translate(798,594)"/>
<path d="M0 0 C1.65 0.33 3.3 0.66 5 1 C5.33 2.65 5.66 4.3 6 6 C3.625 6.125 3.625 6.125 1 6 C0.34 5.34 -0.32 4.68 -1 4 C-0.625 1.875 -0.625 1.875 0 0 Z " fill="#EDEDED" transform="translate(424,521)"/>
<path d="M0 0 C0.66 0 1.32 0 2 0 C1.34 5.94 0.68 11.88 0 18 C-0.33 18 -0.66 18 -1 18 C-1.9563948 12.1553651 -2.15066164 6.84280412 -1 1 C-0.67 0.67 -0.34 0.34 0 0 Z " fill="#2E2E2E" transform="translate(329,358)"/>
<path d="M0 0 C3 1 3 1 4.6875 3.8125 C6 7 6 7 6 11 C5.34 11 4.68 11 4 11 C1.38411497 7.44239635 0.50642192 4.35522853 0 0 Z " fill="#1A191A" transform="translate(350,522)"/>
<path d="M0 0 C0 0.66 0 1.32 0 2 C-6.34823202 4.30844801 -12.29481414 4.19818283 -19 4 C-19 3.67 -19 3.34 -19 3 C-18.08476563 2.86722656 -17.16953125 2.73445312 -16.2265625 2.59765625 C-15.03804687 2.42105469 -13.84953125 2.24445312 -12.625 2.0625 C-11.44164062 1.88847656 -10.25828125 1.71445312 -9.0390625 1.53515625 C-0.32116788 0 -0.32116788 0 0 0 Z " fill="#403F40" transform="translate(697,663)"/>
<path d="M0 0 C0.33 0.99 0.66 1.98 1 3 C-3.455 6.96 -3.455 6.96 -8 11 C-8.99 10.67 -9.98 10.34 -11 10 C-5.555 5.05 -5.555 5.05 0 0 Z " fill="#252425" transform="translate(785,607)"/>
<path d="M0 0 C0.66 0.33 1.32 0.66 2 1 C-0.98696425 4.33161397 -3.82719722 6.34826557 -8 8 C-10.1875 7.57421875 -10.1875 7.57421875 -12 7 C-11.21753906 6.57847656 -10.43507813 6.15695312 -9.62890625 5.72265625 C-8.61699219 5.17480469 -7.60507812 4.62695312 -6.5625 4.0625 C-5.55316406 3.51722656 -4.54382813 2.97195313 -3.50390625 2.41015625 C-1.13329507 1.22300532 -1.13329507 1.22300532 0 0 Z " fill="#272627" transform="translate(748,636)"/>
<path d="M0 0 C1.1919204 3.57576119 0.74829813 4.29182952 -0.75 7.625 C-1.09546875 8.42164063 -1.4409375 9.21828125 -1.796875 10.0390625 C-3 12 -3 12 -6 13 C-5.731875 12.505 -5.46375 12.01 -5.1875 11.5 C-3.82334212 8.62808867 -2.75474049 5.69847215 -1.68359375 2.70703125 C-1 1 -1 1 0 0 Z " fill="#161416" transform="translate(346,301)"/>
<path d="M0 0 C4.75481646 0.57634139 7.97048212 2.55068521 12 5 C11.67 5.66 11.34 6.32 11 7 C9.35063087 6.21572648 7.70558873 5.42234741 6.0625 4.625 C5.14597656 4.18414063 4.22945313 3.74328125 3.28515625 3.2890625 C1 2 1 2 0 0 Z " fill="#121112" transform="translate(475,651)"/>
<path d="M0 0 C0 0.66 0 1.32 0 2 C-2.8125 3.5625 -2.8125 3.5625 -6 5 C-6.99 4.67 -7.98 4.34 -9 4 C-5.86025155 0.71753571 -4.76763047 0 0 0 Z " fill="#181818" transform="translate(721,653)"/>
<path d="M0 0 C0.99 0 1.98 0 3 0 C3.66 1.98 4.32 3.96 5 6 C3.68 5.67 2.36 5.34 1 5 C0.67 3.35 0.34 1.7 0 0 Z " fill="#272727" transform="translate(347,516)"/>
<path d="M0 0 C0.66 0.33 1.32 0.66 2 1 C0.35 3.64 -1.3 6.28 -3 9 C-3.33 7.68 -3.66 6.36 -4 5 C-2.0625 2.25 -2.0625 2.25 0 0 Z " fill="#222222" transform="translate(366,262)"/>
<path d="M0 0 C0.33 0 0.66 0 1 0 C1.125 7.75 1.125 7.75 0 10 C-0.66 10 -1.32 10 -2 10 C-1.54177532 6.53058454 -1.10868317 3.32604951 0 0 Z " fill="#343334" transform="translate(860,489)"/>
<path d="M0 0 C0.33 0 0.66 0 1 0 C1.33 3.63 1.66 7.26 2 11 C1.01 10.67 0.02 10.34 -1 10 C-0.67 6.7 -0.34 3.4 0 0 Z " fill="#2D2C2D" transform="translate(329,444)"/>
<path d="M0 0 C-3.68734758 2.45823172 -6.69699971 3.01242616 -11 4 C-11 3.34 -11 2.68 -11 2 C-7.36576791 -0.32590854 -4.22911669 -0.16265833 0 0 Z " fill="#393939" transform="translate(523,144)"/>
<path d="M0 0 C0.66 0.66 1.32 1.32 2 2 C-0.64 3.65 -3.28 5.3 -6 7 C-6 6.01 -6 5.02 -6 4 C-3 1.8125 -3 1.8125 0 0 Z " fill="#272627" transform="translate(452,174)"/>
<path d="M0 0 C0.33 0 0.66 0 1 0 C1 2.64 1 5.28 1 8 C0.01 8 -0.98 8 -2 8 C-1.125 2.25 -1.125 2.25 0 0 Z " fill="#090909" transform="translate(327,371)"/>
</svg>
