<?xml version="1.0" encoding="UTF-8"?>
<svg version="1.1" xmlns="http://www.w3.org/2000/svg" width="512" height="512">
<path d="M0 0 C168.96 0 337.92 0 512 0 C512 168.96 512 337.92 512 512 C343.04 512 174.08 512 0 512 C0 343.04 0 174.08 0 0 Z " fill="#000000" transform="translate(0,0)"/>
<path d="M0 0 C2.50875572 2.20455031 4.88802036 4.47967955 7.234375 6.85546875 C7.80929688 7.40847656 8.38421875 7.96148437 8.9765625 8.53125 C17.84948983 17.79495392 21.64143006 31.1191609 21.546875 43.66796875 C21.54123535 44.45768066 21.5355957 45.24739258 21.52978516 46.06103516 C21.39920716 52.37402856 20.58729966 57.95519584 18.234375 63.85546875 C17.85539062 64.81582031 17.47640625 65.77617188 17.0859375 66.765625 C11.00027707 80.39680083 0.87250101 90.0105576 -12.765625 95.85546875 C-17.220625 96.84546875 -17.220625 96.84546875 -21.765625 97.85546875 C-21.435625 107.09546875 -21.105625 116.33546875 -20.765625 125.85546875 C-18.3525 126.55671875 -15.939375 127.25796875 -13.453125 127.98046875 C-1.65898167 131.61861761 6.8810768 136.92728115 15.703125 145.46484375 C18.18842903 147.94619381 18.18842903 147.94619381 21.234375 149.85546875 C24.88164976 147.71207821 28.52694854 145.56534985 32.171875 143.41796875 C33.21279297 142.80630859 34.25371094 142.19464844 35.32617188 141.56445312 C36.31552734 140.98115234 37.30488281 140.39785156 38.32421875 139.796875 C39.69888306 138.98778687 39.69888306 138.98778687 41.10131836 138.16235352 C43.14054141 137.02714552 43.14054141 137.02714552 44.234375 135.85546875 C43.97042013 134.40826789 43.64561279 132.97210991 43.296875 131.54296875 C40.18833904 116.55386383 43.09264467 101.80419019 51.234375 88.85546875 C60.32671325 76.90358156 71.98620106 68.35923977 86.859375 65.13671875 C103.37789336 63.18057842 118.83979718 66.09832112 132.375 76.19921875 C144.27629998 86.05042742 151.22516511 99.26262324 153.046875 114.60546875 C154.07075631 131.22220925 149.19511706 145.59633346 138.3203125 158.046875 C128.84914903 167.98970996 116.94198443 174.48198684 103.046875 175.09375 C87.09341911 175.46205982 73.33549066 172.23476947 60.546875 162.10546875 C59.4021875 160.99171875 59.4021875 160.99171875 58.234375 159.85546875 C58.234375 159.19546875 58.234375 158.53546875 58.234375 157.85546875 C49.52044197 162.00047473 41.36759585 166.68693808 33.234375 171.85546875 C33.54181641 172.78552734 33.54181641 172.78552734 33.85546875 173.734375 C38.54829821 189.16008715 37.86945822 204.52253524 33.234375 219.85546875 C33.72317139 220.14268799 34.21196777 220.42990723 34.71557617 220.72583008 C36.95114712 222.03964164 39.18651264 223.35380233 41.421875 224.66796875 C42.57526367 225.34569336 42.57526367 225.34569336 43.75195312 226.03710938 C44.87827148 226.69936523 44.87827148 226.69936523 46.02734375 227.375 C46.75872559 227.79990723 47.49010742 228.22481445 48.24365234 228.66259766 C49.88198943 229.64431399 51.46748985 230.71366165 53.03515625 231.8046875 C55.14493899 233.10879128 55.14493899 233.10879128 57.16796875 232.31640625 C59.8925216 230.39016283 62.60363769 228.45049167 65.296875 226.48046875 C78.15972515 217.32609072 91.7928621 215.65439121 107.234375 216.85546875 C122.41999738 219.71247746 135.13396309 228.24181709 143.99609375 240.8984375 C150.09672898 250.54013545 152.79790065 260.3321492 152.671875 271.73046875 C152.66051514 273.17728027 152.66051514 273.17728027 152.64892578 274.65332031 C152.30200657 289.67973337 146.02594927 301.57011941 135.85546875 312.4609375 C123.66026346 323.60201178 110.22421105 327.22389334 94.11328125 327.06640625 C77.81434367 326.18005919 65.12553506 318.44125069 54.234375 306.69921875 C44.52420858 295.14746904 41.22710551 280.65458198 42.234375 265.85546875 C42.74712215 262.47840994 43.41297879 259.17038917 44.234375 255.85546875 C36.84168261 250.69231851 29.09148802 246.25902854 21.234375 241.85546875 C20.244375 242.70109375 19.254375 243.54671875 18.234375 244.41796875 C17.25791016 245.24361328 17.25791016 245.24361328 16.26171875 246.0859375 C14.99007508 247.19586926 13.74708334 248.3404992 12.55078125 249.53125 C8.21044208 253.73625565 3.53393694 256.48049815 -1.828125 259.16796875 C-2.50093506 259.50554199 -3.17374512 259.84311523 -3.86694336 260.19091797 C-9.80575062 263.06263668 -15.07539373 264.85546875 -21.765625 264.85546875 C-21.765625 274.42546875 -21.765625 283.99546875 -21.765625 293.85546875 C-18.795625 294.51546875 -15.825625 295.17546875 -12.765625 295.85546875 C0.2645858 301.14736528 10.98454863 311.39546563 16.73828125 324.203125 C23.28304776 340.74217882 22.97206119 356.36913883 16.01953125 372.7109375 C9.45885881 386.19359478 -2.62314284 395.79142302 -16.640625 400.73046875 C-30.86897652 405.13846785 -45.52784445 403.36643941 -58.890625 397.23046875 C-73.01712584 389.75173301 -82.22126307 377.58914958 -87.515625 362.75390625 C-91.62339896 347.97733049 -88.70247136 332.19200929 -81.671875 318.90625 C-75.02082664 308.26184678 -66.30515765 300.80098274 -54.765625 295.85546875 C-51.795625 295.19546875 -48.825625 294.53546875 -45.765625 293.85546875 C-45.765625 284.28546875 -45.765625 274.71546875 -45.765625 264.85546875 C-48.735625 264.52546875 -51.705625 264.19546875 -54.765625 263.85546875 C-72.39602712 258.25636302 -86.71615658 246.1834067 -96.0078125 230.30859375 C-104.32026219 213.97924814 -107.57404321 192.49308164 -101.921875 174.69921875 C-96.95286853 162.47814879 -91.29137119 153.04252175 -81.765625 143.85546875 C-81.13269531 143.19160156 -80.49976563 142.52773437 -79.84765625 141.84375 C-75.73867447 137.80733302 -71.03901835 135.20935103 -65.953125 132.60546875 C-64.99369995 132.11095215 -64.99369995 132.11095215 -64.01489258 131.60644531 C-58.25614654 128.79786182 -53.2114373 127.61341756 -46.765625 125.85546875 C-46.435625 116.61546875 -46.105625 107.37546875 -45.765625 97.85546875 C-48.735625 97.19546875 -51.705625 96.53546875 -54.765625 95.85546875 C-67.7958358 90.56357222 -78.51579863 80.31547187 -84.26953125 67.5078125 C-90.24794241 52.39997574 -91.07112148 36.16694135 -84.546875 21.02734375 C-77.14765579 6.31111888 -65.20183114 -3.8188321 -49.765625 -9.14453125 C-33.05774161 -14.65641031 -13.77780708 -10.68363854 0 0 Z " fill="#FEFEFE" transform="translate(231.765625,60.14453125)"/>
<path d="M0 0 C8.70699224 6.46163607 15.91179482 14.10920682 18 25 C19.10855384 36.54518271 17.18070382 45.76766652 10 55 C4.54733522 61.51980829 -2.49666001 66.44393594 -11 68 C-23.67936987 68.97410776 -32.8462315 66.65464514 -42.7421875 58.578125 C-49.32471728 52.64537284 -53.43648361 44.21715629 -54.23828125 35.37109375 C-54.53874444 23.49489077 -50.89727217 14.21127307 -42.875 5.4375 C-31.64646165 -5.50001791 -13.6517764 -7.66631287 0 0 Z " fill="#000000" transform="translate(216,224)"/>
<path d="M0 0 C4.94103565 5.24453907 6.95446478 10.90312959 7.71484375 18 C6.8653031 25.92904611 4.34907418 32.11964252 -1.66015625 37.5 C-8.34495253 42.26038523 -14.63061336 43.16509768 -22.66015625 42.5 C-29.12178262 41.05523495 -34.42373454 37.8788101 -38.10546875 32.31640625 C-41.92485994 25.67066557 -43.75991458 20.10977642 -42.234375 12.328125 C-40.30729636 5.47103537 -36.59451004 0.17443303 -30.671875 -3.8515625 C-20.26265228 -9.47052156 -8.73664458 -7.89381534 0 0 Z " fill="#000000" transform="translate(215.66015625,86.5)"/>
<path d="M0 0 C6.67320584 4.74824262 10.30982858 9.97168575 12 18 C12.71981365 25.77398743 10.72301981 32.28085694 5.8125 38.3125 C0.0898359 44.2607463 -4.6472179 46.21484301 -12.9375 46.5625 C-21.27016846 46.29514165 -26.65411891 43.73599509 -32.375 37.75 C-36.86493524 32.01286053 -38.78979264 25.23976583 -38 18 C-35.80478871 9.44037769 -31.52618584 3.4671448 -23.96484375 -1.0546875 C-16.42661742 -4.68142859 -7.25335216 -3.90805612 0 0 Z " fill="#000000" transform="translate(211,386)"/>
<path d="M0 0 C5.90722746 4.50378249 9.48487164 10.48563117 10.56640625 17.84765625 C10.8173741 24.47320755 9.80100231 29.30941022 6.12109375 34.81640625 C5.58484375 35.70328125 5.04859375 36.59015625 4.49609375 37.50390625 C-0.6571215 42.52151057 -7.46633062 45.50876023 -14.65234375 45.953125 C-21.04079018 45.56085197 -27.02540377 42.91491945 -31.87890625 38.81640625 C-38.24081293 30.58774292 -39.72982131 24.21236846 -38.87890625 13.81640625 C-37.15842274 7.12076659 -32.43705431 2.65732027 -26.87890625 -1.18359375 C-18.05653255 -6.09071285 -8.42084621 -5.3046079 0 0 Z " fill="#000000" transform="translate(343.87890625,311.18359375)"/>
<path d="M0 0 C5.67709267 6.65590175 7.44380668 12.39875549 7.33984375 21.05078125 C6.5885278 27.57082197 3.460941 32.99250678 -1.3125 37.4375 C-6.84220329 41.65345089 -12.67227515 43.64794896 -19.64453125 43.3359375 C-27.94717644 42.15181231 -33.04290735 38.6359186 -38.40625 32.31640625 C-42.77526471 25.9663432 -42.84421965 19.49353731 -42 12 C-39.44962532 3.88915177 -35.21791275 -0.58976414 -27.9375 -4.75 C-17.93912933 -9.00462582 -8.28112153 -6.87005263 0 0 Z " fill="#000000" transform="translate(347,162)"/>
</svg>
