<?xml version="1.0" encoding="UTF-8"?>
<!DOCTYPE svg PUBLIC "-//W3C//DTD SVG 1.1//EN" "http://www.w3.org/Graphics/SVG/1.1/DTD/svg11.dtd">
<svg xmlns="http://www.w3.org/2000/svg" version="1.1" width="197px" height="150px" style="shape-rendering:geometricPrecision; text-rendering:geometricPrecision; image-rendering:optimizeQuality; fill-rule:evenodd; clip-rule:evenodd" xmlns:xlink="http://www.w3.org/1999/xlink">
<g><path style="opacity:0.989" fill="#fdfdfd" d="M 194.5,12.5 C 194.5,16.1667 194.5,19.8333 194.5,23.5C 194.25,25.674 193.25,27.3406 191.5,28.5C 189.326,28.7497 187.659,29.7497 186.5,31.5C 186.167,31.5 185.833,31.5 185.5,31.5C 127.499,31.6667 69.499,31.5 11.5,31C 9.3476,29.5873 7.01427,28.7539 4.5,28.5C 1.56132,22.8489 0.394652,16.8489 1,10.5C 4.75705,8.41734 8.25705,5.91734 11.5,3C 14.3109,2.37114 17.1443,1.87114 20,1.5C 68.7432,1.66862 117.41,1.66862 166,1.5C 172.797,2.27911 179.63,2.77911 186.5,3C 190.47,5.13136 193.137,8.29802 194.5,12.5 Z"/></g>
<g><path style="opacity:0.675" fill="#d1d1d1" d="M 194.5,12.5 C 195.167,13.5 195.833,14.5 196.5,15.5C 196.5,17.1667 196.5,18.8333 196.5,20.5C 195.833,21.5 195.167,22.5 194.5,23.5C 194.5,19.8333 194.5,16.1667 194.5,12.5 Z"/></g>
<g><path style="opacity:0.4" fill="#b6b6b6" d="M 191.5,28.5 C 190.341,30.2503 188.674,31.2503 186.5,31.5C 187.659,29.7497 189.326,28.7497 191.5,28.5 Z"/></g>
<g><path style="opacity:0.561" fill="#d6d6d6" d="M 4.5,28.5 C 7.01427,28.7539 9.3476,29.5873 11.5,31C 69.499,31.5 127.499,31.6667 185.5,31.5C 127.001,32.6652 68.3348,32.8319 9.5,32C 7.6536,30.9702 5.98693,29.8036 4.5,28.5 Z"/></g>
<g><path style="opacity:0.983" fill="#fefefe" d="M 194.5,70.5 C 194.628,74.8814 194.295,79.2147 193.5,83.5C 193.5,84.1667 193.167,84.5 192.5,84.5C 191.5,84.8333 190.833,85.5 190.5,86.5C 188.964,89.0922 186.631,90.0922 183.5,89.5C 125.144,89.8176 66.8105,89.4843 8.5,88.5C 5.90902,87.7457 4.07568,86.079 3,83.5C 1,77.1667 1,70.8333 3,64.5C 4.21398,62.9512 5.71398,61.7845 7.5,61C 66.8333,60.3333 126.167,60.3333 185.5,61C 190.079,62.7435 193.079,65.9102 194.5,70.5 Z"/></g>
<g><path style="opacity:0.627" fill="#c9c9c9" d="M 194.5,70.5 C 195.167,71.5 195.833,72.5 196.5,73.5C 196.5,74.8333 196.5,76.1667 196.5,77.5C 195.797,79.6287 194.797,81.6287 193.5,83.5C 194.295,79.2147 194.628,74.8814 194.5,70.5 Z"/></g>
<g><path style="opacity:0.008" fill="#9f9f9f" d="M 192.5,84.5 C 192.5,85.8333 191.833,86.5 190.5,86.5C 190.833,85.5 191.5,84.8333 192.5,84.5 Z"/></g>
<g><path style="opacity:0.202" fill="#b4b4b4" d="M 8.5,88.5 C 66.8105,89.4843 125.144,89.8176 183.5,89.5C 126.335,90.6652 69.0015,90.8319 11.5,90C 10.2625,89.7679 9.26253,89.2679 8.5,88.5 Z"/></g>
<g><path style="opacity:0.981" fill="#fafafa" d="M 194.5,127.5 C 194.818,132.659 194.152,137.659 192.5,142.5C 187.623,147.459 181.623,149.459 174.5,148.5C 120.309,148.621 65.9755,148.454 11.5,148C 2.57566,143.985 -0.924338,137.152 1,127.5C 1.59804,124.692 2.7647,122.192 4.5,120C 10.8042,118.924 17.1375,118.091 23.5,117.5C 76.0478,117.58 128.548,117.58 181,117.5C 187.655,118.064 192.155,121.397 194.5,127.5 Z"/></g>
<g><path style="opacity:0.533" fill="#cdcdcd" d="M 194.5,127.5 C 195.167,128.167 195.833,128.833 196.5,129.5C 196.5,131.167 196.5,132.833 196.5,134.5C 195.738,137.453 194.405,140.12 192.5,142.5C 194.152,137.659 194.818,132.659 194.5,127.5 Z"/></g>
</svg>
