<?xml version="1.0" encoding="UTF-8"?>
<svg version="1.1" viewBox="0 0 1040 1040" width="1280" height="1280" xmlns="http://www.w3.org/2000/svg">
<path transform="translate(130,569)" d="m0 0h8l10 3 8 7 8 15 18 43 14 33 2 6h2l17-38 18-41 8-16 6-7 8-4 13-1 14 3 6 4 4 6 1 5v110l-1 1h-26l-1-2v-91l1-13-2 1-18 41-18 40-8 16-5 6-7 3h-21l-6-4-7-8-18-39-11-25-12-27-2-2v103l-1 1h-26v-116l4-6 10-5z" fill="#0D688E"/>
<path transform="translate(657,571)" d="m0 0h44l15 2 13 5 8 6 5 8 1 4v80l-5 10-6 5-4 1 13 13 11 9 2 4-33-1-9-9-8-7-6-3-15 1h-40l-14-3-12-6-7-8-3-8v-76l3-10 4-5 11-7 15-4zm-1 19-11 2-6 4-2 4v67l2 7 7 5 4 1h30l-2-4-10-8-6-5-1-3h26l7 3 15 14 5-1 3-4v-73l-5-6-4-2-6-1z" fill="#DAA143"/>
<path transform="translate(639,306)" d="m0 0 9 1 14 5 14 8 4 3v2l21 3 16 4 12 5 21 14 13 10 16 15 10 11 11 15 8 13 9 19 10 23 10 22 7 12 32 16 16 11 11 9 11 10 5 7-1 3-15 4-26 5h-4l5 5 11 8 12 8 13 12 12 12 3 5-1 3-11-8-14-9-22-12-12-9-7-7-5-9v-5l9-4 15-4 21-2 2-1-18-13-15-10-14-6-17-6-6-4-6-10-8-16-14-30-10-23-8-13-9-12-11-13-10-10-14-11-15-10-16-8-13-4-22-2-14-10-17-8-11-2-4 3 1 7 9 14 10 14 6 12 10 30 6 11 9 11 1 9-7 21-1 4v31l4 15 7 13 5 2 2-19 4-13 9-14 3 1 8 20 12 23 10 15 11 14 7 6 3 3-1 2-8-6-13-12-8-7-9-11-7-11-6-11-1 2-2 17-4 8-5 4h-8l-7-4-7-10-5-11-4-16-1-15 1-14 6-25 1-6-9-13-7-15-11-31-7-11-13-17-4-9v-10l5-8 7-4z" fill="#126B90"/>
<path transform="translate(318,610)" d="m0 0h27l1 64 5 5 2 1 67 1v-71h27l1 1v97l-2 9-7 9-8 5-14 4-10 1h-88l-1-1v-17l91-1 7-3 3-3v-13l-67-1-16-4-10-6-7-7-2-8v-61z" fill="#0B678D"/>
<path transform="translate(508,571)" d="m0 0h77l6 1v18l-84 1-7 2-3 9v12l3 7 4 3 4 1 48 1 13 3 12 6 7 7 2 5v29l-5 9h-2l-1 3-11 6-9 3-7 1h-87l-1-2 1-17h78l12-3 3-6v-18l-3-5-9-3-43-1-16-3-12-6-7-8-3-7v-19l2-9 5-8 7-6 10-4z" fill="#DAA142"/>
<path transform="translate(780,571)" d="m0 0h7l1 1v39l1 60 2 4 6 3 6 1 78 1 1 1v17h-86l-14-3-10-5-7-6-4-8-1-4v-100z" fill="#DAA244"/>
<path transform="translate(907,659)" d="m0 0h15l8 5 4 7 1 2v12l-4 8-8 6-11 2-8-2-5-4-5-8-1-9 3-10 4-5zm5 5-7 3-4 4-1 3v11l7 8 4 2h6l6-4 4-5 1-2v-10l-3-6-8-4z" fill="#E0B264"/>
<path transform="translate(913,666)" d="m0 0 9 2 2 4v6l-3 4v7l-4-1-5-5-1 5-1 2-4-2-1-16 2-4zm0 5-1 1v5h5v-6z" fill="#E1B367"/>
<path transform="translate(686,358)" d="m0 0 6 1 6 5 2 5-1 6-3 3-5-8-4-6-2-5z" fill="#257799"/>
</svg>
