<?xml version="1.0" encoding="UTF-8"?>
<svg xmlns="http://www.w3.org/2000/svg" xmlns:xlink="http://www.w3.org/1999/xlink" width="11024px" height="4000px" viewBox="0 0 11024 4000" version="1.1">
<g id="surface1">
<path style=" stroke:none;fill-rule:evenodd;fill:rgb(0.392157%,70.980392%,90.196078%);fill-opacity:1;" d="M 7159.8125 283.40625 L 7263 419.34375 C 7290.09375 455.25 7283.34375 506.65625 7247.46875 533.78125 L 7137.875 617.09375 C 7157.8125 670.125 7170.5625 726.75 7175.75 784.5625 L 7300.46875 801.6875 C 7345.09375 807.6875 7376.1875 849.15625 7370.1875 893.78125 L 7347.09375 1063.25 C 7341.09375 1107.90625 7299.6875 1139.375 7255.03125 1133 L 7118.75 1114.28125 C 7094.4375 1167.3125 7063.375 1215.9375 7026.71875 1259.40625 L 7103.21875 1359.875 C 7130.3125 1395.75 7123.15625 1447.1875 7087.28125 1474.28125 L 6951.40625 1577.5625 C 6915.53125 1604.65625 6864.15625 1597.5 6837.0625 1562 L 6753.78125 1452.375 C 6700.375 1472.3125 6644.1875 1485.0625 6586.03125 1490.25 L 6568.875 1615.03125 C 6562.90625 1659.6875 6521.46875 1690.78125 6476.84375 1684.8125 L 6307.5 1661.6875 C 6262.875 1655.6875 6231.78125 1614.21875 6237.78125 1569.5625 L 6256.5 1433.21875 C 6203.90625 1408.90625 6154.875 1377.8125 6111.46875 1341.53125 L 6011.03125 1417.6875 C 5975.1875 1444.78125 5923.78125 1438 5896.6875 1402.125 L 5793.46875 1266.1875 C 5766.375 1230.28125 5773.15625 1178.875 5809.03125 1151.75 L 5918.59375 1068.4375 C 5898.6875 1015 5885.9375 958.78125 5880.75 900.96875 L 5756.03125 883.84375 C 5711.40625 877.84375 5679.90625 836.375 5686.3125 791.71875 L 5709.40625 622.28125 C 5715.78125 577.625 5756.8125 546.53125 5801.46875 552.53125 L 5937.71875 571.25 C 5962.03125 518.625 5993.125 469.59375 6029.375 426.125 L 5953.28125 325.65625 C 5926.15625 290.1875 5932.96875 238.75 5968.78125 211.625 L 6104.6875 108.375 C 6140.53125 81.25 6191.9375 88.03125 6219.03125 123.9375 L 6302.3125 233.5625 C 6355.3125 213.625 6411.875 200.875 6469.6875 195.6875 L 6486.8125 70.90625 C 6492.78125 26.25 6534.21875 -5.25 6578.84375 0.71875 L 6748.1875 23.84375 C 6792.8125 29.84375 6824.28125 71.3125 6817.9375 115.9375 L 6799.1875 252.3125 C 6852.1875 276.625 6900.8125 307.71875 6944.625 344.40625 L 7045.03125 268.25 C 7080.90625 240.75 7132.3125 247.53125 7159.8125 283.40625 Z M 4246.25 2675.9375 L 4246.25 2018.09375 L 4584.9375 2018.09375 C 4647.90625 2018.09375 4695.71875 2023.28125 4728.8125 2034.4375 C 4761.875 2045.21875 4788.96875 2065.15625 4808.90625 2094.25 C 4829.21875 2123.75 4839.5625 2159.25 4839.5625 2201.09375 C 4839.5625 2237.375 4831.59375 2269.28125 4816.0625 2295.59375 C 4800.5 2322.3125 4779 2343.84375 4751.90625 2360.1875 C 4734.78125 2370.5625 4710.875 2379.3125 4680.5625 2386.09375 C 4704.90625 2394.46875 4722.40625 2402.03125 4733.15625 2410.40625 C 4740.75 2416 4751.5 2427.5625 4765.46875 2445.09375 C 4779.40625 2462.65625 4788.96875 2476.59375 4793.75 2486.15625 L 4892.5625 2676.34375 L 4663.0625 2676.34375 L 4554.65625 2475.78125 C 4540.71875 2449.90625 4528.75 2432.75 4518 2425.15625 C 4503.25 2415.21875 4486.53125 2410.03125 4468.1875 2410.03125 L 4450.25 2410.03125 L 4450.25 2676.34375 L 4246.25 2676.34375 Z M 4962.6875 3821.375 L 4583.34375 3821.375 L 4528.75 4000 L 4186.90625 4000 L 4594.5 2915.96875 L 4961.09375 2915.96875 L 5367.125 4000 L 5016.46875 4000 Z M 4891.75 3586.5625 L 4773.40625 3196.625 L 4654.6875 3586.5625 Z M 5446.03125 2915.96875 L 6003.0625 2915.96875 C 6124.625 2915.96875 6215.46875 2944.6875 6275.625 3002.46875 C 6335.78125 3060.28125 6366.0625 3142.8125 6366.0625 3249.25 C 6366.0625 3358.90625 6333 3444.625 6267.25 3506.4375 C 6201.5 3568.21875 6100.71875 3598.90625 5965.625 3598.90625 L 5781.9375 3598.90625 L 5781.9375 4000 L 5446.03125 4000 Z M 5781.9375 3379.25 L 5864.40625 3379.25 C 5929.375 3379.25 5975.1875 3368.09375 6001.46875 3345.34375 C 6027.78125 3323.03125 6040.9375 3293.90625 6040.9375 3259.21875 C 6040.9375 3225.34375 6029.375 3196.25 6006.65625 3172.71875 C 5983.96875 3149.1875 5940.90625 3137.21875 5877.96875 3137.21875 L 5781.9375 3137.21875 Z M 6501.53125 2915.96875 L 6837.4375 2915.96875 L 6837.4375 4000 L 6501.53125 4000 Z M 4450.25 2285.21875 L 4535.9375 2285.21875 C 4545.09375 2285.21875 4563.03125 2282.03125 4589.75 2276.0625 C 4603.28125 2273.25 4614.4375 2266.5 4622.8125 2255.3125 C 4631.5625 2244.15625 4635.5625 2231.40625 4635.5625 2217.0625 C 4635.5625 2195.90625 4628.78125 2179.1875 4615.25 2168.03125 C 4601.6875 2156.4375 4576.59375 2150.875 4539.53125 2150.875 L 4450.25 2150.875 Z M 4931.625 2018.09375 L 5475.5 2018.09375 L 5475.5 2158.4375 L 5135.625 2158.4375 L 5135.625 2263.3125 L 5450.8125 2263.3125 L 5450.8125 2397.25 L 5135.625 2397.25 L 5135.625 2526.84375 L 5485.46875 2526.84375 L 5485.46875 2675.5625 L 4931.625 2675.5625 Z M 5533.6875 2458.25 L 5726.53125 2446.3125 C 5730.53125 2477.78125 5739.28125 2501.3125 5752.03125 2517.6875 C 5773.15625 2543.96875 5803.03125 2557.53125 5841.71875 2557.53125 C 5870.375 2557.53125 5893.09375 2550.75 5908.625 2537.21875 C 5924.1875 2523.65625 5932.125 2507.6875 5932.125 2489.75 C 5932.125 2472.625 5924.5625 2457.46875 5909.84375 2443.90625 C 5895.09375 2430.34375 5860.4375 2418 5805.84375 2405.625 C 5716.96875 2385.6875 5653.625 2358.96875 5615.375 2325.90625 C 5577.125 2292.78125 5558 2250.5625 5558 2199.09375 C 5558 2165.21875 5567.96875 2133.3125 5587.46875 2103.4375 C 5607 2073.53125 5636.46875 2049.625 5675.9375 2032.46875 C 5715.375 2015.3125 5769.1875 2006.9375 5837.71875 2006.9375 C 5921.78125 2006.9375 5985.53125 2022.5 6029.78125 2053.96875 C 6073.59375 2085.5 6099.90625 2134.90625 6108.28125 2203.5 L 5917.40625 2215.0625 C 5912.21875 2185.15625 5901.46875 2163.21875 5885.53125 2150.09375 C 5869.1875 2136.5 5846.46875 2129.75 5818.1875 2129.75 C 5794.6875 2129.75 5776.75 2134.90625 5764.78125 2144.90625 C 5752.84375 2154.84375 5746.875 2167.21875 5746.875 2181.5625 C 5746.875 2191.9375 5752.03125 2201.09375 5761.625 2209.875 C 5771.15625 2218.25 5793.46875 2226.625 5829.34375 2234.21875 C 5918.21875 2253.3125 5981.96875 2272.875 6020.21875 2292.40625 C 6058.46875 2311.9375 6086.75 2336.25 6103.875 2365.375 C 6121.40625 2394.09375 6130.1875 2426.75 6130.1875 2462.65625 C 6130.1875 2504.90625 6118.625 2543.5625 6095.125 2579.0625 C 6072 2614.5625 6039.34375 2641.65625 5997.5 2660 C 5955.65625 2678.34375 5903.0625 2687.5 5839.3125 2687.5 C 5727.71875 2687.5 5650.03125 2665.96875 5607 2622.90625 C 5563.96875 2579.0625 5539.65625 2524.4375 5533.6875 2458.25 Z M 6159.65625 2018.09375 L 6777.6875 2018.09375 L 6777.6875 2180.78125 L 6570.46875 2180.78125 L 6570.46875 2675.9375 L 6367.28125 2675.9375 L 6367.28125 2180.78125 L 6159.65625 2180.78125 Z M 5475.90625 456.84375 C 5402.96875 451.25 5329.28125 452.0625 5256.375 459.21875 C 5032.03125 480.75 4814.0625 562.46875 4633.96875 702.4375 C 4425.5625 863.90625 4267.375 1105.5 4206.40625 1425.65625 L 4187.28125 1525.71875 L 4087.6875 1543.25 C 3990.0625 1560.40625 3902.78125 1583.9375 3826.28125 1613.84375 C 3752.1875 1642.53125 3686.03125 1678.03125 3628.25 1719.875 C 3582.03125 1753.375 3542.1875 1790.84375 3508.3125 1831.53125 C 3403.53125 1957.09375 3354.90625 2114.59375 3356.09375 2274.0625 C 3357.28125 2435.9375 3409.875 2599.375 3507.09375 2733.75 C 3543.375 2783.59375 3585.21875 2829.4375 3633.03125 2869.3125 C 3681.65625 2909.5625 3736.21875 2943.0625 3797.59375 2968.1875 C 3832.25 2982.53125 3869.3125 2994.5 3907.96875 3004.0625 L 3907.96875 3302.6875 C 3828.25 3288.3125 3754.9375 3266.8125 3686.4375 3238.5 C 3595.96875 3201.03125 3515.875 3152.78125 3445.34375 3093.78125 C 3378.40625 3037.96875 3319.84375 2974.5625 3270.03125 2905.59375 C 3137.34375 2722.21875 3065.625 2498.125 3064.03125 2274.84375 C 3062.4375 2049.21875 3132.5625 1824.75 3283.96875 1642.9375 C 3333 1583.9375 3390.78125 1529.71875 3456.90625 1481.875 C 3533.8125 1426.0625 3621.875 1379 3721.5 1340.34375 C 3790 1313.625 3863.34375 1291.28125 3940.65625 1273.34375 C 4028.3125 924.90625 4215.1875 656.5625 4455.4375 470.375 C 4680.1875 296.15625 4950.75 194.5 5229.25 167.78125 C 5375.5 153.8125 5523.71875 160.21875 5668.78125 187.3125 C 5665.5625 200.46875 5662.78125 213.625 5661.1875 227.1875 L 5660.8125 229.5625 C 5658 252.3125 5656.8125 275.03125 5658 298.15625 C 5627.3125 310.125 5598.625 326.46875 5572.71875 346.40625 L 5571.5625 347.1875 C 5532.875 376.28125 5500.21875 413.78125 5475.90625 456.84375 Z M 7584.15625 1222.3125 C 7606.5 1242.65625 7628 1263.78125 7649.125 1286.5 C 7691.75 1332.34375 7732 1384.1875 7769.84375 1442 C 7897.34375 1638.15625 7962.71875 1900.09375 7959.90625 2156.4375 C 7957.125 2408.03125 7889.40625 2658.40625 7750.71875 2842.59375 C 7660.25 2962.625 7544.34375 3060.6875 7405.25 3138.4375 C 7310 3191.84375 7202.84375 3236.09375 7086.09375 3272 L 7086.09375 2963 C 7149.03125 2939.5 7207.625 2913.15625 7261.4375 2883.25 C 7366.21875 2824.65625 7451.875 2753.28125 7516.03125 2667.5625 C 7615.65625 2534.8125 7664.65625 2347.03125 7666.65625 2154.4375 C 7669.03125 1952.3125 7619.625 1749.375 7523.59375 1601.875 C 7496.09375 1559.21875 7465.84375 1520.9375 7433.9375 1486.65625 C 7421.59375 1473.5 7409.25 1461.125 7396.5 1449.1875 C 7398.5 1429.25 7399.28125 1408.90625 7398.09375 1388.5625 C 7428.75 1376.625 7457.4375 1360.25 7483.34375 1340.34375 L 7484.5625 1339.53125 C 7525.59375 1308.03125 7559.84375 1268.15625 7584.15625 1222.3125 Z M 6573.6875 510.25 C 6757.34375 535.375 6885.65625 704.8125 6860.5625 888.625 C 6835.4375 1072.40625 6666.125 1201.1875 6482.4375 1176.0625 C 6298.71875 1150.9375 6170.03125 981.5 6195.53125 797.71875 C 6221.03125 613.90625 6389.96875 485.125 6573.6875 510.25 Z M 6573.6875 510.25 "/>
</g>
</svg>
